# https://github.com/mikedh/trimesh
v 0.00433570 0.00313904 0.03098300 0.08627451 0.01960784 0.83137255
v -0.00130046 0.00313904 0.02868880 0.08627451 0.01960784 0.83137255
v -0.00130046 0.00015283 0.03028708 0.08627451 0.01960784 0.83137255
v -0.00130046 -0.00011137 0.03038144 0.08627451 0.01960784 0.83137255
v -0.00130046 -0.00064458 0.03049939 0.08627451 0.01960784 0.83137255
v -0.00130046 -0.00064643 0.03049939 0.08627451 0.01960784 0.83137255
v 0.00433570 -0.00064643 0.02969141 0.08627451 0.01960784 0.83137255
v 0.00433570 0.00313904 -0.02926798 0.08627451 0.01960784 0.83137255
v -0.00130046 0.00313904 -0.02792920 0.08627451 0.01960784 0.83137255
v -0.00130046 -0.00064643 -0.02866641 0.08627451 0.01960784 0.83137255
v 0.00433570 -0.00064643 -0.02886104 0.08627451 0.01960784 0.83137255
v 0.00157941 -0.00064643 -0.02894950 0.08627451 0.01960784 0.83137255
v 0.00073972 -0.00064643 -0.02897310 0.08627451 0.01960784 0.83137255
v 0.00037560 -0.00064643 -0.02897310 0.08627451 0.01960784 0.83137255
v -0.00055677 -0.00064643 -0.02887283 0.08627451 0.01960784 0.83137255
v -0.00066766 -0.00054379 -0.02883745 0.08627451 0.01960784 0.83137255
v -0.00130046 0.00006501 -0.02860154 0.08627451 0.01960784 0.83137255
v -0.00130046 -0.00058789 -0.02866641 0.08627451 0.01960784 0.83137255
f 1 11 8
f 8 12 13
f 6 13 12
f 6 14 13
f 6 15 14
f 6 10 15
f 2 4 3
f 2 5 4
f 2 6 5
f 2 10 6
f 8 16 17
f 8 15 16
f 8 14 15
f 8 13 14
f 8 17 9
f 10 18 15
f 15 18 16
f 16 18 17
f 6 12 11
f 6 11 7
f 8 11 12
f 1 4 5
f 1 5 6
f 1 6 7
f 1 7 11
f 1 8 9
f 1 9 2
f 2 9 17
f 2 17 18
f 2 18 10
f 1 2 3
f 1 3 4

