# https://github.com/mikedh/trimesh
v -0.00130101 -0.00188895 0.03055494 0.77647059 0.86666667 0.97647059
v -0.00130101 -0.00132583 0.03054255 0.77647059 0.86666667 0.97647059
v -0.00188659 -0.00188639 0.03067265 0.77647059 0.86666667 0.97647059
v -0.00130101 -0.00278234 0.03033192 0.77647059 0.86666667 0.97647059
v -0.00188659 -0.00073237 0.03060451 0.77647059 0.86666667 0.97647059
v -0.00130101 -0.00073237 0.03050539 0.77647059 0.86666667 0.97647059
v -0.00303373 -0.00188639 0.03041865 0.77647059 0.86666667 0.97647059
v -0.00281107 -0.00275116 0.03031333 0.77647059 0.86666667 0.97647059
v -0.00188659 -0.00285754 0.03038148 0.77647059 0.86666667 0.97647059
v -0.00130101 -0.00302332 0.03013987 0.77647059 0.86666667 0.97647059
v -0.00293659 -0.00073237 0.03036909 0.77647059 0.86666667 0.97647059
v -0.00130101 -0.00073237 -0.02866483 0.77647059 0.86666667 0.97647059
v -0.00298844 -0.00073237 0.03034431 0.77647059 0.86666667 0.97647059
v -0.00687574 -0.00509721 0.02879551 0.77647059 0.86666667 0.97647059
v -0.00188659 -0.00348561 0.02986728 0.77647059 0.86666667 0.97647059
v -0.00130101 -0.00509721 0.02817599 0.77647059 0.86666667 0.97647059
v -0.00130101 -0.00509721 -0.02974899 0.77647059 0.86666667 0.97647059
v -0.00687574 -0.00509721 -0.03261737 0.77647059 0.86666667 0.97647059
v -0.00687574 -0.00073237 -0.03113671 0.77647059 0.86666667 0.97647059
v -0.00687574 -0.00073237 0.02828131 0.77647059 0.86666667 0.97647059
f 12 17 18
f 5 12 19
f 5 19 20
f 5 20 13
f 5 13 11
f 3 9 4
f 4 9 10
f 5 6 12
f 12 18 19
f 13 20 14
f 14 16 15
f 14 20 19
f 14 19 18
f 14 18 17
f 14 17 16
f 7 14 8
f 7 13 14
f 5 11 7
f 7 11 13
f 1 17 12
f 2 6 5
f 3 5 7
f 3 7 8
f 8 14 9
f 9 14 15
f 2 5 3
f 9 15 10
f 1 6 2
f 1 12 6
f 10 15 16
f 1 2 3
f 1 3 4
f 1 16 17
f 1 4 10
f 1 10 16
f 3 8 9

