# https://github.com/mikedh/trimesh
v -0.00130046 -0.00073237 0.03050471 0.79607843 0.45882353 0.78039216
v -0.00130046 -0.00064449 0.03049841 0.79607843 0.45882353 0.78039216
v -0.00188675 -0.00062859 0.03059925 0.79607843 0.45882353 0.78039216
v -0.00188675 -0.00073237 0.03060555 0.79607843 0.45882353 0.78039216
v -0.00130046 -0.00073237 -0.02866647 0.79607843 0.45882353 0.78039216
v -0.00130046 -0.00011135 0.03038495 0.79607843 0.45882353 0.78039216
v -0.00866696 0.00354281 0.02995636 0.79607843 0.45882353 0.78039216
v -0.00866696 -0.00073237 0.02906135 0.79607843 0.45882353 0.78039216
v -0.00866624 -0.00073237 -0.03279484 0.79607843 0.45882353 0.78039216
v -0.00866696 0.00354281 -0.03378438 0.79607843 0.45882353 0.78039216
v -0.00130046 -0.00058800 -0.02866647 0.79607843 0.45882353 0.78039216
v -0.00130046 0.00015271 0.03029041 0.79607843 0.45882353 0.78039216
v -0.00130046 0.00354281 0.02894160 0.79607843 0.45882353 0.78039216
v -0.00866696 -0.00073237 -0.03244188 0.79607843 0.45882353 0.78039216
v -0.00866696 -0.00073196 -0.03279484 0.79607843 0.45882353 0.78039216
v -0.00130046 0.00354281 -0.02820006 0.79607843 0.45882353 0.78039216
v -0.00130046 0.00006525 -0.02859714 0.79607843 0.45882353 0.78039216
f 4 7 8
f 5 9 10
f 1 5 11
f 9 14 15
f 1 14 9
f 1 8 14
f 1 4 8
f 1 3 4
f 1 9 5
f 1 11 17
f 6 12 7
f 1 12 6
f 1 13 12
f 1 16 13
f 1 17 16
f 5 10 11
f 10 17 11
f 10 16 17
f 9 15 10
f 1 2 3
f 3 7 4
f 7 12 13
f 7 13 16
f 7 16 10
f 7 10 15
f 7 15 14
f 7 14 8
f 1 6 2
f 2 6 3
f 3 6 7

