# https://github.com/mikedh/trimesh
v -0.00130101 -0.03802673 0.00314022 0.94117647 0.52156863 0.41176471
v -0.00188659 -0.03799127 0.00314022 0.94117647 0.52156863 0.41176471
v -0.00130101 -0.03802350 0.00188369 0.94117647 0.52156863 0.41176471
v -0.00130101 -0.03799127 0.00565329 0.94117647 0.52156863 0.41176471
v -0.00188659 -0.03795904 0.00565329 0.94117647 0.52156863 0.41176471
v -0.00314343 -0.03789457 0.00314022 0.94117647 0.52156863 0.41176471
v -0.00188659 -0.03798805 0.00188369 0.94117647 0.52156863 0.41176471
v -0.00130101 -0.03799449 0.00062716 0.94117647 0.52156863 0.41176471
v -0.00130101 -0.03798160 0.00624058 0.94117647 0.52156863 0.41176471
v -0.00130101 -0.03796870 0.00690982 0.94117647 0.52156863 0.41176471
v -0.00188659 -0.03793325 0.00690982 0.94117647 0.52156863 0.41176471
v -0.00314343 -0.03786234 0.00565329 0.94117647 0.52156863 0.41176471
v -0.00424418 -0.03777531 0.00439676 0.94117647 0.52156863 0.41176471
v -0.00429439 -0.03778175 0.00314022 0.94117647 0.52156863 0.41176471
v -0.00314343 -0.03788812 0.00188369 0.94117647 0.52156863 0.41176471
v -0.00188659 -0.03793002 -0.00062937 0.94117647 0.52156863 0.41176471
v -0.00130101 -0.03797838 -0.00004891 0.94117647 0.52156863 0.41176471
v -0.00130101 -0.03794292 0.00749712 0.94117647 0.52156863 0.41176471
v -0.00130101 -0.03790424 0.00816636 0.94117647 0.52156863 0.41176471
v -0.00188659 -0.03785911 0.00816636 0.94117647 0.52156863 0.41176471
v -0.00310522 -0.03776563 0.00806392 0.94117647 0.52156863 0.41176471
v -0.00314343 -0.03783010 0.00690982 0.94117647 0.52156863 0.41176471
v -0.00410611 -0.03776241 0.00565329 0.94117647 0.52156863 0.41176471
v -0.00487288 -0.03770117 0.00439676 0.94117647 0.52156863 0.41176471
v -0.00492308 -0.03770762 0.00314022 0.94117647 0.52156863 0.41176471
v -0.00490344 -0.03770439 0.00188369 0.94117647 0.52156863 0.41176471
v -0.00427474 -0.03777531 0.00188369 0.94117647 0.52156863 0.41176471
v -0.00415414 -0.03776563 0.00062716 0.94117647 0.52156863 0.41176471
v -0.00314343 -0.03785911 0.00062716 0.94117647 0.52156863 0.41176471
v -0.00314343 -0.03782366 -0.00062937 0.94117647 0.52156863 0.41176471
v -0.00188659 -0.03787201 -0.00188591 0.94117647 0.52156863 0.41176471
v -0.00130101 -0.03796226 -0.00062937 0.94117647 0.52156863 0.41176471
v -0.00130101 -0.03785589 0.00875365 0.94117647 0.52156863 0.41176471
v -0.00266045 -0.03773985 0.00895169 0.94117647 0.52156863 0.41176471
v -0.00379559 -0.03772373 0.00757906 0.94117647 0.52156863 0.41176471
v -0.00392056 -0.03773985 0.00690982 0.94117647 0.52156863 0.41176471
v -0.00473426 -0.03768183 0.00565329 0.94117647 0.52156863 0.41176471
v -0.00565765 -0.03758835 0.00439676 0.94117647 0.52156863 0.41176471
v -0.00565765 -0.03760447 0.00314022 0.94117647 0.52156863 0.41176471
v -0.00565765 -0.03759480 0.00188369 0.94117647 0.52156863 0.41176471
v -0.00478283 -0.03768505 0.00062716 0.94117647 0.52156863 0.41176471
v -0.00393475 -0.03774307 -0.00062937 0.94117647 0.52156863 0.41176471
v -0.00381141 -0.03772373 -0.00133276 0.94117647 0.52156863 0.41176471
v -0.00313197 -0.03776563 -0.00180396 0.94117647 0.52156863 0.41176471
v -0.00270520 -0.03773985 -0.00276002 0.94117647 0.52156863 0.41176471
v -0.00226751 -0.03770439 -0.00359998 0.94117647 0.52156863 0.41176471
v -0.00186367 -0.03776563 -0.00316293 0.94117647 0.52156863 0.41176471
v -0.00130101 -0.03779787 -0.00314927 0.94117647 0.52156863 0.41176471
v -0.00130101 -0.03790102 -0.00188591 0.94117647 0.52156863 0.41176471
v -0.00130101 -0.03793002 -0.00129861 0.94117647 0.52156863 0.41176471
v -0.00130101 -0.03779787 0.00940923 0.94117647 0.52156863 0.41176471
v -0.00314343 -0.03747554 0.01068625 0.94117647 0.52156863 0.41176471
v -0.00440027 -0.03730470 0.01068625 0.94117647 0.52156863 0.41176471
v -0.00349870 -0.03768183 0.00841903 0.94117647 0.52156863 0.41176471
v -0.00130101 -0.03765604 0.01072722 0.94117647 0.52156863 0.41176471
v -0.00188659 -0.03746909 0.01194278 0.94117647 0.52156863 0.41176471
v -0.00314343 -0.03733049 0.01194278 0.94117647 0.52156863 0.41176471
v -0.00440027 -0.03744330 0.00942972 0.94117647 0.52156863 0.41176471
v -0.00428893 -0.03759802 0.00806392 0.94117647 0.52156863 0.41176471
v -0.00565765 -0.03736272 0.00816636 0.94117647 0.52156863 0.41176471
v -0.00565765 -0.03747554 0.00690982 0.94117647 0.52156863 0.41176471
v -0.00454871 -0.03764637 0.00690982 0.94117647 0.52156863 0.41176471
v -0.00565765 -0.03754323 0.00565329 0.94117647 0.52156863 0.41176471
v -0.00687574 -0.03734338 0.00565329 0.94117647 0.52156863 0.41176471
v -0.00687574 -0.03738528 0.00443773 0.94117647 0.52156863 0.41176471
v -0.00687574 -0.03739495 0.00318120 0.94117647 0.52156863 0.41176471
v -0.00687574 -0.03739495 0.00314022 0.94117647 0.52156863 0.41176471
v -0.00687574 -0.03738528 0.00188369 0.94117647 0.52156863 0.41176471
v -0.00687574 -0.03734338 0.00062716 0.94117647 0.52156863 0.41176471
v -0.00565765 -0.03754967 0.00062716 0.94117647 0.52156863 0.41176471
v -0.00565765 -0.03748843 -0.00062937 0.94117647 0.52156863 0.41176471
v -0.00456290 -0.03765604 -0.00062937 0.94117647 0.52156863 0.41176471
v -0.00429821 -0.03763026 -0.00180396 0.94117647 0.52156863 0.41176471
v -0.00440027 -0.03752066 -0.00314244 0.94117647 0.52156863 0.41176471
v -0.00354345 -0.03769472 -0.00216589 0.94117647 0.52156863 0.41176471
v -0.00313197 -0.03766249 -0.00316293 0.94117647 0.52156863 0.41176471
v -0.00314343 -0.03754323 -0.00439897 0.94117647 0.52156863 0.41176471
v -0.00314343 -0.03740785 -0.00565550 0.94117647 0.52156863 0.41176471
v -0.00188659 -0.03751422 -0.00565550 0.94117647 0.52156863 0.41176471
v -0.00186367 -0.03765604 -0.00432385 0.94117647 0.52156863 0.41176471
v -0.00130101 -0.03767216 -0.00452189 0.94117647 0.52156863 0.41176471
v -0.00142926 -0.03773018 -0.00385948 0.94117647 0.52156863 0.41176471
v -0.00130101 -0.03773340 -0.00390046 0.94117647 0.52156863 0.41176471
v -0.00440027 -0.03715643 0.01194278 0.94117647 0.52156863 0.41176471
v -0.00687574 -0.03677607 0.01198376 0.94117647 0.52156863 0.41176471
v -0.00565765 -0.03711130 0.01068625 0.94117647 0.52156863 0.41176471
v -0.00130101 -0.03751422 0.01194278 0.94117647 0.52156863 0.41176471
v -0.00188659 -0.03728214 0.01319931 0.94117647 0.52156863 0.41176471
v -0.00314343 -0.03715320 0.01319931 0.94117647 0.52156863 0.41176471
v -0.00440027 -0.03698237 0.01319931 0.94117647 0.52156863 0.41176471
v -0.00687574 -0.03692112 0.01068625 0.94117647 0.52156863 0.41176471
v -0.00687574 -0.03726924 0.00695080 0.94117647 0.52156863 0.41176471
v -0.00687574 -0.03727247 0.00690982 0.94117647 0.52156863 0.41176471
v -0.00687574 -0.03728214 -0.00062937 0.94117647 0.52156863 0.41176471
v -0.00565765 -0.03742396 -0.00188591 0.94117647 0.52156863 0.41176471
v -0.00565765 -0.03733049 -0.00314244 0.94117647 0.52156863 0.41176471
v -0.00440027 -0.03739495 -0.00439897 0.94117647 0.52156863 0.41176471
v -0.00440027 -0.03724990 -0.00565550 0.94117647 0.52156863 0.41176471
v -0.00314343 -0.03724346 -0.00691204 0.94117647 0.52156863 0.41176471
v -0.00188659 -0.03735950 -0.00691204 0.94117647 0.52156863 0.41176471
v -0.00130101 -0.03755290 -0.00565550 0.94117647 0.52156863 0.41176471
v -0.00565765 -0.03679219 0.01319931 0.94117647 0.52156863 0.41176471
v -0.00687574 -0.03658590 0.01334272 0.94117647 0.52156863 0.41176471
v -0.00130101 -0.03732082 0.01319931 0.94117647 0.52156863 0.41176471
v -0.00188659 -0.03705973 0.01445585 0.94117647 0.52156863 0.41176471
v -0.00314343 -0.03673095 0.01571238 0.94117647 0.52156863 0.41176471
v -0.00314343 -0.03695013 0.01445585 0.94117647 0.52156863 0.41176471
v -0.00440027 -0.03679864 0.01445585 0.94117647 0.52156863 0.41176471
v -0.00572914 -0.03658912 0.01452414 0.94117647 0.52156863 0.41176471
v -0.00687574 -0.03720156 -0.00184493 0.94117647 0.52156863 0.41176471
v -0.00687574 -0.03719833 -0.00188591 0.94117647 0.52156863 0.41176471
v -0.00687574 -0.03708874 -0.00314244 0.94117647 0.52156863 0.41176471
v -0.00687574 -0.03696303 -0.00439897 0.94117647 0.52156863 0.41176471
v -0.00565765 -0.03720156 -0.00439897 0.94117647 0.52156863 0.41176471
v -0.00565765 -0.03704361 -0.00565550 0.94117647 0.52156863 0.41176471
v -0.00440027 -0.03706940 -0.00691204 0.94117647 0.52156863 0.41176471
v -0.00314343 -0.03705328 -0.00816857 0.94117647 0.52156863 0.41176471
v -0.00188659 -0.03718222 -0.00816857 0.94117647 0.52156863 0.41176471
v -0.00130101 -0.03739818 -0.00691204 0.94117647 0.52156863 0.41176471
v -0.00130101 -0.03730470 -0.00758128 0.94117647 0.52156863 0.41176471
v -0.00619575 -0.03644730 0.01499534 0.94117647 0.52156863 0.41176471
v -0.00657886 -0.03651176 0.01415537 0.94117647 0.52156863 0.41176471
v -0.00687574 -0.03640862 0.01444219 0.94117647 0.52156863 0.41176471
v -0.00130101 -0.03709518 0.01445585 0.94117647 0.52156863 0.41176471
v -0.00188659 -0.03682120 0.01571238 0.94117647 0.52156863 0.41176471
v -0.00314343 -0.03653432 0.01668210 0.94117647 0.52156863 0.41176471
v -0.00399314 -0.03649242 0.01647723 0.94117647 0.52156863 0.41176471
v -0.00440736 -0.03657945 0.01575335 0.94117647 0.52156863 0.41176471
v -0.00535749 -0.03651176 0.01535727 0.94117647 0.52156863 0.41176471
v -0.00687574 -0.03679864 -0.00565550 0.94117647 0.52156863 0.41176471
v -0.00625578 -0.03645697 -0.00874903 0.94117647 0.52156863 0.41176471
v -0.00440027 -0.03687278 -0.00816857 0.94117647 0.52156863 0.41176471
v -0.00314343 -0.03685021 -0.00942510 0.94117647 0.52156863 0.41176471
v -0.00130101 -0.03721767 -0.00816857 0.94117647 0.52156863 0.41176471
v -0.00188659 -0.03697914 -0.00942510 0.94117647 0.52156863 0.41176471
v -0.00130101 -0.03711130 -0.00884464 0.94117647 0.52156863 0.41176471
v -0.00687574 -0.03638605 0.01457877 0.94117647 0.52156863 0.41176471
v -0.00572914 -0.03637960 0.01575335 0.94117647 0.52156863 0.41176471
v -0.00687574 -0.03596380 0.01700989 0.94117647 0.52156863 0.41176471
v -0.00687574 -0.03618298 0.01575335 0.94117647 0.52156863 0.41176471
v -0.00130101 -0.03684699 0.01571238 0.94117647 0.52156863 0.41176471
v -0.00176598 -0.03655689 0.01703720 0.94117647 0.52156863 0.41176471
v -0.00210434 -0.03644085 0.01750157 0.94117647 0.52156863 0.41176471
v -0.00314343 -0.03639572 0.01731036 0.94117647 0.52156863 0.41176471
v -0.00565765 -0.03615720 0.01696891 0.94117647 0.52156863 0.41176471
v -0.00483085 -0.03643440 0.01619724 0.94117647 0.52156863 0.41176471
v -0.00565765 -0.03587999 0.01822545 0.94117647 0.52156863 0.41176471
v -0.00687574 -0.03638927 -0.00831198 0.94117647 0.52156863 0.41176471
v -0.00687574 -0.03621521 -0.00938413 0.94117647 0.52156863 0.41176471
v -0.00687574 -0.03597991 -0.01064749 0.94117647 0.52156863 0.41176471
v -0.00565765 -0.03621199 -0.01068163 0.94117647 0.52156863 0.41176471
v -0.00576516 -0.03640539 -0.00953437 0.94117647 0.52156863 0.41176471
v -0.00541752 -0.03653432 -0.00918609 0.94117647 0.52156863 0.41176471
v -0.00450450 -0.03662780 -0.00953437 0.94117647 0.52156863 0.41176471
v -0.00415414 -0.03652465 -0.01038116 0.94117647 0.52156863 0.41176471
v -0.00362368 -0.03644407 -0.01121430 0.94117647 0.52156863 0.41176471
v -0.00317999 -0.03659235 -0.01074992 0.94117647 0.52156863 0.41176471
v -0.00188659 -0.03674707 -0.01068163 0.94117647 0.52156863 0.41176471
v -0.00130101 -0.03701460 -0.00942510 0.94117647 0.52156863 0.41176471
v -0.00687574 -0.03571238 0.01822545 0.94117647 0.52156863 0.41176471
v -0.00130101 -0.03646986 0.01756303 0.94117647 0.52156863 0.41176471
v -0.00130101 -0.03645374 0.01763815 0.94117647 0.52156863 0.41176471
v -0.00176598 -0.03631836 0.01810252 0.94117647 0.52156863 0.41176471
v -0.00314343 -0.03617331 0.01822545 0.94117647 0.52156863 0.41176471
v -0.00565765 -0.03554799 0.01948881 0.94117647 0.52156863 0.41176471
v -0.00687574 -0.03536103 0.01959124 0.94117647 0.52156863 0.41176471
v -0.00687574 -0.03570271 0.01826642 0.94117647 0.52156863 0.41176471
v -0.00687574 -0.03597347 -0.01068163 0.94117647 0.52156863 0.41176471
v -0.00565765 -0.03595413 -0.01193817 0.94117647 0.52156863 0.41176471
v -0.00450450 -0.03639895 -0.01074992 0.94117647 0.52156863 0.41176471
v -0.00499239 -0.03645697 -0.01002605 0.94117647 0.52156863 0.41176471
v -0.00440027 -0.03617009 -0.01193817 0.94117647 0.52156863 0.41176471
v -0.00317999 -0.03634737 -0.01190402 0.94117647 0.52156863 0.41176471
v -0.00278542 -0.03649565 -0.01146014 0.94117647 0.52156863 0.41176471
v -0.00188659 -0.03654399 -0.01165818 0.94117647 0.52156863 0.41176471
v -0.00130101 -0.03656334 -0.01174696 0.94117647 0.52156863 0.41176471
v -0.00130101 -0.03667615 -0.01120064 0.94117647 0.52156863 0.41176471
v -0.00130101 -0.03678252 -0.01068163 0.94117647 0.52156863 0.41176471
v -0.00130101 -0.03619265 0.01866933 0.94117647 0.52156863 0.41176471
v -0.00188659 -0.03596057 0.01948881 0.94117647 0.52156863 0.41176471
v -0.00314343 -0.03584131 0.01948881 0.94117647 0.52156863 0.41176471
v -0.00386326 -0.03521921 0.02141458 0.94117647 0.52156863 0.41176471
v -0.00648554 -0.03523855 0.02021268 0.94117647 0.52156863 0.41176471
v -0.00687574 -0.03502903 0.02064290 0.94117647 0.52156863 0.41176471
v -0.00687574 -0.03571882 -0.01190402 0.94117647 0.52156863 0.41176471
v -0.00565765 -0.03564791 -0.01320153 0.94117647 0.52156863 0.41176471
v -0.00440027 -0.03586710 -0.01320153 0.94117647 0.52156863 0.41176471
v -0.00188659 -0.03639572 -0.01228645 0.94117647 0.52156863 0.41176471
v -0.00314343 -0.03603471 -0.01320153 0.94117647 0.52156863 0.41176471
v -0.00130101 -0.03641506 -0.01237522 0.94117647 0.52156863 0.41176471
v -0.00130101 -0.03598314 0.01948881 0.94117647 0.52156863 0.41176471
v -0.00130101 -0.03581552 0.02006927 0.94117647 0.52156863 0.41176471
v -0.00188659 -0.03558344 0.02074534 0.94117647 0.52156863 0.41176471
v -0.00314343 -0.03524822 0.02149653 0.94117647 0.52156863 0.41176471
v -0.00314343 -0.03502581 0.02212479 0.94117647 0.52156863 0.41176471
v -0.00440027 -0.03446172 0.02325841 0.94117647 0.52156863 0.41176471
v -0.00432932 -0.03497424 0.02189944 0.94117647 0.52156863 0.41176471
v -0.00565765 -0.03474216 0.02200187 0.94117647 0.52156863 0.41176471
v -0.00687574 -0.03454231 0.02200187 0.94117647 0.52156863 0.41176471
v -0.00687574 -0.03539004 -0.01323567 0.94117647 0.52156863 0.41176471
v -0.00651774 -0.03525789 -0.01400052 0.94117647 0.52156863 0.41176471
v -0.00555833 -0.03532236 -0.01443075 0.94117647 0.52156863 0.41176471
v -0.00440027 -0.03552542 -0.01445806 0.94117647 0.52156863 0.41176471
v -0.00314343 -0.03569948 -0.01445806 0.94117647 0.52156863 0.41176471
v -0.00130101 -0.03629258 -0.01286691 0.94117647 0.52156863 0.41176471
v -0.00188659 -0.03616364 -0.01320153 0.94117647 0.52156863 0.41176471
v -0.00130101 -0.03561245 0.02074534 0.94117647 0.52156863 0.41176471
v -0.00130101 -0.03530624 0.02166042 0.94117647 0.52156863 0.41176471
v -0.00188659 -0.03529012 0.02161262 0.94117647 0.52156863 0.41176471
v -0.00188659 -0.03506771 0.02224088 0.94117647 0.52156863 0.41176471
v -0.00314343 -0.03459388 0.02325841 0.94117647 0.52156863 0.41176471
v -0.00440027 -0.03408137 0.02416666 0.94117647 0.52156863 0.41176471
v -0.00531875 -0.03400401 0.02400277 0.94117647 0.52156863 0.41176471
v -0.00570568 -0.03421031 0.02334718 0.94117647 0.52156863 0.41176471
v -0.00687574 -0.03452619 0.02204285 0.94117647 0.52156863 0.41176471
v -0.00687574 -0.03536426 -0.01333128 0.94117647 0.52156863 0.41176471
v -0.00687574 -0.03521598 -0.01386394 0.94117647 0.52156863 0.41176471
v -0.00687574 -0.03504515 -0.01443075 0.94117647 0.52156863 0.41176471
v -0.00687574 -0.03466480 -0.01568045 0.94117647 0.52156863 0.41176471
v -0.00555833 -0.03496779 -0.01560533 0.94117647 0.52156863 0.41176471
v -0.00507262 -0.03521276 -0.01511364 0.94117647 0.52156863 0.41176471
v -0.00440027 -0.03527400 -0.01529120 0.94117647 0.52156863 0.41176471
v -0.00302882 -0.03533525 -0.01573508 0.94117647 0.52156863 0.41176471
v -0.00188659 -0.03546418 -0.01571459 0.94117647 0.52156863 0.41176471
v -0.00188659 -0.03582842 -0.01445806 0.94117647 0.52156863 0.41176471
v -0.00130101 -0.03620555 -0.01320153 0.94117647 0.52156863 0.41176471
v -0.00130101 -0.03602826 -0.01387077 0.94117647 0.52156863 0.41176471
v -0.00130101 -0.03508383 0.02228869 0.94117647 0.52156863 0.41176471
v -0.00188659 -0.03467447 0.02325841 0.94117647 0.52156863 0.41176471
v -0.00314343 -0.03414262 0.02429641 0.94117647 0.52156863 0.41176471
v -0.00314343 -0.03383962 0.02492468 0.94117647 0.52156863 0.41176471
v -0.00440027 -0.03377516 0.02479493 0.94117647 0.52156863 0.41176471
v -0.00687574 -0.03385574 0.02367497 0.94117647 0.52156863 0.41176471
v -0.00687574 -0.03411038 0.02308085 0.94117647 0.52156863 0.41176471
v -0.00570568 -0.03371069 0.02446030 0.94117647 0.52156863 0.41176471
v -0.00687574 -0.03346894 0.02451494 0.94117647 0.52156863 0.41176471
v -0.00687574 -0.03425543 -0.01694381 0.94117647 0.52156863 0.41176471
v -0.00565765 -0.03450685 -0.01697113 0.94117647 0.52156863 0.41176471
v -0.00440027 -0.03507093 -0.01591946 0.94117647 0.52156863 0.41176471
v -0.00337155 -0.03514507 -0.01617214 0.94117647 0.52156863 0.41176471
v -0.00253329 -0.03520631 -0.01634969 0.94117647 0.52156863 0.41176471
v -0.00188659 -0.03523855 -0.01644530 0.94117647 0.52156863 0.41176471
v -0.00130101 -0.03538360 -0.01610385 0.94117647 0.52156863 0.41176471
v -0.00130101 -0.03550286 -0.01571459 0.94117647 0.52156863 0.41176471
v -0.00130101 -0.03587032 -0.01445806 0.94117647 0.52156863 0.41176471
v -0.00130101 -0.03470348 0.02325841 0.94117647 0.52156863 0.41176471
v -0.00130101 -0.03446172 0.02380472 0.94117647 0.52156863 0.41176471
v -0.00188659 -0.03418130 0.02436470 0.94117647 0.52156863 0.41176471
v -0.00188659 -0.03387186 0.02499296 0.94117647 0.52156863 0.41176471
v -0.00314343 -0.03337869 0.02577147 0.94117647 0.52156863 0.41176471
v -0.00440027 -0.03324653 0.02577147 0.94117647 0.52156863 0.41176471
v -0.00687574 -0.03293065 0.02558026 0.94117647 0.52156863 0.41176471
v -0.00565383 -0.03299511 0.02586025 0.94117647 0.52156863 0.41176471
v -0.00687574 -0.03421998 -0.01705307 0.94117647 0.52156863 0.41176471
v -0.00687574 -0.03414262 -0.01728526 0.94117647 0.52156863 0.41176471
v -0.00661979 -0.03402335 -0.01779743 0.94117647 0.52156863 0.41176471
v -0.00565765 -0.03412005 -0.01804328 0.94117647 0.52156863 0.41176471
v -0.00440027 -0.03472926 -0.01697113 0.94117647 0.52156863 0.41176471
v -0.00302882 -0.03497101 -0.01684820 0.94117647 0.52156863 0.41176471
v -0.00188659 -0.03502903 -0.01707356 0.94117647 0.52156863 0.41176471
v -0.00130101 -0.03505160 -0.01713502 0.94117647 0.52156863 0.41176471
v -0.00130101 -0.03514829 -0.01684138 0.94117647 0.52156863 0.41176471
v -0.00130101 -0.03525789 -0.01650676 0.94117647 0.52156863 0.41176471
v -0.00130101 -0.03419741 0.02439202 0.94117647 0.52156863 0.41176471
v -0.00130101 -0.03388797 0.02502028 0.94117647 0.52156863 0.41176471
v -0.00188659 -0.03344638 0.02577147 0.94117647 0.52156863 0.41176471
v -0.00314343 -0.03285973 0.02666607 0.94117647 0.52156863 0.41176471
v -0.00440027 -0.03279204 0.02656363 0.94117647 0.52156863 0.41176471
v -0.00523252 -0.03272757 0.02646120 0.94117647 0.52156863 0.41176471
v -0.00687574 -0.03257286 0.02622901 0.94117647 0.52156863 0.41176471
v -0.00687574 -0.03399434 -0.01772231 0.94117647 0.52156863 0.41176471
v -0.00687574 -0.03385574 -0.01809108 0.94117647 0.52156863 0.41176471
v -0.00687574 -0.03330777 -0.01948419 0.94117647 0.52156863 0.41176471
v -0.00565765 -0.03387508 -0.01867154 0.94117647 0.52156863 0.41176471
v -0.00497384 -0.03393955 -0.01883544 0.94117647 0.52156863 0.41176471
v -0.00449304 -0.03421031 -0.01834375 0.94117647 0.52156863 0.41176471
v -0.00314343 -0.03446495 -0.01822766 0.94117647 0.52156863 0.41176471
v -0.00188659 -0.03461967 -0.01822766 0.94117647 0.52156863 0.41176471
v -0.00130101 -0.03465835 -0.01822766 0.94117647 0.52156863 0.41176471
v -0.00130101 -0.03347216 0.02577147 0.94117647 0.52156863 0.41176471
v -0.00188659 -0.03289196 0.02671387 0.94117647 0.52156863 0.41176471
v -0.00314343 -0.03244070 0.02729433 0.94117647 0.52156863 0.41176471
v -0.00440027 -0.03237946 0.02719190 0.94117647 0.52156863 0.41176471
v -0.00687574 -0.03156395 0.02784065 0.94117647 0.52156863 0.41176471
v -0.00687574 -0.03208936 0.02702800 0.94117647 0.52156863 0.41176471
v -0.00565765 -0.03354953 -0.01948419 0.94117647 0.52156863 0.41176471
v -0.00687574 -0.03286940 -0.02054951 0.94117647 0.52156863 0.41176471
v -0.00623559 -0.03268245 -0.02134850 0.94117647 0.52156863 0.41176471
v -0.00449304 -0.03377516 -0.01945005 0.94117647 0.52156863 0.41176471
v -0.00314343 -0.03384607 -0.01984613 0.94117647 0.52156863 0.41176471
v -0.00188659 -0.03416518 -0.01941590 0.94117647 0.52156863 0.41176471
v -0.00130101 -0.03394599 -0.02011246 0.94117647 0.52156863 0.41176471
v -0.00130101 -0.03290486 0.02673436 0.94117647 0.52156863 0.41176471
v -0.00188659 -0.03247293 0.02734214 0.94117647 0.52156863 0.41176471
v -0.00188659 -0.03184438 0.02818210 0.94117647 0.52156863 0.41176471
v -0.00314343 -0.03181215 0.02812747 0.94117647 0.52156863 0.41176471
v -0.00440027 -0.03174768 0.02805918 0.94117647 0.52156863 0.41176471
v -0.00565765 -0.03166065 0.02796358 0.94117647 0.52156863 0.41176471
v -0.00687574 -0.03109335 0.02846892 0.94117647 0.52156863 0.41176471
v -0.00687574 -0.03261476 -0.02115729 0.94117647 0.52156863 0.41176471
v -0.00440027 -0.03211192 -0.02326062 0.94117647 0.52156863 0.41176471
v -0.00440027 -0.03255029 -0.02232505 0.94117647 0.52156863 0.41176471
v -0.00440027 -0.03283717 -0.02169678 0.94117647 0.52156863 0.41176471
v -0.00440027 -0.03325943 -0.02074072 0.94117647 0.52156863 0.41176471
v -0.00687574 -0.03260509 -0.02117778 0.94117647 0.52156863 0.41176471
v -0.00632836 -0.03144147 -0.02390937 0.94117647 0.52156863 0.41176471
v -0.00188659 -0.03392021 -0.02004417 0.94117647 0.52156863 0.41176471
v -0.00314343 -0.03345927 -0.02074072 0.94117647 0.52156863 0.41176471
v -0.00188659 -0.03273725 -0.02272796 0.94117647 0.52156863 0.41176471
v -0.00130101 -0.03275981 -0.02277576 0.94117647 0.52156863 0.41176471
v -0.00130101 -0.03248583 0.02736262 0.94117647 0.52156863 0.41176471
v -0.00130101 -0.03219250 0.02775188 0.94117647 0.52156863 0.41176471
v -0.00130101 -0.03185728 0.02819576 0.94117647 0.52156863 0.41176471
v -0.00130101 -0.03162520 0.02848940 0.94117647 0.52156863 0.41176471
v -0.00188659 -0.03133832 0.02881037 0.94117647 0.52156863 0.41176471
v -0.00440027 -0.03124162 0.02868744 0.94117647 0.52156863 0.41176471
v -0.00314343 -0.03128997 0.02875574 0.94117647 0.52156863 0.41176471
v -0.00565765 -0.03117393 0.02859184 0.94117647 0.52156863 0.41176471
v -0.00687574 -0.03044546 0.02926108 0.94117647 0.52156863 0.41176471
v -0.00305502 -0.03238590 -0.02314453 0.94117647 0.52156863 0.41176471
v -0.00341466 -0.03263410 -0.02250260 0.94117647 0.52156863 0.41176471
v -0.00565765 -0.03150594 -0.02401863 0.94117647 0.52156863 0.41176471
v -0.00440027 -0.03162197 -0.02422350 0.94117647 0.52156863 0.41176471
v -0.00687574 -0.03137378 -0.02376597 0.94117647 0.52156863 0.41176471
v -0.00687574 -0.03100632 -0.02445569 0.94117647 0.52156863 0.41176471
v -0.00681462 -0.03105145 -0.02440106 0.94117647 0.52156863 0.41176471
v -0.00687574 -0.03040033 -0.02551418 0.94117647 0.52156863 0.41176471
v -0.00565765 -0.03116104 -0.02464690 0.94117647 0.52156863 0.41176471
v -0.00257640 -0.03269857 -0.02264601 0.94117647 0.52156863 0.41176471
v -0.00130101 -0.03259864 -0.02311721 0.94117647 0.52156863 0.41176471
v -0.00188659 -0.03243103 -0.02335623 0.94117647 0.52156863 0.41176471
v -0.00130101 -0.03135444 0.02882403 0.94117647 0.52156863 0.41176471
v -0.00130101 -0.03106434 0.02913816 0.94117647 0.52156863 0.41176471
v -0.00188659 -0.03070977 0.02947278 0.94117647 0.52156863 0.41176471
v -0.00440027 -0.03001998 0.03001910 0.94117647 0.52156863 0.41176471
v -0.00440027 -0.03061307 0.02939083 0.94117647 0.52156863 0.41176471
v -0.00565765 -0.03054538 0.02932254 0.94117647 0.52156863 0.41176471
v -0.00687574 -0.02987815 0.02986886 0.94117647 0.52156863 0.41176471
v -0.00314343 -0.03172190 -0.02440106 0.94117647 0.52156863 0.41176471
v -0.00440027 -0.03126741 -0.02485177 0.94117647 0.52156863 0.41176471
v -0.00687574 -0.03001676 -0.02612196 0.94117647 0.52156863 0.41176471
v -0.00664380 -0.02901753 -0.02779506 0.94117647 0.52156863 0.41176471
v -0.00601511 -0.03011346 -0.02629952 0.94117647 0.52156863 0.41176471
v -0.00517685 -0.03021016 -0.02645658 0.94117647 0.52156863 0.41176471
v -0.00562109 -0.03048092 -0.02583515 0.94117647 0.52156863 0.41176471
v -0.00130101 -0.03245359 -0.02340403 0.94117647 0.52156863 0.41176471
v -0.00194116 -0.03175091 -0.02462642 0.94117647 0.52156863 0.41176471
v -0.00130101 -0.03184116 -0.02457178 0.94117647 0.52156863 0.41176471
v -0.00130101 -0.03011668 0.03012153 0.94117647 0.52156863 0.41176471
v -0.00314343 -0.03006189 0.03006007 0.94117647 0.52156863 0.41176471
v -0.00565765 -0.02995551 0.02995081 0.94117647 0.52156863 0.41176471
v -0.00314343 -0.02943334 0.03064736 0.94117647 0.52156863 0.41176471
v -0.00440027 -0.02938821 0.03060639 0.94117647 0.52156863 0.41176471
v -0.00565765 -0.02932697 0.03054493 0.94117647 0.52156863 0.41176471
v -0.00687574 -0.02985881 0.02988935 0.94117647 0.52156863 0.41176471
v -0.00314343 -0.03136411 -0.02502933 0.94117647 0.52156863 0.41176471
v -0.00239685 -0.03141890 -0.02511810 0.94117647 0.52156863 0.41176471
v -0.00440027 -0.03073878 -0.02577369 0.94117647 0.52156863 0.41176471
v -0.00687574 -0.02944301 -0.02703022 0.94117647 0.52156863 0.41176471
v -0.00687574 -0.02898529 -0.02774726 0.94117647 0.52156863 0.41176471
v -0.00687574 -0.02872743 -0.02808188 0.94117647 0.52156863 0.41176471
v -0.00687574 -0.02788614 -0.02913354 0.94117647 0.52156863 0.41176471
v -0.00565765 -0.02864362 -0.02856674 0.94117647 0.52156863 0.41176471
v -0.00565765 -0.02912067 -0.02793847 0.94117647 0.52156863 0.41176471
v -0.00687574 -0.02922704 -0.02737167 0.94117647 0.52156863 0.41176471
v -0.00440027 -0.02985559 -0.02718728 0.94117647 0.52156863 0.41176471
v -0.00440027 -0.03027785 -0.02655902 0.94117647 0.52156863 0.41176471
v -0.00155860 -0.03146725 -0.02521371 0.94117647 0.52156863 0.41176471
v -0.00130101 -0.03148015 -0.02523419 0.94117647 0.52156863 0.41176471
v -0.00130101 -0.02948813 0.03069517 0.94117647 0.52156863 0.41176471
v -0.00687574 -0.02924960 0.03047664 0.94117647 0.52156863 0.41176471
v -0.00188659 -0.02876611 0.03130978 0.94117647 0.52156863 0.41176471
v -0.00314343 -0.02872420 0.03127563 0.94117647 0.52156863 0.41176471
v -0.00440027 -0.02867263 0.03123465 0.94117647 0.52156863 0.41176471
v -0.00565765 -0.02860172 0.03117319 0.94117647 0.52156863 0.41176471
v -0.00687574 -0.02922704 0.03049712 0.94117647 0.52156863 0.41176471
v -0.00314343 -0.03093541 -0.02577369 0.94117647 0.52156863 0.41176471
v -0.00194116 -0.03115459 -0.02568491 0.94117647 0.52156863 0.41176471
v -0.00687574 -0.02732205 -0.02978912 0.94117647 0.52156863 0.41176471
v -0.00565765 -0.02801507 -0.02933158 0.94117647 0.52156863 0.41176471
v -0.00387745 -0.02768307 -0.03019886 0.94117647 0.52156863 0.41176471
v -0.00433805 -0.02806020 -0.02961840 0.94117647 0.52156863 0.41176471
v -0.00440027 -0.02877255 -0.02871697 0.94117647 0.52156863 0.41176471
v -0.00440027 -0.02922704 -0.02808871 0.94117647 0.52156863 0.41176471
v -0.00342121 -0.02885958 -0.02883307 0.94117647 0.52156863 0.41176471
v -0.00314343 -0.02994907 -0.02733069 0.94117647 0.52156863 0.41176471
v -0.00314343 -0.03037455 -0.02670243 0.94117647 0.52156863 0.41176471
v -0.00305884 -0.02924638 -0.02836870 0.94117647 0.52156863 0.41176471
v -0.00130101 -0.03115781 -0.02580100 0.94117647 0.52156863 0.41176471
v -0.00130101 -0.02878222 0.03132343 0.94117647 0.52156863 0.41176471
v -0.00188659 -0.02813756 0.03177415 0.94117647 0.52156863 0.41176471
v -0.00314343 -0.02809565 0.03174683 0.94117647 0.52156863 0.41176471
v -0.00440027 -0.02804408 0.03170585 0.94117647 0.52156863 0.41176471
v -0.00565765 -0.02797317 0.03165805 0.94117647 0.52156863 0.41176471
v -0.00687574 -0.02788614 0.03159659 0.94117647 0.52156863 0.41176471
v -0.00687574 -0.02851469 0.03110491 0.94117647 0.52156863 0.41176471
v -0.00188659 -0.03046802 -0.02682535 0.94117647 0.52156863 0.41176471
v -0.00130101 -0.03079036 -0.02640878 0.94117647 0.52156863 0.41176471
v -0.00687574 -0.02669351 -0.03047885 0.94117647 0.52156863 0.41176471
v -0.00403953 -0.02648077 -0.03151003 0.94117647 0.52156863 0.41176471
v -0.00565765 -0.02747355 -0.02995985 0.94117647 0.52156863 0.41176471
v -0.00471516 -0.02758637 -0.03008960 0.94117647 0.52156863 0.41176471
v -0.00314343 -0.02719634 -0.03090908 0.94117647 0.52156863 0.41176471
v -0.00314343 -0.02775076 -0.03028081 0.94117647 0.52156863 0.41176471
v -0.00305884 -0.02845344 -0.02942719 0.94117647 0.52156863 0.41176471
v -0.00258295 -0.02892727 -0.02892867 0.94117647 0.52156863 0.41176471
v -0.00188659 -0.03003610 -0.02746044 0.94117647 0.52156863 0.41176471
v -0.00130101 -0.02815367 0.03178098 0.94117647 0.52156863 0.41176471
v -0.00130101 -0.02769919 0.03207462 0.94117647 0.52156863 0.41176471
v -0.00188659 -0.02713833 0.03240241 0.94117647 0.52156863 0.41176471
v -0.00314343 -0.02706741 0.03237510 0.94117647 0.52156863 0.41176471
v -0.00565765 -0.02703196 0.03221120 0.94117647 0.52156863 0.41176471
v -0.00687574 -0.02703196 0.03210194 0.94117647 0.52156863 0.41176471
v -0.00130101 -0.03049703 -0.02687998 0.94117647 0.52156863 0.41176471
v -0.00687574 -0.02606173 -0.03110712 0.94117647 0.52156863 0.41176471
v -0.00565765 -0.02561369 -0.03187879 0.94117647 0.52156863 0.41176471
v -0.00473153 -0.02507217 -0.03262998 0.94117647 0.52156863 0.41176471
v -0.00389382 -0.02517532 -0.03271193 0.94117647 0.52156863 0.41176471
v -0.00314343 -0.02588767 -0.03222707 0.94117647 0.52156863 0.41176471
v -0.00314343 -0.02656780 -0.03159881 0.94117647 0.52156863 0.41176471
v -0.00188659 -0.02785713 -0.03041056 0.94117647 0.52156863 0.41176471
v -0.00188659 -0.02729627 -0.03103883 0.94117647 0.52156863 0.41176471
v -0.00188659 -0.02848568 -0.02961157 0.94117647 0.52156863 0.41176471
v -0.00130101 -0.02852758 -0.02965255 0.94117647 0.52156863 0.41176471
v -0.00188659 -0.02896595 -0.02898330 0.94117647 0.52156863 0.41176471
v -0.00130101 -0.02925927 -0.02866234 0.94117647 0.52156863 0.41176471
v -0.00130101 -0.02975889 -0.02795213 0.94117647 0.52156863 0.41176471
v -0.00130101 -0.03006833 -0.02750824 0.94117647 0.52156863 0.41176471
v -0.00130101 -0.02716411 0.03240924 0.94117647 0.52156863 0.41176471
v -0.00130101 -0.02687079 0.03257314 0.94117647 0.52156863 0.41176471
v -0.00130101 -0.02653556 0.03275752 0.94117647 0.52156863 0.41176471
v -0.00188659 -0.02650978 0.03274386 0.94117647 0.52156863 0.41176471
v -0.00378631 -0.02640663 0.03268923 0.94117647 0.52156863 0.41176471
v -0.00428293 -0.02690625 0.03238192 0.94117647 0.52156863 0.41176471
v -0.00687574 -0.02610042 0.03257997 0.94117647 0.52156863 0.41176471
v -0.00687574 -0.02700617 0.03211559 0.94117647 0.52156863 0.41176471
v -0.00687574 -0.02543319 -0.03169441 0.94117647 0.52156863 0.41176471
v -0.00565765 -0.02492712 -0.03250706 0.94117647 0.52156863 0.41176471
v -0.00565765 -0.02429857 -0.03298509 0.94117647 0.52156863 0.41176471
v -0.00434787 -0.02459834 -0.03304655 0.94117647 0.52156863 0.41176471
v -0.00314343 -0.02525913 -0.03278022 0.94117647 0.52156863 0.41176471
v -0.00314343 -0.02451776 -0.03331971 0.94117647 0.52156863 0.41176471
v -0.00188659 -0.02600049 -0.03232268 0.94117647 0.52156863 0.41176471
v -0.00188659 -0.02666772 -0.03169441 0.94117647 0.52156863 0.41176471
v -0.00130101 -0.02789903 -0.03045837 0.94117647 0.52156863 0.41176471
v -0.00130101 -0.02733817 -0.03108663 0.94117647 0.52156863 0.41176471
v -0.00130101 -0.02819235 -0.03008277 0.94117647 0.52156863 0.41176471
v -0.00130101 -0.02899819 -0.02902428 0.94117647 0.52156863 0.41176471
v -0.00130101 -0.02616810 0.03292141 0.94117647 0.52156863 0.41176471
v -0.00130101 -0.02577486 0.03308531 0.94117647 0.52156863 0.41176471
v -0.00188659 -0.02577486 0.03305117 0.94117647 0.52156863 0.41176471
v -0.00428293 -0.02584900 0.03287361 0.94117647 0.52156863 0.41176471
v -0.00565765 -0.02560080 0.03287361 0.94117647 0.52156863 0.41176471
v -0.00687574 -0.02549121 0.03282581 0.94117647 0.52156863 0.41176471
v -0.00687574 -0.02470794 -0.03232268 0.94117647 0.52156863 0.41176471
v -0.00687574 -0.02409873 -0.03282119 0.94117647 0.52156863 0.41176471
v -0.00687574 -0.02407939 -0.03283485 0.94117647 0.52156863 0.41176471
v -0.00687574 -0.02329290 -0.03336068 0.94117647 0.52156863 0.41176471
v -0.00575752 -0.02321231 -0.03367482 0.94117647 0.52156863 0.41176471
v -0.00440027 -0.02356043 -0.03374993 0.94117647 0.52156863 0.41176471
v -0.00314343 -0.02374094 -0.03385920 0.94117647 0.52156863 0.41176471
v -0.00188659 -0.02537194 -0.03286900 0.94117647 0.52156863 0.41176471
v -0.00188058 -0.02441139 -0.03357238 0.94117647 0.52156863 0.41176471
v -0.00229535 -0.02384408 -0.03392066 0.94117647 0.52156863 0.41176471
v -0.00130101 -0.02570717 -0.03265730 0.94117647 0.52156863 0.41176471
v -0.00130101 -0.02604239 -0.03236365 0.94117647 0.52156863 0.41176471
v -0.00130101 -0.02635506 -0.03207001 0.94117647 0.52156863 0.41176471
v -0.00130101 -0.02670962 -0.03173538 0.94117647 0.52156863 0.41176471
v -0.00130101 -0.02700295 -0.03143491 0.94117647 0.52156863 0.41176471
v -0.00130101 -0.02518821 0.03328335 0.94117647 0.52156863 0.41176471
v -0.00314343 -0.02451776 0.03339944 0.94117647 0.52156863 0.41176471
v -0.00440027 -0.02451776 0.03332433 0.94117647 0.52156863 0.41176471
v -0.00687574 -0.02545575 0.03283947 0.94117647 0.52156863 0.41176471
v -0.00687574 -0.02247095 -0.03386603 0.94117647 0.52156863 0.41176471
v -0.00624323 -0.02261277 -0.03393432 0.94117647 0.52156863 0.41176471
v -0.00540497 -0.02276427 -0.03402309 0.94117647 0.52156863 0.41176471
v -0.00440027 -0.02293188 -0.03411187 0.94117647 0.52156863 0.41176471
v -0.00314343 -0.02311239 -0.03422113 0.94117647 0.52156863 0.41176471
v -0.00130101 -0.02541385 -0.03290314 0.94117647 0.52156863 0.41176471
v -0.00130101 -0.02450164 -0.03357238 0.94117647 0.52156863 0.41176471
v -0.00145709 -0.02392145 -0.03396846 0.94117647 0.52156863 0.41176471
v -0.00188058 -0.02336059 -0.03424845 0.94117647 0.52156863 0.41176471
v -0.00130101 -0.02451776 0.03350188 0.94117647 0.52156863 0.41176471
v -0.00687574 -0.02326066 0.03342676 0.94117647 0.52156863 0.41176471
v -0.00130101 -0.02393112 0.03362480 0.94117647 0.52156863 0.41176471
v -0.00565765 -0.02451776 0.03323555 0.94117647 0.52156863 0.41176471
v -0.00687574 -0.02451776 0.03314677 0.94117647 0.52156863 0.41176471
v -0.00687574 -0.02187786 -0.03414602 0.94117647 0.52156863 0.41176471
v -0.00575752 -0.02211638 -0.03425528 0.94117647 0.52156863 0.41176471
v -0.00440027 -0.02200357 -0.03456941 0.94117647 0.52156863 0.41176471
v -0.00314343 -0.02200357 -0.03478111 0.94117647 0.52156863 0.41176471
v -0.00192697 -0.02191654 -0.03497915 0.94117647 0.52156863 0.41176471
v -0.00130101 -0.02405038 -0.03389334 0.94117647 0.52156863 0.41176471
v -0.00130101 -0.02393434 -0.03397529 0.94117647 0.52156863 0.41176471
v -0.00130101 -0.02331224 -0.03433040 0.94117647 0.52156863 0.41176471
v -0.00130101 -0.02203902 -0.03498598 0.94117647 0.52156863 0.41176471
v -0.00130101 -0.02326066 0.03375455 0.94117647 0.52156863 0.41176471
v -0.00687574 -0.02200357 0.03356334 0.94117647 0.52156863 0.41176471
v -0.00687574 -0.02079482 -0.03462405 0.94117647 0.52156863 0.41176471
v -0.00440027 -0.02089796 -0.03502695 0.94117647 0.52156863 0.41176471
v -0.00314343 -0.02117195 -0.03512939 0.94117647 0.52156863 0.41176471
v -0.00237339 -0.02133311 -0.03519085 0.94117647 0.52156863 0.41176471
v -0.00130101 -0.02146849 -0.03524548 0.94117647 0.52156863 0.41176471
v -0.00130101 -0.02272559 0.03380235 0.94117647 0.52156863 0.41176471
v -0.00130101 -0.02205836 0.03385699 0.94117647 0.52156863 0.41176471
v -0.00130101 -0.02074969 0.03387747 0.94117647 0.52156863 0.41176471
v -0.00687574 -0.02074969 0.03357700 0.94117647 0.52156863 0.41176471
v -0.00687574 -0.02074325 -0.03464453 0.94117647 0.52156863 0.41176471
v -0.00505188 -0.02013081 -0.03520451 0.94117647 0.52156863 0.41176471
v -0.00440027 -0.02026942 -0.03525231 0.94117647 0.52156863 0.41176471
v -0.00314343 -0.02054017 -0.03533426 0.94117647 0.52156863 0.41176471
v -0.00192697 -0.02084639 -0.03538889 0.94117647 0.52156863 0.41176471
v -0.00130101 -0.02080126 -0.03547084 0.94117647 0.52156863 0.41176471
v -0.00130101 -0.02025008 0.03384333 0.94117647 0.52156863 0.41176471
v -0.00687574 -0.01945069 0.03349505 0.94117647 0.52156863 0.41176471
v -0.00687574 -0.01967632 -0.03504744 0.94117647 0.52156863 0.41176471
v -0.00687574 -0.01965698 -0.03505427 0.94117647 0.52156863 0.41176471
v -0.00687574 -0.01905422 -0.03524548 0.94117647 0.52156863 0.41176471
v -0.00130101 -0.01948937 -0.03577814 0.94117647 0.52156863 0.41176471
v -0.00130101 -0.02007601 -0.03564156 0.94117647 0.52156863 0.41176471
v -0.00130101 -0.01953772 0.03378870 0.94117647 0.52156863 0.41176471
v -0.00687574 -0.01823227 0.03334481 0.94117647 0.52156863 0.41176471
v -0.00687574 -0.01823227 -0.03535475 0.94117647 0.52156863 0.41176471
v -0.00130101 -0.01823227 -0.03588058 0.94117647 0.52156863 0.41176471
v -0.00130101 -0.01890595 0.03369309 0.94117647 0.52156863 0.41176471
v -0.00687574 -0.01819359 0.03333798 0.94117647 0.52156863 0.41176471
v -0.00130101 -0.01823227 0.03358383 0.94117647 0.52156863 0.41176471
v -0.00687574 -0.01701708 -0.03540938 0.94117647 0.52156863 0.41176471
v -0.00130101 -0.01697517 -0.03588741 0.94117647 0.52156863 0.41176471
v -0.00130101 -0.01764885 0.03346090 0.94117647 0.52156863 0.41176471
v -0.00130101 -0.01697517 0.03331067 0.94117647 0.52156863 0.41176471
v -0.00687574 -0.01697517 0.03306482 0.94117647 0.52156863 0.41176471
v -0.00687574 -0.01697517 -0.03540938 0.94117647 0.52156863 0.41176471
v -0.00130101 -0.01571808 -0.03583960 0.94117647 0.52156863 0.41176471
v -0.00687574 -0.01571808 -0.03539572 0.94117647 0.52156863 0.41176471
v -0.00130101 -0.01639175 0.03313994 0.94117647 0.52156863 0.41176471
v -0.00687574 -0.01601785 0.03279167 0.94117647 0.52156863 0.41176471
v -0.00687574 -0.01694617 0.03305800 0.94117647 0.52156863 0.41176471
v -0.00130101 -0.01446098 -0.03569619 0.94117647 0.52156863 0.41176471
v -0.00687574 -0.01449966 -0.03533426 0.94117647 0.52156863 0.41176471
v -0.00687574 -0.01351654 -0.03524548 0.94117647 0.52156863 0.41176471
v -0.00130101 -0.01567617 0.03292824 0.94117647 0.52156863 0.41176471
v -0.00687574 -0.01538930 0.03259362 0.94117647 0.52156863 0.41176471
v -0.00130101 -0.01388078 -0.03555961 0.94117647 0.52156863 0.41176471
v -0.00687574 -0.01291056 -0.03516353 0.94117647 0.52156863 0.41176471
v -0.00687574 -0.01197579 -0.03498598 0.94117647 0.52156863 0.41176471
v -0.00130101 -0.01530871 0.03281215 0.94117647 0.52156863 0.41176471
v -0.00687574 -0.01446098 0.03229315 0.94117647 0.52156863 0.41176471
v -0.00130101 -0.01323934 -0.03539572 0.94117647 0.52156863 0.41176471
v -0.00687574 -0.01194678 -0.03497915 0.94117647 0.52156863 0.41176471
v -0.00687574 -0.01072837 -0.03467185 0.94117647 0.52156863 0.41176471
v -0.00130101 -0.01502184 0.03271654 0.94117647 0.52156863 0.41176471
v -0.00687574 -0.01320388 0.03187658 0.94117647 0.52156863 0.41176471
v -0.00130101 -0.01292668 -0.03530012 0.94117647 0.52156863 0.41176471
v -0.00687574 -0.00930366 -0.03421431 0.94117647 0.52156863 0.41176471
v -0.00130101 -0.01443197 0.03249119 0.94117647 0.52156863 0.41176471
v -0.00687574 -0.01068969 0.03099564 0.94117647 0.52156863 0.41176471
v -0.00687574 -0.01159866 0.03133026 0.94117647 0.52156863 0.41176471
v -0.00687574 -0.01222721 0.03154879 0.94117647 0.52156863 0.41176471
v -0.00130101 -0.01263980 -0.03518402 0.94117647 0.52156863 0.41176471
v -0.00687574 -0.00864287 -0.03399578 0.94117647 0.52156863 0.41176471
v -0.00687574 -0.00807234 -0.03378408 0.94117647 0.52156863 0.41176471
v -0.00687574 -0.00509721 -0.03261632 0.94117647 0.52156863 0.41176471
v -0.00130101 -0.01394202 0.03229315 0.94117647 0.52156863 0.41176471
v -0.00687574 -0.00509721 0.02879671 0.94117647 0.52156863 0.41176471
v -0.00687574 -0.00927465 0.03044249 0.94117647 0.52156863 0.41176471
v -0.00130101 -0.01195645 -0.03490403 0.94117647 0.52156863 0.41176471
v -0.00130101 -0.00509721 -0.02974815 0.94117647 0.52156863 0.41176471
v -0.00130101 -0.00690550 -0.03141442 0.94117647 0.52156863 0.41176471
v -0.00130101 -0.00755661 -0.03199489 0.94117647 0.52156863 0.41176471
v -0.00130101 -0.00825930 -0.03258901 0.94117647 0.52156863 0.41176471
v -0.00130101 -0.00859452 -0.03285534 0.94117647 0.52156863 0.41176471
v -0.00130101 -0.00903612 -0.03318313 0.94117647 0.52156863 0.41176471
v -0.00130101 -0.00946160 -0.03347678 0.94117647 0.52156863 0.41176471
v -0.00130101 -0.01037702 -0.03407772 0.94117647 0.52156863 0.41176471
v -0.00130101 -0.01070580 -0.03426211 0.94117647 0.52156863 0.41176471
v -0.00130101 -0.01138270 -0.03461722 0.94117647 0.52156863 0.41176471
v -0.00130101 -0.01320388 0.03198585 0.94117647 0.52156863 0.41176471
v -0.00130101 -0.01228201 0.03156928 0.94117647 0.52156863 0.41176471
v -0.00130101 -0.01198869 0.03143270 0.94117647 0.52156863 0.41176471
v -0.00130101 -0.00509721 0.02817527 0.94117647 0.52156863 0.41176471
f 539 541 545
f 539 545 546
f 539 546 550
f 539 550 544
f 542 547 543
f 543 547 548
f 544 550 551
f 544 551 549
f 547 552 553
f 547 553 548
f 549 551 554
f 551 555 554
f 552 556 557
f 552 557 558
f 552 558 559
f 552 559 553
f 554 555 561
f 554 561 562
f 554 562 563
f 554 563 560
f 556 564 565
f 556 565 566
f 556 566 557
f 560 563 567
f 563 568 569
f 563 569 570
f 563 570 571
f 563 571 572
f 563 572 573
f 563 573 574
f 563 574 575
f 563 575 576
f 563 576 577
f 563 577 567
f 563 565 581
f 563 581 568
f 564 578 565
f 565 578 579
f 565 579 580
f 565 580 581
f 1 279 292
f 1 292 310
f 1 310 330
f 1 330 346
f 1 346 348
f 1 348 369
f 1 369 389
f 1 389 398
f 1 398 414
f 1 414 428
f 1 428 427
f 1 427 426
f 1 426 448
f 1 448 424
f 1 424 447
f 1 447 445
f 1 445 446
f 1 446 469
f 1 469 468
f 1 468 467
f 1 467 466
f 1 466 465
f 1 465 479
f 1 479 480
f 1 480 493
f 1 493 494
f 1 494 495
f 1 495 496
f 1 496 503
f 1 503 513
f 1 513 520
f 1 520 519
f 1 519 524
f 1 524 529
f 1 529 534
f 1 534 539
f 1 539 544
f 1 544 549
f 1 549 554
f 1 554 560
f 1 560 567
f 1 567 577
f 1 577 576
f 1 576 575
f 1 575 574
f 1 574 573
f 1 573 572
f 1 572 571
f 1 571 570
f 1 570 569
f 1 569 568
f 1 568 581
f 1 581 580
f 1 580 579
f 1 579 578
f 1 578 564
f 1 564 556
f 1 556 552
f 1 552 547
f 1 547 542
f 1 542 536
f 1 536 531
f 1 531 530
f 1 530 527
f 1 527 525
f 1 525 521
f 1 521 514
f 1 514 506
f 1 506 505
f 1 505 504
f 1 504 497
f 1 497 485
f 1 485 483
f 1 483 470
f 1 470 450
f 1 450 449
f 1 449 431
f 1 431 430
f 1 430 429
f 1 429 409
f 1 409 408
f 1 408 390
f 1 390 370
f 1 370 349
f 1 349 333
f 1 333 332
f 1 332 314
f 1 314 313
f 1 313 312
f 1 312 311
f 1 311 293
f 1 293 280
f 1 280 265
f 1 265 264
f 1 264 247
f 1 247 246
f 1 246 228
f 1 228 208
f 1 208 207
f 1 207 192
f 1 192 191
f 1 191 179
f 1 179 162
f 1 162 161
f 1 161 141
f 1 141 124
f 1 124 104
f 1 104 87
f 1 87 55
f 1 55 51
f 1 51 33
f 1 33 19
f 1 19 18
f 1 18 10
f 1 10 9
f 1 9 4
f 1 4 5
f 1 5 2
f 2 5 12
f 2 12 6
f 2 6 7
f 3 7 16
f 3 16 8
f 4 9 5
f 5 9 10
f 5 10 11
f 5 11 12
f 6 12 13
f 6 13 14
f 6 14 15
f 6 15 7
f 7 15 29
f 7 29 16
f 8 16 17
f 10 18 11
f 11 18 19
f 11 19 20
f 11 20 21
f 11 21 22
f 11 22 12
f 12 22 23
f 12 23 13
f 13 23 24
f 13 24 25
f 13 25 14
f 14 25 26
f 14 26 27
f 14 27 15
f 15 27 28
f 15 28 29
f 16 29 30
f 16 30 31
f 16 31 32
f 16 32 17
f 19 33 34
f 19 34 20
f 20 34 21
f 21 35 22
f 21 34 35
f 22 35 36
f 22 36 23
f 23 36 37
f 23 37 24
f 24 37 38
f 24 38 39
f 24 39 25
f 25 39 26
f 26 39 40
f 26 40 41
f 26 41 28
f 26 28 27
f 28 41 42
f 28 42 30
f 28 30 29
f 30 42 43
f 30 43 44
f 30 44 31
f 31 45 46
f 31 46 47
f 31 47 48
f 31 48 49
f 31 49 50
f 31 50 32
f 31 44 45
f 33 51 34
f 34 52 53
f 34 53 54
f 34 54 35
f 34 51 55
f 34 55 56
f 34 56 57
f 34 57 52
f 35 54 58
f 35 58 59
f 35 59 60
f 35 60 61
f 35 61 62
f 35 62 36
f 36 62 37
f 37 62 63
f 37 63 38
f 38 63 64
f 38 64 65
f 38 65 39
f 39 65 66
f 39 66 67
f 39 67 68
f 39 68 40
f 40 68 69
f 40 69 70
f 40 70 41
f 41 71 72
f 41 72 42
f 41 70 71
f 42 72 43
f 43 73 74
f 43 74 75
f 43 75 44
f 43 72 73
f 44 75 45
f 45 75 76
f 45 76 46
f 46 76 77
f 46 77 78
f 46 78 79
f 46 79 80
f 46 80 81
f 46 81 82
f 46 82 47
f 47 82 48
f 48 82 83
f 52 57 53
f 53 57 84
f 53 84 85
f 53 85 86
f 53 86 58
f 53 58 54
f 55 87 56
f 56 87 88
f 56 88 89
f 56 89 57
f 57 89 90
f 57 90 84
f 58 86 91
f 58 91 59
f 59 91 60
f 60 92 61
f 60 91 92
f 61 92 93
f 61 93 64
f 61 64 63
f 61 63 62
f 64 93 92
f 64 92 91
f 64 91 85
f 64 85 103
f 64 103 123
f 64 123 137
f 64 137 140
f 64 140 139
f 64 139 160
f 64 160 167
f 64 167 166
f 64 166 184
f 64 184 199
f 64 199 215
f 64 215 234
f 64 234 233
f 64 233 236
f 64 236 252
f 64 252 270
f 64 270 285
f 64 285 284
f 64 284 299
f 64 299 319
f 64 319 338
f 64 338 355
f 64 355 371
f 64 371 376
f 64 376 396
f 64 396 395
f 64 395 413
f 64 413 436
f 64 436 435
f 64 435 454
f 64 454 473
f 64 473 487
f 64 487 484
f 64 484 498
f 64 498 507
f 64 507 515
f 64 515 522
f 64 522 526
f 64 526 532
f 64 532 538
f 64 538 537
f 64 537 543
f 64 543 548
f 64 548 553
f 64 553 559
f 64 559 558
f 64 558 557
f 64 557 566
f 64 566 565
f 64 565 563
f 64 563 562
f 64 562 561
f 64 561 555
f 64 555 551
f 64 551 550
f 64 550 546
f 64 546 545
f 64 545 541
f 64 541 540
f 64 540 535
f 64 535 533
f 64 533 528
f 64 528 523
f 64 523 518
f 64 518 517
f 64 517 516
f 64 516 508
f 64 508 499
f 64 499 488
f 64 488 474
f 64 474 458
f 64 458 457
f 64 457 456
f 64 456 455
f 64 455 437
f 64 437 415
f 64 415 399
f 64 399 379
f 64 379 362
f 64 362 361
f 64 361 360
f 64 360 365
f 64 365 359
f 64 359 341
f 64 341 327
f 64 327 325
f 64 325 324
f 64 324 305
f 64 305 300
f 64 300 287
f 64 287 273
f 64 273 272
f 64 272 271
f 64 271 255
f 64 255 254
f 64 254 237
f 64 237 219
f 64 219 218
f 64 218 217
f 64 217 216
f 64 216 200
f 64 200 185
f 64 185 168
f 64 168 150
f 64 150 149
f 64 149 148
f 64 148 130
f 64 130 113
f 64 113 112
f 64 112 111
f 64 111 110
f 64 110 94
f 64 94 69
f 64 69 68
f 64 68 67
f 64 67 66
f 64 66 65
f 69 94 71
f 69 71 70
f 71 94 95
f 71 95 72
f 72 95 73
f 73 95 74
f 74 76 75
f 74 95 96
f 74 96 97
f 74 97 77
f 74 77 76
f 77 97 78
f 78 98 99
f 78 99 100
f 78 100 79
f 78 97 98
f 79 100 119
f 79 119 101
f 79 101 80
f 80 101 81
f 81 83 82
f 84 90 102
f 84 102 85
f 85 91 86
f 85 102 103
f 87 104 88
f 88 104 105
f 88 105 106
f 88 106 107
f 88 107 89
f 89 107 108
f 89 108 90
f 90 108 109
f 90 109 102
f 94 110 95
f 95 110 96
f 96 110 111
f 96 111 112
f 96 112 113
f 96 113 114
f 96 114 97
f 97 114 98
f 98 115 116
f 98 116 99
f 98 114 115
f 99 116 117
f 99 117 118
f 99 118 100
f 100 118 120
f 100 120 119
f 102 109 103
f 103 109 121
f 103 121 122
f 103 122 123
f 104 124 105
f 105 124 125
f 105 125 106
f 106 125 126
f 106 126 127
f 106 127 128
f 106 128 107
f 107 128 108
f 108 129 121
f 108 121 109
f 108 128 129
f 113 130 115
f 113 115 114
f 115 130 131
f 115 131 116
f 116 131 132
f 116 132 117
f 117 132 133
f 117 133 135
f 117 135 118
f 118 134 120
f 118 135 136
f 118 136 134
f 121 137 123
f 121 123 122
f 121 129 138
f 121 138 139
f 121 139 140
f 121 140 137
f 124 141 125
f 125 141 142
f 125 142 143
f 125 143 126
f 126 143 144
f 126 144 127
f 127 145 146
f 127 146 128
f 127 144 147
f 127 147 145
f 128 146 129
f 129 146 138
f 130 148 131
f 131 148 149
f 131 149 150
f 131 150 151
f 131 151 152
f 131 152 153
f 131 153 132
f 132 153 154
f 132 154 133
f 133 154 155
f 133 155 156
f 133 156 157
f 133 157 158
f 133 158 135
f 135 158 178
f 135 178 159
f 135 159 136
f 138 146 139
f 139 146 145
f 139 145 160
f 141 161 142
f 142 161 143
f 143 161 162
f 143 162 163
f 143 163 164
f 143 164 144
f 144 164 147
f 145 147 160
f 147 164 181
f 147 181 165
f 147 165 166
f 147 166 167
f 147 167 160
f 150 168 151
f 151 168 169
f 151 169 170
f 151 170 171
f 151 171 152
f 152 171 153
f 153 171 154
f 154 171 155
f 155 171 170
f 155 170 156
f 156 172 173
f 156 173 174
f 156 174 157
f 156 170 172
f 157 174 158
f 158 174 175
f 158 175 176
f 158 176 177
f 158 177 178
f 162 179 163
f 163 179 180
f 163 180 164
f 164 180 181
f 165 181 182
f 165 182 183
f 165 183 166
f 166 183 184
f 168 185 169
f 169 185 186
f 169 186 187
f 169 187 172
f 169 172 170
f 172 187 173
f 173 188 174
f 173 187 189
f 173 189 188
f 174 188 175
f 175 188 190
f 175 190 176
f 179 191 180
f 180 191 192
f 180 192 193
f 180 193 182
f 180 182 181
f 182 193 194
f 182 194 195
f 182 195 196
f 182 196 197
f 182 197 198
f 182 198 183
f 183 198 184
f 184 198 199
f 185 200 186
f 186 200 201
f 186 201 202
f 186 202 203
f 186 203 187
f 187 203 204
f 187 204 189
f 188 205 190
f 188 189 206
f 188 206 205
f 189 204 225
f 189 225 206
f 192 207 193
f 193 207 208
f 193 208 209
f 193 209 194
f 194 209 210
f 194 210 195
f 195 210 211
f 195 211 196
f 196 211 212
f 196 212 213
f 196 213 214
f 196 214 199
f 196 199 198
f 196 198 197
f 199 214 215
f 200 216 201
f 201 216 217
f 201 217 218
f 201 218 219
f 201 219 220
f 201 220 202
f 202 220 221
f 202 221 203
f 203 221 222
f 203 222 223
f 203 223 204
f 204 223 224
f 204 224 225
f 205 206 226
f 206 225 227
f 206 227 226
f 208 228 210
f 208 210 209
f 210 228 229
f 210 229 211
f 211 229 230
f 211 230 212
f 212 230 231
f 212 231 232
f 212 232 213
f 213 233 234
f 213 234 214
f 213 232 235
f 213 235 236
f 213 236 233
f 214 234 215
f 219 237 238
f 219 238 220
f 220 239 221
f 220 238 239
f 221 239 222
f 222 239 240
f 222 240 223
f 223 240 241
f 223 241 224
f 224 241 242
f 224 242 243
f 224 243 244
f 224 244 245
f 224 245 225
f 225 245 227
f 228 246 229
f 229 247 248
f 229 248 230
f 229 246 247
f 230 248 231
f 231 248 249
f 231 249 250
f 231 250 251
f 231 251 232
f 232 252 235
f 232 251 253
f 232 253 252
f 235 252 236
f 237 254 238
f 238 254 255
f 238 255 256
f 238 256 257
f 238 257 258
f 238 258 239
f 239 258 240
f 240 258 259
f 240 259 241
f 241 259 260
f 241 260 242
f 242 260 261
f 242 261 262
f 242 262 263
f 242 263 243
f 247 264 248
f 248 264 265
f 248 265 249
f 249 265 266
f 249 266 250
f 250 266 267
f 250 267 268
f 250 268 251
f 251 268 269
f 251 269 253
f 252 253 270
f 253 269 270
f 255 271 256
f 256 272 273
f 256 273 274
f 256 274 257
f 256 271 272
f 257 274 275
f 257 275 276
f 257 276 258
f 258 276 277
f 258 277 259
f 259 277 278
f 259 278 260
f 260 278 261
f 261 278 279
f 265 280 266
f 266 281 267
f 266 280 281
f 267 281 294
f 267 294 282
f 267 282 283
f 267 283 268
f 268 283 284
f 268 284 269
f 269 285 270
f 269 284 285
f 273 286 274
f 273 287 288
f 273 288 286
f 274 286 275
f 275 286 288
f 275 288 289
f 275 289 290
f 275 290 276
f 276 290 277
f 277 290 278
f 278 290 291
f 278 291 292
f 278 292 279
f 280 293 281
f 281 293 311
f 281 311 294
f 282 294 295
f 282 295 296
f 282 296 297
f 282 297 283
f 283 297 298
f 283 298 284
f 284 298 299
f 287 300 288
f 288 301 302
f 288 302 303
f 288 303 304
f 288 304 289
f 288 300 305
f 288 305 306
f 288 306 301
f 289 304 290
f 290 307 291
f 290 304 308
f 290 308 307
f 291 307 292
f 292 309 310
f 292 307 309
f 294 311 295
f 295 311 312
f 295 312 313
f 295 313 314
f 295 314 315
f 295 315 296
f 296 316 297
f 296 315 317
f 296 317 316
f 297 316 318
f 297 318 298
f 298 318 299
f 299 318 319
f 301 320 321
f 301 321 302
f 301 306 322
f 301 322 323
f 301 323 320
f 302 321 303
f 303 308 304
f 303 321 308
f 305 324 306
f 306 324 325
f 306 325 326
f 306 326 327
f 306 327 328
f 306 328 322
f 307 308 329
f 307 329 309
f 308 321 329
f 309 330 310
f 309 329 331
f 309 331 330
f 314 332 315
f 315 332 333
f 315 333 334
f 315 334 335
f 315 335 336
f 315 336 317
f 316 317 336
f 316 336 337
f 316 337 318
f 318 337 319
f 319 337 338
f 320 329 321
f 320 323 339
f 320 339 331
f 320 331 329
f 322 328 323
f 323 328 340
f 323 340 339
f 325 327 326
f 327 341 342
f 327 342 343
f 327 343 344
f 327 344 345
f 327 345 328
f 328 345 344
f 328 344 340
f 330 331 346
f 331 339 347
f 331 347 348
f 331 348 346
f 333 349 334
f 334 349 350
f 334 350 335
f 335 351 336
f 335 350 352
f 335 352 353
f 335 353 354
f 335 354 351
f 336 351 337
f 337 351 338
f 338 351 355
f 339 340 356
f 339 356 357
f 339 357 347
f 340 358 356
f 340 344 358
f 341 359 342
f 342 360 361
f 342 361 362
f 342 362 363
f 342 363 364
f 342 364 344
f 342 344 343
f 342 359 365
f 342 365 360
f 344 364 366
f 344 366 367
f 344 367 358
f 347 357 368
f 347 368 348
f 348 368 369
f 349 370 352
f 349 352 350
f 351 354 371
f 351 371 355
f 352 370 372
f 352 372 373
f 352 373 353
f 353 373 374
f 353 374 354
f 354 374 375
f 354 375 376
f 354 376 371
f 356 358 377
f 356 377 357
f 357 377 378
f 357 378 368
f 358 367 377
f 362 379 380
f 362 380 363
f 363 380 381
f 363 381 382
f 363 382 383
f 363 383 364
f 364 384 366
f 364 383 385
f 364 385 384
f 366 386 387
f 366 387 367
f 366 384 388
f 366 388 386
f 367 387 377
f 368 378 389
f 368 389 369
f 370 390 372
f 372 390 391
f 372 391 392
f 372 392 373
f 373 392 393
f 373 393 374
f 374 393 394
f 374 394 375
f 375 394 395
f 375 395 396
f 375 396 376
f 377 387 378
f 378 387 397
f 378 397 398
f 378 398 389
f 379 399 400
f 379 400 401
f 379 401 380
f 380 401 402
f 380 402 381
f 381 403 404
f 381 404 405
f 381 405 383
f 381 383 382
f 381 402 400
f 381 400 403
f 383 405 385
f 384 385 388
f 385 406 388
f 385 405 406
f 386 407 397
f 386 397 387
f 386 388 407
f 388 406 407
f 390 408 391
f 391 408 409
f 391 409 410
f 391 410 392
f 392 410 411
f 392 411 393
f 393 411 394
f 394 411 412
f 394 412 413
f 394 413 395
f 397 414 398
f 397 407 414
f 399 415 400
f 400 415 416
f 400 416 417
f 400 417 418
f 400 418 419
f 400 419 420
f 400 420 403
f 400 402 401
f 403 421 404
f 403 420 422
f 403 422 421
f 404 421 405
f 405 421 406
f 406 421 423
f 406 423 424
f 406 424 425
f 406 425 426
f 406 426 427
f 406 427 407
f 407 427 428
f 407 428 414
f 409 429 410
f 410 429 430
f 410 430 431
f 410 431 432
f 410 432 411
f 411 433 434
f 411 434 412
f 411 432 433
f 412 434 433
f 412 433 435
f 412 435 436
f 412 436 413
f 415 437 416
f 416 437 438
f 416 438 417
f 417 438 439
f 417 439 440
f 417 440 418
f 418 441 419
f 418 440 442
f 418 442 441
f 419 441 443
f 419 443 420
f 420 443 444
f 420 444 422
f 421 445 423
f 421 422 446
f 421 446 445
f 422 444 446
f 423 445 447
f 423 447 424
f 424 448 425
f 425 448 426
f 431 449 432
f 432 449 433
f 433 449 450
f 433 450 451
f 433 451 452
f 433 452 453
f 433 453 435
f 435 453 454
f 437 455 438
f 438 455 456
f 438 456 439
f 439 456 457
f 439 457 458
f 439 458 459
f 439 459 460
f 439 460 440
f 440 460 461
f 440 461 442
f 441 462 443
f 441 442 463
f 441 463 462
f 442 461 464
f 442 464 463
f 443 462 465
f 443 465 466
f 443 466 467
f 443 467 444
f 444 467 468
f 444 468 469
f 444 469 446
f 450 470 451
f 451 470 471
f 451 471 472
f 451 472 453
f 451 453 452
f 453 473 454
f 453 472 473
f 458 474 475
f 458 475 459
f 459 475 476
f 459 476 460
f 460 476 477
f 460 477 478
f 460 478 461
f 461 478 464
f 462 479 465
f 462 463 480
f 462 480 479
f 463 464 481
f 463 481 480
f 464 478 482
f 464 482 481
f 470 483 471
f 471 484 472
f 471 483 485
f 471 485 484
f 472 484 486
f 472 486 473
f 473 486 487
f 474 488 475
f 475 488 489
f 475 489 490
f 475 490 476
f 476 490 477
f 477 490 491
f 477 491 478
f 478 491 492
f 478 492 482
f 480 481 493
f 481 494 493
f 481 482 495
f 481 495 494
f 482 492 496
f 482 496 495
f 484 487 486
f 484 485 497
f 484 497 498
f 488 499 490
f 488 490 489
f 490 499 500
f 490 500 501
f 490 501 491
f 491 501 502
f 491 502 492
f 492 502 503
f 492 503 496
f 497 504 498
f 498 504 505
f 498 505 506
f 498 506 507
f 499 508 500
f 500 509 501
f 500 508 509
f 501 509 502
f 502 509 510
f 502 510 511
f 502 511 512
f 502 512 513
f 502 513 503
f 506 514 515
f 506 515 507
f 508 516 509
f 509 516 517
f 509 517 518
f 509 518 510
f 510 518 511
f 511 518 519
f 511 519 520
f 511 520 513
f 511 513 512
f 514 521 515
f 515 521 522
f 518 523 519
f 519 523 524
f 521 525 522
f 522 525 527
f 522 527 526
f 523 528 524
f 524 528 529
f 526 527 530
f 526 530 531
f 526 531 532
f 528 533 529
f 529 533 535
f 529 535 534
f 531 536 537
f 531 537 538
f 531 538 532
f 534 535 540
f 534 540 541
f 534 541 539
f 536 542 537
f 537 542 543
f 1 2 7
f 1 7 3
f 1 3 8
f 1 8 17
f 1 17 32
f 1 32 50
f 1 50 49
f 1 49 48
f 1 48 83
f 1 83 81
f 1 81 101
f 1 101 119
f 1 119 120
f 1 120 134
f 1 134 136
f 1 136 159
f 1 159 178
f 1 178 177
f 1 177 176
f 1 176 190
f 1 190 205
f 1 205 226
f 1 226 227
f 1 227 245
f 1 245 244
f 1 244 243
f 1 243 263
f 1 263 262
f 1 262 261
f 1 261 279

