# https://github.com/mikedh/trimesh
v 0.00062896 -0.03810022 0.00313897 0.26274510 0.77254902 0.45490196
v 0.00188597 -0.03809361 0.00313897 0.26274510 0.77254902 0.45490196
v 0.00188597 -0.03808699 0.00439601 0.26274510 0.77254902 0.45490196
v 0.00062896 -0.03808699 0.00439601 0.26274510 0.77254902 0.45490196
v -0.00062863 -0.03806384 0.00313897 0.26274510 0.77254902 0.45490196
v -0.00062863 -0.03806715 0.00188193 0.26274510 0.77254902 0.45490196
v 0.00062896 -0.03809361 0.00188193 0.26274510 0.77254902 0.45490196
v 0.00314298 -0.03803075 0.00188193 0.26274510 0.77254902 0.45490196
v 0.00314298 -0.03803406 0.00313897 0.26274510 0.77254902 0.45490196
v 0.00188597 -0.03808038 0.00188193 0.26274510 0.77254902 0.45490196
v 0.00314298 -0.03802083 0.00439601 0.26274510 0.77254902 0.45490196
v 0.00188597 -0.03805391 0.00565306 0.26274510 0.77254902 0.45490196
v 0.00062896 -0.03805060 0.00691010 0.26274510 0.77254902 0.45490196
v 0.00062896 -0.03807045 0.00565306 0.26274510 0.77254902 0.45490196
v -0.00062863 -0.03802745 0.00565306 0.26274510 0.77254902 0.45490196
v -0.00129988 -0.03799106 0.00565306 0.26274510 0.77254902 0.45490196
v -0.00129988 -0.03801752 0.00372235 0.26274510 0.77254902 0.45490196
v -0.00129988 -0.03802414 0.00313897 0.26274510 0.77254902 0.45490196
v -0.00129988 -0.03802414 0.00188193 0.26274510 0.77254902 0.45490196
v -0.00062863 -0.03803737 0.00062488 0.26274510 0.77254902 0.45490196
v 0.00062896 -0.03802083 -0.00063216 0.26274510 0.77254902 0.45490196
v 0.00188597 -0.03801091 -0.00063216 0.26274510 0.77254902 0.45490196
v 0.00440057 -0.03794144 0.00188193 0.26274510 0.77254902 0.45490196
v 0.00314298 -0.03800429 0.00062488 0.26274510 0.77254902 0.45490196
v 0.00440057 -0.03792821 0.00062488 0.26274510 0.77254902 0.45490196
v 0.00440057 -0.03793482 0.00313897 0.26274510 0.77254902 0.45490196
v 0.00314298 -0.03797452 -0.00063216 0.26274510 0.77254902 0.45490196
v 0.00440057 -0.03791167 0.00439601 0.26274510 0.77254902 0.45490196
v 0.00440057 -0.03787197 0.00565306 0.26274510 0.77254902 0.45490196
v 0.00314298 -0.03797783 0.00565306 0.26274510 0.77254902 0.45490196
v 0.00188597 -0.03800098 0.00691010 0.26274510 0.77254902 0.45490196
v 0.00062896 -0.03801422 0.00816715 0.26274510 0.77254902 0.45490196
v -0.00062863 -0.03800760 0.00691010 0.26274510 0.77254902 0.45490196
v -0.00129988 -0.03798113 0.00624338 0.26274510 0.77254902 0.45490196
v -0.00129988 -0.03799437 0.00062488 0.26274510 0.77254902 0.45490196
v -0.00129988 -0.03797783 -0.00004878 0.26274510 0.77254902 0.45490196
v -0.00129988 -0.03796129 -0.00063216 0.26274510 0.77254902 0.45490196
v -0.00062863 -0.03799768 -0.00063216 0.26274510 0.77254902 0.45490196
v 0.00062896 -0.03797452 -0.00188226 0.26274510 0.77254902 0.45490196
v 0.00188597 -0.03797452 -0.00188226 0.26274510 0.77254902 0.45490196
v 0.00460045 -0.03792159 0.00188193 0.26274510 0.77254902 0.45490196
v 0.00440057 -0.03789182 -0.00063216 0.26274510 0.77254902 0.45490196
v 0.00460045 -0.03790836 0.00062488 0.26274510 0.77254902 0.45490196
v 0.00460045 -0.03791167 0.00313897 0.26274510 0.77254902 0.45490196
v 0.00460045 -0.03790836 0.00336816 0.26274510 0.77254902 0.45490196
v 0.00314298 -0.03792490 -0.00188226 0.26274510 0.77254902 0.45490196
v 0.00460045 -0.03788851 0.00439601 0.26274510 0.77254902 0.45490196
v 0.00460045 -0.03788190 0.00467381 0.26274510 0.77254902 0.45490196
v 0.00460045 -0.03784551 0.00565306 0.26274510 0.77254902 0.45490196
v 0.00460045 -0.03783558 0.00588919 0.26274510 0.77254902 0.45490196
v 0.00460045 -0.03777604 0.00685454 0.26274510 0.77254902 0.45490196
v 0.00445718 -0.03778596 0.00693788 0.26274510 0.77254902 0.45490196
v 0.00188597 -0.03787197 0.00942419 0.26274510 0.77254902 0.45490196
v 0.00188597 -0.03793813 0.00816715 0.26274510 0.77254902 0.45490196
v 0.00062896 -0.03792821 0.00942419 0.26274510 0.77254902 0.45490196
v -0.00062863 -0.03795798 0.00816715 0.26274510 0.77254902 0.45490196
v -0.00129988 -0.03794475 0.00750043 0.26274510 0.77254902 0.45490196
v -0.00129988 -0.03796790 0.00691010 0.26274510 0.77254902 0.45490196
v -0.00129988 -0.03793152 -0.00129888 0.26274510 0.77254902 0.45490196
v -0.00062863 -0.03793482 -0.00188226 0.26274510 0.77254902 0.45490196
v 0.00062896 -0.03788851 -0.00313930 0.26274510 0.77254902 0.45490196
v 0.00188597 -0.03788520 -0.00313930 0.26274510 0.77254902 0.45490196
v 0.00451264 -0.03780250 -0.00198643 0.26274510 0.77254902 0.45490196
v 0.00460045 -0.03780250 -0.00185448 0.26274510 0.77254902 0.45490196
v 0.00460045 -0.03786866 -0.00063216 0.26274510 0.77254902 0.45490196
v 0.00314298 -0.03782897 -0.00313930 0.26274510 0.77254902 0.45490196
v 0.00384254 -0.03772642 -0.00384075 0.26274510 0.77254902 0.45490196
v 0.00412213 -0.03775950 -0.00313930 0.26274510 0.77254902 0.45490196
v 0.00460045 -0.03778927 -0.00207672 0.26274510 0.77254902 0.45490196
v 0.00460045 -0.03772311 0.00759071 0.26274510 0.77254902 0.45490196
v 0.00264965 -0.03773634 0.01034093 0.26274510 0.77254902 0.45490196
v 0.00218694 -0.03770988 0.01117433 0.26274510 0.77254902 0.45490196
v 0.00181492 -0.03776942 0.01072985 0.26274510 0.77254902 0.45490196
v 0.00134931 -0.03772311 0.01132712 0.26274510 0.77254902 0.45490196
v 0.00069539 -0.03778596 0.01077152 0.26274510 0.77254902 0.45490196
v 0.00032048 -0.03771319 0.01125072 0.26274510 0.77254902 0.45490196
v -0.00062863 -0.03769003 0.01095903 0.26274510 0.77254902 0.45490196
v -0.00062863 -0.03785212 0.00942419 0.26274510 0.77254902 0.45490196
v -0.00129988 -0.03785543 0.00875747 0.26274510 0.77254902 0.45490196
v -0.00129988 -0.03790505 0.00816715 0.26274510 0.77254902 0.45490196
v -0.00129988 -0.03790174 -0.00188226 0.26274510 0.77254902 0.45490196
v -0.00062863 -0.03783558 -0.00313930 0.26274510 0.77254902 0.45490196
v -0.00062863 -0.03775288 -0.00412549 0.26274510 0.77254902 0.45490196
v 0.00026214 -0.03771649 -0.00499362 0.26274510 0.77254902 0.45490196
v 0.00066015 -0.03776942 -0.00450052 0.26274510 0.77254902 0.45490196
v 0.00129906 -0.03771980 -0.00504918 0.26274510 0.77254902 0.45490196
v 0.00178488 -0.03776612 -0.00443107 0.26274510 0.77254902 0.45490196
v 0.00314298 -0.03774958 -0.00402132 0.26274510 0.77254902 0.45490196
v 0.00431739 -0.03761064 -0.00431301 0.26274510 0.77254902 0.45490196
v 0.00460045 -0.03766026 -0.00354906 0.26274510 0.77254902 0.45490196
v 0.00460045 -0.03770327 -0.00313930 0.26274510 0.77254902 0.45490196
v 0.00314298 -0.03756102 -0.00565339 0.26274510 0.77254902 0.45490196
v 0.00314298 -0.03740554 -0.00691043 0.26274510 0.77254902 0.45490196
v 0.00440057 -0.03743201 -0.00565339 0.26274510 0.77254902 0.45490196
v 0.00460045 -0.03742208 0.01068123 0.26274510 0.77254902 0.45490196
v 0.00440057 -0.03745516 0.01068123 0.26274510 0.77254902 0.45490196
v 0.00309850 -0.03764703 0.01072985 0.26274510 0.77254902 0.45490196
v 0.00314298 -0.03751801 0.01193828 0.26274510 0.77254902 0.45490196
v 0.00314298 -0.03733277 0.01320227 0.26274510 0.77254902 0.45490196
v 0.00181492 -0.03762718 0.01182716 0.26274510 0.77254902 0.45490196
v 0.00115868 -0.03772311 0.01132712 0.26274510 0.77254902 0.45490196
v 0.00188597 -0.03739893 0.01320227 0.26274510 0.77254902 0.45490196
v -0.00062863 -0.03756102 0.01193828 0.26274510 0.77254902 0.45490196
v -0.00062863 -0.03736585 0.01320227 0.26274510 0.77254902 0.45490196
v -0.00129988 -0.03751140 0.01193828 0.26274510 0.77254902 0.45490196
v -0.00129988 -0.03765695 0.01072985 0.26274510 0.77254902 0.45490196
v -0.00129988 -0.03779589 0.00941030 0.26274510 0.77254902 0.45490196
v -0.00129988 -0.03779589 -0.00315319 0.26274510 0.77254902 0.45490196
v -0.00129988 -0.03774627 -0.00374352 0.26274510 0.77254902 0.45490196
v -0.00129988 -0.03773303 -0.00389631 0.26274510 0.77254902 0.45490196
v -0.00129988 -0.03769996 -0.00422967 0.26274510 0.77254902 0.45490196
v -0.00062863 -0.03769003 -0.00475054 0.26274510 0.77254902 0.45490196
v -0.00062863 -0.03759741 -0.00565339 0.26274510 0.77254902 0.45490196
v -0.00062863 -0.03744193 -0.00691043 0.26274510 0.77254902 0.45490196
v 0.00066015 -0.03766357 -0.00554227 0.26274510 0.77254902 0.45490196
v 0.00110034 -0.03771980 -0.00504918 0.26274510 0.77254902 0.45490196
v 0.00188597 -0.03747832 -0.00691043 0.26274510 0.77254902 0.45490196
v 0.00178488 -0.03765033 -0.00554227 0.26274510 0.77254902 0.45490196
v 0.00460045 -0.03757094 -0.00433384 0.26274510 0.77254902 0.45490196
v 0.00460045 -0.03743201 -0.00545199 0.26274510 0.77254902 0.45490196
v 0.00440057 -0.03725999 -0.00691043 0.26274510 0.77254902 0.45490196
v 0.00188597 -0.03728976 -0.00816748 0.26274510 0.77254902 0.45490196
v 0.00314298 -0.03721037 -0.00816748 0.26274510 0.77254902 0.45490196
v 0.00460045 -0.03740554 -0.00565339 0.26274510 0.77254902 0.45490196
v 0.00460045 -0.03740223 0.01088264 0.26274510 0.77254902 0.45490196
v 0.00440057 -0.03732946 0.01193828 0.26274510 0.77254902 0.45490196
v 0.00440057 -0.03717729 0.01320227 0.26274510 0.77254902 0.45490196
v 0.00440057 -0.03697550 0.01445931 0.26274510 0.77254902 0.45490196
v 0.00314298 -0.03710782 0.01445931 0.26274510 0.77254902 0.45490196
v 0.00062896 -0.03739893 0.01320227 0.26274510 0.77254902 0.45490196
v 0.00188597 -0.03717068 0.01445931 0.26274510 0.77254902 0.45490196
v 0.00062896 -0.03717729 0.01445931 0.26274510 0.77254902 0.45490196
v -0.00129988 -0.03731954 0.01320227 0.26274510 0.77254902 0.45490196
v -0.00129988 -0.03742208 0.01252860 0.26274510 0.77254902 0.45490196
v -0.00062863 -0.03713759 0.01445931 0.26274510 0.77254902 0.45490196
v -0.00129988 -0.03709459 0.01445931 0.26274510 0.77254902 0.45490196
v -0.00129988 -0.03759741 -0.00523669 0.26274510 0.77254902 0.45490196
v -0.00129988 -0.03755110 -0.00565339 0.26274510 0.77254902 0.45490196
v -0.00129988 -0.03739893 -0.00691043 0.26274510 0.77254902 0.45490196
v 0.00062896 -0.03748494 -0.00691043 0.26274510 0.77254902 0.45490196
v -0.00062863 -0.03726330 -0.00816748 0.26274510 0.77254902 0.45490196
v 0.00440057 -0.03706151 -0.00816748 0.26274510 0.77254902 0.45490196
v 0.00460045 -0.03723353 -0.00691043 0.26274510 0.77254902 0.45490196
v 0.00062896 -0.03729307 -0.00816748 0.26274510 0.77254902 0.45490196
v 0.00062896 -0.03708467 -0.00942452 0.26274510 0.77254902 0.45490196
v 0.00188597 -0.03706813 -0.00942452 0.26274510 0.77254902 0.45490196
v 0.00314298 -0.03699535 -0.00942452 0.26274510 0.77254902 0.45490196
v 0.00440057 -0.03684980 -0.00942452 0.26274510 0.77254902 0.45490196
v 0.00460045 -0.03729638 0.01193828 0.26274510 0.77254902 0.45490196
v 0.00460045 -0.03714090 0.01320227 0.26274510 0.77254902 0.45490196
v 0.00460045 -0.03711113 0.01339672 0.26274510 0.77254902 0.45490196
v 0.00460045 -0.03694242 0.01445931 0.26274510 0.77254902 0.45490196
v 0.00460045 -0.03690603 0.01466071 0.26274510 0.77254902 0.45490196
v 0.00460045 -0.03666455 0.01590387 0.26274510 0.77254902 0.45490196
v 0.00440057 -0.03673071 0.01571635 0.26274510 0.77254902 0.45490196
v 0.00314298 -0.03685311 0.01571635 0.26274510 0.77254902 0.45490196
v 0.00188597 -0.03691927 0.01571635 0.26274510 0.77254902 0.45490196
v 0.00062896 -0.03692258 0.01571635 0.26274510 0.77254902 0.45490196
v -0.00062863 -0.03687957 0.01571635 0.26274510 0.77254902 0.45490196
v -0.00129988 -0.03646938 0.01756372 0.26274510 0.77254902 0.45490196
v -0.00129988 -0.03684649 0.01571635 0.26274510 0.77254902 0.45490196
v -0.00129988 -0.03722030 -0.00816748 0.26274510 0.77254902 0.45490196
v -0.00129988 -0.03711113 -0.00884114 0.26274510 0.77254902 0.45490196
v -0.00129988 -0.03701520 -0.00942452 0.26274510 0.77254902 0.45490196
v -0.00062863 -0.03705490 -0.00942452 0.26274510 0.77254902 0.45490196
v 0.00460045 -0.03703174 -0.00816748 0.26274510 0.77254902 0.45490196
v 0.00460045 -0.03706482 -0.00796607 0.26274510 0.77254902 0.45490196
v -0.00062863 -0.03682664 -0.01068157 0.26274510 0.77254902 0.45490196
v 0.00062896 -0.03684980 -0.01068157 0.26274510 0.77254902 0.45490196
v 0.00188597 -0.03681010 -0.01068157 0.26274510 0.77254902 0.45490196
v 0.00314298 -0.03673733 -0.01068157 0.26274510 0.77254902 0.45490196
v 0.00439248 -0.03659177 -0.01073018 0.26274510 0.77254902 0.45490196
v 0.00460045 -0.03681672 -0.00943841 0.26274510 0.77254902 0.45490196
v 0.00460045 -0.03651900 0.01658448 0.26274510 0.77254902 0.45490196
v 0.00440057 -0.03653223 0.01664698 0.26274510 0.77254902 0.45490196
v 0.00350460 -0.03643961 0.01750122 0.26274510 0.77254902 0.45490196
v 0.00310832 -0.03657523 0.01703590 0.26274510 0.77254902 0.45490196
v 0.00266640 -0.03647269 0.01764706 0.26274510 0.77254902 0.45490196
v 0.00188597 -0.03665132 0.01697340 0.26274510 0.77254902 0.45490196
v 0.00062896 -0.03664801 0.01697340 0.26274510 0.77254902 0.45490196
v -0.00126580 -0.03646276 0.01759845 0.26274510 0.77254902 0.45490196
v -0.00129988 -0.03645284 0.01763317 0.26274510 0.77254902 0.45490196
v -0.00129988 -0.03678364 -0.01068157 0.26274510 0.77254902 0.45490196
v -0.00062863 -0.03658847 -0.01184832 0.26274510 0.77254902 0.45490196
v 0.00062896 -0.03659508 -0.01190388 0.26274510 0.77254902 0.45490196
v 0.00188597 -0.03657193 -0.01180665 0.26274510 0.77254902 0.45490196
v 0.00314298 -0.03652892 -0.01159830 0.26274510 0.77254902 0.45490196
v 0.00396790 -0.03648592 -0.01141773 0.26274510 0.77254902 0.45490196
v 0.00460045 -0.03651238 -0.01095937 0.26274510 0.77254902 0.45490196
v 0.00460045 -0.03657523 -0.01064684 0.26274510 0.77254902 0.45490196
v 0.00460045 -0.03632383 0.01742482 0.26274510 0.77254902 0.45490196
v 0.00440057 -0.03638668 0.01727203 0.26274510 0.77254902 0.45490196
v 0.00460045 -0.03612865 0.01823044 0.26274510 0.77254902 0.45490196
v 0.00440057 -0.03615181 0.01823044 0.26274510 0.77254902 0.45490196
v 0.00310832 -0.03630729 0.01813321 0.26274510 0.77254902 0.45490196
v 0.00188597 -0.03599303 0.01948748 0.26274510 0.77254902 0.45490196
v 0.00188597 -0.03631721 0.01832072 0.26274510 0.77254902 0.45490196
v 0.00188597 -0.03648592 0.01769568 0.26274510 0.77254902 0.45490196
v 0.00062896 -0.03648261 0.01768873 0.26274510 0.77254902 0.45490196
v -0.00062863 -0.03631721 0.01825822 0.26274510 0.77254902 0.45490196
v -0.00062863 -0.03600957 0.01948748 0.26274510 0.77254902 0.45490196
v -0.00129988 -0.03619151 0.01866798 0.26274510 0.77254902 0.45490196
v -0.00129988 -0.03656531 -0.01174415 0.26274510 0.77254902 0.45490196
v -0.00129988 -0.03648592 -0.01208445 0.26274510 0.77254902 0.45490196
v -0.00062863 -0.03643961 -0.01248032 0.26274510 0.77254902 0.45490196
v 0.00062896 -0.03645284 -0.01253588 0.26274510 0.77254902 0.45490196
v 0.00188597 -0.03642968 -0.01243170 0.26274510 0.77254902 0.45490196
v 0.00314298 -0.03638006 -0.01222335 0.26274510 0.77254902 0.45490196
v 0.00460045 -0.03637675 -0.01152885 0.26274510 0.77254902 0.45490196
v 0.00440057 -0.03599633 -0.01319565 0.26274510 0.77254902 0.45490196
v 0.00439248 -0.03632052 -0.01187610 0.26274510 0.77254902 0.45490196
v 0.00460045 -0.03607573 0.01843184 0.26274510 0.77254902 0.45490196
v 0.00460045 -0.03578793 0.01948748 0.26274510 0.77254902 0.45490196
v 0.00440057 -0.03580778 0.01948748 0.26274510 0.77254902 0.45490196
v 0.00314298 -0.03591694 0.01948748 0.26274510 0.77254902 0.45490196
v 0.00188597 -0.03561591 0.02074453 0.26274510 0.77254902 0.45490196
v 0.00062896 -0.03565561 0.02074453 0.26274510 0.77254902 0.45490196
v 0.00062896 -0.03601949 0.01948748 0.26274510 0.77254902 0.45490196
v 0.00062896 -0.03632383 0.01831378 0.26274510 0.77254902 0.45490196
v -0.00129988 -0.03598310 0.01948748 0.26274510 0.77254902 0.45490196
v -0.00062863 -0.03564569 0.02074453 0.26274510 0.77254902 0.45490196
v -0.00129988 -0.03581439 0.02007086 0.26274510 0.77254902 0.45490196
v -0.00129988 -0.03641645 -0.01237614 0.26274510 0.77254902 0.45490196
v -0.00129988 -0.03629406 -0.01286229 0.26274510 0.77254902 0.45490196
v -0.00062863 -0.03625436 -0.01319565 0.26274510 0.77254902 0.45490196
v 0.00062896 -0.03628744 -0.01319565 0.26274510 0.77254902 0.45490196
v 0.00188597 -0.03624443 -0.01319565 0.26274510 0.77254902 0.45490196
v 0.00314298 -0.03613858 -0.01319565 0.26274510 0.77254902 0.45490196
v 0.00460045 -0.03601618 -0.01300119 0.26274510 0.77254902 0.45490196
v 0.00460045 -0.03596656 -0.01319565 0.26274510 0.77254902 0.45490196
v 0.00314298 -0.03581439 -0.01445964 0.26274510 0.77254902 0.45490196
v 0.00440057 -0.03566553 -0.01445964 0.26274510 0.77254902 0.45490196
v 0.00460045 -0.03563245 -0.01447353 0.26274510 0.77254902 0.45490196
v 0.00443696 -0.03538766 0.02084870 0.26274510 0.77254902 0.45490196
v 0.00460045 -0.03531489 0.02102927 0.26274510 0.77254902 0.45490196
v 0.00314298 -0.03553321 0.02074453 0.26274510 0.77254902 0.45490196
v 0.00188597 -0.03531489 0.02169599 0.26274510 0.77254902 0.45490196
v 0.00062896 -0.03533143 0.02173766 0.26274510 0.77254902 0.45490196
v -0.00129988 -0.03561261 0.02074453 0.26274510 0.77254902 0.45490196
v -0.00062863 -0.03532481 0.02170988 0.26274510 0.77254902 0.45490196
v -0.00129988 -0.03587063 -0.01445964 0.26274510 0.77254902 0.45490196
v -0.00062863 -0.03591694 -0.01445964 0.26274510 0.77254902 0.45490196
v 0.00188597 -0.03591694 -0.01445964 0.26274510 0.77254902 0.45490196
v 0.00062896 -0.03595002 -0.01445964 0.26274510 0.77254902 0.45490196
v 0.00314298 -0.03546705 -0.01571669 0.26274510 0.77254902 0.45490196
v 0.00382983 -0.03521234 -0.01636257 0.26274510 0.77254902 0.45490196
v 0.00430988 -0.03532481 -0.01573752 0.26274510 0.77254902 0.45490196
v 0.00460045 -0.03518918 -0.01608477 0.26274510 0.77254902 0.45490196
v 0.00314298 -0.03527188 0.02156404 0.26274510 0.77254902 0.45490196
v 0.00460045 -0.03520242 0.02136958 0.26274510 0.77254902 0.45490196
v 0.00188597 -0.03509656 0.02232799 0.26274510 0.77254902 0.45490196
v 0.00062896 -0.03511310 0.02236966 0.26274510 0.77254902 0.45490196
v -0.00129988 -0.03530496 0.02165432 0.26274510 0.77254902 0.45490196
v -0.00062863 -0.03509987 0.02233493 0.26274510 0.77254902 0.45490196
v -0.00129988 -0.03508332 0.02228632 0.26274510 0.77254902 0.45490196
v -0.00129988 -0.03520242 0.02195296 0.26274510 0.77254902 0.45490196
v -0.00129988 -0.03550344 -0.01571669 0.26274510 0.77254902 0.45490196
v -0.00062863 -0.03554975 -0.01571669 0.26274510 0.77254902 0.45490196
v 0.00188597 -0.03555306 -0.01571669 0.26274510 0.77254902 0.45490196
v 0.00062896 -0.03557953 -0.01571669 0.26274510 0.77254902 0.45490196
v 0.00314298 -0.03524211 -0.01645285 0.26274510 0.77254902 0.45490196
v 0.00314298 -0.03502709 -0.01708485 0.26274510 0.77254902 0.45490196
v 0.00440057 -0.03449450 -0.01823077 0.26274510 0.77254902 0.45490196
v 0.00430988 -0.03498409 -0.01685566 0.26274510 0.77254902 0.45490196
v 0.00460045 -0.03512633 -0.01630006 0.26274510 0.77254902 0.45490196
v 0.00314298 -0.03505025 0.02218909 0.26274510 0.77254902 0.45490196
v 0.00460045 -0.03508663 0.02169599 0.26274510 0.77254902 0.45490196
v 0.00314298 -0.03462021 0.02325861 0.26274510 0.77254902 0.45490196
v 0.00188597 -0.03471614 0.02325861 0.26274510 0.77254902 0.45490196
v 0.00062896 -0.03475914 0.02325861 0.26274510 0.77254902 0.45490196
v -0.00062863 -0.03473929 0.02325861 0.26274510 0.77254902 0.45490196
v -0.00129988 -0.03470621 0.02325861 0.26274510 0.77254902 0.45490196
v -0.00129988 -0.03538435 -0.01610561 0.26274510 0.77254902 0.45490196
v -0.00062863 -0.03528180 -0.01657786 0.26274510 0.77254902 0.45490196
v 0.00062896 -0.03529504 -0.01660564 0.26274510 0.77254902 0.45490196
v 0.00188597 -0.03528180 -0.01656397 0.26274510 0.77254902 0.45490196
v 0.00188597 -0.03506017 -0.01719597 0.26274510 0.77254902 0.45490196
v 0.00314298 -0.03461028 -0.01823077 0.26274510 0.77254902 0.45490196
v 0.00440057 -0.03411077 -0.01928641 0.26274510 0.77254902 0.45490196
v 0.00460045 -0.03446473 -0.01823077 0.26274510 0.77254902 0.45490196
v 0.00460045 -0.03493116 -0.01688344 0.26274510 0.77254902 0.45490196
v 0.00443696 -0.03502378 0.02191129 0.26274510 0.77254902 0.45490196
v 0.00440057 -0.03450773 0.02325861 0.26274510 0.77254902 0.45490196
v 0.00460045 -0.03500063 0.02192518 0.26274510 0.77254902 0.45490196
v 0.00440057 -0.03409423 0.02418924 0.26274510 0.77254902 0.45490196
v 0.00314298 -0.03414716 0.02428648 0.26274510 0.77254902 0.45490196
v 0.00188597 -0.03419347 0.02437676 0.26274510 0.77254902 0.45490196
v 0.00062896 -0.03421994 0.02443926 0.26274510 0.77254902 0.45490196
v -0.00062863 -0.03421663 0.02442537 0.26274510 0.77254902 0.45490196
v -0.00129988 -0.03419678 0.02439759 0.26274510 0.77254902 0.45490196
v -0.00129988 -0.03525865 -0.01650841 0.26274510 0.77254902 0.45490196
v -0.00062863 -0.03507340 -0.01720291 0.26274510 0.77254902 0.45490196
v 0.00062896 -0.03507671 -0.01723764 0.26274510 0.77254902 0.45490196
v 0.00062896 -0.03471283 -0.01823077 0.26274510 0.77254902 0.45490196
v 0.00188597 -0.03467975 -0.01823077 0.26274510 0.77254902 0.45490196
v 0.00252834 -0.03394868 -0.02011981 0.26274510 0.77254902 0.45490196
v 0.00336654 -0.03391560 -0.02002953 0.26274510 0.77254902 0.45490196
v 0.00440057 -0.03386929 -0.01991146 0.26274510 0.77254902 0.45490196
v 0.00460045 -0.03385606 -0.01987673 0.26274510 0.77254902 0.45490196
v 0.00460045 -0.03409423 -0.01924474 0.26274510 0.77254902 0.45490196
v 0.00460045 -0.03448127 0.02325861 0.26274510 0.77254902 0.45490196
v 0.00460045 -0.03442834 0.02338363 0.26274510 0.77254902 0.45490196
v 0.00460045 -0.03403469 0.02426564 0.26274510 0.77254902 0.45490196
v 0.00440057 -0.03378328 0.02482124 0.26274510 0.77254902 0.45490196
v 0.00314298 -0.03383290 0.02491847 0.26274510 0.77254902 0.45490196
v 0.00188597 -0.03387921 0.02500875 0.26274510 0.77254902 0.45490196
v 0.00062896 -0.03390899 0.02506431 0.26274510 0.77254902 0.45490196
v -0.00062863 -0.03390237 0.02505737 0.26274510 0.77254902 0.45490196
v -0.00129988 -0.03388583 0.02502264 0.26274510 0.77254902 0.45490196
v -0.00129988 -0.03505025 -0.01713346 0.26274510 0.77254902 0.45490196
v -0.00129988 -0.03483192 -0.01775157 0.26274510 0.77254902 0.45490196
v -0.00062863 -0.03470290 -0.01823077 0.26274510 0.77254902 0.45490196
v 0.00062896 -0.03424309 -0.01948782 0.26274510 0.77254902 0.45490196
v 0.00188597 -0.03420671 -0.01948782 0.26274510 0.77254902 0.45490196
v 0.00062896 -0.03397845 -0.02018232 0.26274510 0.77254902 0.45490196
v 0.00188597 -0.03316799 -0.02200190 0.26274510 0.77254902 0.45490196
v 0.00188597 -0.03279750 -0.02285614 0.26274510 0.77254902 0.45490196
v 0.00314298 -0.03275780 -0.02277974 0.26274510 0.77254902 0.45490196
v 0.00314298 -0.03309522 -0.02200190 0.26274510 0.77254902 0.45490196
v 0.00302571 -0.03369396 -0.02061985 0.26274510 0.77254902 0.45490196
v 0.00440057 -0.03352195 -0.02074486 0.26274510 0.77254902 0.45490196
v 0.00460045 -0.03349548 -0.02074486 0.26274510 0.77254902 0.45490196
v 0.00460045 -0.03377336 0.02479346 0.26274510 0.77254902 0.45490196
v 0.00460045 -0.03322423 0.02579354 0.26274510 0.77254902 0.45490196
v 0.00440057 -0.03325731 0.02577270 0.26274510 0.77254902 0.45490196
v 0.00314298 -0.03336647 0.02577270 0.26274510 0.77254902 0.45490196
v 0.00188597 -0.03346571 0.02577270 0.26274510 0.77254902 0.45490196
v 0.00062896 -0.03351864 0.02577270 0.26274510 0.77254902 0.45490196
v -0.00062863 -0.03350210 0.02577270 0.26274510 0.77254902 0.45490196
v -0.00129988 -0.03347233 0.02577270 0.26274510 0.77254902 0.45490196
v -0.00129988 -0.03465659 -0.01823077 0.26274510 0.77254902 0.45490196
v -0.00125656 -0.03394868 -0.02011287 0.26274510 0.77254902 0.45490196
v -0.00075399 -0.03416701 -0.01961283 0.26274510 0.77254902 0.45490196
v -0.00041836 -0.03397184 -0.02016843 0.26274510 0.77254902 0.45490196
v 0.00062896 -0.03319446 -0.02200190 0.26274510 0.77254902 0.45490196
v 0.00062896 -0.03281073 -0.02287697 0.26274510 0.77254902 0.45490196
v 0.00188597 -0.03248985 -0.02348813 0.26274510 0.77254902 0.45490196
v 0.00314298 -0.03246339 -0.02340479 0.26274510 0.77254902 0.45490196
v 0.00407939 -0.03271810 -0.02268946 0.26274510 0.77254902 0.45490196
v 0.00445949 -0.03293312 -0.02211303 0.26274510 0.77254902 0.45490196
v 0.00460045 -0.03285373 -0.02226581 0.26274510 0.77254902 0.45490196
v 0.00460045 -0.03278095 0.02654360 0.26274510 0.77254902 0.45490196
v 0.00440057 -0.03279088 0.02656443 0.26274510 0.77254902 0.45490196
v 0.00314298 -0.03285373 0.02666166 0.26274510 0.77254902 0.45490196
v 0.00188597 -0.03290666 0.02673806 0.26274510 0.77254902 0.45490196
v 0.00062896 -0.03292982 0.02677278 0.26274510 0.77254902 0.45490196
v -0.00062863 -0.03291658 0.02675195 0.26274510 0.77254902 0.45490196
v -0.00129988 -0.03290335 0.02673111 0.26274510 0.77254902 0.45490196
v -0.00129988 -0.03320107 0.02623107 0.26274510 0.77254902 0.45490196
v -0.00129988 -0.03394537 -0.02011287 0.26274510 0.77254902 0.45490196
v -0.00129988 -0.03276111 -0.02277974 0.26274510 0.77254902 0.45490196
v -0.00062863 -0.03278757 -0.02283530 0.26274510 0.77254902 0.45490196
v -0.00062863 -0.03247993 -0.02346035 0.26274510 0.77254902 0.45490196
v 0.00062896 -0.03249316 -0.02350202 0.26274510 0.77254902 0.45490196
v 0.00062896 -0.03197380 -0.02451599 0.26274510 0.77254902 0.45490196
v 0.00188597 -0.03195395 -0.02451599 0.26274510 0.77254902 0.45490196
v 0.00314298 -0.03191426 -0.02451599 0.26274510 0.77254902 0.45490196
v 0.00415333 -0.03147760 -0.02522438 0.26274510 0.77254902 0.45490196
v 0.00450397 -0.03173563 -0.02463406 0.26274510 0.77254902 0.45490196
v 0.00445949 -0.03245677 -0.02316866 0.26274510 0.77254902 0.45490196
v 0.00460045 -0.03252624 -0.02299504 0.26274510 0.77254902 0.45490196
v 0.00460045 -0.03238400 0.02715475 0.26274510 0.77254902 0.45490196
v 0.00440057 -0.03238731 0.02718948 0.26274510 0.77254902 0.45490196
v 0.00314298 -0.03244685 0.02729366 0.26274510 0.77254902 0.45490196
v 0.00188597 -0.03248654 0.02736310 0.26274510 0.77254902 0.45490196
v 0.00062896 -0.03250970 0.02739783 0.26274510 0.77254902 0.45490196
v -0.00062863 -0.03249978 0.02738394 0.26274510 0.77254902 0.45490196
v -0.00129988 -0.03270818 0.02702975 0.26274510 0.77254902 0.45490196
v -0.00129988 -0.03245347 -0.02340479 0.26274510 0.77254902 0.45490196
v -0.00062863 -0.03193411 -0.02451599 0.26274510 0.77254902 0.45490196
v 0.00062896 -0.03154046 -0.02533550 0.26274510 0.77254902 0.45490196
v 0.00188597 -0.03152392 -0.02531467 0.26274510 0.77254902 0.45490196
v 0.00314298 -0.03151068 -0.02528689 0.26274510 0.77254902 0.45490196
v 0.00460045 -0.03167278 -0.02473128 0.26274510 0.77254902 0.45490196
v 0.00314298 -0.03115342 -0.02591194 0.26274510 0.77254902 0.45490196
v 0.00450397 -0.03117658 -0.02569664 0.26274510 0.77254902 0.45490196
v 0.00460045 -0.03122620 -0.02558552 0.26274510 0.77254902 0.45490196
v 0.00460045 -0.03177863 -0.02452293 0.26274510 0.77254902 0.45490196
v 0.00460045 -0.03227483 0.02732143 0.26274510 0.77254902 0.45490196
v 0.00440057 -0.03175878 0.02809928 0.26274510 0.77254902 0.45490196
v 0.00314298 -0.03181833 0.02818261 0.26274510 0.77254902 0.45490196
v 0.00188597 -0.03185802 0.02822428 0.26274510 0.77254902 0.45490196
v 0.00062896 -0.03188118 0.02823123 0.26274510 0.77254902 0.45490196
v -0.00129988 -0.03248324 0.02736310 0.26274510 0.77254902 0.45490196
v -0.00062863 -0.03187126 0.02821734 0.26274510 0.77254902 0.45490196
v -0.00129988 -0.03219213 0.02775202 0.26274510 0.77254902 0.45490196
v -0.00129988 -0.03184148 -0.02457155 0.26274510 0.77254902 0.45490196
v -0.00062863 -0.03151399 -0.02529383 0.26274510 0.77254902 0.45490196
v 0.00062896 -0.03118650 -0.02596749 0.26274510 0.77254902 0.45490196
v 0.00188597 -0.03118319 -0.02594666 0.26274510 0.77254902 0.45490196
v 0.00314298 -0.03052490 -0.02696758 0.26274510 0.77254902 0.45490196
v 0.00440057 -0.03048520 -0.02689118 0.26274510 0.77254902 0.45490196
v 0.00460045 -0.03116004 -0.02570359 0.26274510 0.77254902 0.45490196
v 0.00460045 -0.03047528 -0.02687729 0.26274510 0.77254902 0.45490196
v 0.00460045 -0.03174555 0.02808539 0.26274510 0.77254902 0.45490196
v 0.00440057 -0.03128574 0.02873127 0.26274510 0.77254902 0.45490196
v 0.00314298 -0.03134859 0.02880766 0.26274510 0.77254902 0.45490196
v 0.00188597 -0.03138167 0.02884933 0.26274510 0.77254902 0.45490196
v 0.00062896 -0.03138498 0.02886322 0.26274510 0.77254902 0.45490196
v -0.00129988 -0.03162646 0.02848820 0.26274510 0.77254902 0.45490196
v -0.00129988 -0.03185472 0.02819650 0.26274510 0.77254902 0.45490196
v -0.00062863 -0.03137505 0.02884933 0.26274510 0.77254902 0.45490196
v -0.00129988 -0.03148091 -0.02523133 0.26274510 0.77254902 0.45490196
v -0.00062863 -0.03116004 -0.02592583 0.26274510 0.77254902 0.45490196
v 0.00062896 -0.03055798 -0.02699535 0.26274510 0.77254902 0.45490196
v 0.00188597 -0.03055467 -0.02700230 0.26274510 0.77254902 0.45490196
v 0.00314298 -0.03013455 -0.02759262 0.26274510 0.77254902 0.45490196
v 0.00440057 -0.03008494 -0.02752317 0.26274510 0.77254902 0.45490196
v 0.00460045 -0.03013786 -0.02740511 0.26274510 0.77254902 0.45490196
v 0.00460045 -0.03127251 0.02871044 0.26274510 0.77254902 0.45490196
v 0.00460045 -0.03117327 0.02882850 0.26274510 0.77254902 0.45490196
v 0.00460045 -0.03064399 0.02943966 0.26274510 0.77254902 0.45490196
v 0.00440057 -0.03065722 0.02944660 0.26274510 0.77254902 0.45490196
v 0.00314298 -0.03072007 0.02950216 0.26274510 0.77254902 0.45490196
v 0.00314298 -0.03013125 0.03013416 0.26274510 0.77254902 0.45490196
v 0.00188597 -0.03075315 0.02952300 0.26274510 0.77254902 0.45490196
v 0.00062896 -0.03075646 0.02952994 0.26274510 0.77254902 0.45490196
v -0.00129988 -0.03135521 0.02882850 0.26274510 0.77254902 0.45490196
v -0.00062863 -0.03074653 0.02950911 0.26274510 0.77254902 0.45490196
v -0.00129988 -0.03133205 -0.02549524 0.26274510 0.77254902 0.45490196
v -0.00129988 -0.03078954 -0.02640503 0.26274510 0.77254902 0.45490196
v -0.00129988 -0.03049844 -0.02687729 0.26274510 0.77254902 0.45490196
v -0.00062863 -0.03053152 -0.02693285 0.26274510 0.77254902 0.45490196
v -0.00129988 -0.03115673 -0.02580081 0.26274510 0.77254902 0.45490196
v 0.00062896 -0.03015110 -0.02762040 0.26274510 0.77254902 0.45490196
v 0.00188597 -0.03015440 -0.02762735 0.26274510 0.77254902 0.45490196
v 0.00314298 -0.02967805 -0.02828712 0.26274510 0.77254902 0.45490196
v 0.00440057 -0.02958212 -0.02828712 0.26274510 0.77254902 0.45490196
v 0.00460045 -0.02965159 -0.02814822 0.26274510 0.77254902 0.45490196
v 0.00460045 -0.03055467 0.02953689 0.26274510 0.77254902 0.45490196
v 0.00440057 -0.03008163 0.03007860 0.26274510 0.77254902 0.45490196
v 0.00188597 -0.03015440 0.03015499 0.26274510 0.77254902 0.45490196
v 0.00440057 -0.02945311 0.03067587 0.26274510 0.77254902 0.45490196
v 0.00314298 -0.02950273 0.03070365 0.26274510 0.77254902 0.45490196
v 0.00062896 -0.03015771 0.03015499 0.26274510 0.77254902 0.45490196
v -0.00129988 -0.03072669 0.02948827 0.26274510 0.77254902 0.45490196
v -0.00062863 -0.03013786 0.03014110 0.26274510 0.77254902 0.45490196
v -0.00129988 -0.03006839 -0.02750928 0.26274510 0.77254902 0.45490196
v -0.00062863 -0.03010809 -0.02756484 0.26274510 0.77254902 0.45490196
v 0.00062896 -0.02969790 -0.02828712 0.26274510 0.77254902 0.45490196
v 0.00188597 -0.02910907 -0.02919691 0.26274510 0.77254902 0.45490196
v 0.00188597 -0.02971775 -0.02828712 0.26274510 0.77254902 0.45490196
v 0.00314298 -0.02909253 -0.02916914 0.26274510 0.77254902 0.45490196
v 0.00440057 -0.02904622 -0.02909274 0.26274510 0.77254902 0.45490196
v 0.00460045 -0.02908592 -0.02898856 0.26274510 0.77254902 0.45490196
v 0.00460045 -0.03006839 0.03006471 0.26274510 0.77254902 0.45490196
v 0.00460045 -0.02996915 0.03016194 0.26274510 0.77254902 0.45490196
v 0.00188597 -0.02952588 0.03071059 0.26274510 0.77254902 0.45490196
v 0.00062896 -0.02881466 0.03134953 0.26274510 0.77254902 0.45490196
v 0.00062896 -0.02952919 0.03071754 0.26274510 0.77254902 0.45490196
v 0.00460045 -0.02933071 0.03076615 0.26274510 0.77254902 0.45490196
v 0.00460045 -0.02875181 0.03129397 0.26274510 0.77254902 0.45490196
v 0.00440057 -0.02876173 0.03130092 0.26274510 0.77254902 0.45490196
v 0.00314298 -0.02879481 0.03132870 0.26274510 0.77254902 0.45490196
v -0.00062863 -0.02950934 0.03071059 0.26274510 0.77254902 0.45490196
v -0.00129988 -0.03011802 0.03012027 0.26274510 0.77254902 0.45490196
v -0.00129988 -0.02976075 -0.02795376 0.26274510 0.77254902 0.45490196
v -0.00129988 -0.02926124 -0.02866215 0.26274510 0.77254902 0.45490196
v -0.00062863 -0.02959535 -0.02828712 0.26274510 0.77254902 0.45490196
v 0.00062896 -0.02909253 -0.02916219 0.26274510 0.77254902 0.45490196
v 0.00188597 -0.02865588 -0.02982196 0.26274510 0.77254902 0.45490196
v 0.00314298 -0.02863603 -0.02979419 0.26274510 0.77254902 0.45490196
v 0.00460045 -0.02902968 -0.02907191 0.26274510 0.77254902 0.45490196
v 0.00440057 -0.02856325 -0.02971779 0.26274510 0.77254902 0.45490196
v 0.00460045 -0.02855994 -0.02968307 0.26274510 0.77254902 0.45490196
v 0.00188597 -0.02880805 0.03134259 0.26274510 0.77254902 0.45490196
v -0.00062863 -0.02880143 0.03133564 0.26274510 0.77254902 0.45490196
v 0.00188597 -0.02817952 0.03182179 0.26274510 0.77254902 0.45490196
v 0.00062896 -0.02818614 0.03181484 0.26274510 0.77254902 0.45490196
v 0.00460045 -0.02812329 0.03178012 0.26274510 0.77254902 0.45490196
v 0.00440057 -0.02813321 0.03178012 0.26274510 0.77254902 0.45490196
v 0.00314298 -0.02816629 0.03180095 0.26274510 0.77254902 0.45490196
v -0.00129988 -0.02948949 0.03068976 0.26274510 0.77254902 0.45490196
v -0.00129988 -0.02878158 0.03132175 0.26274510 0.77254902 0.45490196
v -0.00129988 -0.02915869 0.03098839 0.26274510 0.77254902 0.45490196
v -0.00129988 -0.02899660 -0.02903024 0.26274510 0.77254902 0.45490196
v -0.00062863 -0.02903299 -0.02907885 0.26274510 0.77254902 0.45490196
v 0.00062896 -0.02862941 -0.02979419 0.26274510 0.77254902 0.45490196
v 0.00188597 -0.02802736 -0.03057897 0.26274510 0.77254902 0.45490196
v 0.00314298 -0.02800751 -0.03056508 0.26274510 0.77254902 0.45490196
v 0.00440057 -0.02793473 -0.03048868 0.26274510 0.77254902 0.45490196
v 0.00460045 -0.02802736 -0.03033590 0.26274510 0.77254902 0.45490196
v -0.00062863 -0.02817291 0.03179401 0.26274510 0.77254902 0.45490196
v 0.00440057 -0.02724667 0.03241211 0.26274510 0.77254902 0.45490196
v 0.00314298 -0.02725659 0.03243295 0.26274510 0.77254902 0.45490196
v 0.00188597 -0.02725659 0.03244684 0.26274510 0.77254902 0.45490196
v 0.00062896 -0.02722682 0.03243989 0.26274510 0.77254902 0.45490196
v 0.00460045 -0.02798766 0.03187735 0.26274510 0.77254902 0.45490196
v -0.00129988 -0.02815306 0.03178012 0.26274510 0.77254902 0.45490196
v -0.00129988 -0.02852687 -0.02965529 0.26274510 0.77254902 0.45490196
v -0.00062863 -0.02857318 -0.02970390 0.26274510 0.77254902 0.45490196
v -0.00062863 -0.02794466 -0.03050952 0.26274510 0.77254902 0.45490196
v 0.00062896 -0.02800089 -0.03055119 0.26274510 0.77254902 0.45490196
v 0.00062896 -0.02742530 -0.03118319 0.26274510 0.77254902 0.45490196
v 0.00188597 -0.02744184 -0.03120402 0.26274510 0.77254902 0.45490196
v 0.00314298 -0.02743192 -0.03119708 0.26274510 0.77254902 0.45490196
v 0.00460045 -0.02791819 -0.03046785 0.26274510 0.77254902 0.45490196
v 0.00440057 -0.02736245 -0.03111373 0.26274510 0.77254902 0.45490196
v 0.00460045 -0.02734922 -0.03109984 0.26274510 0.77254902 0.45490196
v -0.00062863 -0.02719374 0.03241906 0.26274510 0.77254902 0.45490196
v -0.00129988 -0.02716397 0.03241211 0.26274510 0.77254902 0.45490196
v 0.00460045 -0.02724005 0.03240517 0.26274510 0.77254902 0.45490196
v 0.00460045 -0.02714081 0.03247462 0.26274510 0.77254902 0.45490196
v 0.00460045 -0.02661153 0.03282187 0.26274510 0.77254902 0.45490196
v 0.00440057 -0.02661815 0.03282187 0.26274510 0.77254902 0.45490196
v 0.00314298 -0.02662807 0.03282187 0.26274510 0.77254902 0.45490196
v 0.00188597 -0.02662807 0.03281492 0.26274510 0.77254902 0.45490196
v 0.00062896 -0.02659830 0.03279409 0.26274510 0.77254902 0.45490196
v -0.00129988 -0.02789835 -0.03045396 0.26274510 0.77254902 0.45490196
v -0.00062863 -0.02738891 -0.03114151 0.26274510 0.77254902 0.45490196
v 0.00062896 -0.02679678 -0.03184296 0.26274510 0.77254902 0.45490196
v 0.00188597 -0.02681332 -0.03184991 0.26274510 0.77254902 0.45490196
v 0.00314298 -0.02680340 -0.03182907 0.26274510 0.77254902 0.45490196
v 0.00460045 -0.02672070 -0.03175962 0.26274510 0.77254902 0.45490196
v -0.00062863 -0.02656522 0.03277326 0.26274510 0.77254902 0.45490196
v -0.00129988 -0.02653545 0.03275937 0.26274510 0.77254902 0.45490196
v 0.00460045 -0.02577461 0.03325940 0.26274510 0.77254902 0.45490196
v 0.00440057 -0.02577461 0.03326635 0.26274510 0.77254902 0.45490196
v 0.00314298 -0.02577461 0.03324551 0.26274510 0.77254902 0.45490196
v -0.00129988 -0.02733929 -0.03108595 0.26274510 0.77254902 0.45490196
v -0.00129988 -0.02700188 -0.03144015 0.26274510 0.77254902 0.45490196
v -0.00062863 -0.02675709 -0.03178045 0.26274510 0.77254902 0.45490196
v 0.00062896 -0.02615834 -0.03246801 0.26274510 0.77254902 0.45490196
v 0.00188597 -0.02617488 -0.03247495 0.26274510 0.77254902 0.45490196
v 0.00314298 -0.02615834 -0.03245412 0.26274510 0.77254902 0.45490196
v 0.00440057 -0.02610541 -0.03239856 0.26274510 0.77254902 0.45490196
v 0.00460045 -0.02619472 -0.03228744 0.26274510 0.77254902 0.45490196
v -0.00062863 -0.02577461 0.03312050 0.26274510 0.77254902 0.45490196
v -0.00129988 -0.02616826 0.03291910 0.26274510 0.77254902 0.45490196
v 0.00460045 -0.02559267 0.03334274 0.26274510 0.77254902 0.45490196
v 0.00460045 -0.02463335 0.03375944 0.26274510 0.77254902 0.45490196
v 0.00440057 -0.02463335 0.03375944 0.26274510 0.77254902 0.45490196
v -0.00129988 -0.02671077 -0.03173184 0.26274510 0.77254902 0.45490196
v -0.00129988 -0.02635351 -0.03207215 0.26274510 0.77254902 0.45490196
v -0.00062863 -0.02608887 -0.03241245 0.26274510 0.77254902 0.45490196
v 0.00062896 -0.02552982 -0.03299583 0.26274510 0.77254902 0.45490196
v 0.00188597 -0.02554635 -0.03301666 0.26274510 0.77254902 0.45490196
v 0.00314298 -0.02552982 -0.03301666 0.26274510 0.77254902 0.45490196
v 0.00440057 -0.02547689 -0.03298888 0.26274510 0.77254902 0.45490196
v 0.00460045 -0.02609548 -0.03238467 0.26274510 0.77254902 0.45490196
v 0.00460045 -0.02556620 -0.03288471 0.26274510 0.77254902 0.45490196
v -0.00129988 -0.02577461 0.03308578 0.26274510 0.77254902 0.45490196
v 0.00303091 -0.02443818 0.03378028 0.26274510 0.77254902 0.45490196
v 0.00337521 -0.02396844 0.03397474 0.26274510 0.77254902 0.45490196
v 0.00460045 -0.02400483 0.03398863 0.26274510 0.77254902 0.45490196
v 0.00440057 -0.02400483 0.03398863 0.26274510 0.77254902 0.45490196
v -0.00129988 -0.02604256 -0.03236383 0.26274510 0.77254902 0.45490196
v -0.00129988 -0.02570845 -0.03265552 0.26274510 0.77254902 0.45490196
v -0.00062863 -0.02546035 -0.03294027 0.26274510 0.77254902 0.45490196
v 0.00062896 -0.02467635 -0.03362088 0.26274510 0.77254902 0.45490196
v 0.00188597 -0.02471935 -0.03364171 0.26274510 0.77254902 0.45490196
v 0.00314298 -0.02473259 -0.03364171 0.26274510 0.77254902 0.45490196
v 0.00440057 -0.02472928 -0.03361393 0.26274510 0.77254902 0.45490196
v 0.00460045 -0.02546696 -0.03297499 0.26274510 0.77254902 0.45490196
v 0.00460045 -0.02471935 -0.03360699 0.26274510 0.77254902 0.45490196
v -0.00129988 -0.02518909 0.03328024 0.26274510 0.77254902 0.45490196
v 0.00460045 -0.02388574 0.03402336 0.26274510 0.77254902 0.45490196
v 0.00460045 -0.02326053 0.03417614 0.26274510 0.77254902 0.45490196
v 0.00440057 -0.02326053 0.03416920 0.26274510 0.77254902 0.45490196
v 0.00303091 -0.02337961 0.03407197 0.26274510 0.77254902 0.45490196
v 0.00253701 -0.02387912 0.03394696 0.26274510 0.77254902 0.45490196
v -0.00129988 -0.02451757 0.03350248 0.26274510 0.77254902 0.45490196
v -0.00129988 -0.02541404 -0.03289860 0.26274510 0.77254902 0.45490196
v -0.00129988 -0.02489799 -0.03328057 0.26274510 0.77254902 0.45490196
v -0.00129988 -0.02450103 -0.03357226 0.26274510 0.77254902 0.45490196
v -0.00062863 -0.02460358 -0.03356532 0.26274510 0.77254902 0.45490196
v -0.00062863 -0.02397506 -0.03400285 0.26274510 0.77254902 0.45490196
v 0.00062896 -0.02404783 -0.03405147 0.26274510 0.77254902 0.45490196
v 0.00188597 -0.02409084 -0.03407924 0.26274510 0.77254902 0.45490196
v 0.00314298 -0.02410407 -0.03409314 0.26274510 0.77254902 0.45490196
v 0.00440057 -0.02410076 -0.03410008 0.26274510 0.77254902 0.45490196
v 0.00460045 -0.02409084 -0.03409314 0.26274510 0.77254902 0.45490196
v 0.00460045 -0.02305874 0.03421781 0.26274510 0.77254902 0.45490196
v 0.00084616 -0.02287018 0.03398168 0.26274510 0.77254902 0.45490196
v 0.00188597 -0.02374680 0.03392612 0.26274510 0.77254902 0.45490196
v 0.00460045 -0.02200349 0.03438449 0.26274510 0.77254902 0.45490196
v 0.00440057 -0.02200349 0.03437060 0.26274510 0.77254902 0.45490196
v -0.00129988 -0.02393205 0.03362055 0.26274510 0.77254902 0.45490196
v -0.00129988 -0.02405114 -0.03389173 0.26274510 0.77254902 0.45490196
v -0.00129988 -0.02393205 -0.03397507 0.26274510 0.77254902 0.45490196
v 0.00062896 -0.02326053 -0.03452372 0.26274510 0.77254902 0.45490196
v 0.00188597 -0.02326053 -0.03459318 0.26274510 0.77254902 0.45490196
v 0.00314298 -0.02326053 -0.03462096 0.26274510 0.77254902 0.45490196
v 0.00440057 -0.02326053 -0.03462790 0.26274510 0.77254902 0.45490196
v 0.00460045 -0.02338292 -0.03453762 0.26274510 0.77254902 0.45490196
v 0.00000796 -0.02262208 0.03394696 0.26274510 0.77254902 0.45490196
v -0.00129988 -0.02326053 0.03375250 0.26274510 0.77254902 0.45490196
v 0.00460045 -0.02180170 0.03440533 0.26274510 0.77254902 0.45490196
v -0.00129988 -0.02331345 -0.03432927 0.26274510 0.77254902 0.45490196
v -0.00062863 -0.02326053 -0.03441955 0.26274510 0.77254902 0.45490196
v 0.00062896 -0.02230121 -0.03504460 0.26274510 0.77254902 0.45490196
v 0.00188597 -0.02238391 -0.03508627 0.26274510 0.77254902 0.45490196
v 0.00314298 -0.02242029 -0.03510016 0.26274510 0.77254902 0.45490196
v 0.00440057 -0.02244345 -0.03510710 0.26274510 0.77254902 0.45490196
v 0.00460045 -0.02326053 -0.03461401 0.26274510 0.77254902 0.45490196
v 0.00460045 -0.02243353 -0.03510016 0.26274510 0.77254902 0.45490196
v -0.00129988 -0.02205972 0.03385667 0.26274510 0.77254902 0.45490196
v -0.00129988 -0.02272463 0.03380806 0.26274510 0.77254902 0.45490196
v 0.00460045 -0.02074975 0.03448172 0.26274510 0.77254902 0.45490196
v 0.00050765 -0.02212257 0.03402336 0.26274510 0.77254902 0.45490196
v -0.00023119 -0.02178185 0.03397474 0.26274510 0.77254902 0.45490196
v -0.00129988 -0.02203657 -0.03498210 0.26274510 0.77254902 0.45490196
v -0.00062863 -0.02216889 -0.03498904 0.26274510 0.77254902 0.45490196
v 0.00062896 -0.02167268 -0.03533629 0.26274510 0.77254902 0.45490196
v 0.00188597 -0.02175539 -0.03537796 0.26274510 0.77254902 0.45490196
v 0.00440057 -0.02181493 -0.03542658 0.26274510 0.77254902 0.45490196
v 0.00460045 -0.02180500 -0.03541963 0.26274510 0.77254902 0.45490196
v -0.00129988 -0.02074975 0.03387056 0.26274510 0.77254902 0.45490196
v 0.00460045 -0.02054797 0.03448867 0.26274510 0.77254902 0.45490196
v -0.00129988 -0.02162637 -0.03516961 0.26274510 0.77254902 0.45490196
v -0.00062863 -0.02154037 -0.03527379 0.26274510 0.77254902 0.45490196
v 0.00062896 -0.02074975 -0.03569743 0.26274510 0.77254902 0.45490196
v 0.00188597 -0.02074975 -0.03578771 0.26274510 0.77254902 0.45490196
v 0.00314298 -0.02074975 -0.03585022 0.26274510 0.77254902 0.45490196
v 0.00440057 -0.02074975 -0.03589189 0.26274510 0.77254902 0.45490196
v 0.00460045 -0.02074975 -0.03589189 0.26274510 0.77254902 0.45490196
v -0.00129988 -0.02025024 0.03384279 0.26274510 0.77254902 0.45490196
v 0.00460045 -0.01948940 0.03447478 0.26274510 0.77254902 0.45490196
v -0.00129988 -0.02146428 -0.03523906 0.26274510 0.77254902 0.45490196
v -0.00129988 -0.02079937 -0.03546825 0.26274510 0.77254902 0.45490196
v -0.00062863 -0.02074975 -0.03555853 0.26274510 0.77254902 0.45490196
v 0.00062896 -0.01948940 -0.03600301 0.26274510 0.77254902 0.45490196
v 0.00188597 -0.01948940 -0.03612108 0.26274510 0.77254902 0.45490196
v -0.00129988 -0.02118310 -0.03533629 0.26274510 0.77254902 0.45490196
v 0.00314298 -0.01948940 -0.03620441 0.26274510 0.77254902 0.45490196
v 0.00440057 -0.01948940 -0.03625997 0.26274510 0.77254902 0.45490196
v 0.00460045 -0.01948940 -0.03625997 0.26274510 0.77254902 0.45490196
v -0.00129988 -0.01953572 0.03379417 0.26274510 0.77254902 0.45490196
v 0.00460045 -0.01929092 0.03446089 0.26274510 0.77254902 0.45490196
v -0.00129988 -0.02007492 -0.03564187 0.26274510 0.77254902 0.45490196
v 0.00062896 -0.01823236 -0.03610719 0.26274510 0.77254902 0.45490196
v 0.00188597 -0.01823236 -0.03623914 0.26274510 0.77254902 0.45490196
v -0.00129988 -0.01948940 -0.03578077 0.26274510 0.77254902 0.45490196
v 0.00314298 -0.01823236 -0.03634331 0.26274510 0.77254902 0.45490196
v 0.00450571 -0.01812651 -0.03641971 0.26274510 0.77254902 0.45490196
v 0.00460045 -0.01813974 -0.03641971 0.26274510 0.77254902 0.45490196
v -0.00129988 -0.01890389 0.03369694 0.26274510 0.77254902 0.45490196
v 0.00460045 -0.01823236 0.03436366 0.26274510 0.77254902 0.45490196
v -0.00129988 -0.01881788 -0.03583633 0.26274510 0.77254902 0.45490196
v -0.00129988 -0.01823236 -0.03587800 0.26274510 0.77254902 0.45490196
v 0.00062896 -0.01697532 -0.03612108 0.26274510 0.77254902 0.45490196
v 0.00188597 -0.01697532 -0.03625303 0.26274510 0.77254902 0.45490196
v 0.00314298 -0.01697532 -0.03637109 0.26274510 0.77254902 0.45490196
v 0.00429544 -0.01697532 -0.03644054 0.26274510 0.77254902 0.45490196
v 0.00460045 -0.01726643 -0.03644749 0.26274510 0.77254902 0.45490196
v 0.00460045 -0.01803057 -0.03642665 0.26274510 0.77254902 0.45490196
v -0.00129988 -0.01823236 0.03358582 0.26274510 0.77254902 0.45490196
v 0.00460045 -0.01693232 0.03414836 0.26274510 0.77254902 0.45490196
v -0.00129988 -0.01697532 -0.03588495 0.26274510 0.77254902 0.45490196
v 0.00062896 -0.01571828 -0.03610719 0.26274510 0.77254902 0.45490196
v 0.00188597 -0.01571828 -0.03625303 0.26274510 0.77254902 0.45490196
v 0.00314298 -0.01571828 -0.03636415 0.26274510 0.77254902 0.45490196
v 0.00421283 -0.01571828 -0.03644054 0.26274510 0.77254902 0.45490196
v 0.00460045 -0.01571828 -0.03646138 0.26274510 0.77254902 0.45490196
v 0.00460045 -0.01667429 0.03409975 0.26274510 0.77254902 0.45490196
v 0.00460045 -0.01613840 0.03399557 0.26274510 0.77254902 0.45490196
v -0.00129988 -0.01764685 0.03346081 0.26274510 0.77254902 0.45490196
v -0.00129988 -0.01571828 -0.03583633 0.26274510 0.77254902 0.45490196
v -0.00062863 -0.01571828 -0.03593356 0.26274510 0.77254902 0.45490196
v 0.00188597 -0.01446124 -0.03619747 0.26274510 0.77254902 0.45490196
v 0.00314298 -0.01446124 -0.03632248 0.26274510 0.77254902 0.45490196
v 0.00460045 -0.01464318 -0.03644054 0.26274510 0.77254902 0.45490196
v 0.00460045 -0.01543710 0.03382195 0.26274510 0.77254902 0.45490196
v -0.00129988 -0.01697532 0.03330802 0.26274510 0.77254902 0.45490196
v -0.00129988 -0.01446124 -0.03569743 0.26274510 0.77254902 0.45490196
v 0.00062896 -0.01446124 -0.03602384 0.26274510 0.77254902 0.45490196
v 0.00314298 -0.01320420 -0.03617663 0.26274510 0.77254902 0.45490196
v 0.00460045 -0.01440170 -0.03642665 0.26274510 0.77254902 0.45490196
v 0.00460045 -0.01448770 -0.03643360 0.26274510 0.77254902 0.45490196
v 0.00440057 -0.01320420 -0.03630165 0.26274510 0.77254902 0.45490196
v 0.00460045 -0.01426276 0.03350248 0.26274510 0.77254902 0.45490196
v -0.00129988 -0.01638981 0.03314134 0.26274510 0.77254902 0.45490196
v -0.00129988 -0.01388234 -0.03555853 0.26274510 0.77254902 0.45490196
v 0.00062896 -0.01320420 -0.03577382 0.26274510 0.77254902 0.45490196
v 0.00188597 -0.01320420 -0.03600301 0.26274510 0.77254902 0.45490196
v 0.00440057 -0.01194716 -0.03600995 0.26274510 0.77254902 0.45490196
v 0.00460045 -0.01194716 -0.03603079 0.26274510 0.77254902 0.45490196
v 0.00314298 -0.01194716 -0.03583633 0.26274510 0.77254902 0.45490196
v 0.00460045 -0.01342584 -0.03633637 0.26274510 0.77254902 0.45490196
v 0.00460045 -0.01320089 -0.03631554 0.26274510 0.77254902 0.45490196
v 0.00460045 -0.01300241 0.03313440 0.26274510 0.77254902 0.45490196
v -0.00129988 -0.01567528 0.03293299 0.26274510 0.77254902 0.45490196
v -0.00129988 -0.01324059 -0.03539880 0.26274510 0.77254902 0.45490196
v -0.00129988 -0.01292633 -0.03530156 0.26274510 0.77254902 0.45490196
v 0.00176062 -0.01182145 -0.03552380 0.26274510 0.77254902 0.45490196
v 0.00460045 -0.01061734 -0.03550991 0.26274510 0.77254902 0.45490196
v 0.00209624 -0.01112016 -0.03530156 0.26274510 0.77254902 0.45490196
v 0.00314298 -0.01090183 -0.03539880 0.26274510 0.77254902 0.45490196
v 0.00460045 -0.01202655 0.03284270 0.26274510 0.77254902 0.45490196
v 0.00460045 -0.01191077 0.03280798 0.26274510 0.77254902 0.45490196
v 0.00460045 -0.01142119 0.03265519 0.26274510 0.77254902 0.45490196
v -0.00129988 -0.01502029 0.03271075 0.26274510 0.77254902 0.45490196
v -0.00129988 -0.01195708 -0.03490570 0.26274510 0.77254902 0.45490196
v 0.00125862 -0.01131864 -0.03520434 0.26274510 0.77254902 0.45490196
v 0.00437804 -0.01060411 -0.03546825 0.26274510 0.77254902 0.45490196
v 0.00460045 -0.01025346 -0.03535018 0.26274510 0.77254902 0.45490196
v 0.00176062 -0.01069673 -0.03499599 0.26274510 0.77254902 0.45490196
v 0.00314298 -0.01027331 -0.03509321 0.26274510 0.77254902 0.45490196
v 0.00394363 -0.01012776 -0.03516961 0.26274510 0.77254902 0.45490196
v 0.00460045 -0.01089521 0.03246767 0.26274510 0.77254902 0.45490196
v -0.00129988 -0.01492105 0.03267602 0.26274510 0.77254902 0.45490196
v -0.00129988 -0.01138149 -0.03461401 0.26274510 0.77254902 0.45490196
v -0.00129988 -0.01070666 -0.03425982 0.26274510 0.77254902 0.45490196
v 0.00460045 -0.00976057 -0.03509321 0.26274510 0.77254902 0.45490196
v -0.00129988 -0.01037586 -0.03407924 0.26274510 0.77254902 0.45490196
v 0.00314298 -0.00943308 -0.03460012 0.26274510 0.77254902 0.45490196
v 0.00437804 -0.00950255 -0.03491264 0.26274510 0.77254902 0.45490196
v 0.00460045 -0.00944962 -0.03492653 0.26274510 0.77254902 0.45490196
v 0.00460045 -0.01064711 0.03237739 0.26274510 0.77254902 0.45490196
v -0.00129988 -0.01443478 0.03249546 0.26274510 0.77254902 0.45490196
v 0.00238392 -0.00875163 -0.03398202 0.26274510 0.77254902 0.45490196
v 0.00193334 -0.00938015 -0.03426676 0.26274510 0.77254902 0.45490196
v -0.00129988 -0.00945954 -0.03348198 0.26274510 0.77254902 0.45490196
v 0.00314298 -0.00861269 -0.03407924 0.26274510 0.77254902 0.45490196
v 0.00440057 -0.00837782 -0.03423204 0.26274510 0.77254902 0.45490196
v 0.00460045 -0.00850353 -0.03435705 0.26274510 0.77254902 0.45490196
v 0.00460045 -0.00430567 0.02996053 0.26274510 0.77254902 0.45490196
v -0.00129988 -0.00430567 0.02862015 0.26274510 0.77254902 0.45490196
v 0.00440057 -0.00774600 -0.03379450 0.26274510 0.77254902 0.45490196
v 0.00460045 -0.00770961 -0.03382228 0.26274510 0.77254902 0.45490196
v -0.00129988 -0.00903612 -0.03318334 0.26274510 0.77254902 0.45490196
v 0.00460045 -0.00832820 -0.03424593 0.26274510 0.77254902 0.45490196
v 0.00460045 -0.00430567 -0.03089844 0.26274510 0.77254902 0.45490196
v -0.00129988 -0.00430567 -0.02907885 0.26274510 0.77254902 0.45490196
v -0.00129988 -0.00859615 -0.03285693 0.26274510 0.77254902 0.45490196
v -0.00129988 -0.00825874 -0.03258607 0.26274510 0.77254902 0.45490196
v 0.00460045 -0.00665436 -0.03297499 0.26274510 0.77254902 0.45490196
v 0.00460045 -0.00564872 -0.03208603 0.26274510 0.77254902 0.45490196
v -0.00129988 -0.00755413 -0.03199575 0.26274510 0.77254902 0.45490196
v -0.00129988 -0.00449754 -0.02925248 0.26274510 0.77254902 0.45490196
f 694 703 697
f 696 699 704
f 697 703 705
f 697 705 698
f 698 705 706
f 698 706 707
f 698 707 699
f 699 707 708
f 643 651 652
f 643 652 653
f 643 653 644
f 644 653 654
f 644 654 645
f 647 648 655
f 647 655 656
f 647 656 657
f 635 646 636
f 637 638 647
f 638 648 647
f 640 649 641
f 641 649 650
f 641 650 651
f 641 651 642
f 642 651 643
f 676 678 686
f 676 686 677
f 678 685 687
f 678 687 688
f 678 688 686
f 681 689 682
f 682 689 690
f 682 690 691
f 665 674 675
f 665 675 666
f 667 676 677
f 667 677 670
f 667 675 678
f 667 678 676
f 668 670 679
f 670 677 680
f 706 714 715
f 706 715 716
f 706 716 707
f 707 716 708
f 709 717 710
f 710 717 718
f 711 719 720
f 711 720 714
f 687 698 688
f 688 698 699
f 688 699 696
f 688 696 695
f 691 700 701
f 691 701 692
f 693 702 694
f 694 702 703
f 699 708 704
f 711 721 719
f 714 720 715
f 715 722 716
f 715 720 722
f 717 723 724
f 717 724 718
f 719 721 725
f 16 330 349
f 16 349 348
f 16 348 368
f 16 368 384
f 16 384 386
f 16 386 401
f 16 401 400
f 16 400 418
f 1 2 3
f 1 3 4
f 1 4 5
f 1 5 6
f 1 6 7
f 1 7 2
f 2 8 9
f 2 9 3
f 16 34 58
f 16 58 57
f 16 57 80
f 16 80 79
f 16 79 107
f 16 107 106
f 16 106 105
f 16 105 134
f 12 30 31
f 12 31 32
f 12 32 13
f 13 32 33
f 13 33 15
f 13 15 14
f 15 33 16
f 16 33 34
f 16 672 682
f 16 682 692
f 16 692 701
f 16 701 710
f 16 710 718
f 16 718 724
f 16 724 730
f 16 730 729
f 9 23 26
f 9 26 11
f 10 22 27
f 10 27 24
f 11 26 28
f 11 28 29
f 11 29 30
f 11 30 12
f 6 18 19
f 7 20 21
f 7 21 22
f 7 22 10
f 8 23 9
f 8 10 24
f 8 24 25
f 8 25 23
f 16 418 436
f 16 436 456
f 16 456 473
f 16 473 475
f 16 475 474
f 16 474 489
f 16 489 501
f 16 501 516
f 16 589 580
f 16 580 579
f 16 579 565
f 16 565 564
f 16 564 563
f 16 563 548
f 16 548 547
f 16 547 534
f 16 222 239
f 16 239 253
f 16 253 256
f 16 256 255
f 16 255 272
f 16 272 290
f 16 290 309
f 16 309 330
f 16 134 133
f 16 133 136
f 16 136 161
f 16 161 160
f 16 160 182
f 16 182 202
f 16 202 220
f 16 220 222
f 16 729 726
f 16 726 725
f 16 725 721
f 16 721 713
f 16 713 705
f 16 705 703
f 16 703 702
f 16 702 693
f 16 257 241
f 16 241 224
f 16 224 223
f 16 223 204
f 16 204 203
f 16 203 183
f 16 183 164
f 16 164 163
f 16 597 608
f 16 608 617
f 16 617 628
f 16 628 637
f 16 637 647
f 16 647 657
f 16 657 664
f 16 664 672
f 16 516 529
f 16 529 542
f 16 542 556
f 16 556 562
f 16 562 578
f 16 578 587
f 16 587 598
f 16 598 597
f 16 534 533
f 16 533 521
f 16 521 520
f 16 520 509
f 16 509 490
f 16 490 476
f 16 476 458
f 16 458 457
f 23 25 43
f 23 43 41
f 23 41 26
f 24 27 25
f 25 27 42
f 25 42 43
f 26 44 45
f 26 45 28
f 16 639 633
f 16 633 630
f 16 630 620
f 16 620 624
f 16 624 619
f 16 619 610
f 16 610 602
f 16 602 589
f 16 693 684
f 16 684 683
f 16 683 673
f 16 673 665
f 16 665 658
f 16 658 649
f 16 649 640
f 16 640 639
f 16 163 162
f 16 162 139
f 16 139 138
f 16 138 137
f 16 137 111
f 16 111 110
f 16 110 109
f 16 109 108
f 38 60 39
f 39 60 61
f 39 61 40
f 40 61 62
f 40 62 46
f 41 43 65
f 41 65 64
f 41 64 69
f 16 369 351
f 16 351 350
f 16 350 331
f 16 331 311
f 16 311 310
f 16 310 291
f 16 291 273
f 16 273 257
f 16 457 438
f 16 438 422
f 16 422 421
f 16 421 424
f 16 424 420
f 16 420 403
f 16 403 387
f 16 387 369
f 26 41 44
f 27 40 46
f 27 46 42
f 28 45 47
f 28 47 48
f 28 48 29
f 29 48 49
f 29 49 50
f 41 361 378
f 41 378 374
f 41 374 377
f 41 377 393
f 41 393 394
f 41 394 409
f 41 409 429
f 41 429 445
f 20 35 36
f 20 36 37
f 20 37 38
f 20 38 21
f 21 38 39
f 21 39 40
f 21 40 22
f 22 40 27
f 16 108 81
f 16 81 59
f 16 59 37
f 16 37 36
f 16 36 35
f 16 35 19
f 16 19 18
f 16 18 17
f 41 69 91
f 41 91 90
f 41 90 119
f 41 119 120
f 41 120 124
f 41 124 143
f 41 143 167
f 41 167 166
f 41 669 668
f 41 668 679
f 41 679 680
f 41 680 677
f 41 677 686
f 41 686 696
f 41 696 704
f 41 704 708
f 32 53 55
f 32 55 56
f 32 56 33
f 33 56 57
f 33 57 58
f 33 58 34
f 37 59 38
f 38 59 60
f 29 50 51
f 29 51 52
f 29 52 53
f 29 53 30
f 30 53 54
f 30 54 31
f 31 54 32
f 32 54 53
f 41 445 463
f 41 463 465
f 41 465 482
f 41 482 497
f 41 497 499
f 41 499 514
f 41 514 527
f 41 527 540
f 41 588 576
f 41 576 573
f 41 573 558
f 41 558 557
f 41 557 545
f 41 545 531
f 41 531 530
f 41 530 517
f 41 248 265
f 41 265 281
f 41 281 280
f 41 280 300
f 41 300 299
f 41 299 322
f 41 322 341
f 41 341 361
f 41 166 173
f 41 173 190
f 41 190 189
f 41 189 209
f 41 209 229
f 41 229 230
f 41 230 233
f 41 233 248
f 41 708 716
f 41 716 722
f 41 722 720
f 41 720 727
f 41 727 728
f 41 728 723
f 41 723 717
f 41 717 709
f 41 267 250
f 41 250 235
f 41 235 213
f 41 213 212
f 41 212 193
f 41 193 191
f 41 191 174
f 41 174 154
f 41 607 616
f 41 616 627
f 41 627 636
f 41 636 646
f 41 646 645
f 41 645 654
f 41 654 662
f 41 662 669
f 41 540 541
f 41 541 554
f 41 554 555
f 41 555 572
f 41 572 585
f 41 585 595
f 41 595 596
f 41 596 607
f 41 517 504
f 41 504 503
f 41 503 502
f 41 502 488
f 41 488 470
f 41 470 452
f 41 452 451
f 41 451 447
f 51 70 52
f 52 70 71
f 52 71 53
f 53 71 72
f 53 72 73
f 53 73 55
f 55 73 74
f 55 74 75
f 41 656 655
f 41 655 648
f 41 648 638
f 41 638 629
f 41 629 618
f 41 618 609
f 41 609 599
f 41 599 588
f 41 709 700
f 41 700 691
f 41 691 690
f 41 690 689
f 41 689 681
f 41 681 671
f 41 671 663
f 41 663 656
f 41 154 153
f 41 153 152
f 41 152 151
f 41 151 150
f 41 150 149
f 41 149 125
f 41 125 95
f 41 95 70
f 67 92 93
f 67 93 94
f 67 94 89
f 68 91 69
f 70 95 96
f 70 96 97
f 70 97 71
f 71 97 72
f 41 362 342
f 41 342 324
f 41 324 323
f 41 323 303
f 41 303 302
f 41 302 301
f 41 301 284
f 41 284 267
f 41 447 446
f 41 446 430
f 41 430 412
f 41 412 411
f 41 411 410
f 41 410 395
f 41 395 379
f 41 379 362
f 55 75 76
f 55 76 77
f 55 77 78
f 55 78 56
f 56 78 79
f 56 79 80
f 56 80 57
f 59 81 60
f 83 112 84
f 84 113 114
f 84 114 115
f 84 115 116
f 84 116 85
f 84 112 113
f 85 116 86
f 86 116 115
f 42 63 64
f 42 64 65
f 42 65 43
f 46 62 66
f 46 66 67
f 46 67 68
f 46 68 69
f 46 69 63
f 41 70 51
f 41 51 50
f 41 50 49
f 41 49 48
f 41 48 47
f 41 47 45
f 41 45 44
f 42 46 63
f 72 98 99
f 72 99 100
f 72 100 74
f 72 74 73
f 72 97 98
f 74 101 75
f 74 100 102
f 74 102 130
f 99 128 129
f 99 129 102
f 99 102 100
f 101 130 104
f 102 129 131
f 102 131 132
f 102 132 130
f 103 104 133
f 62 88 66
f 62 86 87
f 63 69 64
f 66 88 67
f 67 89 90
f 67 90 91
f 67 91 68
f 67 88 92
f 60 81 82
f 60 82 61
f 61 82 83
f 61 83 84
f 61 84 85
f 61 85 86
f 61 86 62
f 62 87 88
f 86 115 117
f 86 117 118
f 86 118 87
f 87 118 88
f 88 118 92
f 89 119 90
f 89 94 120
f 89 120 119
f 123 147 148
f 123 148 142
f 125 149 126
f 126 149 127
f 127 150 151
f 127 151 152
f 127 152 128
f 127 149 150
f 78 106 107
f 78 107 79
f 81 108 82
f 82 108 83
f 83 108 109
f 83 109 110
f 83 110 111
f 83 111 112
f 74 130 101
f 75 101 76
f 76 103 77
f 76 101 104
f 76 104 103
f 77 103 105
f 77 105 106
f 77 106 78
f 103 133 134
f 103 134 105
f 104 130 132
f 104 132 135
f 104 135 136
f 104 136 133
f 111 137 112
f 112 137 113
f 145 169 146
f 145 165 168
f 146 169 170
f 146 170 171
f 146 171 147
f 147 171 172
f 147 172 148
f 148 172 173
f 94 124 120
f 95 125 96
f 96 125 126
f 96 126 97
f 97 126 98
f 98 126 127
f 98 127 99
f 99 127 128
f 92 118 117
f 92 117 93
f 93 121 94
f 93 117 122
f 93 122 123
f 93 123 121
f 94 121 143
f 94 143 124
f 128 152 153
f 128 153 154
f 128 154 155
f 128 155 129
f 129 155 156
f 129 156 157
f 129 157 131
f 131 157 132
f 171 187 188
f 171 188 172
f 172 188 189
f 172 189 190
f 172 190 173
f 174 191 175
f 175 191 192
f 175 192 176
f 117 140 122
f 121 123 142
f 121 142 143
f 122 144 145
f 122 145 146
f 122 146 147
f 122 147 123
f 122 140 144
f 113 137 138
f 113 138 139
f 113 139 114
f 114 140 115
f 114 139 162
f 114 162 141
f 114 141 140
f 115 140 117
f 148 173 166
f 154 174 175
f 154 175 155
f 155 175 176
f 155 176 156
f 156 176 177
f 156 177 178
f 156 178 157
f 187 207 208
f 187 208 188
f 188 209 189
f 188 208 210
f 188 210 211
f 188 211 209
f 191 193 192
f 193 212 194
f 141 164 165
f 141 165 145
f 141 145 144
f 141 162 163
f 142 148 166
f 142 166 167
f 142 167 143
f 145 168 169
f 132 157 158
f 132 158 135
f 135 158 159
f 135 159 160
f 135 160 161
f 135 161 136
f 140 141 144
f 141 163 164
f 176 192 193
f 176 193 194
f 176 194 195
f 176 195 178
f 176 178 177
f 178 195 196
f 178 196 197
f 178 197 198
f 205 226 206
f 206 226 227
f 206 227 207
f 207 227 208
f 208 227 228
f 208 228 210
f 209 211 210
f 209 210 229
f 164 168 165
f 168 183 184
f 168 184 169
f 169 184 185
f 169 185 170
f 170 185 186
f 170 186 171
f 171 186 187
f 157 179 158
f 157 178 179
f 158 179 180
f 158 180 181
f 158 181 160
f 158 160 159
f 160 181 182
f 164 183 168
f 194 212 213
f 194 213 195
f 195 213 214
f 195 214 215
f 195 215 196
f 196 215 216
f 196 216 217
f 196 217 218
f 227 231 228
f 231 243 245
f 231 245 246
f 231 246 232
f 232 246 247
f 232 247 248
f 232 248 233
f 234 235 249
f 183 203 184
f 184 204 205
f 184 205 206
f 184 206 185
f 184 203 204
f 185 206 186
f 186 206 207
f 186 207 187
f 178 198 179
f 179 198 180
f 180 198 199
f 180 199 181
f 181 199 200
f 181 200 201
f 181 201 182
f 182 201 202
f 210 230 229
f 210 228 231
f 210 231 232
f 210 232 233
f 210 233 230
f 213 234 214
f 213 235 234
f 214 234 236
f 246 264 265
f 246 265 248
f 246 248 247
f 249 250 266
f 249 266 251
f 250 267 266
f 251 266 268
f 251 268 269
f 201 218 217
f 201 217 221
f 201 221 222
f 201 222 220
f 204 223 205
f 205 223 224
f 205 224 225
f 205 225 226
f 196 218 197
f 197 218 198
f 198 218 219
f 198 219 199
f 199 219 201
f 199 201 200
f 201 220 202
f 201 219 218
f 234 249 236
f 235 250 249
f 236 249 237
f 237 249 251
f 237 251 252
f 237 252 238
f 238 252 240
f 239 240 253
f 266 283 268
f 267 284 282
f 268 283 285
f 268 285 286
f 268 286 269
f 269 286 287
f 269 287 288
f 269 288 270
f 221 240 239
f 224 241 225
f 225 241 242
f 225 242 244
f 225 244 226
f 226 243 227
f 226 244 243
f 227 243 231
f 214 236 215
f 215 236 216
f 216 236 237
f 216 237 217
f 217 237 238
f 217 238 221
f 221 239 222
f 221 238 240
f 251 269 270
f 251 270 252
f 252 270 271
f 252 271 254
f 254 271 272
f 254 272 255
f 257 273 258
f 258 273 274
f 283 302 285
f 285 303 304
f 285 304 286
f 285 302 303
f 286 304 305
f 286 305 306
f 286 306 287
f 287 306 288
f 243 259 245
f 244 258 260
f 244 260 259
f 245 259 261
f 245 261 246
f 246 261 262
f 246 262 263
f 246 263 264
f 240 252 254
f 240 254 255
f 240 255 256
f 240 256 253
f 241 257 258
f 241 258 242
f 242 258 244
f 243 244 259
f 270 288 289
f 270 289 271
f 271 289 290
f 271 290 272
f 273 291 274
f 274 291 310
f 274 310 292
f 274 292 275
f 298 322 299
f 303 323 304
f 304 323 324
f 304 324 325
f 304 325 326
f 304 326 305
f 305 326 327
f 305 327 306
f 262 279 263
f 262 276 277
f 263 280 264
f 263 279 280
f 264 280 281
f 264 281 265
f 266 267 282
f 266 282 283
f 258 274 260
f 259 260 275
f 259 275 276
f 259 276 261
f 260 274 275
f 261 276 262
f 262 277 278
f 262 278 279
f 288 306 307
f 288 307 308
f 288 308 289
f 289 308 290
f 290 308 309
f 292 310 311
f 292 311 312
f 292 312 293
f 321 340 341
f 321 341 322
f 324 342 343
f 324 343 325
f 325 343 344
f 325 344 326
f 326 344 327
f 327 344 345
f 278 297 279
f 279 297 298
f 279 298 299
f 279 299 300
f 279 300 280
f 282 284 283
f 283 284 301
f 283 301 302
f 275 292 293
f 275 293 276
f 276 293 277
f 277 293 294
f 277 294 295
f 277 295 278
f 278 295 296
f 278 296 297
f 306 327 307
f 307 327 328
f 307 328 308
f 308 328 329
f 308 329 330
f 308 330 309
f 311 331 312
f 312 331 332
f 338 360 339
f 339 341 340
f 339 360 361
f 339 361 341
f 342 362 363
f 342 363 343
f 343 363 364
f 343 364 344
f 296 316 317
f 296 317 318
f 296 318 319
f 296 319 320
f 296 320 297
f 297 320 321
f 297 321 298
f 298 321 322
f 293 312 294
f 294 312 313
f 294 313 295
f 295 313 314
f 295 314 296
f 296 314 313
f 296 313 315
f 296 315 316
f 327 345 328
f 328 345 346
f 328 346 329
f 329 346 347
f 329 347 348
f 329 348 349
f 329 349 330
f 331 350 332
f 359 374 378
f 359 378 361
f 359 361 360
f 362 379 363
f 363 379 380
f 363 380 364
f 364 380 381
f 364 381 365
f 317 337 338
f 317 338 318
f 317 335 336
f 318 339 319
f 318 338 339
f 319 339 340
f 319 340 321
f 319 321 320
f 312 332 333
f 312 333 334
f 312 334 313
f 313 334 315
f 315 334 335
f 315 335 316
f 316 335 317
f 317 336 337
f 344 364 345
f 345 364 365
f 345 365 366
f 345 366 346
f 346 366 367
f 346 367 347
f 347 367 368
f 347 368 348
f 379 395 380
f 380 395 396
f 380 396 381
f 381 396 397
f 381 397 382
f 382 397 398
f 382 398 383
f 383 398 399
f 336 354 337
f 337 354 355
f 337 355 356
f 337 356 357
f 337 357 338
f 338 357 358
f 338 358 359
f 338 359 360
f 332 334 333
f 332 350 351
f 332 351 352
f 332 352 334
f 334 352 336
f 334 336 335
f 336 352 353
f 336 353 354
f 365 381 382
f 365 382 366
f 366 382 383
f 366 383 385
f 366 385 367
f 367 384 368
f 367 385 386
f 367 386 384
f 398 416 399
f 399 416 417
f 399 417 402
f 400 402 418
f 402 417 419
f 402 419 436
f 402 436 418
f 403 420 404
f 356 372 373
f 356 373 357
f 357 373 358
f 358 374 359
f 358 373 375
f 358 375 376
f 358 376 377
f 358 377 374
f 351 369 353
f 351 353 352
f 353 369 370
f 353 370 355
f 353 355 354
f 355 370 371
f 355 371 356
f 356 371 372
f 383 399 402
f 383 402 385
f 385 400 401
f 385 401 386
f 385 402 400
f 387 403 388
f 388 403 404
f 389 404 405
f 417 435 419
f 419 435 437
f 419 437 456
f 419 456 436
f 422 438 439
f 422 439 423
f 423 439 425
f 425 439 440
f 373 390 375
f 375 390 406
f 375 406 391
f 375 391 392
f 375 392 376
f 376 393 377
f 376 392 394
f 376 394 393
f 369 387 370
f 370 387 388
f 370 388 371
f 371 388 404
f 371 404 389
f 371 389 390
f 371 390 372
f 372 390 373
f 404 421 422
f 404 422 423
f 404 423 405
f 404 420 424
f 404 424 421
f 405 423 425
f 405 425 426
f 405 426 406
f 437 455 473
f 437 473 456
f 438 457 439
f 439 457 458
f 439 458 459
f 439 459 460
f 439 460 440
f 440 460 441
f 396 410 411
f 396 411 412
f 396 412 397
f 397 412 413
f 397 413 414
f 397 414 398
f 398 414 415
f 398 415 416
f 389 405 406
f 389 406 390
f 391 406 407
f 391 407 392
f 392 407 408
f 392 408 394
f 394 408 409
f 395 410 396
f 425 440 441
f 425 441 442
f 425 442 426
f 426 442 427
f 427 442 443
f 427 443 428
f 428 443 444
f 428 444 429
f 455 475 473
f 458 476 477
f 458 477 459
f 459 477 460
f 460 477 478
f 460 478 461
f 461 478 493
f 461 493 479
f 413 431 414
f 414 431 415
f 415 432 416
f 415 431 433
f 415 433 434
f 415 434 432
f 416 432 417
f 417 432 435
f 406 426 407
f 407 426 427
f 407 427 408
f 408 427 428
f 408 428 429
f 408 429 409
f 412 430 431
f 412 431 413
f 441 460 461
f 441 461 443
f 441 443 442
f 443 461 462
f 443 462 444
f 444 463 445
f 444 462 464
f 444 464 465
f 479 494 495
f 479 495 496
f 479 496 480
f 480 496 481
f 481 497 482
f 481 496 498
f 481 498 499
f 481 499 497
f 433 451 452
f 433 452 453
f 433 453 434
f 433 447 451
f 434 453 454
f 434 454 448
f 435 450 455
f 435 455 437
f 429 444 445
f 430 446 431
f 431 446 447
f 431 447 433
f 432 434 448
f 432 448 449
f 432 449 450
f 432 450 435
f 461 479 480
f 461 480 462
f 462 480 481
f 462 481 464
f 464 481 465
f 465 481 482
f 467 469 483
f 467 483 489
f 496 512 513
f 496 513 514
f 496 514 498
f 498 514 499
f 500 515 501
f 501 515 516
f 504 517 518
f 504 518 505
f 452 470 453
f 453 470 454
f 454 470 471
f 454 471 472
f 454 472 468
f 454 468 466
f 455 467 474
f 455 474 475
f 444 465 463
f 448 454 466
f 448 466 449
f 449 467 455
f 449 455 450
f 449 466 468
f 449 468 469
f 449 469 467
f 483 487 500
f 483 500 501
f 483 501 489
f 484 488 502
f 484 502 503
f 484 503 504
f 484 504 485
f 485 504 505
f 519 532 528
f 521 533 522
f 522 533 534
f 522 534 535
f 522 535 523
f 523 535 549
f 523 549 536
f 523 536 537
f 471 488 472
f 472 488 484
f 476 490 491
f 476 491 477
f 477 491 478
f 478 491 492
f 478 492 493
f 479 493 494
f 467 489 474
f 468 484 485
f 468 485 486
f 468 486 469
f 468 472 484
f 469 486 487
f 469 487 483
f 470 488 471
f 505 518 506
f 506 518 507
f 507 518 519
f 507 519 508
f 508 519 515
f 509 520 510
f 510 520 521
f 510 521 522
f 538 552 553
f 538 553 539
f 539 554 541
f 539 553 555
f 539 555 554
f 542 544 556
f 544 546 557
f 544 557 558
f 490 492 491
f 492 509 510
f 492 510 493
f 493 510 494
f 494 510 511
f 494 511 495
f 495 511 512
f 495 512 496
f 485 505 486
f 486 505 506
f 486 506 507
f 486 507 487
f 487 507 508
f 487 508 515
f 487 515 500
f 490 509 492
f 523 537 524
f 524 537 538
f 524 538 525
f 525 538 539
f 525 539 526
f 526 540 527
f 526 539 541
f 526 541 540
f 560 575 561
f 560 573 576
f 560 576 577
f 560 577 574
f 561 575 562
f 562 575 578
f 565 579 566
f 566 579 580
f 514 526 527
f 515 519 528
f 515 528 516
f 516 528 529
f 517 530 518
f 518 530 531
f 518 531 532
f 518 532 519
f 510 522 511
f 511 522 523
f 511 523 524
f 511 524 512
f 512 524 513
f 513 524 525
f 513 525 526
f 513 526 514
f 544 558 559
f 544 559 560
f 544 560 561
f 544 561 562
f 544 562 556
f 545 557 546
f 548 563 549
f 549 563 564
f 583 593 594
f 583 594 584
f 584 595 585
f 584 594 596
f 584 596 595
f 586 597 598
f 586 598 587
f 586 588 599
f 534 547 535
f 535 547 548
f 535 548 549
f 536 549 550
f 536 550 551
f 536 551 537
f 537 551 552
f 537 552 538
f 528 542 529
f 528 532 543
f 528 543 544
f 528 544 542
f 531 545 546
f 531 546 532
f 532 546 544
f 532 544 543
f 566 580 567
f 567 580 581
f 567 581 568
f 568 581 582
f 568 582 569
f 569 582 583
f 569 583 570
f 570 583 584
f 605 613 614
f 605 614 615
f 605 615 606
f 606 615 616
f 606 616 607
f 608 609 618
f 608 618 617
f 610 619 611
f 551 570 552
f 552 570 571
f 552 571 553
f 553 571 572
f 553 572 555
f 558 573 559
f 559 573 560
f 560 574 575
f 549 564 565
f 549 565 566
f 549 566 550
f 550 566 567
f 550 567 568
f 550 568 569
f 550 569 551
f 551 569 570
f 586 599 600
f 586 600 601
f 586 601 597
f 589 602 603
f 589 603 591
f 589 591 590
f 591 603 604
f 591 604 605
f 625 635 626
f 626 635 636
f 626 636 627
f 628 629 638
f 628 638 637
f 631 633 639
f 631 639 640
f 631 640 641
f 577 588 586
f 580 589 590
f 580 590 581
f 581 590 591
f 581 591 592
f 581 592 582
f 582 592 593
f 582 593 583
f 570 584 571
f 571 584 572
f 572 584 585
f 574 577 586
f 574 586 587
f 574 587 575
f 575 587 578
f 576 588 577
f 611 619 612
f 612 620 621
f 612 621 622
f 612 622 623
f 612 623 613
f 612 619 624
f 612 624 620
f 613 623 625
f 649 658 659
f 649 659 650
f 650 660 651
f 650 659 660
f 651 660 661
f 651 661 652
f 652 661 662
f 652 662 653
f 599 601 600
f 601 609 608
f 602 610 603
f 603 610 604
f 604 610 611
f 604 611 612
f 604 612 613
f 604 613 605
f 591 605 592
f 592 605 606
f 592 606 593
f 593 606 594
f 594 606 607
f 594 607 596
f 597 601 608
f 599 609 601
f 631 641 642
f 631 642 632
f 632 642 643
f 632 643 634
f 634 643 644
f 634 644 635
f 635 644 645
f 635 645 646
f 670 680 679
f 671 681 682
f 671 682 672
f 673 683 674
f 674 678 675
f 674 683 684
f 674 684 685
f 674 685 678
f 621 630 622
f 622 631 632
f 622 632 623
f 622 630 633
f 622 633 631
f 623 632 634
f 623 634 625
f 625 634 635
f 613 625 614
f 614 625 626
f 614 626 615
f 615 626 627
f 615 627 616
f 617 618 628
f 618 629 628
f 620 630 621
f 653 662 654
f 656 663 664
f 656 664 657
f 658 665 666
f 658 666 659
f 659 666 660
f 660 666 675
f 660 675 667
f 5 14 15
f 5 15 16
f 5 16 17
f 5 17 18
f 5 18 6
f 6 19 35
f 6 35 20
f 6 20 7
f 2 7 10
f 2 10 8
f 3 11 12
f 3 12 13
f 3 13 14
f 3 14 4
f 3 9 11
f 4 14 5
f 682 691 692
f 684 693 685
f 685 693 694
f 685 694 687
f 686 688 695
f 686 695 696
f 687 694 697
f 687 697 698
f 719 725 720
f 720 725 726
f 720 726 727
f 723 728 729
f 723 729 730
f 723 730 724
f 726 729 727
f 727 729 728
f 700 709 701
f 701 709 710
f 705 711 712
f 705 712 706
f 705 713 711
f 706 712 711
f 706 711 714
f 660 667 661
f 661 668 669
f 661 669 662
f 661 667 670
f 661 670 668
f 663 671 664
f 664 671 672
f 665 673 674
f 711 713 721

