# https://github.com/mikedh/trimesh
v 0.00433570 0.00314246 -0.02926310 0.11764706 0.63921569 0.14117647
v -0.00130046 0.00314246 -0.02792869 0.11764706 0.63921569 0.14117647
v -0.00130046 0.00766176 -0.03257133 0.11764706 0.63921569 0.14117647
v -0.00130046 0.00829125 -0.03314818 0.11764706 0.63921569 0.14117647
v -0.00130046 0.00901653 -0.03377369 0.11764706 0.63921569 0.14117647
v 0.00433570 0.00879416 -0.03395439 0.11764706 0.63921569 0.14117647
v 0.00433570 0.00314246 0.03097998 0.11764706 0.63921569 0.14117647
v -0.00130046 0.00314246 0.02869341 0.11764706 0.63921569 0.14117647
v -0.00130046 0.00964259 -0.03423934 0.11764706 0.63921569 0.14117647
v 0.00433570 0.00937232 -0.03434359 0.11764706 0.63921569 0.14117647
v 0.00433570 0.00318352 0.03100083 0.11764706 0.63921569 0.14117647
v -0.00130046 0.00824678 0.03168194 0.11764706 0.63921569 0.14117647
v -0.00130046 0.00695359 0.03098693 0.11764706 0.63921569 0.14117647
v -0.00130046 0.00584173 0.03037533 0.11764706 0.63921569 0.14117647
v -0.00130046 0.00548593 0.03015987 0.11764706 0.63921569 0.14117647
v -0.00130046 0.00439459 0.02949267 0.11764706 0.63921569 0.14117647
v -0.00130046 0.00337852 0.02884631 0.11764706 0.63921569 0.14117647
v -0.00130046 0.01068946 -0.03485094 0.11764706 0.63921569 0.14117647
v 0.00433570 0.01050814 -0.03501775 0.11764706 0.63921569 0.14117647
v -0.00130046 0.00947154 0.03230049 0.11764706 0.63921569 0.14117647
v 0.00433570 0.00349484 0.03113288 0.11764706 0.63921569 0.14117647
v -0.00130046 0.01019339 0.03263409 0.11764706 0.63921569 0.14117647
v -0.00130046 0.01103841 -0.03502470 0.11764706 0.63921569 0.14117647
v -0.00130046 0.01136342 -0.03518455 0.11764706 0.63921569 0.14117647
v 0.00433570 0.01110341 -0.03529575 0.11764706 0.63921569 0.14117647
v 0.00433570 0.00682701 0.03253679 0.11764706 0.63921569 0.14117647
v -0.00130046 0.01043971 0.03273834 0.11764706 0.63921569 0.14117647
v -0.00130046 0.01199290 -0.03538610 0.11764706 0.63921569 0.14117647
v 0.00433570 0.01194501 -0.03560155 0.11764706 0.63921569 0.14117647
v 0.00433570 0.01114104 -0.03530965 0.11764706 0.63921569 0.14117647
v 0.00433570 0.00807230 0.03305805 0.11764706 0.63921569 0.14117647
v -0.00130046 0.01077840 0.03287735 0.11764706 0.63921569 0.14117647
v -0.00130046 0.01320398 -0.03565715 0.11764706 0.63921569 0.14117647
v 0.00433570 0.01320398 -0.03593515 0.11764706 0.63921569 0.14117647
v 0.00433570 0.01201343 -0.03562240 0.11764706 0.63921569 0.14117647
v 0.00433570 0.00951601 0.03361405 0.11764706 0.63921569 0.14117647
v -0.00130046 0.01139421 0.03310670 0.11764706 0.63921569 0.14117647
v -0.00130046 0.01387452 -0.03571275 0.11764706 0.63921569 0.14117647
v 0.00433570 0.01446295 -0.03607415 0.11764706 0.63921569 0.14117647
v 0.00433570 0.00987523 0.03373915 0.11764706 0.63921569 0.14117647
v -0.00130046 0.01194501 0.03330825 0.11764706 0.63921569 0.14117647
v -0.00130046 0.01446295 -0.03576140 0.11764706 0.63921569 0.14117647
v 0.00433570 0.01571850 -0.03599075 0.11764706 0.63921569 0.14117647
v -0.00130046 0.01571850 -0.03571275 0.11764706 0.63921569 0.14117647
v 0.00433570 0.01073735 0.03402411 0.11764706 0.63921569 0.14117647
v -0.00130046 0.01257107 0.03350285 0.11764706 0.63921569 0.14117647
v 0.00433570 0.01578350 -0.03597685 0.11764706 0.63921569 0.14117647
v -0.00130046 0.01697748 -0.03551815 0.11764706 0.63921569 0.14117647
v 0.00314292 0.01697748 -0.03568495 0.11764706 0.63921569 0.14117647
v 0.00433570 0.01081262 0.03404496 0.11764706 0.63921569 0.14117647
v -0.00130046 0.01322793 0.03370440 0.11764706 0.63921569 0.14117647
v 0.00433570 0.01697748 -0.03571275 0.11764706 0.63921569 0.14117647
v -0.00130046 0.01743933 -0.03540000 0.11764706 0.63921569 0.14117647
v -0.00130046 0.01785670 -0.03528880 0.11764706 0.63921569 0.14117647
v 0.00314292 0.01799697 -0.03536525 0.11764706 0.63921569 0.14117647
v 0.00433570 0.01702879 -0.03569885 0.11764706 0.63921569 0.14117647
v 0.00433570 0.01188685 0.03432296 0.11764706 0.63921569 0.14117647
v -0.00130046 0.01375478 0.03385035 0.11764706 0.63921569 0.14117647
v -0.00130046 0.01819197 -0.03517065 0.11764706 0.63921569 0.14117647
v -0.00130046 0.01848619 -0.03506639 0.11764706 0.63921569 0.14117647
v -0.00130046 0.01903015 -0.03484399 0.11764706 0.63921569 0.14117647
v 0.00314292 0.01862646 -0.03510115 0.11764706 0.63921569 0.14117647
v 0.00433570 0.01798671 -0.03537220 0.11764706 0.63921569 0.14117647
v 0.00433570 0.01194501 0.03433686 0.11764706 0.63921569 0.14117647
v -0.00130046 0.01400110 0.03391290 0.11764706 0.63921569 0.14117647
v -0.00130046 0.01949200 -0.03464939 0.11764706 0.63921569 0.14117647
v -0.00062849 0.01949200 -0.03466329 0.11764706 0.63921569 0.14117647
v 0.00314292 0.01949200 -0.03471889 0.11764706 0.63921569 0.14117647
v 0.00433570 0.01801750 -0.03535830 0.11764706 0.63921569 0.14117647
v 0.00433570 0.01320398 0.03458706 0.11764706 0.63921569 0.14117647
v -0.00130046 0.01461348 0.03402411 0.11764706 0.63921569 0.14117647
v -0.00130046 0.02007359 -0.03439224 0.11764706 0.63921569 0.14117647
v -0.00130046 0.02058676 -0.03416289 0.11764706 0.63921569 0.14117647
v -0.00062849 0.02059360 -0.03416984 0.11764706 0.63921569 0.14117647
v 0.00314292 0.02062097 -0.03419069 0.11764706 0.63921569 0.14117647
v 0.00433570 0.01949200 -0.03469109 0.11764706 0.63921569 0.14117647
v 0.00433570 0.01446295 0.03476776 0.11764706 0.63921569 0.14117647
v -0.00130046 0.01571850 0.03420481 0.11764706 0.63921569 0.14117647
v -0.00130046 0.02091861 -0.03400999 0.11764706 0.63921569 0.14117647
v -0.00130046 0.02121282 -0.03387098 0.11764706 0.63921569 0.14117647
v 0.00314292 0.02124703 -0.03388489 0.11764706 0.63921569 0.14117647
v 0.00433570 0.02057992 -0.03417679 0.11764706 0.63921569 0.14117647
v 0.00433570 0.01571850 0.03487896 0.11764706 0.63921569 0.14117647
v -0.00130046 0.01697748 0.03435076 0.11764706 0.63921569 0.14117647
v -0.00130046 0.01630352 0.03427431 0.11764706 0.63921569 0.14117647
v -0.00130046 0.02200310 -0.03346094 0.11764706 0.63921569 0.14117647
v 0.00433570 0.02120598 -0.03385709 0.11764706 0.63921569 0.14117647
v 0.00188560 0.02200310 -0.03347484 0.11764706 0.63921569 0.14117647
v 0.00314292 0.02200310 -0.03347484 0.11764706 0.63921569 0.14117647
v 0.00433570 0.02200310 -0.03343313 0.11764706 0.63921569 0.14117647
v 0.00433570 0.01697748 0.03492761 0.11764706 0.63921569 0.14117647
v -0.00130046 0.01823303 0.03442026 0.11764706 0.63921569 0.14117647
v -0.00130046 0.01756249 0.03438551 0.11764706 0.63921569 0.14117647
v -0.00130046 0.02295075 -0.03290493 0.11764706 0.63921569 0.14117647
v -0.00062849 0.02297128 -0.03291188 0.11764706 0.63921569 0.14117647
v 0.00062883 0.02297812 -0.03291188 0.11764706 0.63921569 0.14117647
v 0.00314292 0.02296786 -0.03291188 0.11764706 0.63921569 0.14117647
v 0.00433570 0.02292338 -0.03289103 0.11764706 0.63921569 0.14117647
v 0.00433570 0.01823303 0.03490676 0.11764706 0.63921569 0.14117647
v -0.00130046 0.01949200 0.03443416 0.11764706 0.63921569 0.14117647
v -0.00062849 0.01823303 0.03448281 0.11764706 0.63921569 0.14117647
v -0.00130046 0.02358024 -0.03243233 0.11764706 0.63921569 0.14117647
v -0.00062849 0.02360077 -0.03246708 0.11764706 0.63921569 0.14117647
v 0.00062883 0.02360419 -0.03248098 0.11764706 0.63921569 0.14117647
v 0.00314292 0.02359392 -0.03246012 0.11764706 0.63921569 0.14117647
v 0.00433570 0.02355287 -0.03241843 0.11764706 0.63921569 0.14117647
v 0.00433570 0.01942700 0.03482336 0.11764706 0.63921569 0.14117647
v 0.00314292 0.01949200 0.03473996 0.11764706 0.63921569 0.14117647
v 0.00188560 0.01949200 0.03465656 0.11764706 0.63921569 0.14117647
v -0.00130046 0.02074413 0.03435771 0.11764706 0.63921569 0.14117647
v -0.00062849 0.01949200 0.03448281 0.11764706 0.63921569 0.14117647
v -0.00130046 0.02428157 -0.03180682 0.11764706 0.63921569 0.14117647
v -0.00062849 0.02432262 -0.03184157 0.11764706 0.63921569 0.14117647
v 0.00062883 0.02434657 -0.03184852 0.11764706 0.63921569 0.14117647
v 0.00314292 0.02430552 -0.03183462 0.11764706 0.63921569 0.14117647
v 0.00433570 0.02426446 -0.03179292 0.11764706 0.63921569 0.14117647
v 0.00433570 0.01949200 0.03481641 0.11764706 0.63921569 0.14117647
v 0.00188560 0.02074413 0.03454536 0.11764706 0.63921569 0.14117647
v -0.00062849 0.02074413 0.03439941 0.11764706 0.63921569 0.14117647
v -0.00062849 0.02200310 0.03419091 0.11764706 0.63921569 0.14117647
v -0.00130046 0.02132914 0.03426041 0.11764706 0.63921569 0.14117647
v -0.00062849 0.02495211 -0.03122302 0.11764706 0.63921569 0.14117647
v -0.00130046 0.02490763 -0.03118131 0.11764706 0.63921569 0.14117647
v 0.00062883 0.02497264 -0.03125082 0.11764706 0.63921569 0.14117647
v 0.00314292 0.02493500 -0.03120912 0.11764706 0.63921569 0.14117647
v 0.00433570 0.02492474 -0.03114656 0.11764706 0.63921569 0.14117647
v 0.00433570 0.02074413 0.03464266 0.11764706 0.63921569 0.14117647
v 0.00188560 0.02200310 0.03431601 0.11764706 0.63921569 0.14117647
v 0.00062883 0.02200310 0.03426041 0.11764706 0.63921569 0.14117647
v -0.00130046 0.02204415 0.03413531 0.11764706 0.63921569 0.14117647
v -0.00062849 0.02277627 0.03399630 0.11764706 0.63921569 0.14117647
v -0.00130046 0.02270443 0.03397546 0.11764706 0.63921569 0.14117647
v -0.00130046 0.02521554 -0.03084076 0.11764706 0.63921569 0.14117647
v -0.00130046 0.02581081 -0.03017356 0.11764706 0.63921569 0.14117647
v -0.00062849 0.02550975 -0.03059751 0.11764706 0.63921569 0.14117647
v 0.00062883 0.02553712 -0.03061836 0.11764706 0.63921569 0.14117647
v 0.00314292 0.02549607 -0.03057666 0.11764706 0.63921569 0.14117647
v 0.00433570 0.02547554 -0.03054886 0.11764706 0.63921569 0.14117647
v 0.00433570 0.02200310 0.03435771 0.11764706 0.63921569 0.14117647
v 0.00188560 0.02294049 0.03405190 0.11764706 0.63921569 0.14117647
v 0.00062883 0.02288233 0.03403105 0.11764706 0.63921569 0.14117647
v 0.00062883 0.02351182 0.03380865 0.11764706 0.63921569 0.14117647
v -0.00062849 0.02340234 0.03376695 0.11764706 0.63921569 0.14117647
v -0.00130046 0.02327918 0.03376000 0.11764706 0.63921569 0.14117647
v -0.00130046 0.02639582 -0.02949245 0.11764706 0.63921569 0.14117647
v -0.00062849 0.02613924 -0.02985385 0.11764706 0.63921569 0.14117647
v 0.00062883 0.02616661 -0.02986775 0.11764706 0.63921569 0.14117647
v 0.00433570 0.02612897 -0.02977045 0.11764706 0.63921569 0.14117647
v 0.00433570 0.02294049 0.03406580 0.11764706 0.63921569 0.14117647
v 0.00314292 0.02294391 0.03405886 0.11764706 0.63921569 0.14117647
v 0.00188560 0.02356656 0.03382256 0.11764706 0.63921569 0.14117647
v 0.00062883 0.02451763 0.03339165 0.11764706 0.63921569 0.14117647
v -0.00062849 0.02451763 0.03332215 0.11764706 0.63921569 0.14117647
v -0.00130046 0.02451763 0.03327350 0.11764706 0.63921569 0.14117647
v -0.00130046 0.02663530 -0.02920055 0.11764706 0.63921569 0.14117647
v -0.00062849 0.02664898 -0.02922835 0.11764706 0.63921569 0.14117647
v -0.00062849 0.02777111 -0.02780359 0.11764706 0.63921569 0.14117647
v 0.00188560 0.02664214 -0.02922140 0.11764706 0.63921569 0.14117647
v 0.00433570 0.02663872 -0.02913105 0.11764706 0.63921569 0.14117647
v 0.00314292 0.02357340 0.03382256 0.11764706 0.63921569 0.14117647
v 0.00433570 0.02356997 0.03382256 0.11764706 0.63921569 0.14117647
v 0.00314292 0.02451763 0.03343335 0.11764706 0.63921569 0.14117647
v 0.00188560 0.02451763 0.03342640 0.11764706 0.63921569 0.14117647
v 0.00062883 0.02554738 0.03290514 0.11764706 0.63921569 0.14117647
v -0.00062849 0.02549265 0.03287039 0.11764706 0.63921569 0.14117647
v -0.00130046 0.02497264 0.03306500 0.11764706 0.63921569 0.14117647
v -0.00130046 0.02697057 -0.02878355 0.11764706 0.63921569 0.14117647
v -0.00130046 0.02726479 -0.02841519 0.11764706 0.63921569 0.14117647
v -0.00130046 0.02776085 -0.02778969 0.11764706 0.63921569 0.14117647
v -0.00130046 0.02862639 -0.02665683 0.11764706 0.63921569 0.14117647
v -0.00062849 0.02835612 -0.02703213 0.11764706 0.63921569 0.14117647
v 0.00062883 0.02833560 -0.02703213 0.11764706 0.63921569 0.14117647
v 0.00062883 0.02776085 -0.02778969 0.11764706 0.63921569 0.14117647
v 0.00188560 0.02726821 -0.02840129 0.11764706 0.63921569 0.14117647
v 0.00314292 0.02773348 -0.02775494 0.11764706 0.63921569 0.14117647
v 0.00433570 0.02723400 -0.02834570 0.11764706 0.63921569 0.14117647
v 0.00433570 0.02451763 0.03341250 0.11764706 0.63921569 0.14117647
v 0.00314292 0.02560212 0.03292600 0.11764706 0.63921569 0.14117647
v 0.00188560 0.02557817 0.03291905 0.11764706 0.63921569 0.14117647
v 0.00188560 0.02620766 0.03257850 0.11764706 0.63921569 0.14117647
v 0.00062883 0.02617345 0.03255764 0.11764706 0.63921569 0.14117647
v -0.00062849 0.02612213 0.03252984 0.11764706 0.63921569 0.14117647
v -0.00130046 0.02607424 0.03250899 0.11764706 0.63921569 0.14117647
v -0.00130046 0.02573897 0.03268969 0.11764706 0.63921569 0.14117647
v -0.00130046 0.02544475 0.03284260 0.11764706 0.63921569 0.14117647
v -0.00130046 0.02886587 -0.02633018 0.11764706 0.63921569 0.14117647
v -0.00062849 0.02887271 -0.02633713 0.11764706 0.63921569 0.14117647
v 0.00062883 0.02886245 -0.02632323 0.11764706 0.63921569 0.14117647
v 0.00314292 0.02825007 -0.02703213 0.11764706 0.63921569 0.14117647
v 0.00433570 0.02770269 -0.02771324 0.11764706 0.63921569 0.14117647
v 0.00433570 0.02552001 0.03293990 0.11764706 0.63921569 0.14117647
v 0.00433570 0.02557475 0.03291210 0.11764706 0.63921569 0.14117647
v 0.00433570 0.02620424 0.03257850 0.11764706 0.63921569 0.14117647
v 0.00314292 0.02622819 0.03259240 0.11764706 0.63921569 0.14117647
v 0.00188560 0.02703215 0.03204334 0.11764706 0.63921569 0.14117647
v 0.00062883 0.02703215 0.03200164 0.11764706 0.63921569 0.14117647
v -0.00062849 0.02703215 0.03195299 0.11764706 0.63921569 0.14117647
v -0.00130046 0.02709031 0.03186959 0.11764706 0.63921569 0.14117647
v -0.00130046 0.02910877 -0.02599657 0.11764706 0.63921569 0.14117647
v -0.00130046 0.02964931 -0.02522512 0.11764706 0.63921569 0.14117647
v -0.00062849 0.02930720 -0.02571162 0.11764706 0.63921569 0.14117647
v -0.00062849 0.02993668 -0.02478726 0.11764706 0.63921569 0.14117647
v 0.00062883 0.02928667 -0.02569772 0.11764706 0.63921569 0.14117647
v 0.00314292 0.02923877 -0.02561432 0.11764706 0.63921569 0.14117647
v 0.00314292 0.02880771 -0.02624678 0.11764706 0.63921569 0.14117647
v 0.00433570 0.02821928 -0.02699043 0.11764706 0.63921569 0.14117647
v 0.00433570 0.02703215 0.03200859 0.11764706 0.63921569 0.14117647
v 0.00314292 0.02703215 0.03205029 0.11764706 0.63921569 0.14117647
v 0.00188560 0.02778822 0.03152903 0.11764706 0.63921569 0.14117647
v -0.00062849 0.02772322 0.03148039 0.11764706 0.63921569 0.14117647
v -0.00130046 0.02770269 0.03146649 0.11764706 0.63921569 0.14117647
v -0.00130046 0.02994010 -0.02479422 0.11764706 0.63921569 0.14117647
v -0.00062849 0.03035748 -0.02416176 0.11764706 0.63921569 0.14117647
v 0.00433570 0.02921483 -0.02557262 0.11764706 0.63921569 0.14117647
v 0.00433570 0.02877692 -0.02620508 0.11764706 0.63921569 0.14117647
v 0.00433570 0.02769585 0.03152208 0.11764706 0.63921569 0.14117647
v 0.00314292 0.02777453 0.03152208 0.11764706 0.63921569 0.14117647
v 0.00188560 0.02841770 0.03100083 0.11764706 0.63921569 0.14117647
v 0.00062883 0.02838349 0.03097998 0.11764706 0.63921569 0.14117647
v -0.00062849 0.02835270 0.03095218 0.11764706 0.63921569 0.14117647
v -0.00130046 0.02789427 0.03130663 0.11764706 0.63921569 0.14117647
v -0.00130046 0.03035748 -0.02416176 0.11764706 0.63921569 0.14117647
v -0.00130046 0.03065512 -0.02367525 0.11764706 0.63921569 0.14117647
v -0.00130046 0.03090828 -0.02325825 0.11764706 0.63921569 0.14117647
v -0.00062849 0.03089460 -0.02325825 0.11764706 0.63921569 0.14117647
v 0.00062883 0.03083986 -0.02325825 0.11764706 0.63921569 0.14117647
v 0.00314292 0.03025827 -0.02402276 0.11764706 0.63921569 0.14117647
v 0.00314292 0.02986826 -0.02465521 0.11764706 0.63921569 0.14117647
v 0.00433570 0.02986142 -0.02456486 0.11764706 0.63921569 0.14117647
v 0.00433570 0.02773348 0.03149428 0.11764706 0.63921569 0.14117647
v 0.00314292 0.02840402 0.03098693 0.11764706 0.63921569 0.14117647
v 0.00188560 0.02911903 0.03037533 0.11764706 0.63921569 0.14117647
v -0.00062849 0.02908140 0.03032668 0.11764706 0.63921569 0.14117647
v 0.00314292 0.02911219 0.03036143 0.11764706 0.63921569 0.14117647
v -0.00130046 0.02906430 0.03031277 0.11764706 0.63921569 0.14117647
v -0.00130046 0.03114434 -0.02285515 0.11764706 0.63921569 0.14117647
v -0.00062849 0.03134276 -0.02247290 0.11764706 0.63921569 0.14117647
v 0.00062883 0.03132566 -0.02243815 0.11764706 0.63921569 0.14117647
v 0.00314292 0.03070985 -0.02325825 0.11764706 0.63921569 0.14117647
v 0.00433570 0.03022063 -0.02396716 0.11764706 0.63921569 0.14117647
v 0.00433570 0.02904035 0.03035448 0.11764706 0.63921569 0.14117647
v 0.00314292 0.02974168 0.02972202 0.11764706 0.63921569 0.14117647
v 0.00188560 0.02974852 0.02972897 0.11764706 0.63921569 0.14117647
v -0.00062849 0.02971089 0.02970812 0.11764706 0.63921569 0.14117647
v 0.00433570 0.02907798 0.03031973 0.11764706 0.63921569 0.14117647
v 0.00433570 0.02967325 0.02972202 0.11764706 0.63921569 0.14117647
v -0.00130046 0.02935851 0.03002088 0.11764706 0.63921569 0.14117647
v -0.00130046 0.03135303 -0.02248680 0.11764706 0.63921569 0.14117647
v 0.00062883 0.03168145 -0.02181264 0.11764706 0.63921569 0.14117647
v 0.00188560 0.03129145 -0.02238254 0.11764706 0.63921569 0.14117647
v 0.00314292 0.03161645 -0.02169449 0.11764706 0.63921569 0.14117647
v 0.00433570 0.03066538 -0.02320960 0.11764706 0.63921569 0.14117647
v 0.00433570 0.03029590 0.02906177 0.11764706 0.63921569 0.14117647
v 0.00314292 0.03033011 0.02908957 0.11764706 0.63921569 0.14117647
v 0.00188560 0.03034037 0.02909652 0.11764706 0.63921569 0.14117647
v 0.00062883 0.03033695 0.02908957 0.11764706 0.63921569 0.14117647
v -0.00062849 0.03032327 0.02907567 0.11764706 0.63921569 0.14117647
v -0.00130046 0.03030616 0.02906177 0.11764706 0.63921569 0.14117647
v -0.00130046 0.02998116 0.02939537 0.11764706 0.63921569 0.14117647
v -0.00130046 0.02969378 0.02968727 0.11764706 0.63921569 0.14117647
v -0.00062849 0.03169856 -0.02184044 0.11764706 0.63921569 0.14117647
v -0.00130046 0.03229725 -0.02074233 0.11764706 0.63921569 0.14117647
v -0.00062849 0.03229725 -0.02074233 0.11764706 0.63921569 0.14117647
v 0.00188560 0.03164724 -0.02175704 0.11764706 0.63921569 0.14117647
v 0.00062883 0.03226989 -0.02074233 0.11764706 0.63921569 0.14117647
v 0.00433570 0.03156513 -0.02161804 0.11764706 0.63921569 0.14117647
v 0.00433570 0.03121960 -0.02224354 0.11764706 0.63921569 0.14117647
v 0.00188560 0.03220488 -0.02074233 0.11764706 0.63921569 0.14117647
v 0.00314292 0.03212962 -0.02074233 0.11764706 0.63921569 0.14117647
v 0.00433570 0.03089460 0.02828336 0.11764706 0.63921569 0.14117647
v 0.00374703 0.03143171 0.02765785 0.11764706 0.63921569 0.14117647
v 0.00290845 0.03145566 0.02769260 0.11764706 0.63921569 0.14117647
v 0.00188560 0.03148303 0.02772735 0.11764706 0.63921569 0.14117647
v 0.00188560 0.03096986 0.02835286 0.11764706 0.63921569 0.14117647
v 0.00062883 0.03096644 0.02836676 0.11764706 0.63921569 0.14117647
v -0.00062849 0.03095275 0.02834591 0.11764706 0.63921569 0.14117647
v -0.00130046 0.03060038 0.02872121 0.11764706 0.63921569 0.14117647
v -0.00130046 0.03249226 -0.02037398 0.11764706 0.63921569 0.14117647
v -0.00062849 0.03265989 -0.02006123 0.11764706 0.63921569 0.14117647
v 0.00062883 0.03264963 -0.02003343 0.11764706 0.63921569 0.14117647
v 0.00188560 0.03261884 -0.01997088 0.11764706 0.63921569 0.14117647
v 0.00433570 0.03286174 -0.01917162 0.11764706 0.63921569 0.14117647
v 0.00314292 0.03257437 -0.01989442 0.11764706 0.63921569 0.14117647
v 0.00433570 0.03335780 -0.01822641 0.11764706 0.63921569 0.14117647
v 0.00433570 0.03137697 0.02763700 0.11764706 0.63921569 0.14117647
v 0.00433570 0.03139750 0.02760920 0.11764706 0.63921569 0.14117647
v 0.00433570 0.03178409 0.02704625 0.11764706 0.63921569 0.14117647
v 0.00433570 0.03245463 0.02602459 0.11764706 0.63921569 0.14117647
v 0.00314292 0.03249910 0.02610104 0.11764706 0.63921569 0.14117647
v 0.00325381 0.03179777 0.02715745 0.11764706 0.63921569 0.14117647
v 0.00188560 0.03195514 0.02703235 0.11764706 0.63921569 0.14117647
v 0.00062883 0.03255726 0.02619834 0.11764706 0.63921569 0.14117647
v 0.00062883 0.03198935 0.02703235 0.11764706 0.63921569 0.14117647
v 0.00062883 0.03149329 0.02773431 0.11764706 0.63921569 0.14117647
v -0.00062849 0.03147961 0.02772040 0.11764706 0.63921569 0.14117647
v -0.00130046 0.03146250 0.02769260 0.11764706 0.63921569 0.14117647
v -0.00130046 0.03265989 -0.02005428 0.11764706 0.63921569 0.14117647
v -0.00130046 0.03282753 -0.01972067 0.11764706 0.63921569 0.14117647
v -0.00062849 0.03357333 -0.01822641 0.11764706 0.63921569 0.14117647
v 0.00062883 0.03391544 -0.01753141 0.11764706 0.63921569 0.14117647
v 0.00188560 0.03389834 -0.01748971 0.11764706 0.63921569 0.14117647
v 0.00188560 0.03351859 -0.01822641 0.11764706 0.63921569 0.14117647
v 0.00314292 0.03386413 -0.01742021 0.11764706 0.63921569 0.14117647
v 0.00314292 0.03344675 -0.01822641 0.11764706 0.63921569 0.14117647
v 0.00433570 0.03381623 -0.01729510 0.11764706 0.63921569 0.14117647
v 0.00433570 0.03282411 0.02542689 0.11764706 0.63921569 0.14117647
v 0.00314292 0.03289253 0.02546858 0.11764706 0.63921569 0.14117647
v 0.00188560 0.03253673 0.02615664 0.11764706 0.63921569 0.14117647
v 0.00062883 0.03295069 0.02556589 0.11764706 0.63921569 0.14117647
v -0.00062849 0.03295069 0.02555894 0.11764706 0.63921569 0.14117647
v -0.00062849 0.03254700 0.02618444 0.11764706 0.63921569 0.14117647
v -0.00062849 0.03196541 0.02703235 0.11764706 0.63921569 0.14117647
v -0.00130046 0.03157540 0.02753970 0.11764706 0.63921569 0.14117647
v -0.00130046 0.03297121 -0.01942877 0.11764706 0.63921569 0.14117647
v -0.00130046 0.03355965 -0.01822641 0.11764706 0.63921569 0.14117647
v -0.00062849 0.03391544 -0.01752446 0.11764706 0.63921569 0.14117647
v -0.00062849 0.03418229 -0.01689895 0.11764706 0.63921569 0.14117647
v 0.00062883 0.03417887 -0.01689895 0.11764706 0.63921569 0.14117647
v 0.00188560 0.03417203 -0.01686420 0.11764706 0.63921569 0.14117647
v 0.00314292 0.03414466 -0.01679470 0.11764706 0.63921569 0.14117647
v 0.00433570 0.03448677 -0.01571049 0.11764706 0.63921569 0.14117647
v 0.00433570 0.03332017 0.02456508 0.11764706 0.63921569 0.14117647
v 0.00314292 0.03344333 0.02451643 0.11764706 0.63921569 0.14117647
v 0.00188560 0.03292332 0.02552419 0.11764706 0.63921569 0.14117647
v 0.00062883 0.03355281 0.02451643 0.11764706 0.63921569 0.14117647
v -0.00062849 0.03354939 0.02451643 0.11764706 0.63921569 0.14117647
v -0.00130046 0.03293016 0.02553114 0.11764706 0.63921569 0.14117647
v -0.00130046 0.03272147 0.02586474 0.11764706 0.63921569 0.14117647
v -0.00130046 0.03253331 0.02615664 0.11764706 0.63921569 0.14117647
v -0.00130046 0.03390518 -0.01750361 0.11764706 0.63921569 0.14117647
v -0.00130046 0.03404887 -0.01717000 0.11764706 0.63921569 0.14117647
v -0.00130046 0.03417203 -0.01687810 0.11764706 0.63921569 0.14117647
v -0.00130046 0.03441151 -0.01626650 0.11764706 0.63921569 0.14117647
v -0.00062849 0.03464756 -0.01571049 0.11764706 0.63921569 0.14117647
v 0.00062883 0.03465783 -0.01571049 0.11764706 0.63921569 0.14117647
v 0.00188560 0.03464414 -0.01571049 0.11764706 0.63921569 0.14117647
v 0.00314292 0.03458940 -0.01571049 0.11764706 0.63921569 0.14117647
v 0.00433294 0.03500336 -0.01434828 0.11764706 0.63921569 0.14117647
v 0.00433570 0.03498283 -0.01439693 0.11764706 0.63921569 0.14117647
v 0.00433570 0.03334754 0.02451643 0.11764706 0.63921569 0.14117647
v 0.00188560 0.03350149 0.02451643 0.11764706 0.63921569 0.14117647
v 0.00433570 0.03380255 0.02368937 0.11764706 0.63921569 0.14117647
v 0.00314292 0.03386755 0.02373107 0.11764706 0.63921569 0.14117647
v 0.00188560 0.03389834 0.02378667 0.11764706 0.63921569 0.14117647
v 0.00062883 0.03391887 0.02382838 0.11764706 0.63921569 0.14117647
v -0.00062849 0.03391544 0.02381448 0.11764706 0.63921569 0.14117647
v -0.00130046 0.03367597 0.02418977 0.11764706 0.63921569 0.14117647
v -0.00130046 0.03350491 0.02451643 0.11764706 0.63921569 0.14117647
v -0.00130046 0.03320727 0.02504463 0.11764706 0.63921569 0.14117647
v -0.00130046 0.03462704 -0.01571049 0.11764706 0.63921569 0.14117647
v -0.00062849 0.03504099 -0.01464018 0.11764706 0.63921569 0.14117647
v 0.00062883 0.03505810 -0.01468188 0.11764706 0.63921569 0.14117647
v 0.00188560 0.03505126 -0.01465408 0.11764706 0.63921569 0.14117647
v 0.00314292 0.03502047 -0.01455678 0.11764706 0.63921569 0.14117647
v 0.00433570 0.03500336 -0.01434133 0.11764706 0.63921569 0.14117647
v 0.00386841 0.03521547 -0.01385483 0.11764706 0.63921569 0.14117647
v 0.00433570 0.03537284 -0.01327102 0.11764706 0.63921569 0.14117647
v 0.00433570 0.03412755 0.02304997 0.11764706 0.63921569 0.14117647
v 0.00188560 0.03420624 0.02316117 0.11764706 0.63921569 0.14117647
v 0.00433570 0.03414124 0.02302217 0.11764706 0.63921569 0.14117647
v 0.00314292 0.03417545 0.02309862 0.11764706 0.63921569 0.14117647
v 0.00062883 0.03421650 0.02320287 0.11764706 0.63921569 0.14117647
v -0.00062849 0.03419940 0.02318897 0.11764706 0.63921569 0.14117647
v -0.00130046 0.03402492 0.02347392 0.11764706 0.63921569 0.14117647
v -0.00130046 0.03389150 0.02376582 0.11764706 0.63921569 0.14117647
v -0.00130046 0.03484941 -0.01509889 0.11764706 0.63921569 0.14117647
v -0.00062849 0.03527021 -0.01400773 0.11764706 0.63921569 0.14117647
v 0.00062883 0.03528389 -0.01405638 0.11764706 0.63921569 0.14117647
v 0.00188560 0.03527363 -0.01402858 0.11764706 0.63921569 0.14117647
v 0.00314292 0.03523942 -0.01393128 0.11764706 0.63921569 0.14117647
v 0.00314292 0.03548916 -0.01320152 0.11764706 0.63921569 0.14117647
v 0.00433570 0.03579706 -0.01194356 0.11764706 0.63921569 0.14117647
v 0.00314292 0.03467151 0.02200051 0.11764706 0.63921569 0.14117647
v 0.00188560 0.03471941 0.02200051 0.11764706 0.63921569 0.14117647
v 0.00433570 0.03457914 0.02205611 0.11764706 0.63921569 0.14117647
v 0.00062883 0.03473651 0.02200051 0.11764706 0.63921569 0.14117647
v -0.00062849 0.03469204 0.02200051 0.11764706 0.63921569 0.14117647
v -0.00130046 0.03440809 0.02258432 0.11764706 0.63921569 0.14117647
v -0.00130046 0.03417545 0.02314032 0.11764706 0.63921569 0.14117647
v -0.00130046 0.03503073 -0.01459848 0.11764706 0.63921569 0.14117647
v -0.00130046 0.03525652 -0.01397298 0.11764706 0.63921569 0.14117647
v -0.00062849 0.03554390 -0.01320152 0.11764706 0.63921569 0.14117647
v 0.00062883 0.03556443 -0.01320152 0.11764706 0.63921569 0.14117647
v 0.00188560 0.03555074 -0.01320152 0.11764706 0.63921569 0.14117647
v 0.00314292 0.03588943 -0.01194356 0.11764706 0.63921569 0.14117647
v 0.00433570 0.03581759 -0.01187406 0.11764706 0.63921569 0.14117647
v 0.00433570 0.03460309 0.02200051 0.11764706 0.63921569 0.14117647
v 0.00314292 0.03507178 0.02103445 0.11764706 0.63921569 0.14117647
v 0.00188560 0.03509231 0.02108310 0.11764706 0.63921569 0.14117647
v 0.00062883 0.03509573 0.02108310 0.11764706 0.63921569 0.14117647
v -0.00062849 0.03507178 0.02102750 0.11764706 0.63921569 0.14117647
v -0.00130046 0.03481520 0.02154875 0.11764706 0.63921569 0.14117647
v -0.00130046 0.03551653 -0.01320152 0.11764706 0.63921569 0.14117647
v -0.00062849 0.03594417 -0.01194356 0.11764706 0.63921569 0.14117647
v 0.00062883 0.03596128 -0.01194356 0.11764706 0.63921569 0.14117647
v 0.00188560 0.03594759 -0.01194356 0.11764706 0.63921569 0.14117647
v 0.00314292 0.03625207 -0.01068560 0.11764706 0.63921569 0.14117647
v 0.00433570 0.03616996 -0.01065085 0.11764706 0.63921569 0.14117647
v 0.00433570 0.03503757 0.02091630 0.11764706 0.63921569 0.14117647
v 0.00314292 0.03531126 0.02040200 0.11764706 0.63921569 0.14117647
v 0.00188560 0.03533521 0.02045065 0.11764706 0.63921569 0.14117647
v 0.00062883 0.03533521 0.02045760 0.11764706 0.63921569 0.14117647
v -0.00062849 0.03531126 0.02039505 0.11764706 0.63921569 0.14117647
v -0.00130046 0.03528047 0.02031165 0.11764706 0.63921569 0.14117647
v -0.00130046 0.03591680 -0.01194356 0.11764706 0.63921569 0.14117647
v -0.00058436 0.03632734 -0.01056745 0.11764706 0.63921569 0.14117647
v 0.00062883 0.03631023 -0.01070645 0.11764706 0.63921569 0.14117647
v 0.00187126 0.03632734 -0.01056745 0.11764706 0.63921569 0.14117647
v 0.00314292 0.03644365 -0.00998365 0.11764706 0.63921569 0.14117647
v 0.00433570 0.03640260 -0.00980294 0.11764706 0.63921569 0.14117647
v 0.00433570 0.03526679 0.02029079 0.11764706 0.63921569 0.14117647
v 0.00433570 0.03553364 0.01953324 0.11764706 0.63921569 0.14117647
v 0.00433570 0.03555074 0.01948459 0.11764706 0.63921569 0.14117647
v 0.00314292 0.03563285 0.01948459 0.11764706 0.63921569 0.14117647
v 0.00188560 0.03567390 0.01948459 0.11764706 0.63921569 0.14117647
v 0.00062883 0.03567048 0.01948459 0.11764706 0.63921569 0.14117647
v -0.00062849 0.03562600 0.01948459 0.11764706 0.63921569 0.14117647
v -0.00130046 0.03556785 0.01948459 0.11764706 0.63921569 0.14117647
v -0.00130046 0.03627602 -0.01063000 0.11764706 0.63921569 0.14117647
v -0.00097441 0.03645392 -0.01002535 0.11764706 0.63921569 0.14117647
v -0.00013583 0.03646418 -0.01006705 0.11764706 0.63921569 0.14117647
v 0.00062883 0.03646760 -0.01007400 0.11764706 0.63921569 0.14117647
v 0.00187126 0.03659418 -0.00954579 0.11764706 0.63921569 0.14117647
v 0.00228117 0.03645734 -0.01003925 0.11764706 0.63921569 0.14117647
v 0.00314292 0.03660102 -0.00935119 0.11764706 0.63921569 0.14117647
v 0.00433570 0.03656681 -0.00911489 0.11764706 0.63921569 0.14117647
v 0.00433570 0.03594075 0.01829613 0.11764706 0.63921569 0.14117647
v 0.00314292 0.03603312 0.01822663 0.11764706 0.63921569 0.14117647
v 0.00188560 0.03606391 0.01822663 0.11764706 0.63921569 0.14117647
v 0.00062883 0.03605707 0.01822663 0.11764706 0.63921569 0.14117647
v -0.00062849 0.03601943 0.01822663 0.11764706 0.63921569 0.14117647
v -0.00130046 0.03597154 0.01822663 0.11764706 0.63921569 0.14117647
v -0.00130046 0.03644365 -0.00997670 0.11764706 0.63921569 0.14117647
v -0.00130046 0.03649497 -0.00975430 0.11764706 0.63921569 0.14117647
v -0.00130046 0.03657708 -0.00939289 0.11764706 0.63921569 0.14117647
v -0.00058436 0.03658050 -0.00953189 0.11764706 0.63921569 0.14117647
v 0.00062883 0.03662839 -0.00942764 0.11764706 0.63921569 0.14117647
v 0.00188560 0.03692261 -0.00816968 0.11764706 0.63921569 0.14117647
v 0.00314292 0.03688156 -0.00816968 0.11764706 0.63921569 0.14117647
v 0.00433570 0.03677550 -0.00816968 0.11764706 0.63921569 0.14117647
v 0.00433570 0.03596128 0.01822663 0.11764706 0.63921569 0.14117647
v 0.00314292 0.03634102 0.01714242 0.11764706 0.63921569 0.14117647
v 0.00406867 0.03649155 0.01644741 0.11764706 0.63921569 0.14117647
v 0.00188560 0.03635470 0.01714937 0.11764706 0.63921569 0.14117647
v 0.00062883 0.03634786 0.01710072 0.11764706 0.63921569 0.14117647
v -0.00062849 0.03633418 0.01705207 0.11764706 0.63921569 0.14117647
v -0.00130046 0.03632391 0.01695477 0.11764706 0.63921569 0.14117647
v -0.00130046 0.03683708 -0.00816968 0.11764706 0.63921569 0.14117647
v -0.00062849 0.03687471 -0.00816968 0.11764706 0.63921569 0.14117647
v 0.00062883 0.03691235 -0.00816968 0.11764706 0.63921569 0.14117647
v 0.00188560 0.03718604 -0.00691172 0.11764706 0.63921569 0.14117647
v 0.00314292 0.03714840 -0.00691172 0.11764706 0.63921569 0.14117647
v 0.00433570 0.03704577 -0.00691172 0.11764706 0.63921569 0.14117647
v 0.00433570 0.03678919 -0.00810713 0.11764706 0.63921569 0.14117647
v 0.00433570 0.03633418 0.01692697 0.11764706 0.63921569 0.14117647
v 0.00314292 0.03650866 0.01651692 0.11764706 0.63921569 0.14117647
v 0.00433570 0.03657366 0.01600261 0.11764706 0.63921569 0.14117647
v 0.00433570 0.03662155 0.01580106 0.11764706 0.63921569 0.14117647
v 0.00433570 0.03691577 0.01452225 0.11764706 0.63921569 0.14117647
v 0.00314292 0.03700472 0.01445970 0.11764706 0.63921569 0.14117647
v 0.00314292 0.03670708 0.01571071 0.11764706 0.63921569 0.14117647
v 0.00433570 0.03637865 0.01676712 0.11764706 0.63921569 0.14117647
v 0.00188560 0.03670024 0.01571071 0.11764706 0.63921569 0.14117647
v 0.00062883 0.03667971 0.01571071 0.11764706 0.63921569 0.14117647
v -0.00130046 0.03647444 0.01639181 0.11764706 0.63921569 0.14117647
v -0.00130046 0.03696024 -0.00749553 0.11764706 0.63921569 0.14117647
v -0.00062849 0.03710393 -0.00691172 0.11764706 0.63921569 0.14117647
v 0.00062883 0.03715525 -0.00691172 0.11764706 0.63921569 0.14117647
v 0.00188560 0.03740157 -0.00565376 0.11764706 0.63921569 0.14117647
v 0.00314292 0.03737420 -0.00565376 0.11764706 0.63921569 0.14117647
v 0.00433570 0.03728183 -0.00565376 0.11764706 0.63921569 0.14117647
v 0.00433570 0.03692945 0.01445970 0.11764706 0.63921569 0.14117647
v 0.00314292 0.03725788 0.01320174 0.11764706 0.63921569 0.14117647
v 0.00188560 0.03725104 0.01320174 0.11764706 0.63921569 0.14117647
v 0.00188560 0.03699445 0.01445970 0.11764706 0.63921569 0.14117647
v 0.00062883 0.03696366 0.01445970 0.11764706 0.63921569 0.14117647
v -0.00062849 0.03691235 0.01445970 0.11764706 0.63921569 0.14117647
v -0.00130046 0.03649155 0.01630841 0.11764706 0.63921569 0.14117647
v -0.00130046 0.03706630 -0.00691172 0.11764706 0.63921569 0.14117647
v -0.00062849 0.03729209 -0.00565376 0.11764706 0.63921569 0.14117647
v 0.00062883 0.03736051 -0.00565376 0.11764706 0.63921569 0.14117647
v 0.00188560 0.03756578 -0.00439580 0.11764706 0.63921569 0.14117647
v 0.00314292 0.03755552 -0.00439580 0.11764706 0.63921569 0.14117647
v 0.00433570 0.03748025 -0.00439580 0.11764706 0.63921569 0.14117647
v 0.00433570 0.03729209 -0.00559121 0.11764706 0.63921569 0.14117647
v 0.00433570 0.03718262 0.01320174 0.11764706 0.63921569 0.14117647
v 0.00433570 0.03738788 0.01200633 0.11764706 0.63921569 0.14117647
v 0.00314292 0.03746657 0.01194378 0.11764706 0.63921569 0.14117647
v 0.00188560 0.03747341 0.01194378 0.11764706 0.63921569 0.14117647
v 0.00062883 0.03744262 0.01194378 0.11764706 0.63921569 0.14117647
v 0.00062883 0.03721683 0.01320174 0.11764706 0.63921569 0.14117647
v -0.00062849 0.03716209 0.01320174 0.11764706 0.63921569 0.14117647
v -0.00130046 0.03698419 0.01386894 0.11764706 0.63921569 0.14117647
v -0.00130046 0.03725104 -0.00565376 0.11764706 0.63921569 0.14117647
v -0.00062849 0.03744604 -0.00439580 0.11764706 0.63921569 0.14117647
v 0.00062883 0.03751788 -0.00439580 0.11764706 0.63921569 0.14117647
v 0.00188560 0.03768210 -0.00331854 0.11764706 0.63921569 0.14117647
v 0.00314292 0.03767868 -0.00333939 0.11764706 0.63921569 0.14117647
v 0.00433570 0.03765815 -0.00301969 0.11764706 0.63921569 0.14117647
v 0.00433570 0.03765473 -0.00304749 0.11764706 0.63921569 0.14117647
v 0.00433570 0.03739815 0.01194378 0.11764706 0.63921569 0.14117647
v 0.00277384 0.03774025 0.01019932 0.11764706 0.63921569 0.14117647
v 0.00188560 0.03774710 0.01023407 0.11764706 0.63921569 0.14117647
v 0.00188560 0.03764789 0.01085957 0.11764706 0.63921569 0.14117647
v 0.00062883 0.03763420 0.01076922 0.11764706 0.63921569 0.14117647
v -0.00003211 0.03772315 0.01007421 0.11764706 0.63921569 0.14117647
v -0.00062849 0.03739130 0.01194378 0.11764706 0.63921569 0.14117647
v -0.00130046 0.03711419 0.01320174 0.11764706 0.63921569 0.14117647
v -0.00130046 0.03740499 -0.00439580 0.11764706 0.63921569 0.14117647
v -0.00130046 0.03747683 -0.00372860 0.11764706 0.63921569 0.14117647
v -0.00130046 0.03753841 -0.00313784 0.11764706 0.63921569 0.14117647
v -0.00130046 0.03772315 -0.00134473 0.11764706 0.63921569 0.14117647
v 0.00070110 0.03777105 -0.00191463 0.11764706 0.63921569 0.14117647
v 0.00188560 0.03781894 -0.00187988 0.11764706 0.63921569 0.14117647
v 0.00314292 0.03781552 -0.00187988 0.11764706 0.63921569 0.14117647
v 0.00433570 0.03777105 -0.00199803 0.11764706 0.63921569 0.14117647
v 0.00393461 0.03772657 -0.00258879 0.11764706 0.63921569 0.14117647
v 0.00433570 0.03771631 -0.00249844 0.11764706 0.63921569 0.14117647
v 0.00433570 0.03756920 0.01067887 0.11764706 0.63921569 0.14117647
v 0.00317327 0.03779842 0.00948346 0.11764706 0.63921569 0.14117647
v 0.00314292 0.03794895 0.00816990 0.11764706 0.63921569 0.14117647
v 0.00188560 0.03800026 0.00816990 0.11764706 0.63921569 0.14117647
v 0.00188560 0.03784973 0.00942786 0.11764706 0.63921569 0.14117647
v 0.00062883 0.03773342 0.01013676 0.11764706 0.63921569 0.14117647
v 0.00062883 0.03781894 0.00942786 0.11764706 0.63921569 0.14117647
v 0.00062883 0.03796263 0.00816990 0.11764706 0.63921569 0.14117647
v -0.00052201 0.03776079 0.00938616 0.11764706 0.63921569 0.14117647
v -0.00087014 0.03768552 0.00977536 0.11764706 0.63921569 0.14117647
v -0.00130046 0.03752815 0.01063717 0.11764706 0.63921569 0.14117647
v -0.00052201 0.03761026 0.01056767 0.11764706 0.63921569 0.14117647
v -0.00130046 0.03722025 0.01261098 0.11764706 0.63921569 0.14117647
v -0.00130046 0.03733656 0.01194378 0.11764706 0.63921569 0.14117647
v -0.00130046 0.03772657 -0.00130998 0.11764706 0.63921569 0.14117647
v 0.00062883 0.03787026 -0.00062192 0.11764706 0.63921569 0.14117647
v 0.00188560 0.03791815 -0.00062192 0.11764706 0.63921569 0.14117647
v 0.00314292 0.03793184 -0.00062192 0.11764706 0.63921569 0.14117647
v 0.00433570 0.03789421 -0.00062192 0.11764706 0.63921569 0.14117647
v 0.00433570 0.03767868 0.00971976 0.11764706 0.63921569 0.14117647
v 0.00433570 0.03775052 0.00905951 0.11764706 0.63921569 0.14117647
v 0.00433570 0.03783263 0.00823940 0.11764706 0.63921569 0.14117647
v 0.00433570 0.03783947 0.00816990 0.11764706 0.63921569 0.14117647
v 0.00433570 0.03794210 0.00697449 0.11764706 0.63921569 0.14117647
v 0.00314292 0.03804132 0.00691194 0.11764706 0.63921569 0.14117647
v 0.00188560 0.03808921 0.00691194 0.11764706 0.63921569 0.14117647
v -0.00062849 0.03787710 0.00816990 0.11764706 0.63921569 0.14117647
v 0.00062883 0.03804816 0.00691194 0.11764706 0.63921569 0.14117647
v -0.00130046 0.03775052 0.00885795 0.11764706 0.63921569 0.14117647
v -0.00130046 0.03766157 0.00960161 0.11764706 0.63921569 0.14117647
v -0.00130046 0.03759315 0.01015761 0.11764706 0.63921569 0.14117647
v -0.00130046 0.03773684 0.00897611 0.11764706 0.63921569 0.14117647
v -0.00130046 0.03742551 0.01135302 0.11764706 0.63921569 0.14117647
v -0.00130046 0.03779158 -0.00004507 0.11764706 0.63921569 0.14117647
v -0.00062849 0.03786684 0.00062214 0.11764706 0.63921569 0.14117647
v -0.00062849 0.03780184 -0.00062192 0.11764706 0.63921569 0.14117647
v 0.00062883 0.03792158 0.00062214 0.11764706 0.63921569 0.14117647
v 0.00188560 0.03796947 0.00062214 0.11764706 0.63921569 0.14117647
v 0.00314292 0.03799000 0.00062214 0.11764706 0.63921569 0.14117647
v 0.00433570 0.03789763 -0.00056632 0.11764706 0.63921569 0.14117647
v 0.00433570 0.03794552 0.00691194 0.11764706 0.63921569 0.14117647
v 0.00433570 0.03800711 0.00571653 0.11764706 0.63921569 0.14117647
v 0.00314292 0.03806868 0.00565398 0.11764706 0.63921569 0.14117647
v 0.00188560 0.03808579 0.00565398 0.11764706 0.63921569 0.14117647
v 0.00062883 0.03805158 0.00565398 0.11764706 0.63921569 0.14117647
v -0.00130046 0.03781210 0.00810735 0.11764706 0.63921569 0.14117647
v -0.00062849 0.03795579 0.00691194 0.11764706 0.63921569 0.14117647
v -0.00130046 0.03788736 0.00691194 0.11764706 0.63921569 0.14117647
v -0.00062849 0.03797290 0.00565398 0.11764706 0.63921569 0.14117647
v -0.00130046 0.03782236 0.00058739 0.11764706 0.63921569 0.14117647
v -0.00130046 0.03784631 0.00129629 0.11764706 0.63921569 0.14117647
v -0.00062849 0.03790447 0.00188010 0.11764706 0.63921569 0.14117647
v 0.00062883 0.03800026 0.00313806 0.11764706 0.63921569 0.14117647
v 0.00188560 0.03804473 0.00313806 0.11764706 0.63921569 0.14117647
v 0.00433570 0.03795237 0.00062214 0.11764706 0.63921569 0.14117647
v 0.00314292 0.03802763 0.00188010 0.11764706 0.63921569 0.14117647
v 0.00433570 0.03802079 0.00446552 0.11764706 0.63921569 0.14117647
v 0.00433570 0.03802079 0.00439602 0.11764706 0.63921569 0.14117647
v 0.00314292 0.03805500 0.00313806 0.11764706 0.63921569 0.14117647
v 0.00188560 0.03806868 0.00439602 0.11764706 0.63921569 0.14117647
v 0.00062883 0.03803105 0.00439602 0.11764706 0.63921569 0.14117647
v -0.00062849 0.03795921 0.00439602 0.11764706 0.63921569 0.14117647
v -0.00130046 0.03790789 0.00565398 0.11764706 0.63921569 0.14117647
v -0.00130046 0.03790105 0.00439602 0.11764706 0.63921569 0.14117647
v -0.00130046 0.03786342 0.00188010 0.11764706 0.63921569 0.14117647
v 0.00433570 0.03799000 0.00194960 0.11764706 0.63921569 0.14117647
v 0.00433570 0.03801395 0.00313806 0.11764706 0.63921569 0.14117647
v -0.00130046 0.03788394 0.00313806 0.11764706 0.63921569 0.14117647
f 1 176 190
f 1 190 206
f 1 206 215
f 1 215 214
f 1 214 229
f 1 229 240
f 1 240 252
f 1 252 267
f 556 571 572
f 556 572 574
f 556 574 557
f 557 573 558
f 557 574 573
f 560 575 561
f 580 586 582
f 580 583 586
f 561 585 577
f 561 577 562
f 562 577 578
f 562 578 563
f 563 578 579
f 563 579 580
f 553 571 555
f 555 571 556
f 565 581 566
f 567 580 582
f 567 582 581
f 569 583 570
f 570 583 580
f 570 580 579
f 561 575 576
f 561 576 585
f 1 541 540
f 1 540 539
f 1 539 538
f 1 538 519
f 1 519 501
f 1 501 487
f 1 537 558
f 1 558 573
f 1 282 284
f 1 284 305
f 1 305 321
f 1 321 339
f 1 339 355
f 1 355 357
f 1 559 542
f 1 542 541
f 1 2 3
f 1 3 4
f 1 4 5
f 1 5 6
f 1 6 10
f 1 10 19
f 1 267 266
f 1 266 282
f 1 90 98
f 1 25 30
f 1 30 29
f 1 29 35
f 1 35 34
f 1 34 39
f 1 39 43
f 1 43 47
f 1 11 7
f 1 7 8
f 1 8 2
f 2 8 17
f 2 17 16
f 2 16 15
f 1 70 64
f 1 64 57
f 1 472 459
f 1 459 458
f 1 458 457
f 1 457 462
f 1 462 455
f 1 455 441
f 1 26 21
f 1 21 11
f 1 413 412
f 1 412 411
f 1 411 399
f 1 399 387
f 1 387 375
f 1 375 360
f 1 487 486
f 1 486 472
f 1 342 340
f 1 340 322
f 1 322 306
f 1 306 288
f 1 288 287
f 1 287 286
f 1 441 427
f 1 427 413
f 2 154 166
f 2 166 185
f 2 185 184
f 2 184 183
f 2 183 198
f 2 198 211
f 2 85 84
f 2 84 93
f 1 193 192
f 1 192 191
f 1 191 177
f 1 177 161
f 1 161 149
f 1 149 139
f 2 132 144
f 2 144 154
f 1 117 107
f 1 107 99
f 1 99 91
f 1 91 83
f 1 83 77
f 1 77 70
f 1 216 207
f 1 207 193
f 1 57 50
f 1 50 45
f 1 45 40
f 1 40 36
f 1 36 31
f 1 31 26
f 1 139 127
f 1 127 117
f 2 478 493
f 2 493 508
f 2 508 531
f 2 531 532
f 2 532 551
f 2 551 529
f 2 365 364
f 2 364 379
f 2 13 12
f 2 12 20
f 2 20 22
f 2 22 27
f 2 27 32
f 2 32 37
f 2 447 465
f 2 465 478
f 2 46 51
f 2 51 58
f 2 58 65
f 2 65 71
f 2 71 78
f 2 78 85
f 2 15 14
f 2 14 13
f 2 93 92
f 2 92 100
f 2 100 110
f 2 110 121
f 2 121 130
f 2 130 132
f 2 37 41
f 2 41 46
f 2 419 405
f 2 405 393
f 2 393 381
f 2 381 380
f 2 380 366
f 2 366 350
f 2 511 510
f 2 510 509
f 2 235 247
f 2 247 260
f 2 260 259
f 2 259 258
f 2 258 277
f 2 277 296
f 2 434 433
f 2 433 419
f 2 329 328
f 2 328 327
f 2 327 349
f 2 349 348
f 2 348 347
f 2 347 365
f 2 211 221
f 2 221 235
f 2 379 378
f 2 378 392
f 2 392 404
f 2 404 418
f 2 418 432
f 2 432 447
f 2 296 313
f 2 313 329
f 2 134 133
f 2 133 123
f 2 123 112
f 2 112 102
f 2 102 94
f 2 94 86
f 2 212 200
f 2 200 199
f 2 548 550
f 2 550 547
f 2 547 564
f 2 564 566
f 2 566 581
f 2 581 582
f 2 155 145
f 2 145 134
f 2 583 569
f 2 569 568
f 2 568 552
f 2 552 533
f 2 533 512
f 2 512 511
f 2 529 549
f 2 549 548
f 2 509 494
f 2 494 479
f 2 479 466
f 2 466 448
f 2 448 435
f 2 435 434
f 2 582 586
f 2 586 583
f 7 12 13
f 7 13 14
f 7 14 15
f 7 15 16
f 7 16 17
f 7 17 8
f 2 28 24
f 2 24 23
f 2 332 331
f 2 331 330
f 2 330 315
f 2 315 314
f 2 314 298
f 2 298 297
f 6 9 10
f 7 11 12
f 2 262 248
f 2 248 236
f 2 236 224
f 2 224 223
f 2 223 222
f 2 222 212
f 2 350 333
f 2 333 332
f 2 199 186
f 2 186 170
f 2 170 169
f 2 169 168
f 2 168 167
f 2 167 155
f 2 297 278
f 2 278 262
f 39 44 43
f 40 45 41
f 41 45 46
f 43 44 48
f 43 48 49
f 43 49 47
f 28 34 35
f 28 35 29
f 2 79 73
f 2 73 72
f 2 72 66
f 2 66 61
f 2 61 60
f 2 60 59
f 38 42 39
f 39 42 44
f 2 53 48
f 2 48 44
f 2 44 42
f 2 42 38
f 2 38 33
f 2 33 28
f 2 86 80
f 2 80 79
f 2 23 18
f 2 18 9
f 2 9 5
f 2 5 4
f 2 4 3
f 5 9 6
f 2 59 54
f 2 54 53
f 67 72 73
f 67 73 74
f 67 74 68
f 68 74 75
f 68 75 76
f 68 76 69
f 57 64 65
f 57 65 58
f 11 20 12
f 11 21 22
f 11 22 20
f 18 23 19
f 19 23 24
f 19 24 25
f 65 70 71
f 66 72 67
f 24 28 29
f 24 29 30
f 24 30 25
f 26 31 27
f 27 31 32
f 28 33 34
f 9 18 19
f 9 19 10
f 31 36 32
f 32 36 37
f 33 38 39
f 33 39 34
f 36 40 41
f 36 41 37
f 21 26 27
f 21 27 22
f 90 97 98
f 91 99 100
f 91 100 101
f 91 101 92
f 92 101 100
f 94 102 103
f 81 90 87
f 83 91 92
f 45 51 46
f 47 49 52
f 48 53 49
f 49 53 54
f 49 54 55
f 49 55 56
f 89 96 97
f 89 97 90
f 54 59 55
f 55 59 60
f 55 60 61
f 55 61 62
f 55 62 63
f 55 63 56
f 45 50 58
f 45 58 51
f 61 66 67
f 61 67 62
f 62 67 68
f 62 68 63
f 63 68 69
f 64 70 65
f 49 56 52
f 50 57 58
f 110 120 121
f 110 119 120
f 112 122 113
f 112 123 122
f 113 122 124
f 113 124 114
f 103 114 104
f 104 114 105
f 73 79 74
f 74 79 80
f 74 80 75
f 75 80 81
f 75 81 82
f 75 82 76
f 107 110 108
f 108 110 109
f 77 85 78
f 80 86 81
f 81 87 82
f 81 86 88
f 81 88 89
f 81 89 90
f 70 77 78
f 70 78 71
f 83 92 93
f 83 93 84
f 86 94 95
f 86 95 88
f 88 95 96
f 88 96 89
f 77 83 84
f 77 84 85
f 129 141 131
f 131 141 142
f 131 142 143
f 131 143 132
f 132 143 144
f 134 145 135
f 122 135 136
f 122 136 124
f 95 104 96
f 96 104 97
f 97 104 105
f 97 105 98
f 98 105 106
f 99 107 108
f 128 140 141
f 128 141 129
f 99 110 111
f 99 111 100
f 100 111 110
f 102 112 113
f 102 113 103
f 103 113 114
f 94 103 95
f 95 103 104
f 105 114 115
f 105 115 116
f 105 116 106
f 107 117 118
f 107 118 119
f 107 119 110
f 99 108 109
f 99 109 110
f 151 160 162
f 151 162 163
f 151 163 152
f 152 163 164
f 152 164 165
f 152 165 153
f 145 155 146
f 146 155 156
f 115 125 126
f 115 126 116
f 117 127 118
f 118 127 128
f 118 128 129
f 118 129 120
f 149 151 150
f 149 161 160
f 120 129 131
f 120 131 132
f 120 132 130
f 122 123 133
f 122 133 134
f 122 134 135
f 114 124 115
f 115 124 125
f 124 136 125
f 125 136 137
f 125 137 138
f 125 138 126
f 127 139 128
f 128 139 140
f 118 120 119
f 120 130 121
f 165 183 184
f 165 184 185
f 165 185 166
f 170 186 187
f 170 187 171
f 171 187 172
f 161 177 162
f 162 177 178
f 136 146 147
f 136 147 137
f 137 147 148
f 137 148 138
f 139 149 150
f 139 150 140
f 164 182 165
f 165 182 183
f 140 142 141
f 142 151 152
f 142 152 153
f 142 153 143
f 143 153 154
f 143 154 144
f 135 145 146
f 135 146 136
f 146 156 147
f 147 156 157
f 147 157 158
f 147 158 159
f 147 159 148
f 149 160 151
f 140 150 151
f 140 151 142
f 188 202 203
f 188 203 204
f 188 204 205
f 188 205 189
f 189 205 215
f 189 215 206
f 180 196 181
f 181 196 197
f 155 167 156
f 156 167 168
f 156 168 169
f 156 169 157
f 157 169 170
f 157 170 171
f 187 201 188
f 188 201 202
f 157 173 158
f 158 173 174
f 158 174 175
f 158 175 159
f 159 175 176
f 160 161 162
f 153 165 166
f 153 166 154
f 162 178 163
f 163 178 179
f 163 179 164
f 164 179 180
f 164 180 181
f 164 181 182
f 157 171 172
f 157 172 173
f 212 222 213
f 213 222 223
f 213 223 224
f 213 224 225
f 213 225 226
f 213 226 227
f 205 214 215
f 207 216 217
f 172 175 173
f 173 175 174
f 175 188 189
f 175 189 206
f 175 206 190
f 175 190 176
f 210 220 221
f 210 221 211
f 178 192 193
f 178 193 194
f 178 194 179
f 179 194 180
f 180 194 195
f 180 195 196
f 172 187 188
f 172 188 175
f 181 197 182
f 182 197 198
f 182 198 183
f 186 199 187
f 187 199 200
f 187 200 201
f 177 191 178
f 178 191 192
f 232 243 244
f 232 244 233
f 233 244 235
f 234 241 245
f 234 245 246
f 234 246 242
f 225 238 226
f 226 238 227
f 194 208 195
f 195 208 209
f 195 209 196
f 196 209 210
f 196 210 197
f 197 210 211
f 232 234 242
f 232 242 243
f 200 202 201
f 202 212 213
f 202 213 203
f 203 213 204
f 204 214 205
f 204 213 214
f 193 207 208
f 193 208 194
f 207 217 208
f 208 217 209
f 209 218 219
f 209 219 210
f 209 217 218
f 210 219 220
f 197 211 198
f 200 212 202
f 250 264 251
f 251 266 267
f 251 267 252
f 251 264 268
f 251 268 269
f 251 269 266
f 243 257 244
f 244 257 258
f 214 228 229
f 216 230 217
f 217 230 231
f 217 231 218
f 218 232 233
f 218 233 219
f 249 261 265
f 249 265 264
f 219 233 235
f 219 235 220
f 220 235 221
f 224 236 225
f 225 236 237
f 225 237 238
f 213 227 228
f 213 228 214
f 227 229 228
f 227 238 239
f 227 239 240
f 227 240 229
f 230 241 231
f 231 241 234
f 218 231 234
f 218 234 232
f 271 285 286
f 271 286 287
f 271 287 288
f 271 288 289
f 271 289 290
f 271 290 272
f 263 280 265
f 264 265 268
f 237 248 249
f 237 249 238
f 238 249 264
f 238 264 250
f 238 250 239
f 239 250 251
f 269 284 282
f 270 285 271
f 242 246 253
f 242 253 254
f 242 254 255
f 242 255 243
f 243 255 256
f 243 256 257
f 235 244 247
f 236 248 237
f 244 258 259
f 244 259 260
f 244 260 247
f 248 261 249
f 248 262 263
f 248 263 261
f 239 251 252
f 239 252 240
f 288 307 289
f 289 307 308
f 289 308 290
f 290 308 291
f 291 308 292
f 292 308 309
f 280 300 301
f 280 301 302
f 253 272 273
f 253 273 254
f 254 273 274
f 254 274 255
f 255 274 275
f 255 275 256
f 284 303 305
f 288 306 307
f 257 276 277
f 257 277 258
f 261 263 265
f 262 278 279
f 262 279 263
f 263 279 280
f 253 270 271
f 253 271 272
f 265 280 281
f 265 281 268
f 266 269 282
f 268 281 269
f 269 281 283
f 269 283 284
f 256 275 257
f 257 275 276
f 309 325 326
f 309 326 310
f 309 324 325
f 310 327 328
f 310 328 329
f 310 329 311
f 301 303 302
f 301 319 320
f 273 291 292
f 273 292 293
f 273 293 294
f 273 294 274
f 274 294 275
f 275 294 295
f 307 323 324
f 308 324 309
f 277 295 296
f 278 297 279
f 279 297 298
f 279 298 299
f 279 299 300
f 279 300 280
f 272 290 291
f 272 291 273
f 280 302 281
f 281 302 303
f 281 303 304
f 281 304 283
f 283 304 284
f 284 304 303
f 275 295 276
f 276 295 277
f 325 344 345
f 325 345 326
f 326 345 346
f 326 346 347
f 326 347 348
f 326 348 349
f 321 337 338
f 321 338 339
f 292 311 293
f 293 311 312
f 293 312 295
f 293 295 294
f 295 312 313
f 295 313 296
f 324 341 325
f 325 341 344
f 299 315 316
f 299 316 300
f 300 316 317
f 300 317 318
f 300 318 319
f 300 319 301
f 292 309 310
f 292 310 311
f 301 320 303
f 303 320 305
f 305 320 321
f 306 322 323
f 306 323 307
f 307 324 308
f 298 314 299
f 299 314 315
f 350 366 351
f 351 367 352
f 351 366 367
f 352 367 368
f 352 368 353
f 353 368 369
f 343 358 360
f 343 360 361
f 312 329 313
f 315 330 316
f 316 330 331
f 316 331 317
f 317 331 332
f 317 332 333
f 346 364 365
f 346 365 347
f 317 335 318
f 318 335 336
f 318 336 319
f 319 336 337
f 319 337 320
f 320 337 321
f 310 326 327
f 311 329 312
f 322 340 323
f 323 341 324
f 323 340 342
f 323 342 343
f 323 343 344
f 323 344 341
f 317 333 334
f 317 334 335
f 371 384 385
f 371 385 372
f 372 385 386
f 373 375 387
f 373 387 388
f 373 388 374
f 363 379 364
f 366 380 367
f 334 350 351
f 334 351 352
f 334 352 335
f 335 352 336
f 336 352 353
f 336 353 337
f 369 384 371
f 369 371 370
f 338 355 339
f 338 354 356
f 338 356 357
f 338 357 355
f 342 358 343
f 343 359 344
f 326 349 327
f 333 350 334
f 343 361 359
f 344 359 345
f 345 359 362
f 345 362 346
f 346 362 363
f 346 363 364
f 337 353 354
f 337 354 338
f 391 403 392
f 392 403 404
f 394 405 406
f 394 406 407
f 394 407 395
f 395 407 396
f 385 397 386
f 386 397 398
f 354 370 356
f 356 370 371
f 356 371 357
f 357 371 372
f 359 361 373
f 359 373 374
f 390 401 402
f 391 402 403
f 361 375 373
f 362 376 363
f 362 374 376
f 363 376 377
f 363 377 378
f 363 378 379
f 353 369 354
f 354 369 370
f 367 380 381
f 367 381 382
f 367 382 368
f 368 382 383
f 368 383 384
f 368 384 369
f 359 374 362
f 360 375 361
f 409 424 423
f 409 423 425
f 409 425 410
f 410 425 426
f 413 427 414
f 414 427 428
f 403 418 404
f 405 419 406
f 376 389 390
f 376 390 377
f 377 390 391
f 377 391 392
f 377 392 378
f 381 393 382
f 408 424 409
f 408 423 424
f 382 394 383
f 383 394 395
f 383 395 396
f 383 396 384
f 384 396 385
f 385 396 397
f 374 388 389
f 374 389 376
f 387 399 388
f 388 399 400
f 388 400 401
f 388 401 389
f 389 401 390
f 390 402 391
f 382 393 405
f 382 405 394
f 429 444 430
f 430 444 445
f 430 445 446
f 430 446 431
f 431 446 447
f 431 447 432
f 423 437 438
f 423 438 425
f 397 408 409
f 397 409 410
f 397 410 398
f 399 411 400
f 400 411 412
f 400 412 413
f 428 443 442
f 429 442 444
f 400 415 401
f 401 415 402
f 402 415 416
f 402 416 417
f 402 417 403
f 403 417 418
f 396 407 408
f 396 408 397
f 406 419 420
f 406 420 421
f 406 421 407
f 407 421 422
f 407 422 423
f 407 423 408
f 400 413 414
f 400 414 415
f 446 464 465
f 446 465 447
f 448 466 449
f 449 466 467
f 449 467 468
f 449 468 450
f 443 459 460
f 443 460 461
f 415 428 429
f 416 429 430
f 416 430 431
f 416 431 417
f 417 431 432
f 417 432 418
f 445 463 464
f 445 464 446
f 420 434 435
f 420 435 436
f 420 436 421
f 421 436 437
f 421 437 422
f 422 437 423
f 414 428 415
f 415 429 416
f 425 438 439
f 425 439 426
f 426 439 440
f 427 441 428
f 428 442 429
f 428 441 443
f 419 433 420
f 420 433 434
f 470 483 484
f 470 484 485
f 470 485 471
f 473 486 487
f 473 487 488
f 473 488 489
f 465 476 477
f 465 477 478
f 436 449 450
f 436 450 437
f 437 450 438
f 438 450 451
f 438 451 452
f 438 452 439
f 469 482 483
f 469 483 470
f 439 454 440
f 441 455 443
f 442 456 444
f 442 443 456
f 443 457 458
f 443 458 459
f 435 448 449
f 435 449 436
f 443 461 456
f 443 455 462
f 443 462 457
f 444 461 463
f 444 463 445
f 444 456 461
f 439 452 453
f 439 453 454
f 489 504 505
f 489 505 490
f 490 505 506
f 490 506 507
f 490 507 491
f 491 507 492
f 482 497 498
f 482 498 483
f 451 469 470
f 451 470 452
f 452 470 471
f 452 471 453
f 459 472 460
f 460 473 474
f 488 503 504
f 488 504 489
f 460 463 461
f 460 472 486
f 460 486 473
f 463 475 464
f 464 475 476
f 464 476 465
f 450 468 451
f 451 468 469
f 466 479 467
f 467 480 481
f 467 481 468
f 467 479 480
f 468 481 469
f 469 481 482
f 460 474 475
f 460 475 463
f 506 525 526
f 506 526 527
f 506 527 528
f 506 528 529
f 506 529 530
f 506 530 507
f 502 519 520
f 502 520 521
f 474 490 491
f 474 491 476
f 474 476 475
f 476 491 477
f 477 491 492
f 477 492 493
f 505 524 506
f 506 524 525
f 480 494 509
f 480 509 495
f 480 495 496
f 480 496 481
f 481 496 482
f 482 496 497
f 473 489 474
f 474 489 490
f 483 498 499
f 483 499 500
f 483 500 484
f 487 501 488
f 488 501 502
f 488 502 503
f 477 493 478
f 479 494 480
f 526 544 546
f 526 546 545
f 527 545 547
f 527 547 528
f 528 548 549
f 528 549 529
f 521 540 541
f 521 541 542
f 495 509 510
f 495 510 511
f 495 511 496
f 496 511 512
f 496 512 513
f 496 513 497
f 523 525 524
f 526 545 527
f 498 514 515
f 498 515 516
f 498 516 517
f 498 517 499
f 499 517 518
f 501 519 502
f 492 507 508
f 492 508 493
f 502 521 522
f 502 522 523
f 502 523 503
f 503 523 524
f 503 524 505
f 503 505 504
f 497 513 514
f 497 514 498
f 546 563 567
f 546 567 565
f 552 568 553
f 553 568 569
f 553 569 570
f 553 570 571
f 543 559 560
f 543 560 561
f 507 532 531
f 512 533 513
f 513 533 534
f 513 534 514
f 514 534 535
f 514 535 536
f 545 565 566
f 545 566 564
f 516 518 517
f 516 536 537
f 519 538 520
f 520 538 521
f 521 538 539
f 521 539 540
f 507 531 508
f 507 530 532
f 521 542 543
f 521 543 522
f 522 544 526
f 522 526 525
f 522 525 523
f 522 543 544
f 514 536 515
f 515 536 516
f 572 579 578
f 572 578 577
f 572 577 574
f 573 574 584
f 574 577 584
f 577 585 584
f 563 580 567
f 565 567 581
f 529 551 530
f 530 551 532
f 533 552 553
f 533 553 554
f 533 554 534
f 534 554 553
f 570 579 571
f 571 579 572
f 534 556 535
f 535 556 557
f 535 557 536
f 536 557 558
f 536 558 537
f 542 559 543
f 528 547 550
f 528 550 548
f 543 561 544
f 544 562 563
f 544 563 546
f 544 561 562
f 545 564 547
f 545 546 565
f 534 553 555
f 534 555 556
f 1 270 253
f 1 253 246
f 1 246 245
f 1 245 241
f 1 241 230
f 1 230 216
f 1 360 358
f 1 358 342
f 1 386 398
f 1 398 410
f 1 410 426
f 1 426 440
f 1 440 454
f 1 454 453
f 1 286 285
f 1 285 270
f 1 485 484
f 1 484 500
f 1 500 499
f 1 499 518
f 1 518 516
f 1 516 537
f 1 357 372
f 1 372 386
f 1 573 584
f 1 584 585
f 1 585 576
f 1 576 575
f 1 575 560
f 1 560 559
f 1 453 471
f 1 471 485
f 1 98 106
f 1 106 116
f 1 116 126
f 1 126 138
f 1 138 148
f 1 148 159
f 1 159 176
f 1 47 52
f 1 52 56
f 1 56 63
f 1 63 69
f 1 69 76
f 1 76 82
f 1 82 87
f 1 87 90
f 1 19 25

