# https://github.com/mikedh/trimesh
v 0.00460045 -0.00430532 0.02995998 0.56470588 0.92549020 0.07058824
v 0.00460045 -0.00064643 0.02986975 0.56470588 0.92549020 0.07058824
v -0.00129988 -0.00188899 0.03055553 0.56470588 0.92549020 0.07058824
v -0.00129988 -0.00278195 0.03033295 0.56470588 0.92549020 0.07058824
v -0.00129988 -0.00302372 0.03014045 0.56470588 0.92549020 0.07058824
v -0.00129988 -0.00391847 0.02916591 0.56470588 0.92549020 0.07058824
v -0.00129988 -0.00430532 0.02862450 0.56470588 0.92549020 0.07058824
v 0.00460045 -0.00430532 -0.03090059 0.56470588 0.92549020 0.07058824
v -0.00129988 -0.00064643 0.03050139 0.56470588 0.92549020 0.07058824
v -0.00129988 -0.00132556 0.03053749 0.56470588 0.92549020 0.07058824
v 0.00460045 -0.00064643 -0.02904175 0.56470588 0.92549020 0.07058824
v -0.00129988 -0.00430532 -0.02907784 0.56470588 0.92549020 0.07058824
v -0.00129988 -0.00064643 -0.02866877 0.56470588 0.92549020 0.07058824
v -0.00055700 -0.00064643 -0.02887331 0.56470588 0.92549020 0.07058824
v 0.00037536 -0.00064643 -0.02896956 0.56470588 0.92549020 0.07058824
v 0.00063127 -0.00064643 -0.02897557 0.56470588 0.92549020 0.07058824
f 2 16 15
f 2 11 16
f 2 15 14
f 3 12 7
f 3 13 12
f 3 9 13
f 8 15 16
f 3 7 6
f 2 14 13
f 2 13 9
f 2 10 3
f 2 9 10
f 8 13 14
f 8 14 15
f 8 16 11
f 1 11 2
f 8 12 13
f 3 5 4
f 3 6 5
f 3 10 9
f 1 2 3
f 1 3 4
f 1 4 5
f 1 5 6
f 1 6 7
f 1 7 12
f 1 8 11
f 1 12 8

