# https://github.com/mikedh/trimesh
v -0.00866696 0.00354281 -0.03377854 0.56470588 0.01568627 0.61568627
v -0.00866696 0.00363364 -0.03381304 0.56470588 0.01568627 0.61568627
v -0.00130046 0.01136418 -0.03518633 0.56470588 0.01568627 0.61568627
v -0.00130046 0.01068801 -0.03484818 0.56470588 0.01568627 0.61568627
v -0.00130046 0.00964516 -0.03423400 0.56470588 0.01568627 0.61568627
v -0.00130046 0.00901609 -0.03377854 0.56470588 0.01568627 0.61568627
v -0.00130046 0.00828946 -0.03315055 0.56470588 0.01568627 0.61568627
v -0.00130046 0.00766375 -0.03257087 0.56470588 0.01568627 0.61568627
v -0.00130046 0.00354281 -0.02819568 0.56470588 0.01568627 0.61568627
v -0.00866696 0.00354281 0.02995158 0.56470588 0.01568627 0.61568627
v -0.00866696 0.00440400 -0.03401317 0.56470588 0.01568627 0.61568627
v -0.00130046 0.01198989 -0.03538646 0.56470588 0.01568627 0.61568627
v -0.00130046 0.00354281 0.02894405 0.56470588 0.01568627 0.61568627
v -0.00130046 0.00439391 0.02949612 0.56470588 0.01568627 0.61568627
v -0.00130046 0.00548722 0.03015861 0.56470588 0.01568627 0.61568627
v -0.00130046 0.00584381 0.03037254 0.56470588 0.01568627 0.61568627
v -0.00130046 0.00695394 0.03098672 0.56470588 0.01568627 0.61568627
v -0.00130046 0.00790932 0.03150429 0.56470588 0.01568627 0.61568627
v -0.00130046 0.00824573 0.03168372 0.56470588 0.01568627 0.61568627
v -0.00130046 0.00947023 0.03229790 0.56470588 0.01568627 0.61568627
v -0.00130046 0.01019350 0.03262915 0.56470588 0.01568627 0.61568627
v -0.00130046 0.01043907 0.03273956 0.56470588 0.01568627 0.61568627
v -0.00130046 0.01077548 0.03287758 0.56470588 0.01568627 0.61568627
v -0.00130046 0.01139446 0.03310531 0.56470588 0.01568627 0.61568627
v -0.00866696 0.00943323 0.03211847 0.56470588 0.01568627 0.61568627
v -0.00866696 0.00565879 -0.03433061 0.56470588 0.01568627 0.61568627
v -0.00866696 0.01066446 -0.03551757 0.56470588 0.01568627 0.61568627
v -0.00130046 0.01320431 -0.03566249 0.56470588 0.01568627 0.61568627
v -0.00130046 0.01194616 0.03330544 0.56470588 0.01568627 0.61568627
v -0.00866696 0.01017332 0.03236691 0.56470588 0.01568627 0.61568627
v -0.00866696 0.01194616 -0.03580741 0.56470588 0.01568627 0.61568627
v -0.00691530 0.01320431 -0.03593163 0.56470588 0.01568627 0.61568627
v -0.00691530 0.01446246 -0.03604894 0.56470588 0.01568627 0.61568627
v -0.00130046 0.01446246 -0.03575911 0.56470588 0.01568627 0.61568627
v -0.00130046 0.01257187 0.03350556 0.56470588 0.01568627 0.61568627
v -0.00866696 0.01101769 0.03263604 0.56470588 0.01568627 0.61568627
v -0.00866696 0.01320431 -0.03599373 0.56470588 0.01568627 0.61568627
v -0.00817225 0.01320431 -0.03597993 0.56470588 0.01568627 0.61568627
v -0.00817225 0.01446246 -0.03606275 0.56470588 0.01568627 0.61568627
v -0.00691530 0.01571724 -0.03595233 0.56470588 0.01568627 0.61568627
v -0.00130046 0.01571724 -0.03571080 0.56470588 0.01568627 0.61568627
v -0.00130046 0.01322786 0.03370569 0.56470588 0.01568627 0.61568627
v -0.00866696 0.01126663 0.03270506 0.56470588 0.01568627 0.61568627
v -0.00866696 0.01446246 -0.03604204 0.56470588 0.01568627 0.61568627
v -0.00817225 0.01571724 -0.03593163 0.56470588 0.01568627 0.61568627
v -0.00691530 0.01697539 -0.03564869 0.56470588 0.01568627 0.61568627
v -0.00565762 0.01697539 -0.03564179 0.56470588 0.01568627 0.61568627
v -0.00130046 0.01697539 -0.03551757 0.56470588 0.01568627 0.61568627
v -0.00130046 0.01375265 0.03385061 0.56470588 0.01568627 0.61568627
v -0.00866696 0.01166695 0.03281547 0.56470588 0.01568627 0.61568627
v -0.00866696 0.01571724 -0.03589712 0.56470588 0.01568627 0.61568627
v -0.00817225 0.01697539 -0.03559348 0.56470588 0.01568627 0.61568627
v -0.00691530 0.01790050 -0.03531745 0.56470588 0.01568627 0.61568627
v -0.00565762 0.01794087 -0.03533125 0.56470588 0.01568627 0.61568627
v -0.00440139 0.01792405 -0.03532435 0.56470588 0.01568627 0.61568627
v -0.00130046 0.01785676 -0.03528984 0.56470588 0.01568627 0.61568627
v -0.00130046 0.01743962 -0.03540026 0.56470588 0.01568627 0.61568627
v -0.00130046 0.01399822 0.03391272 0.56470588 0.01568627 0.61568627
v -0.00866696 0.01270980 0.03306390 0.56470588 0.01568627 0.61568627
v -0.00866696 0.01697539 -0.03555208 0.56470588 0.01568627 0.61568627
v -0.00866696 0.01777266 -0.03526914 0.56470588 0.01568627 0.61568627
v -0.00817225 0.01781976 -0.03528984 0.56470588 0.01568627 0.61568627
v -0.00691530 0.01852957 -0.03506901 0.56470588 0.01568627 0.61568627
v -0.00565762 0.01856994 -0.03508281 0.56470588 0.01568627 0.61568627
v -0.00440139 0.01855312 -0.03508281 0.56470588 0.01568627 0.61568627
v -0.00130046 0.01848584 -0.03506211 0.56470588 0.01568627 0.61568627
v -0.00130046 0.01819317 -0.03517253 0.56470588 0.01568627 0.61568627
v -0.00130046 0.01461384 0.03403003 0.56470588 0.01568627 0.61568627
v -0.00866696 0.01396794 0.03331924 0.56470588 0.01568627 0.61568627
v -0.00866696 0.01320431 0.03316742 0.56470588 0.01568627 0.61568627
v -0.00866696 0.01801824 -0.03517253 0.56470588 0.01568627 0.61568627
v -0.00817225 0.01844883 -0.03504141 0.56470588 0.01568627 0.61568627
v -0.00817225 0.01949169 -0.03459975 0.56470588 0.01568627 0.61568627
v -0.00691530 0.01949169 -0.03464805 0.56470588 0.01568627 0.61568627
v -0.00565762 0.01949169 -0.03468256 0.56470588 0.01568627 0.61568627
v -0.00440139 0.01949169 -0.03467566 0.56470588 0.01568627 0.61568627
v -0.00130046 0.01949169 -0.03465496 0.56470588 0.01568627 0.61568627
v -0.00130046 0.01571724 0.03420256 0.56470588 0.01568627 0.61568627
v -0.00866696 0.01446246 0.03340205 0.56470588 0.01568627 0.61568627
v -0.00866696 0.01840174 -0.03502070 0.56470588 0.01568627 0.61568627
v -0.00866696 0.01885925 -0.03483438 0.56470588 0.01568627 0.61568627
v -0.00866696 0.01949169 -0.03456524 0.56470588 0.01568627 0.61568627
v -0.00817225 0.02050426 -0.03413048 0.56470588 0.01568627 0.61568627
v -0.00691530 0.02121070 -0.03386825 0.56470588 0.01568627 0.61568627
v -0.00691530 0.02058500 -0.03415809 0.56470588 0.01568627 0.61568627
v -0.00565762 0.02124771 -0.03388895 0.56470588 0.01568627 0.61568627
v -0.00440139 0.02124435 -0.03388895 0.56470588 0.01568627 0.61568627
v -0.00130046 0.02058836 -0.03416499 0.56470588 0.01568627 0.61568627
v -0.00130046 0.01697539 0.03435438 0.56470588 0.01568627 0.61568627
v -0.00188675 0.01571724 0.03415425 0.56470588 0.01568627 0.61568627
v -0.00866696 0.01522273 0.03350556 0.56470588 0.01568627 0.61568627
v -0.00866696 0.02045043 -0.03411668 0.56470588 0.01568627 0.61568627
v -0.00817225 0.02112660 -0.03380614 0.56470588 0.01568627 0.61568627
v -0.00691530 0.02200125 -0.03330237 0.56470588 0.01568627 0.61568627
v -0.00565762 0.02200125 -0.03339898 0.56470588 0.01568627 0.61568627
v -0.00440139 0.02200125 -0.03344039 0.56470588 0.01568627 0.61568627
v -0.00130046 0.02294991 -0.03290902 0.56470588 0.01568627 0.61568627
v -0.00130046 0.02200125 -0.03346109 0.56470588 0.01568627 0.61568627
v -0.00130046 0.02121070 -0.03386825 0.56470588 0.01568627 0.61568627
v -0.00130046 0.01823354 0.03442339 0.56470588 0.01568627 0.61568627
v -0.00636146 0.01753045 0.03395412 0.56470588 0.01568627 0.61568627
v -0.00866696 0.01648088 0.03364358 0.56470588 0.01568627 0.61568627
v -0.00866696 0.01571724 0.03356767 0.56470588 0.01568627 0.61568627
v -0.00866696 0.02107614 -0.03375093 0.56470588 0.01568627 0.61568627
v -0.00808211 0.02206517 -0.03308844 0.56470588 0.01568627 0.61568627
v -0.00691530 0.02270097 -0.03275720 0.56470588 0.01568627 0.61568627
v -0.00565762 0.02278171 -0.03282621 0.56470588 0.01568627 0.61568627
v -0.00440139 0.02284226 -0.03287451 0.56470588 0.01568627 0.61568627
v -0.00314371 0.02288936 -0.03289522 0.56470588 0.01568627 0.61568627
v -0.00130046 0.02357898 -0.03243286 0.56470588 0.01568627 0.61568627
v -0.00130046 0.01949169 0.03443719 0.56470588 0.01568627 0.61568627
v -0.00188675 0.01949169 0.03438888 0.56470588 0.01568627 0.61568627
v -0.00440139 0.01949169 0.03417495 0.56470588 0.01568627 0.61568627
v -0.00565762 0.01823354 0.03405074 0.56470588 0.01568627 0.61568627
v -0.00866696 0.01823354 0.03376090 0.56470588 0.01568627 0.61568627
v -0.00866696 0.01697539 0.03369189 0.56470588 0.01568627 0.61568627
v -0.00866696 0.02193397 -0.03306774 0.56470588 0.01568627 0.61568627
v -0.00760183 0.02264715 -0.03270199 0.56470588 0.01568627 0.61568627
v -0.00769846 0.02392548 -0.03147363 0.56470588 0.01568627 0.61568627
v -0.00691530 0.02333004 -0.03214992 0.56470588 0.01568627 0.61568627
v -0.00691530 0.02397594 -0.03152193 0.56470588 0.01568627 0.61568627
v -0.00130046 0.02427870 -0.03180487 0.56470588 0.01568627 0.61568627
v -0.00130046 0.02074647 0.03436128 0.56470588 0.01568627 0.61568627
v -0.00188675 0.02074647 0.03432677 0.56470588 0.01568627 0.61568627
v -0.00578094 0.01960942 0.03403694 0.56470588 0.01568627 0.61568627
v -0.00817225 0.01949169 0.03378160 0.56470588 0.01568627 0.61568627
v -0.00866696 0.01899717 0.03374019 0.56470588 0.01568627 0.61568627
v -0.00866696 0.02265387 -0.03241905 0.56470588 0.01568627 0.61568627
v -0.00866696 0.02344106 -0.03169445 0.56470588 0.01568627 0.61568627
v -0.00691530 0.02460501 -0.03086634 0.56470588 0.01568627 0.61568627
v -0.00866696 0.02380101 -0.03134941 0.56470588 0.01568627 0.61568627
v -0.00866696 0.02444018 -0.03071452 0.56470588 0.01568627 0.61568627
v -0.00866696 0.02506252 -0.03008654 0.56470588 0.01568627 0.61568627
v -0.00847153 0.02508271 -0.03010724 0.56470588 0.01568627 0.61568627
v -0.00763284 0.02516344 -0.03019005 0.56470588 0.01568627 0.61568627
v -0.00691530 0.02520717 -0.03023836 0.56470588 0.01568627 0.61568627
v -0.00130046 0.02490777 -0.03117689 0.56470588 0.01568627 0.61568627
v -0.00130046 0.02133181 0.03426467 0.56470588 0.01568627 0.61568627
v -0.00188747 0.02208199 0.03408524 0.56470588 0.01568627 0.61568627
v -0.00314371 0.02173213 0.03403694 0.56470588 0.01568627 0.61568627
v -0.00493864 0.02131835 0.03393342 0.56470588 0.01568627 0.61568627
v -0.00447206 0.02083730 0.03405074 0.56470588 0.01568627 0.61568627
v -0.00544416 0.02048407 0.03400243 0.56470588 0.01568627 0.61568627
v -0.00628213 0.02010730 0.03394722 0.56470588 0.01568627 0.61568627
v -0.00866696 0.01949169 0.03372639 0.56470588 0.01568627 0.61568627
v -0.00866696 0.02556376 -0.02952066 0.56470588 0.01568627 0.61568627
v -0.00817225 0.02630385 -0.02880296 0.56470588 0.01568627 0.61568627
v -0.00737467 0.02638459 -0.02889268 0.56470588 0.01568627 0.61568627
v -0.00693909 0.02593717 -0.02943785 0.56470588 0.01568627 0.61568627
v -0.00565762 0.02648214 -0.02900309 0.56470588 0.01568627 0.61568627
v -0.00130046 0.02521727 -0.03084564 0.56470588 0.01568627 0.61568627
v -0.00130046 0.02204498 0.03413355 0.56470588 0.01568627 0.61568627
v -0.00146921 0.02268751 0.03396792 0.56470588 0.01568627 0.61568627
v -0.00230790 0.02255295 0.03392652 0.56470588 0.01568627 0.61568627
v -0.00447206 0.02195752 0.03383681 0.56470588 0.01568627 0.61568627
v -0.00565762 0.02200125 0.03368499 0.56470588 0.01568627 0.61568627
v -0.00866696 0.02200125 0.03330544 0.56470588 0.01568627 0.61568627
v -0.00866696 0.02150674 0.03341585 0.56470588 0.01568627 0.61568627
v -0.00866696 0.02074647 0.03358147 0.56470588 0.01568627 0.61568627
v -0.00866696 0.02625339 -0.02874086 0.56470588 0.01568627 0.61568627
v -0.00866696 0.02677818 -0.02811287 0.56470588 0.01568627 0.61568627
v -0.00817225 0.02682864 -0.02816808 0.56470588 0.01568627 0.61568627
v -0.00503022 0.02765955 -0.02765741 0.56470588 0.01568627 0.61568627
v -0.00653597 0.02643168 -0.02894788 0.56470588 0.01568627 0.61568627
v -0.00817225 0.02745435 -0.02740207 0.56470588 0.01568627 0.61568627
v -0.00691530 0.02755527 -0.02751939 0.56470588 0.01568627 0.61568627
v -0.00440139 0.02715831 -0.02831300 0.56470588 0.01568627 0.61568627
v -0.00188675 0.02662343 -0.02917561 0.56470588 0.01568627 0.61568627
v -0.00130046 0.02639804 -0.02949306 0.56470588 0.01568627 0.61568627
v -0.00130046 0.02581270 -0.03016935 0.56470588 0.01568627 0.61568627
v -0.00130046 0.02270433 0.03397483 0.56470588 0.01568627 0.61568627
v -0.00130046 0.02327622 0.03376090 0.56470588 0.01568627 0.61568627
v -0.00188747 0.02316857 0.03375399 0.56470588 0.01568627 0.61568627
v -0.00314371 0.02325940 0.03360907 0.56470588 0.01568627 0.61568627
v -0.00440139 0.02325940 0.03347106 0.56470588 0.01568627 0.61568627
v -0.00691530 0.02325940 0.03313981 0.56470588 0.01568627 0.61568627
v -0.00866696 0.02284899 0.03302940 0.56470588 0.01568627 0.61568627
v -0.00866696 0.02760573 -0.02709153 0.56470588 0.01568627 0.61568627
v -0.00440139 0.02767974 -0.02768501 0.56470588 0.01568627 0.61568627
v -0.00565762 0.02874277 -0.02617371 0.56470588 0.01568627 0.61568627
v -0.00440139 0.02880332 -0.02624962 0.56470588 0.01568627 0.61568627
v -0.00866696 0.02789840 -0.02671198 0.56470588 0.01568627 0.61568627
v -0.00817225 0.02794213 -0.02676719 0.56470588 0.01568627 0.61568627
v -0.00817225 0.02857121 -0.02593908 0.56470588 0.01568627 0.61568627
v -0.00691530 0.02913973 -0.02542841 0.56470588 0.01568627 0.61568627
v -0.00188675 0.02724914 -0.02840271 0.56470588 0.01568627 0.61568627
v -0.00130046 0.02696993 -0.02878916 0.56470588 0.01568627 0.61568627
v -0.00130046 0.02451755 0.03327093 0.56470588 0.01568627 0.61568627
v -0.00188675 0.02451755 0.03322953 0.56470588 0.01568627 0.61568627
v -0.00314371 0.02451755 0.03311911 0.56470588 0.01568627 0.61568627
v -0.00691530 0.02414078 0.03280167 0.56470588 0.01568627 0.61568627
v -0.00782466 0.02398940 0.03273266 0.56470588 0.01568627 0.61568627
v -0.00866696 0.02323922 0.03289828 0.56470588 0.01568627 0.61568627
v -0.00314371 0.02771674 -0.02772642 0.56470588 0.01568627 0.61568627
v -0.00565762 0.02921710 -0.02554573 0.56470588 0.01568627 0.61568627
v -0.00440139 0.02926420 -0.02562163 0.56470588 0.01568627 0.61568627
v -0.00314371 0.02883360 -0.02629103 0.56470588 0.01568627 0.61568627
v -0.00188675 0.02774702 -0.02777472 0.56470588 0.01568627 0.61568627
v -0.00314371 0.02826171 -0.02702942 0.56470588 0.01568627 0.61568627
v -0.00866696 0.02817089 -0.02635313 0.56470588 0.01568627 0.61568627
v -0.00866696 0.02879660 -0.02552502 0.56470588 0.01568627 0.61568627
v -0.00817225 0.02904217 -0.02531109 0.56470588 0.01568627 0.61568627
v -0.00756577 0.03017921 -0.02389640 0.56470588 0.01568627 0.61568627
v -0.00691530 0.02976544 -0.02457959 0.56470588 0.01568627 0.61568627
v -0.00130046 0.02776048 -0.02778853 0.56470588 0.01568627 0.61568627
v -0.00130046 0.02497169 0.03306390 0.56470588 0.01568627 0.61568627
v -0.00188675 0.02540565 0.03282237 0.56470588 0.01568627 0.61568627
v -0.00314371 0.02528118 0.03276026 0.56470588 0.01568627 0.61568627
v -0.00392543 0.02518699 0.03271196 0.56470588 0.01568627 0.61568627
v -0.00436749 0.02459829 0.03292588 0.56470588 0.01568627 0.61568627
v -0.00565762 0.02432243 0.03288448 0.56470588 0.01568627 0.61568627
v -0.00565762 0.02495151 0.03259464 0.56470588 0.01568627 0.61568627
v -0.00691530 0.02476985 0.03250493 0.56470588 0.01568627 0.61568627
v -0.00821552 0.02445363 0.03243592 0.56470588 0.01568627 0.61568627
v -0.00866263 0.02383128 0.03266365 0.56470588 0.01568627 0.61568627
v -0.00866696 0.02382792 0.03266365 0.56470588 0.01568627 0.61568627
v -0.00565762 0.02984617 -0.02467620 0.56470588 0.01568627 0.61568627
v -0.00440139 0.02989327 -0.02474522 0.56470588 0.01568627 0.61568627
v -0.00314371 0.02929447 -0.02566304 0.56470588 0.01568627 0.61568627
v -0.00188675 0.02886388 -0.02632553 0.56470588 0.01568627 0.61568627
v -0.00188675 0.02832227 -0.02702942 0.56470588 0.01568627 0.61568627
v -0.00866696 0.02899844 -0.02525588 0.56470588 0.01568627 0.61568627
v -0.00866696 0.02952323 -0.02448988 0.56470588 0.01568627 0.61568627
v -0.00866696 0.03004802 -0.02366867 0.56470588 0.01568627 0.61568627
v -0.00866696 0.03037096 -0.02310970 0.56470588 0.01568627 0.61568627
v -0.00861936 0.03139363 -0.02129475 0.56470588 0.01568627 0.61568627
v -0.00778139 0.03148446 -0.02146727 0.56470588 0.01568627 0.61568627
v -0.00691530 0.03122206 -0.02223328 0.56470588 0.01568627 0.61568627
v -0.00691530 0.03063672 -0.02325462 0.56470588 0.01568627 0.61568627
v -0.00691530 0.03021958 -0.02395161 0.56470588 0.01568627 0.61568627
v -0.00130046 0.02862839 -0.02665677 0.56470588 0.01568627 0.61568627
v -0.00130046 0.02544602 0.03284307 0.56470588 0.01568627 0.61568627
v -0.00130046 0.02573869 0.03269125 0.56470588 0.01568627 0.61568627
v -0.00188675 0.02603473 0.03248422 0.56470588 0.01568627 0.61568627
v -0.00314371 0.02591026 0.03242211 0.56470588 0.01568627 0.61568627
v -0.00436749 0.02567141 0.03239451 0.56470588 0.01568627 0.61568627
v -0.00565762 0.02577570 0.03216678 0.56470588 0.01568627 0.61568627
v -0.00691530 0.02577570 0.03196665 0.56470588 0.01568627 0.61568627
v -0.00866696 0.02416432 0.03249803 0.56470588 0.01568627 0.61568627
v -0.00810879 0.02584298 0.03171132 0.56470588 0.01568627 0.61568627
v -0.00866696 0.02447718 0.03233930 0.56470588 0.01568627 0.61568627
v -0.00565762 0.03028350 -0.02404822 0.56470588 0.01568627 0.61568627
v -0.00314371 0.02992355 -0.02477972 0.56470588 0.01568627 0.61568627
v -0.00440139 0.03033059 -0.02411723 0.56470588 0.01568627 0.61568627
v -0.00188675 0.02931466 -0.02569754 0.56470588 0.01568627 0.61568627
v -0.00130046 0.02886724 -0.02633243 0.56470588 0.01568627 0.61568627
v -0.00866696 0.03138690 -0.02128095 0.56470588 0.01568627 0.61568627
v -0.00866696 0.03140372 -0.02124644 0.56470588 0.01568627 0.61568627
v -0.00866696 0.03166948 -0.02068056 0.56470588 0.01568627 0.61568627
v -0.00818884 0.03171321 -0.02081859 0.56470588 0.01568627 0.61568627
v -0.00691530 0.03154838 -0.02160529 0.56470588 0.01568627 0.61568627
v -0.00691530 0.03249703 -0.01969373 0.56470588 0.01568627 0.61568627
v -0.00691530 0.03198570 -0.02074267 0.56470588 0.01568627 0.61568627
v -0.00565762 0.03129944 -0.02237820 0.56470588 0.01568627 0.61568627
v -0.00565762 0.03077801 -0.02325462 0.56470588 0.01568627 0.61568627
v -0.00130046 0.02607509 0.03250493 0.56470588 0.01568627 0.61568627
v -0.00196247 0.02715158 0.03178723 0.56470588 0.01568627 0.61568627
v -0.00314371 0.02696320 0.03178723 0.56470588 0.01568627 0.61568627
v -0.00440139 0.02685891 0.03171822 0.56470588 0.01568627 0.61568627
v -0.00565762 0.02672099 0.03162851 0.56470588 0.01568627 0.61568627
v -0.00691530 0.02653933 0.03151809 0.56470588 0.01568627 0.61568627
v -0.00848523 0.02631058 0.03137318 0.56470588 0.01568627 0.61568627
v -0.00866696 0.02528455 0.03190454 0.56470588 0.01568627 0.61568627
v -0.00866696 0.02627694 0.03135937 0.56470588 0.01568627 0.61568627
v -0.00866696 0.02615583 0.03142838 0.56470588 0.01568627 0.61568627
v -0.00866696 0.02570505 0.03167681 0.56470588 0.01568627 0.61568627
v -0.00314371 0.03034742 -0.02415174 0.56470588 0.01568627 0.61568627
v -0.00188675 0.02994373 -0.02479352 0.56470588 0.01568627 0.61568627
v -0.00440139 0.03086211 -0.02325462 0.56470588 0.01568627 0.61568627
v -0.00314371 0.03090584 -0.02325462 0.56470588 0.01568627 0.61568627
v -0.00130046 0.02964770 -0.02522138 0.56470588 0.01568627 0.61568627
v -0.00130046 0.02910945 -0.02599428 0.56470588 0.01568627 0.61568627
v -0.00866696 0.03224473 -0.01943150 0.56470588 0.01568627 0.61568627
v -0.00811023 0.03239611 -0.01939009 0.56470588 0.01568627 0.61568627
v -0.00565762 0.03162911 -0.02174331 0.56470588 0.01568627 0.61568627
v -0.00565762 0.03258113 -0.01988696 0.56470588 0.01568627 0.61568627
v -0.00565762 0.03214717 -0.02074267 0.56470588 0.01568627 0.61568627
v -0.00764942 0.03271233 -0.01890703 0.56470588 0.01568627 0.61568627
v -0.00691530 0.03278297 -0.01906575 0.56470588 0.01568627 0.61568627
v -0.00565762 0.03287717 -0.01925897 0.56470588 0.01568627 0.61568627
v -0.00440139 0.03225146 -0.02074267 0.56470588 0.01568627 0.61568627
v -0.00440139 0.03168293 -0.02182612 0.56470588 0.01568627 0.61568627
v -0.00440139 0.03133644 -0.02245410 0.56470588 0.01568627 0.61568627
v -0.00130046 0.02709103 0.03187004 0.56470588 0.01568627 0.61568627
v -0.00159397 0.02769656 0.03145599 0.56470588 0.01568627 0.61568627
v -0.00243266 0.02764946 0.03142148 0.56470588 0.01568627 0.61568627
v -0.00440139 0.02748462 0.03131107 0.56470588 0.01568627 0.61568627
v -0.00565762 0.02735006 0.03121445 0.56470588 0.01568627 0.61568627
v -0.00810879 0.02692283 0.03102123 0.56470588 0.01568627 0.61568627
v -0.00866696 0.02700693 0.03084180 0.56470588 0.01568627 0.61568627
v -0.00188675 0.03036087 -0.02416554 0.56470588 0.01568627 0.61568627
v -0.00130046 0.02994037 -0.02479352 0.56470588 0.01568627 0.61568627
v -0.00314371 0.03136335 -0.02250241 0.56470588 0.01568627 0.61568627
v -0.00188675 0.03091930 -0.02325462 0.56470588 0.01568627 0.61568627
v -0.00866696 0.03265178 -0.01852747 0.56470588 0.01568627 0.61568627
v -0.00848739 0.03262150 -0.01870000 0.56470588 0.01568627 0.61568627
v -0.00440139 0.03293099 -0.01936939 0.56470588 0.01568627 0.61568627
v -0.00440139 0.03263159 -0.01999737 0.56470588 0.01568627 0.61568627
v -0.00811023 0.03289735 -0.01825834 0.56470588 0.01568627 0.61568627
v -0.00691530 0.03314965 -0.01823073 0.56470588 0.01568627 0.61568627
v -0.00565762 0.03333131 -0.01823073 0.56470588 0.01568627 0.61568627
v -0.00440139 0.03344569 -0.01823073 0.56470588 0.01568627 0.61568627
v -0.00314371 0.03265851 -0.02004568 0.56470588 0.01568627 0.61568627
v -0.00314371 0.03229519 -0.02074267 0.56470588 0.01568627 0.61568627
v -0.00314371 0.03169976 -0.02187443 0.56470588 0.01568627 0.61568627
v -0.00130046 0.02770329 0.03146289 0.56470588 0.01568627 0.61568627
v -0.00130046 0.02789504 0.03130416 0.56470588 0.01568627 0.61568627
v -0.00188675 0.02905226 0.03029663 0.56470588 0.01568627 0.61568627
v -0.00196247 0.02818434 0.03102123 0.56470588 0.01568627 0.61568627
v -0.00314371 0.02899507 0.03024832 0.56470588 0.01568627 0.61568627
v -0.00314371 0.02828863 0.03082800 0.56470588 0.01568627 0.61568627
v -0.00440499 0.02839964 0.03060027 0.56470588 0.01568627 0.61568627
v -0.00565762 0.02817425 0.03058647 0.56470588 0.01568627 0.61568627
v -0.00817225 0.02785130 0.03033113 0.56470588 0.01568627 0.61568627
v -0.00866696 0.02778739 0.03027593 0.56470588 0.01568627 0.61568627
v -0.00130046 0.03035751 -0.02416554 0.56470588 0.01568627 0.61568627
v -0.00188675 0.03136335 -0.02250241 0.56470588 0.01568627 0.61568627
v -0.00130046 0.03065691 -0.02367557 0.56470588 0.01568627 0.61568627
v -0.00130046 0.03114469 -0.02285436 0.56470588 0.01568627 0.61568627
v -0.00866696 0.03284689 -0.01806511 0.56470588 0.01568627 0.61568627
v -0.00314371 0.03295454 -0.01941769 0.56470588 0.01568627 0.61568627
v -0.00314371 0.03350960 -0.01823073 0.56470588 0.01568627 0.61568627
v -0.00817225 0.03340532 -0.01696786 0.56470588 0.01568627 0.61568627
v -0.00685400 0.03370136 -0.01687815 0.56470588 0.01568627 0.61568627
v -0.00639391 0.03396711 -0.01639509 0.56470588 0.01568627 0.61568627
v -0.00565762 0.03377200 -0.01714729 0.56470588 0.01568627 0.61568627
v -0.00440139 0.03383255 -0.01731981 0.56470588 0.01568627 0.61568627
v -0.00314371 0.03387292 -0.01742333 0.56470588 0.01568627 0.61568627
v -0.00188675 0.03266187 -0.02005948 0.56470588 0.01568627 0.61568627
v -0.00188675 0.03354997 -0.01823073 0.56470588 0.01568627 0.61568627
v -0.00130046 0.03356007 -0.01823073 0.56470588 0.01568627 0.61568627
v -0.00130046 0.03266187 -0.02005948 0.56470588 0.01568627 0.61568627
v -0.00130046 0.02906572 0.03031043 0.56470588 0.01568627 0.61568627
v -0.00130046 0.02969479 0.02968935 0.56470588 0.01568627 0.61568627
v -0.00188675 0.02968134 0.02966864 0.56470588 0.01568627 0.61568627
v -0.00398889 0.02894461 0.03020001 0.56470588 0.01568627 0.61568627
v -0.00314371 0.02962415 0.02959963 0.56470588 0.01568627 0.61568627
v -0.00482686 0.02889079 0.03014481 0.56470588 0.01568627 0.61568627
v -0.00565762 0.02880332 0.03006890 0.56470588 0.01568627 0.61568627
v -0.00866696 0.02806324 0.03004129 0.56470588 0.01568627 0.61568627
v -0.00130046 0.03169639 -0.02186063 0.56470588 0.01568627 0.61568627
v -0.00130046 0.03135326 -0.02248861 0.56470588 0.01568627 0.61568627
v -0.00866696 0.03328758 -0.01696786 0.56470588 0.01568627 0.61568627
v -0.00188675 0.03389983 -0.01748543 0.56470588 0.01568627 0.61568627
v -0.00866696 0.03346251 -0.01647790 0.56470588 0.01568627 0.61568627
v -0.00825879 0.03381573 -0.01573260 0.56470588 0.01568627 0.61568627
v -0.00723188 0.03388974 -0.01616735 0.56470588 0.01568627 0.61568627
v -0.00565762 0.03430015 -0.01571189 0.56470588 0.01568627 0.61568627
v -0.00565762 0.03401757 -0.01651930 0.56470588 0.01568627 0.61568627
v -0.00691530 0.03450199 -0.01445592 0.56470588 0.01568627 0.61568627
v -0.00565762 0.03471056 -0.01445592 0.56470588 0.01568627 0.61568627
v -0.00440139 0.03408485 -0.01669183 0.56470588 0.01568627 0.61568627
v -0.00314371 0.03412859 -0.01679534 0.56470588 0.01568627 0.61568627
v -0.00188675 0.03416223 -0.01685745 0.56470588 0.01568627 0.61568627
v -0.00130046 0.03297136 -0.01943150 0.56470588 0.01568627 0.61568627
v -0.00130046 0.03390656 -0.01750614 0.56470588 0.01568627 0.61568627
v -0.00130046 0.03030704 0.02906136 0.56470588 0.01568627 0.61568627
v -0.00188675 0.03029023 0.02904066 0.56470588 0.01568627 0.61568627
v -0.00386197 0.03018931 0.02893024 0.56470588 0.01568627 0.61568627
v -0.00314371 0.03022631 0.02897165 0.56470588 0.01568627 0.61568627
v -0.00470066 0.03012539 0.02885433 0.56470588 0.01568627 0.61568627
v -0.00565762 0.02941894 0.02944091 0.56470588 0.01568627 0.61568627
v -0.00691530 0.02864185 0.02993088 0.56470588 0.01568627 0.61568627
v -0.00691530 0.02929447 0.02930289 0.56470588 0.01568627 0.61568627
v -0.00817225 0.02915991 0.02915797 0.56470588 0.01568627 0.61568627
v -0.00817225 0.02848038 0.02979286 0.56470588 0.01568627 0.61568627
v -0.00866696 0.02842319 0.02971695 0.56470588 0.01568627 0.61568627
v -0.00130046 0.03417232 -0.01687815 0.56470588 0.01568627 0.61568627
v -0.00866696 0.03372154 -0.01572570 0.56470588 0.01568627 0.61568627
v -0.00789678 0.03402767 -0.01532544 0.56470588 0.01568627 0.61568627
v -0.00866696 0.03391665 -0.01513221 0.56470588 0.01568627 0.61568627
v -0.00866696 0.03397048 -0.01496659 0.56470588 0.01568627 0.61568627
v -0.00440139 0.03515462 -0.01364851 0.56470588 0.01568627 0.61568627
v -0.00367952 0.03520171 -0.01381414 0.56470588 0.01568627 0.61568627
v -0.00440139 0.03444481 -0.01571189 0.56470588 0.01568627 0.61568627
v -0.00825879 0.03419250 -0.01455254 0.56470588 0.01568627 0.61568627
v -0.00691530 0.03486868 -0.01319995 0.56470588 0.01568627 0.61568627
v -0.00623165 0.03519498 -0.01253746 0.56470588 0.01568627 0.61568627
v -0.00575065 0.03508061 -0.01319305 0.56470588 0.01568627 0.61568627
v -0.00314371 0.03454236 -0.01571189 0.56470588 0.01568627 0.61568627
v -0.00188675 0.03461301 -0.01571189 0.56470588 0.01568627 0.61568627
v -0.00130046 0.03059972 0.02871632 0.56470588 0.01568627 0.61568627
v -0.00150238 0.03145755 0.02768808 0.56470588 0.01568627 0.61568627
v -0.00190767 0.03101013 0.02817804 0.56470588 0.01568627 0.61568627
v -0.00314371 0.03080156 0.02828846 0.56470588 0.01568627 0.61568627
v -0.00314371 0.03138017 0.02759146 0.56470588 0.01568627 0.61568627
v -0.00432927 0.03057953 0.02837817 0.56470588 0.01568627 0.61568627
v -0.00565762 0.03057617 0.02814354 0.56470588 0.01568627 0.61568627
v -0.00565762 0.03004465 0.02877152 0.56470588 0.01568627 0.61568627
v -0.00691530 0.02992355 0.02862660 0.56470588 0.01568627 0.61568627
v -0.00866696 0.02909936 0.02909587 0.56470588 0.01568627 0.61568627
v -0.00817225 0.02978899 0.02847478 0.56470588 0.01568627 0.61568627
v -0.00130046 0.03462983 -0.01571189 0.56470588 0.01568627 0.61568627
v -0.00866696 0.03413868 -0.01440072 0.56470588 0.01568627 0.61568627
v -0.00539296 0.03526227 -0.01277210 0.56470588 0.01568627 0.61568627
v -0.00440139 0.03532955 -0.01302053 0.56470588 0.01568627 0.61568627
v -0.00440139 0.03562894 -0.01194398 0.56470588 0.01568627 0.61568627
v -0.00314371 0.03577696 -0.01194398 0.56470588 0.01568627 0.61568627
v -0.00188675 0.03588798 -0.01194398 0.56470588 0.01568627 0.61568627
v -0.00188675 0.03549102 -0.01319995 0.56470588 0.01568627 0.61568627
v -0.00130046 0.03539010 -0.01357951 0.56470588 0.01568627 0.61568627
v -0.00188675 0.03524208 -0.01393835 0.56470588 0.01568627 0.61568627
v -0.00188675 0.03502342 -0.01456634 0.56470588 0.01568627 0.61568627
v -0.00321366 0.03503015 -0.01435931 0.56470588 0.01568627 0.61568627
v -0.00866696 0.03422951 -0.01408327 0.56470588 0.01568627 0.61568627
v -0.00817225 0.03459955 -0.01319995 0.56470588 0.01568627 0.61568627
v -0.00762202 0.03522190 -0.01137811 0.56470588 0.01568627 0.61568627
v -0.00691530 0.03529254 -0.01165414 0.56470588 0.01568627 0.61568627
v -0.00575065 0.03540019 -0.01204750 0.56470588 0.01568627 0.61568627
v -0.00130046 0.03503351 -0.01460084 0.56470588 0.01568627 0.61568627
v -0.00130046 0.03146091 0.02769498 0.56470588 0.01568627 0.61568627
v -0.00130046 0.03157529 0.02753625 0.56470588 0.01568627 0.61568627
v -0.00190767 0.03181413 0.02714290 0.56470588 0.01568627 0.61568627
v -0.00314371 0.03184104 0.02696348 0.56470588 0.01568627 0.61568627
v -0.00440139 0.03129944 0.02748105 0.56470588 0.01568627 0.61568627
v -0.00691530 0.03046179 0.02799862 0.56470588 0.01568627 0.61568627
v -0.00565762 0.03120524 0.02734993 0.56470588 0.01568627 0.61568627
v -0.00866696 0.02942231 0.02874392 0.56470588 0.01568627 0.61568627
v -0.00866696 0.02970825 0.02841958 0.56470588 0.01568627 0.61568627
v -0.00817225 0.03032723 0.02784680 0.56470588 0.01568627 0.61568627
v -0.00866696 0.03027341 0.02777779 0.56470588 0.01568627 0.61568627
v -0.00440139 0.03595526 -0.01068111 0.56470588 0.01568627 0.61568627
v -0.00314371 0.03611336 -0.01068111 0.56470588 0.01568627 0.61568627
v -0.00188675 0.03623111 -0.01068111 0.56470588 0.01568627 0.61568627
v -0.00130046 0.03591489 -0.01194398 0.56470588 0.01568627 0.61568627
v -0.00130046 0.03572987 -0.01253056 0.56470588 0.01568627 0.61568627
v -0.00130046 0.03627484 -0.01063281 0.56470588 0.01568627 0.61568627
v -0.00130046 0.03551793 -0.01319995 0.56470588 0.01568627 0.61568627
v -0.00130046 0.03525554 -0.01397286 0.56470588 0.01568627 0.61568627
v -0.00866696 0.03448181 -0.01319995 0.56470588 0.01568627 0.61568627
v -0.00866696 0.03510752 -0.01068111 0.56470588 0.01568627 0.61568627
v -0.00853932 0.03514116 -0.01068111 0.56470588 0.01568627 0.61568627
v -0.00791048 0.03529254 -0.01068111 0.56470588 0.01568627 0.61568627
v -0.00691530 0.03576014 -0.00942514 0.56470588 0.01568627 0.61568627
v -0.00565762 0.03601581 -0.00942514 0.56470588 0.01568627 0.61568627
v -0.00565762 0.03574669 -0.01068111 0.56470588 0.01568627 0.61568627
v -0.00866696 0.03482494 -0.01189568 0.56470588 0.01568627 0.61568627
v -0.00130046 0.03253404 0.02615607 0.56470588 0.01568627 0.61568627
v -0.00188675 0.03251721 0.02612847 0.56470588 0.01568627 0.61568627
v -0.00314371 0.03247012 0.02604565 0.56470588 0.01568627 0.61568627
v -0.00440139 0.03176031 0.02685306 0.56470588 0.01568627 0.61568627
v -0.00691530 0.03109087 0.02718431 0.56470588 0.01568627 0.61568627
v -0.00565762 0.03165602 0.02672194 0.56470588 0.01568627 0.61568627
v -0.00866696 0.03052907 0.02742584 0.56470588 0.01568627 0.61568627
v -0.00314371 0.03636567 -0.00961837 0.56470588 0.01568627 0.61568627
v -0.00428528 0.03628157 -0.00930783 0.56470588 0.01568627 0.61568627
v -0.00378913 0.03646323 -0.00881096 0.56470588 0.01568627 0.61568627
v -0.00188675 0.03642622 -0.00990131 0.56470588 0.01568627 0.61568627
v -0.00130046 0.03644304 -0.00997722 0.56470588 0.01568627 0.61568627
v -0.00866696 0.03517144 -0.01036367 0.56470588 0.01568627 0.61568627
v -0.00866696 0.03525890 -0.00992201 0.56470588 0.01568627 0.61568627
v -0.00829340 0.03542374 -0.00954936 0.56470588 0.01568627 0.61568627
v -0.00817225 0.03571641 -0.00816917 0.56470588 0.01568627 0.61568627
v -0.00691530 0.03599899 -0.00816917 0.56470588 0.01568627 0.61568627
v -0.00555954 0.03629166 -0.00807256 0.56470588 0.01568627 0.61568627
v -0.00462710 0.03639931 -0.00843141 0.56470588 0.01568627 0.61568627
v -0.00130046 0.03271906 0.02586623 0.56470588 0.01568627 0.61568627
v -0.00188675 0.03291081 0.02550048 0.56470588 0.01568627 0.61568627
v -0.00314371 0.03285025 0.02541077 0.56470588 0.01568627 0.61568627
v -0.00440139 0.03277961 0.02529345 0.56470588 0.01568627 0.61568627
v -0.00440139 0.03238938 0.02592834 0.56470588 0.01568627 0.61568627
v -0.00811240 0.03101013 0.02692207 0.56470588 0.01568627 0.61568627
v -0.00691530 0.03153492 0.02655632 0.56470588 0.01568627 0.61568627
v -0.00765375 0.03145418 0.02643901 0.56470588 0.01568627 0.61568627
v -0.00564031 0.03233556 0.02567990 0.56470588 0.01568627 0.61568627
v -0.00849172 0.03136672 0.02628719 0.56470588 0.01568627 0.61568627
v -0.00866696 0.03121534 0.02643901 0.56470588 0.01568627 0.61568627
v -0.00314371 0.03650696 -0.00899038 0.56470588 0.01568627 0.61568627
v -0.00188675 0.03657087 -0.00927332 0.56470588 0.01568627 0.61568627
v -0.00428528 0.03651705 -0.00807256 0.56470588 0.01568627 0.61568627
v -0.00314371 0.03690055 -0.00691320 0.56470588 0.01568627 0.61568627
v -0.00314371 0.03667516 -0.00816917 0.56470588 0.01568627 0.61568627
v -0.00130046 0.03649687 -0.00975639 0.56470588 0.01568627 0.61568627
v -0.00866696 0.03536319 -0.00939064 0.56470588 0.01568627 0.61568627
v -0.00866696 0.03558858 -0.00817607 0.56470588 0.01568627 0.61568627
v -0.00866696 0.03567268 -0.00767231 0.56470588 0.01568627 0.61568627
v -0.00817225 0.03592498 -0.00691320 0.56470588 0.01568627 0.61568627
v -0.00691530 0.03621092 -0.00691320 0.56470588 0.01568627 0.61568627
v -0.00627420 0.03645986 -0.00626452 0.56470588 0.01568627 0.61568627
v -0.00599728 0.03640604 -0.00691320 0.56470588 0.01568627 0.61568627
v -0.00507493 0.03646995 -0.00759640 0.56470588 0.01568627 0.61568627
v -0.00130046 0.03293099 0.02552808 0.56470588 0.01568627 0.61568627
v -0.00130046 0.03320684 0.02504502 0.56470588 0.01568627 0.61568627
v -0.00130046 0.03350624 0.02451365 0.56470588 0.01568627 0.61568627
v -0.00188675 0.03346587 0.02451365 0.56470588 0.01568627 0.61568627
v -0.00314371 0.03335150 0.02451365 0.56470588 0.01568627 0.61568627
v -0.00520907 0.03272242 0.02519684 0.56470588 0.01568627 0.61568627
v -0.00440139 0.03320348 0.02451365 0.56470588 0.01568627 0.61568627
v -0.00691530 0.03202943 0.02576962 0.56470588 0.01568627 0.61568627
v -0.00866696 0.03134317 0.02625268 0.56470588 0.01568627 0.61568627
v -0.00691530 0.03255422 0.02487940 0.56470588 0.01568627 0.61568627
v -0.00811240 0.03171994 0.02583172 0.56470588 0.01568627 0.61568627
v -0.00188675 0.03680635 -0.00816917 0.56470588 0.01568627 0.61568627
v -0.00130046 0.03657760 -0.00939064 0.56470588 0.01568627 0.61568627
v -0.00188675 0.03703511 -0.00691320 0.56470588 0.01568627 0.61568627
v -0.00440139 0.03669198 -0.00691320 0.56470588 0.01568627 0.61568627
v -0.00440139 0.03689046 -0.00565723 0.56470588 0.01568627 0.61568627
v -0.00314371 0.03708894 -0.00565723 0.56470588 0.01568627 0.61568627
v -0.00866696 0.03579715 -0.00691320 0.56470588 0.01568627 0.61568627
v -0.00866696 0.03587115 -0.00641634 0.56470588 0.01568627 0.61568627
v -0.00817225 0.03611000 -0.00565723 0.56470588 0.01568627 0.61568627
v -0.00693405 0.03638249 -0.00576765 0.56470588 0.01568627 0.61568627
v -0.00691530 0.03673571 -0.00313839 0.56470588 0.01568627 0.61568627
v -0.00565762 0.03684000 -0.00439436 0.56470588 0.01568627 0.61568627
v -0.00440139 0.03707884 -0.00439436 0.56470588 0.01568627 0.61568627
v -0.00130046 0.03389310 0.02376834 0.56470588 0.01568627 0.61568627
v -0.00188675 0.03387292 0.02372694 0.56470588 0.01568627 0.61568627
v -0.00314371 0.03381910 0.02359582 0.56470588 0.01568627 0.61568627
v -0.00564031 0.03296127 0.02458956 0.56470588 0.01568627 0.61568627
v -0.00604704 0.03264505 0.02505192 0.56470588 0.01568627 0.61568627
v -0.00440139 0.03374172 0.02344400 0.56470588 0.01568627 0.61568627
v -0.00866696 0.03167284 0.02567300 0.56470588 0.01568627 0.61568627
v -0.00691530 0.03287380 0.02425141 0.56470588 0.01568627 0.61568627
v -0.00786504 0.03276615 0.02404438 0.56470588 0.01568627 0.61568627
v -0.00823932 0.03244657 0.02448604 0.56470588 0.01568627 0.61568627
v -0.00130046 0.03696110 -0.00749978 0.56470588 0.01568627 0.61568627
v -0.00130046 0.03683663 -0.00816917 0.56470588 0.01568627 0.61568627
v -0.00130046 0.03706539 -0.00691320 0.56470588 0.01568627 0.61568627
v -0.00188675 0.03721677 -0.00565723 0.56470588 0.01568627 0.61568627
v -0.00130046 0.03725041 -0.00565723 0.56470588 0.01568627 0.61568627
v -0.00314371 0.03725377 -0.00439436 0.56470588 0.01568627 0.61568627
v -0.00866696 0.03598217 -0.00565723 0.56470588 0.01568627 0.61568627
v -0.00866696 0.03605281 -0.00516037 0.56470588 0.01568627 0.61568627
v -0.00808499 0.03630511 -0.00434606 0.56470588 0.01568627 0.61568627
v -0.00736529 0.03642622 -0.00473251 0.56470588 0.01568627 0.61568627
v -0.00760760 0.03647668 -0.00389059 0.56470588 0.01568627 0.61568627
v -0.00778860 0.03652378 -0.00313839 0.56470588 0.01568627 0.61568627
v -0.00691530 0.03686018 -0.00188242 0.56470588 0.01568627 0.61568627
v -0.00565762 0.03713267 -0.00188242 0.56470588 0.01568627 0.61568627
v -0.00565762 0.03700483 -0.00313839 0.56470588 0.01568627 0.61568627
v -0.00440139 0.03722686 -0.00313839 0.56470588 0.01568627 0.61568627
v -0.00130046 0.03417568 0.02314036 0.56470588 0.01568627 0.61568627
v -0.00188675 0.03415886 0.02309896 0.56470588 0.01568627 0.61568627
v -0.00314371 0.03409495 0.02296784 0.56470588 0.01568627 0.61568627
v -0.00440139 0.03402767 0.02281602 0.56470588 0.01568627 0.61568627
v -0.00519032 0.03398057 0.02269870 0.56470588 0.01568627 0.61568627
v -0.00562877 0.03366435 0.02317487 0.56470588 0.01568627 0.61568627
v -0.00866696 0.03214381 0.02483109 0.56470588 0.01568627 0.61568627
v -0.00691530 0.03335150 0.02325768 0.56470588 0.01568627 0.61568627
v -0.00823932 0.03300500 0.02335429 0.56470588 0.01568627 0.61568627
v -0.00866696 0.03269215 0.02380285 0.56470588 0.01568627 0.61568627
v -0.00866696 0.03232883 0.02449295 0.56470588 0.01568627 0.61568627
v -0.00188675 0.03736815 -0.00439436 0.56470588 0.01568627 0.61568627
v -0.00130046 0.03740515 -0.00439436 0.56470588 0.01568627 0.61568627
v -0.00130046 0.03733451 -0.00498094 0.56470588 0.01568627 0.61568627
v -0.00314371 0.03739506 -0.00313839 0.56470588 0.01568627 0.61568627
v -0.00866696 0.03615710 -0.00436676 0.56470588 0.01568627 0.61568627
v -0.00841744 0.03636567 -0.00313839 0.56470588 0.01568627 0.61568627
v -0.00866696 0.03642622 -0.00188242 0.56470588 0.01568627 0.61568627
v -0.00803451 0.03658433 -0.00188242 0.56470588 0.01568627 0.61568627
v -0.00691530 0.03696447 -0.00063335 0.56470588 0.01568627 0.61568627
v -0.00565762 0.03724368 -0.00063335 0.56470588 0.01568627 0.61568627
v -0.00440139 0.03735133 -0.00188242 0.56470588 0.01568627 0.61568627
v -0.00130046 0.03440780 0.02258829 0.56470588 0.01568627 0.61568627
v -0.00130046 0.03463992 0.02200171 0.56470588 0.01568627 0.61568627
v -0.00188675 0.03458946 0.02200171 0.56470588 0.01568627 0.61568627
v -0.00440139 0.03434725 0.02200171 0.56470588 0.01568627 0.61568627
v -0.00602829 0.03389310 0.02249857 0.56470588 0.01568627 0.61568627
v -0.00565762 0.03462983 0.02074574 0.56470588 0.01568627 0.61568627
v -0.00562877 0.03415214 0.02205001 0.56470588 0.01568627 0.61568627
v -0.00691530 0.03379891 0.02226394 0.56470588 0.01568627 0.61568627
v -0.00866696 0.03295790 0.02323007 0.56470588 0.01568627 0.61568627
v -0.00811745 0.03367444 0.02191200 0.56470588 0.01568627 0.61568627
v -0.00866696 0.03352643 0.02195340 0.56470588 0.01568627 0.61568627
v -0.00188675 0.03750271 -0.00313839 0.56470588 0.01568627 0.61568627
v -0.00130046 0.03747580 -0.00372497 0.56470588 0.01568627 0.61568627
v -0.00314371 0.03751953 -0.00188242 0.56470588 0.01568627 0.61568627
v -0.00866696 0.03630175 -0.00313839 0.56470588 0.01568627 0.61568627
v -0.00866696 0.03649014 -0.00104051 0.56470588 0.01568627 0.61568627
v -0.00691530 0.03705193 0.00062262 0.56470588 0.01568627 0.61568627
v -0.00565762 0.03731432 0.00062262 0.56470588 0.01568627 0.61568627
v -0.00440139 0.03745898 -0.00063335 0.56470588 0.01568627 0.61568627
v -0.00130046 0.03481485 0.02154624 0.56470588 0.01568627 0.61568627
v -0.00130046 0.03527908 0.02031098 0.56470588 0.01568627 0.61568627
v -0.00188675 0.03525217 0.02023507 0.56470588 0.01568627 0.61568627
v -0.00440139 0.03480476 0.02074574 0.56470588 0.01568627 0.61568627
v -0.00691530 0.03405458 0.02163596 0.56470588 0.01568627 0.61568627
v -0.00691530 0.03439098 0.02074574 0.56470588 0.01568627 0.61568627
v -0.00440139 0.03533291 0.01922063 0.56470588 0.01568627 0.61568627
v -0.00534248 0.03525554 0.01902051 0.56470588 0.01568627 0.61568627
v -0.00571964 0.03505033 0.01945526 0.56470588 0.01568627 0.61568627
v -0.00691530 0.03483167 0.01948286 0.56470588 0.01568627 0.61568627
v -0.00817225 0.03460292 0.01948286 0.56470588 0.01568627 0.61568627
v -0.00766168 0.03397384 0.02143583 0.56470588 0.01568627 0.61568627
v -0.00849965 0.03387965 0.02120810 0.56470588 0.01568627 0.61568627
v -0.00866696 0.03377873 0.02135302 0.56470588 0.01568627 0.61568627
v -0.00180959 0.03764064 -0.00178581 0.56470588 0.01568627 0.61568627
v -0.00133868 0.03772474 -0.00130274 0.56470588 0.01568627 0.61568627
v -0.00130046 0.03753635 -0.00313839 0.56470588 0.01568627 0.61568627
v -0.00314371 0.03761372 -0.00063335 0.56470588 0.01568627 0.61568627
v -0.00220910 0.03769782 -0.00063335 0.56470588 0.01568627 0.61568627
v -0.00866696 0.03658769 0.00062262 0.56470588 0.01568627 0.61568627
v -0.00817225 0.03672226 0.00062262 0.56470588 0.01568627 0.61568627
v -0.00691530 0.03709230 0.00188549 0.56470588 0.01568627 0.61568627
v -0.00565762 0.03734797 0.00188549 0.56470588 0.01568627 0.61568627
v -0.00440139 0.03751617 0.00062262 0.56470588 0.01568627 0.61568627
v -0.00312784 0.03767427 0.00054671 0.56470588 0.01568627 0.61568627
v -0.00130046 0.03556839 0.01948286 0.56470588 0.01568627 0.61568627
v -0.00188675 0.03551793 0.01948286 0.56470588 0.01568627 0.61568627
v -0.00338673 0.03517144 0.02002114 0.56470588 0.01568627 0.61568627
v -0.00811745 0.03413531 0.02077334 0.56470588 0.01568627 0.61568627
v -0.00314371 0.03579715 0.01822690 0.56470588 0.01568627 0.61568627
v -0.00440139 0.03564576 0.01822690 0.56470588 0.01568627 0.61568627
v -0.00571964 0.03541365 0.01831661 0.56470588 0.01568627 0.61568627
v -0.00618045 0.03518826 0.01879967 0.56470588 0.01568627 0.61568627
v -0.00691530 0.03512434 0.01859265 0.56470588 0.01568627 0.61568627
v -0.00815278 0.03502342 0.01817859 0.56470588 0.01568627 0.61568627
v -0.00866696 0.03490232 0.01819929 0.56470588 0.01568627 0.61568627
v -0.00866696 0.03447508 0.01952427 0.56470588 0.01568627 0.61568627
v -0.00866696 0.03433716 0.01991762 0.56470588 0.01568627 0.61568627
v -0.00866696 0.03386619 0.02113909 0.56470588 0.01568627 0.61568627
v -0.00866696 0.03409495 0.02056631 0.56470588 0.01568627 0.61568627
v -0.00197041 0.03777856 0.00054671 0.56470588 0.01568627 0.61568627
v -0.00130046 0.03779202 -0.00003987 0.56470588 0.01568627 0.61568627
v -0.00130046 0.03772474 -0.00130965 0.56470588 0.01568627 0.61568627
v -0.00130046 0.03772137 -0.00134415 0.56470588 0.01568627 0.61568627
v -0.00269804 0.03774156 0.00091245 0.56470588 0.01568627 0.61568627
v -0.00866696 0.03661124 0.00134721 0.56470588 0.01568627 0.61568627
v -0.00817225 0.03676262 0.00188549 0.56470588 0.01568627 0.61568627
v -0.00817225 0.03683327 0.00439743 0.56470588 0.01568627 0.61568627
v -0.00691530 0.03712258 0.00314146 0.56470588 0.01568627 0.61568627
v -0.00565762 0.03737824 0.00314146 0.56470588 0.01568627 0.61568627
v -0.00340909 0.03767427 0.00188549 0.56470588 0.01568627 0.61568627
v -0.00440139 0.03755990 0.00314146 0.56470588 0.01568627 0.61568627
v -0.00130046 0.03597208 0.01822690 0.56470588 0.01568627 0.61568627
v -0.00188675 0.03593171 0.01822690 0.56470588 0.01568627 0.61568627
v -0.00314371 0.03615373 0.01697093 0.56470588 0.01568627 0.61568627
v -0.00440139 0.03600572 0.01697093 0.56470588 0.01568627 0.61568627
v -0.00565762 0.03581733 0.01697093 0.56470588 0.01568627 0.61568627
v -0.00691530 0.03560876 0.01697093 0.56470588 0.01568627 0.61568627
v -0.00691530 0.03531609 0.01796466 0.56470588 0.01568627 0.61568627
v -0.00772082 0.03524208 0.01772313 0.56470588 0.01568627 0.61568627
v -0.00815278 0.03536655 0.01698473 0.56470588 0.01568627 0.61568627
v -0.00855879 0.03515462 0.01741949 0.56470588 0.01568627 0.61568627
v -0.00866696 0.03510079 0.01751610 0.56470588 0.01568627 0.61568627
v -0.00130046 0.03782229 0.00058811 0.56470588 0.01568627 0.61568627
v -0.00188675 0.03782902 0.00188549 0.56470588 0.01568627 0.61568627
v -0.00278025 0.03775165 0.00188549 0.56470588 0.01568627 0.61568627
v -0.00866696 0.03662806 0.00188549 0.56470588 0.01568627 0.61568627
v -0.00866696 0.03669534 0.00439743 0.56470588 0.01568627 0.61568627
v -0.00866696 0.03669871 0.00501851 0.56470588 0.01568627 0.61568627
v -0.00817225 0.03682318 0.00565340 0.56470588 0.01568627 0.61568627
v -0.00691530 0.03714949 0.00439743 0.56470588 0.01568627 0.61568627
v -0.00565762 0.03738497 0.00439743 0.56470588 0.01568627 0.61568627
v -0.00440139 0.03756326 0.00439743 0.56470588 0.01568627 0.61568627
v -0.00130046 0.03632530 0.01695022 0.56470588 0.01568627 0.61568627
v -0.00183916 0.03631521 0.01687431 0.56470588 0.01568627 0.61568627
v -0.00222713 0.03643968 0.01623253 0.56470588 0.01568627 0.61568627
v -0.00314371 0.03639258 0.01601860 0.56470588 0.01568627 0.61568627
v -0.00438768 0.03632866 0.01564595 0.56470588 0.01568627 0.61568627
v -0.00565762 0.03614028 0.01571496 0.56470588 0.01568627 0.61568627
v -0.00691530 0.03595189 0.01571496 0.56470588 0.01568627 0.61568627
v -0.00817225 0.03570968 0.01571496 0.56470588 0.01568627 0.61568627
v -0.00866696 0.03531273 0.01675700 0.56470588 0.01568627 0.61568627
v -0.00866696 0.03514452 0.01736428 0.56470588 0.01568627 0.61568627
v -0.00130046 0.03784584 0.00129891 0.56470588 0.01568627 0.61568627
v -0.00130046 0.03786266 0.00188549 0.56470588 0.01568627 0.61568627
v -0.00188675 0.03783911 0.00314146 0.56470588 0.01568627 0.61568627
v -0.00130046 0.03789967 0.00439743 0.56470588 0.01568627 0.61568627
v -0.00130046 0.03788284 0.00314146 0.56470588 0.01568627 0.61568627
v -0.00341414 0.03768100 0.00439743 0.56470588 0.01568627 0.61568627
v -0.00279107 0.03775165 0.00314146 0.56470588 0.01568627 0.61568627
v -0.00188675 0.03785257 0.00565340 0.56470588 0.01568627 0.61568627
v -0.00130046 0.03790976 0.00565340 0.56470588 0.01568627 0.61568627
v -0.00866696 0.03669198 0.00565340 0.56470588 0.01568627 0.61568627
v -0.00691530 0.03710912 0.00565340 0.56470588 0.01568627 0.61568627
v -0.00866696 0.03667180 0.00632279 0.56470588 0.01568627 0.61568627
v -0.00866696 0.03664825 0.00690937 0.56470588 0.01568627 0.61568627
v -0.00817225 0.03677271 0.00690937 0.56470588 0.01568627 0.61568627
v -0.00565762 0.03733451 0.00565340 0.56470588 0.01568627 0.61568627
v -0.00440139 0.03753299 0.00565340 0.56470588 0.01568627 0.61568627
v -0.00340260 0.03767091 0.00565340 0.56470588 0.01568627 0.61568627
v -0.00277376 0.03775165 0.00565340 0.56470588 0.01568627 0.61568627
v -0.00130046 0.03647332 0.01639125 0.56470588 0.01568627 0.61568627
v -0.00138844 0.03647332 0.01638435 0.56470588 0.01568627 0.61568627
v -0.00188675 0.03682654 0.01445899 0.56470588 0.01568627 0.61568627
v -0.00314371 0.03652378 0.01539061 0.56470588 0.01568627 0.61568627
v -0.00395932 0.03648341 0.01518359 0.56470588 0.01568627 0.61568627
v -0.00479729 0.03643295 0.01492135 0.56470588 0.01568627 0.61568627
v -0.00691530 0.03621765 0.01445899 0.56470588 0.01568627 0.61568627
v -0.00817225 0.03597881 0.01445899 0.56470588 0.01568627 0.61568627
v -0.00866696 0.03558858 0.01572876 0.56470588 0.01568627 0.61568627
v -0.00866696 0.03546747 0.01619112 0.56470588 0.01568627 0.61568627
v -0.00866696 0.03586779 0.01445899 0.56470588 0.01568627 0.61568627
v -0.00266198 0.03774156 0.00690937 0.56470588 0.01568627 0.61568627
v -0.00188675 0.03782902 0.00690937 0.56470588 0.01568627 0.61568627
v -0.00130046 0.03788957 0.00690937 0.56470588 0.01568627 0.61568627
v -0.00691530 0.03687027 0.00942821 0.56470588 0.01568627 0.61568627
v -0.00565762 0.03710239 0.00942821 0.56470588 0.01568627 0.61568627
v -0.00866696 0.03660788 0.00768227 0.56470588 0.01568627 0.61568627
v -0.00866696 0.03654396 0.00881402 0.56470588 0.01568627 0.61568627
v -0.00817225 0.03669198 0.00817224 0.56470588 0.01568627 0.61568627
v -0.00329010 0.03764736 0.00690937 0.56470588 0.01568627 0.61568627
v -0.00130046 0.03649350 0.01630844 0.56470588 0.01568627 0.61568627
v -0.00130046 0.03686691 0.01445899 0.56470588 0.01568627 0.61568627
v -0.00188675 0.03707548 0.01319612 0.56470588 0.01568627 0.61568627
v -0.00314371 0.03670544 0.01445899 0.56470588 0.01568627 0.61568627
v -0.00314371 0.03694428 0.01319612 0.56470588 0.01568627 0.61568627
v -0.00440139 0.03678617 0.01319612 0.56470588 0.01568627 0.61568627
v -0.00571098 0.03659442 0.01326513 0.56470588 0.01568627 0.61568627
v -0.00571098 0.03638249 0.01447969 0.56470588 0.01568627 0.61568627
v -0.00658790 0.03652041 0.01289247 0.56470588 0.01568627 0.61568627
v -0.00697010 0.03639258 0.01326513 0.56470588 0.01568627 0.61568627
v -0.00817225 0.03617728 0.01319612 0.56470588 0.01568627 0.61568627
v -0.00866696 0.03606963 0.01319612 0.56470588 0.01568627 0.61568627
v -0.00252857 0.03772137 0.00755805 0.56470588 0.01568627 0.61568627
v -0.00183339 0.03776174 0.00805492 0.56470588 0.01568627 0.61568627
v -0.00130046 0.03781220 0.00810323 0.56470588 0.01568627 0.61568627
v -0.00827321 0.03658433 0.00947651 0.56470588 0.01568627 0.61568627
v -0.00866696 0.03647668 0.00984226 0.56470588 0.01568627 0.61568627
v -0.00866696 0.03646323 0.01000789 0.56470588 0.01568627 0.61568627
v -0.00691530 0.03675926 0.01068418 0.56470588 0.01568627 0.61568627
v -0.00565762 0.03698128 0.01068418 0.56470588 0.01568627 0.61568627
v -0.00440139 0.03730087 0.00942821 0.56470588 0.01568627 0.61568627
v -0.00130046 0.03711585 0.01319612 0.56470588 0.01568627 0.61568627
v -0.00130046 0.03722013 0.01261644 0.56470588 0.01568627 0.61568627
v -0.00130046 0.03733787 0.01194015 0.56470588 0.01568627 0.61568627
v -0.00188675 0.03729078 0.01194015 0.56470588 0.01568627 0.61568627
v -0.00314371 0.03715285 0.01194015 0.56470588 0.01568627 0.61568627
v -0.00440139 0.03699138 0.01194015 0.56470588 0.01568627 0.61568627
v -0.00565762 0.03680972 0.01194015 0.56470588 0.01568627 0.61568627
v -0.00697010 0.03658433 0.01195395 0.56470588 0.01568627 0.61568627
v -0.00742587 0.03643968 0.01238871 0.56470588 0.01568627 0.61568627
v -0.00813115 0.03634885 0.01195395 0.56470588 0.01568627 0.61568627
v -0.00866696 0.03623447 0.01195395 0.56470588 0.01568627 0.61568627
v -0.00314371 0.03747243 0.00942821 0.56470588 0.01568627 0.61568627
v -0.00137907 0.03773483 0.00893824 0.56470588 0.01568627 0.61568627
v -0.00130046 0.03775165 0.00885543 0.56470588 0.01568627 0.61568627
v -0.00866696 0.03643295 0.01027702 0.56470588 0.01568627 0.61568627
v -0.00856095 0.03641276 0.01068418 0.56470588 0.01568627 0.61568627
v -0.00440139 0.03716294 0.01068418 0.56470588 0.01568627 0.61568627
v -0.00130046 0.03742870 0.01135357 0.56470588 0.01568627 0.61568627
v -0.00188675 0.03746907 0.01068418 0.56470588 0.01568627 0.61568627
v -0.00314371 0.03733115 0.01068418 0.56470588 0.01568627 0.61568627
v -0.00866696 0.03636903 0.01083600 0.56470588 0.01568627 0.61568627
v -0.00130046 0.03773820 0.00897965 0.56470588 0.01568627 0.61568627
v -0.00130046 0.03752962 0.01063587 0.56470588 0.01568627 0.61568627
v -0.00130046 0.03759354 0.01015971 0.56470588 0.01568627 0.61568627
f 648 676 677
f 648 677 649
f 649 677 678
f 649 678 650
f 650 678 679
f 650 679 651
f 651 679 680
f 651 680 652
f 707 726 727
f 707 727 728
f 707 728 708
f 711 729 730
f 711 730 712
f 712 730 724
f 712 724 723
f 680 702 703
f 680 703 704
f 680 704 681
f 680 701 700
f 681 704 705
f 681 705 684
f 685 693 706
f 685 706 686
f 678 697 696
f 637 659 660
f 637 660 657
f 638 645 661
f 638 661 662
f 638 662 663
f 638 663 664
f 638 664 658
f 641 665 642
f 678 696 698
f 678 698 679
f 679 698 699
f 679 699 700
f 679 700 701
f 679 701 680
f 680 700 702
f 674 694 675
f 675 694 695
f 675 695 676
f 676 695 715
f 676 715 696
f 676 696 677
f 677 696 697
f 677 697 678
f 702 723 703
f 702 721 722
f 703 723 704
f 704 723 724
f 704 724 725
f 704 725 705
f 706 714 726
f 696 717 718
f 696 718 698
f 652 680 681
f 698 719 699
f 699 719 720
f 699 720 700
f 700 720 721
f 700 721 702
f 689 712 713
f 689 713 714
f 1 2 3
f 1 3 4
f 1 4 5
f 1 5 6
f 1 6 7
f 1 7 8
f 1 8 9
f 1 9 13
f 1 239 241
f 1 241 263
f 1 263 266
f 1 266 265
f 1 265 264
f 1 264 290
f 1 290 315
f 1 315 340
f 1 127 145
f 1 145 159
f 1 159 158
f 1 158 157
f 1 157 177
f 1 177 193
f 1 193 216
f 1 216 239
f 1 13 10
f 1 10 25
f 1 25 30
f 1 30 36
f 1 36 43
f 1 43 50
f 1 50 59
f 1 59 70
f 1 683 682
f 1 682 684
f 1 684 705
f 1 705 725
f 1 725 735
f 1 735 729
f 1 729 711
f 1 711 710
f 1 611 612
f 1 612 610
f 1 610 609
f 1 609 608
f 1 608 635
f 1 635 655
f 1 655 654
f 1 654 683
f 1 340 367
f 1 367 391
f 1 391 418
f 1 418 419
f 1 419 421
f 1 421 444
f 1 444 467
f 1 467 490
f 1 431 437
f 1 437 430
f 1 430 405
f 1 405 394
f 1 394 372
f 1 372 371
f 1 371 369
f 1 369 345
f 1 522 500
f 1 500 499
f 1 499 476
f 1 476 475
f 1 475 474
f 1 474 451
f 1 451 450
f 1 450 431
f 1 70 69
f 1 69 79
f 1 79 91
f 1 91 103
f 1 103 102
f 1 102 116
f 1 116 115
f 1 115 127
f 1 710 691
f 1 691 690
f 1 690 668
f 1 668 667
f 1 667 665
f 1 665 641
f 1 641 640
f 1 640 639
f 1 117 104
f 1 104 92
f 1 92 82
f 1 82 81
f 1 81 80
f 1 80 71
f 1 71 61
f 1 61 60
f 1 161 160
f 1 160 146
f 1 146 133
f 1 133 132
f 1 132 131
f 1 131 129
f 1 129 128
f 1 128 117
f 1 490 512
f 1 512 538
f 1 538 542
f 1 542 541
f 1 541 562
f 1 562 564
f 1 564 586
f 1 586 611
f 1 345 343
f 1 343 320
f 1 320 295
f 1 295 273
f 1 273 249
f 1 249 248
f 1 248 247
f 1 247 225
f 3 110 122
f 3 122 137
f 3 137 151
f 3 151 170
f 3 170 169
f 3 169 187
f 3 187 205
f 3 205 231
f 3 56 67
f 3 67 66
f 3 66 77
f 3 77 88
f 3 88 99
f 3 99 98
f 3 98 97
f 3 97 110
f 1 639 618
f 1 618 592
f 1 592 569
f 1 569 549
f 1 549 568
f 1 568 547
f 1 547 523
f 1 523 522
f 1 60 51
f 1 51 44
f 1 44 37
f 1 37 31
f 1 31 27
f 1 27 26
f 1 26 11
f 1 11 2
f 3 473 494
f 3 494 517
f 3 517 516
f 3 516 518
f 3 518 520
f 3 520 545
f 3 545 544
f 3 544 566
f 3 410 429
f 3 429 401
f 3 401 428
f 3 428 426
f 3 426 425
f 3 425 427
f 3 427 449
f 3 449 473
f 1 225 224
f 1 224 223
f 1 223 222
f 1 222 201
f 1 201 200
f 1 200 182
f 1 182 178
f 1 178 161
f 3 231 246
f 3 246 272
f 3 272 271
f 3 271 292
f 3 292 316
f 3 316 318
f 3 318 319
f 3 319 342
f 3 646 625
f 3 625 598
f 3 598 574
f 3 574 573
f 3 573 555
f 3 555 554
f 3 554 532
f 3 532 506
f 3 737 732
f 3 732 717
f 3 717 716
f 3 716 715
f 3 715 695
f 3 695 694
f 3 694 674
f 3 674 646
f 2 11 12
f 2 12 3
f 3 12 28
f 3 28 34
f 3 34 41
f 3 41 48
f 3 48 57
f 3 57 56
f 3 566 589
f 3 589 616
f 3 616 615
f 3 615 614
f 3 614 636
f 3 636 656
f 3 656 657
f 3 657 660
f 3 123 111
f 3 111 100
f 3 100 89
f 3 89 78
f 3 78 68
f 3 68 58
f 3 58 49
f 3 49 42
f 3 233 232
f 3 232 206
f 3 206 188
f 3 188 172
f 3 172 171
f 3 171 152
f 3 152 138
f 3 138 123
f 3 342 341
f 3 341 332
f 3 332 355
f 3 355 331
f 3 331 356
f 3 356 368
f 3 368 393
f 3 393 410
f 3 506 484
f 3 484 483
f 3 483 482
f 3 482 457
f 3 457 438
f 3 438 412
f 3 412 411
f 3 411 382
f 10 17 18
f 10 18 19
f 10 19 20
f 10 20 21
f 10 21 22
f 10 22 23
f 10 23 24
f 10 24 25
f 3 8 7
f 3 7 6
f 3 6 5
f 3 5 4
f 10 13 14
f 10 14 15
f 10 15 16
f 10 16 17
f 3 660 659
f 3 659 664
f 3 664 687
f 3 687 708
f 3 708 728
f 3 728 736
f 3 736 738
f 3 738 737
f 3 42 35
f 3 35 29
f 3 29 24
f 3 24 23
f 3 23 22
f 3 22 21
f 3 21 20
f 3 20 19
f 40 45 46
f 40 46 47
f 40 47 48
f 40 48 41
f 42 49 43
f 43 49 50
f 44 51 45
f 45 51 52
f 33 39 40
f 33 40 41
f 33 41 34
f 35 42 36
f 36 42 43
f 37 44 39
f 39 44 45
f 39 45 40
f 3 382 357
f 3 357 334
f 3 334 333
f 3 333 307
f 3 307 306
f 3 306 284
f 3 284 256
f 3 256 233
f 11 26 12
f 12 27 28
f 12 26 27
f 24 29 25
f 25 29 30
f 27 31 28
f 28 31 32
f 28 32 33
f 58 69 70
f 58 70 59
f 61 71 62
f 62 71 72
f 63 72 73
f 63 73 74
f 63 74 75
f 63 75 64
f 53 63 64
f 53 64 54
f 54 64 65
f 54 65 55
f 55 65 66
f 55 66 67
f 55 67 56
f 58 68 69
f 3 19 18
f 3 18 17
f 3 17 16
f 3 16 15
f 3 15 14
f 3 14 13
f 3 13 9
f 3 9 8
f 45 52 46
f 46 52 53
f 46 53 54
f 46 54 47
f 47 54 55
f 47 55 56
f 47 56 57
f 47 57 48
f 83 92 93
f 83 93 84
f 84 93 94
f 84 94 95
f 84 95 86
f 84 86 85
f 86 95 96
f 86 96 97
f 75 86 87
f 75 87 76
f 76 87 88
f 76 88 77
f 78 89 90
f 78 90 79
f 79 90 91
f 82 92 83
f 28 33 34
f 29 35 30
f 30 35 36
f 31 37 38
f 31 38 32
f 32 38 33
f 33 38 37
f 33 37 39
f 64 75 76
f 64 76 65
f 65 76 77
f 65 77 66
f 68 78 79
f 68 79 69
f 71 80 72
f 72 80 81
f 101 114 115
f 101 115 116
f 101 116 102
f 104 117 105
f 105 117 118
f 105 118 106
f 106 118 119
f 106 119 120
f 95 108 109
f 95 109 96
f 96 109 97
f 97 109 110
f 100 111 112
f 100 112 113
f 100 113 114
f 100 114 101
f 49 58 50
f 50 58 59
f 51 60 52
f 52 60 61
f 52 61 62
f 52 62 53
f 53 62 72
f 53 72 63
f 86 97 98
f 86 98 87
f 87 98 99
f 87 99 88
f 89 100 101
f 89 101 102
f 89 102 103
f 89 103 90
f 119 135 136
f 119 136 130
f 121 130 137
f 121 137 122
f 123 138 124
f 124 138 139
f 124 139 140
f 124 140 141
f 118 129 119
f 119 130 121
f 119 121 120
f 119 129 131
f 119 131 132
f 119 132 133
f 119 133 134
f 119 134 135
f 72 81 73
f 73 81 82
f 73 82 83
f 73 83 84
f 73 84 85
f 73 85 74
f 74 85 75
f 75 85 86
f 106 120 107
f 107 120 121
f 107 121 122
f 107 122 108
f 108 122 110
f 108 110 109
f 111 123 124
f 111 124 112
f 141 155 156
f 141 156 157
f 141 157 158
f 141 158 159
f 141 159 143
f 143 159 144
f 144 159 145
f 146 160 147
f 136 151 137
f 138 152 139
f 139 152 153
f 139 153 154
f 139 154 140
f 140 154 155
f 140 155 141
f 141 143 142
f 90 103 91
f 92 104 93
f 93 104 105
f 93 105 94
f 94 105 106
f 94 106 107
f 94 107 95
f 95 107 108
f 124 141 142
f 124 142 143
f 124 143 125
f 125 143 144
f 125 144 126
f 126 145 127
f 126 144 145
f 130 136 137
f 157 176 177
f 157 175 176
f 161 178 165
f 161 165 162
f 163 179 168
f 163 168 167
f 163 166 180
f 163 180 181
f 153 171 172
f 153 172 173
f 153 173 174
f 153 174 154
f 154 174 175
f 154 175 156
f 154 156 155
f 156 175 157
f 112 124 113
f 113 124 125
f 113 125 115
f 113 115 114
f 115 126 127
f 115 125 126
f 117 128 118
f 118 128 129
f 147 160 161
f 147 161 162
f 147 162 148
f 148 163 164
f 148 164 149
f 148 162 165
f 148 165 166
f 148 166 163
f 181 195 196
f 181 196 219
f 181 219 197
f 181 197 198
f 181 198 199
f 181 199 194
f 182 200 184
f 182 184 183
f 175 191 176
f 176 191 192
f 176 192 193
f 176 193 177
f 179 181 194
f 179 194 186
f 180 185 195
f 180 195 181
f 133 146 147
f 133 147 148
f 133 148 134
f 134 148 135
f 135 148 136
f 136 148 149
f 136 149 150
f 136 150 151
f 163 181 179
f 165 178 182
f 165 182 183
f 165 183 166
f 166 183 184
f 166 184 185
f 166 185 180
f 168 179 186
f 193 215 216
f 194 199 198
f 195 204 217
f 195 217 196
f 196 217 218
f 196 218 219
f 197 219 220
f 197 220 221
f 190 210 211
f 190 211 191
f 191 211 212
f 191 212 213
f 191 213 192
f 192 213 214
f 192 214 215
f 192 215 193
f 149 164 150
f 150 164 163
f 150 163 167
f 150 167 168
f 150 168 169
f 150 169 170
f 150 170 151
f 152 171 153
f 184 201 222
f 184 222 202
f 184 202 185
f 184 200 201
f 185 202 203
f 185 203 204
f 185 204 195
f 186 194 198
f 209 212 210
f 210 212 211
f 212 237 213
f 213 237 238
f 213 238 214
f 214 239 215
f 214 238 240
f 214 240 241
f 207 232 233
f 207 233 234
f 207 234 235
f 207 235 208
f 208 235 209
f 209 235 236
f 209 236 237
f 209 237 212
f 168 186 187
f 168 187 169
f 172 188 189
f 172 189 173
f 173 189 174
f 174 189 190
f 174 190 175
f 175 190 191
f 197 221 198
f 198 221 205
f 202 222 203
f 203 223 224
f 203 224 225
f 203 225 226
f 203 226 227
f 203 227 228
f 230 255 242
f 233 256 234
f 234 256 257
f 234 257 258
f 234 258 259
f 234 259 235
f 235 259 237
f 235 237 236
f 227 251 228
f 227 250 252
f 227 252 253
f 227 253 251
f 228 251 254
f 228 254 229
f 229 255 230
f 229 254 255
f 186 198 187
f 187 198 205
f 188 206 189
f 189 206 207
f 189 207 190
f 190 207 208
f 190 208 209
f 190 209 210
f 214 241 239
f 215 239 216
f 217 230 242
f 217 242 244
f 217 244 218
f 218 243 219
f 218 244 243
f 219 243 245
f 251 253 276
f 251 276 277
f 251 277 275
f 252 276 253
f 252 274 278
f 252 278 279
f 252 279 280
f 252 280 276
f 244 270 267
f 245 268 271
f 245 271 272
f 245 272 246
f 249 273 274
f 249 274 250
f 250 274 252
f 251 275 254
f 203 228 229
f 203 229 230
f 203 230 204
f 203 222 223
f 204 230 217
f 205 221 220
f 205 220 231
f 206 232 207
f 237 259 260
f 237 260 238
f 238 260 261
f 238 261 262
f 238 262 240
f 240 263 241
f 240 262 264
f 240 264 265
f 269 293 270
f 270 294 291
f 270 293 294
f 273 295 296
f 273 296 274
f 274 296 278
f 275 277 281
f 276 280 297
f 262 289 264
f 264 289 290
f 267 270 291
f 267 291 268
f 268 292 271
f 268 291 316
f 268 316 292
f 269 283 293
f 219 245 220
f 220 245 246
f 220 246 231
f 225 247 226
f 226 247 248
f 226 248 249
f 226 249 250
f 226 250 227
f 254 275 281
f 254 281 282
f 254 282 283
f 254 283 269
f 254 269 255
f 256 284 257
f 257 284 285
f 257 285 286
f 286 312 287
f 287 312 313
f 287 313 288
f 288 313 314
f 288 314 315
f 288 315 289
f 289 315 290
f 291 294 316
f 284 306 285
f 285 306 307
f 285 307 308
f 285 308 309
f 285 309 286
f 286 309 310
f 286 310 311
f 286 311 312
f 240 265 266
f 240 266 263
f 242 255 244
f 243 244 267
f 243 267 268
f 243 268 245
f 244 255 269
f 244 269 270
f 276 297 298
f 276 298 277
f 277 298 281
f 278 296 299
f 278 299 300
f 278 300 279
f 279 300 301
f 279 301 280
f 303 331 329
f 304 329 305
f 305 329 332
f 305 332 317
f 307 333 308
f 308 310 309
f 308 333 334
f 308 334 335
f 300 326 301
f 301 326 327
f 301 327 302
f 302 327 328
f 302 328 322
f 303 329 304
f 303 321 330
f 303 330 331
f 257 286 258
f 258 286 259
f 259 286 287
f 259 287 260
f 260 287 288
f 260 288 261
f 261 288 262
f 262 288 289
f 293 305 317
f 293 317 294
f 294 318 316
f 294 317 319
f 294 319 318
f 295 320 299
f 295 299 296
f 297 321 303
f 325 349 326
f 325 347 350
f 325 350 351
f 325 351 348
f 326 349 352
f 326 352 327
f 327 352 353
f 327 353 328
f 321 344 330
f 322 328 344
f 323 343 345
f 323 345 346
f 323 346 347
f 323 347 324
f 324 347 325
f 325 348 349
f 280 301 302
f 280 302 297
f 281 298 303
f 281 303 304
f 281 304 282
f 282 305 293
f 282 293 283
f 282 304 305
f 308 335 310
f 310 336 311
f 310 335 337
f 310 337 336
f 311 336 312
f 312 336 338
f 312 338 313
f 313 338 339
f 345 369 346
f 346 370 347
f 346 369 371
f 346 371 372
f 346 372 370
f 347 370 350
f 348 351 373
f 348 373 374
f 339 363 340
f 339 362 364
f 339 364 365
f 339 365 363
f 340 363 366
f 340 366 367
f 344 354 368
f 344 368 356
f 297 303 298
f 297 302 322
f 297 322 321
f 299 320 323
f 299 323 300
f 300 323 324
f 300 324 325
f 300 325 326
f 328 353 354
f 328 354 344
f 329 355 332
f 329 331 355
f 330 344 356
f 330 356 331
f 334 357 335
f 335 357 358
f 359 388 361
f 361 388 389
f 361 389 362
f 362 389 364
f 363 365 366
f 364 389 390
f 364 390 365
f 365 391 366
f 358 382 383
f 358 383 384
f 358 384 385
f 358 385 360
f 359 360 385
f 359 385 386
f 359 386 387
f 359 387 388
f 313 339 314
f 314 339 340
f 314 340 315
f 317 341 342
f 317 342 319
f 317 332 341
f 320 343 323
f 321 322 344
f 348 374 349
f 349 375 352
f 349 374 375
f 350 370 376
f 350 376 377
f 350 377 378
f 350 378 379
f 350 379 351
f 378 409 395
f 378 395 379
f 378 407 408
f 380 404 381
f 381 404 403
f 381 403 410
f 381 410 393
f 382 411 383
f 374 403 404
f 374 404 380
f 376 394 405
f 376 405 406
f 376 406 377
f 377 406 407
f 377 407 378
f 378 408 409
f 335 358 337
f 336 337 359
f 336 359 338
f 337 358 360
f 337 360 359
f 338 359 361
f 338 361 362
f 338 362 339
f 365 390 392
f 365 392 391
f 366 391 367
f 368 381 393
f 370 372 376
f 372 394 376
f 373 379 395
f 373 395 396
f 397 423 398
f 398 423 424
f 398 424 399
f 399 425 426
f 399 426 400
f 399 424 427
f 399 427 425
f 400 428 401
f 391 392 418
f 392 419 418
f 392 420 421
f 392 421 419
f 395 409 397
f 395 397 396
f 397 409 422
f 397 422 423
f 351 379 373
f 352 375 374
f 352 374 380
f 352 380 353
f 353 380 381
f 353 381 354
f 354 381 368
f 357 382 358
f 383 385 384
f 383 411 412
f 383 412 413
f 383 413 414
f 383 414 386
f 383 386 385
f 386 414 441
f 386 441 415
f 417 441 443
f 417 443 442
f 420 442 421
f 421 442 444
f 422 445 423
f 422 436 446
f 422 446 447
f 422 447 445
f 412 438 413
f 413 438 439
f 413 439 414
f 414 439 440
f 414 440 441
f 415 441 417
f 416 417 442
f 416 442 420
f 373 396 374
f 374 396 397
f 374 397 398
f 374 398 399
f 374 399 400
f 374 400 401
f 374 401 402
f 374 402 403
f 400 426 428
f 401 429 402
f 402 429 403
f 403 429 410
f 405 430 406
f 406 430 407
f 407 431 432
f 407 432 433
f 441 461 443
f 442 462 444
f 442 443 463
f 442 463 464
f 442 464 462
f 443 461 465
f 443 465 463
f 444 462 466
f 438 457 439
f 439 457 482
f 439 482 458
f 439 458 440
f 440 458 459
f 440 459 460
f 440 460 461
f 440 461 441
f 386 415 387
f 387 415 388
f 388 416 389
f 388 415 417
f 388 417 416
f 389 416 390
f 390 416 420
f 390 420 392
f 423 445 448
f 423 448 424
f 424 448 449
f 424 449 427
f 431 450 432
f 432 450 451
f 432 451 452
f 432 452 433
f 458 482 483
f 458 483 484
f 458 484 485
f 458 485 459
f 459 485 486
f 459 486 460
f 460 487 461
f 460 486 488
f 453 478 454
f 453 474 475
f 454 478 479
f 454 479 480
f 454 480 455
f 455 480 481
f 455 481 456
f 456 481 470
f 407 433 434
f 407 434 435
f 407 435 436
f 407 436 408
f 407 430 437
f 407 437 431
f 408 436 409
f 409 436 422
f 444 466 467
f 445 447 468
f 445 468 469
f 445 469 448
f 446 456 447
f 447 456 470
f 447 470 471
f 447 471 472
f 477 500 501
f 477 501 502
f 477 502 479
f 477 479 478
f 479 497 481
f 479 481 480
f 479 502 503
f 479 503 504
f 471 495 472
f 471 481 496
f 471 496 497
f 471 497 498
f 471 498 495
f 472 495 493
f 476 499 477
f 477 499 500
f 433 452 434
f 434 452 453
f 434 453 454
f 434 454 435
f 435 454 455
f 435 455 456
f 435 456 446
f 435 446 436
f 460 488 487
f 461 487 465
f 462 464 466
f 463 465 489
f 463 489 464
f 464 489 466
f 465 487 489
f 466 490 467
f 495 498 519
f 495 519 520
f 495 520 518
f 497 505 498
f 498 505 521
f 498 521 519
f 500 522 501
f 501 522 523
f 491 514 515
f 491 515 512
f 491 512 492
f 491 510 513
f 493 516 517
f 493 517 494
f 493 495 516
f 495 518 516
f 447 472 468
f 448 473 449
f 448 469 473
f 451 474 452
f 452 474 453
f 453 475 476
f 453 476 477
f 453 477 478
f 479 504 505
f 479 505 497
f 481 497 496
f 484 506 485
f 485 506 507
f 485 507 486
f 486 507 508
f 486 508 488
f 512 515 538
f 513 537 539
f 513 539 514
f 514 539 540
f 514 540 541
f 514 541 515
f 515 542 538
f 515 541 542
f 508 533 534
f 508 534 535
f 508 535 511
f 509 511 536
f 509 536 537
f 509 537 513
f 509 513 510
f 511 535 536
f 466 489 491
f 466 491 492
f 466 492 490
f 468 472 493
f 468 493 469
f 469 493 494
f 469 494 473
f 470 481 471
f 501 523 524
f 501 524 525
f 501 525 502
f 502 525 503
f 503 526 527
f 503 527 528
f 503 528 529
f 503 529 530
f 533 555 556
f 533 556 534
f 534 556 557
f 534 557 535
f 535 557 536
f 536 558 539
f 536 539 537
f 536 557 559
f 528 552 529
f 529 552 553
f 529 553 531
f 529 531 530
f 531 553 567
f 531 567 546
f 532 554 533
f 533 554 555
f 487 488 509
f 487 509 510
f 487 510 489
f 488 508 511
f 488 511 509
f 489 510 491
f 490 492 512
f 491 513 514
f 519 521 543
f 519 543 544
f 519 544 545
f 519 545 520
f 521 531 546
f 521 546 543
f 523 547 524
f 524 547 527
f 556 574 575
f 556 575 557
f 557 576 559
f 557 575 576
f 558 560 577
f 558 577 561
f 559 578 560
f 559 576 579
f 551 569 570
f 551 570 552
f 552 570 571
f 552 571 572
f 552 572 553
f 553 572 567
f 555 573 556
f 556 573 574
f 503 530 504
f 503 525 526
f 504 530 505
f 505 530 531
f 505 531 521
f 506 532 533
f 506 533 507
f 507 533 508
f 536 559 560
f 536 560 558
f 539 558 561
f 539 561 540
f 540 562 541
f 540 561 563
f 540 563 564
f 540 564 562
f 571 594 595
f 571 595 596
f 571 596 572
f 572 596 597
f 572 597 590
f 574 598 599
f 574 599 575
f 575 599 600
f 567 590 591
f 567 591 588
f 567 588 587
f 569 592 593
f 569 593 570
f 570 593 619
f 570 619 594
f 570 594 571
f 524 527 526
f 524 526 525
f 527 547 548
f 527 548 549
f 527 549 550
f 527 550 528
f 528 550 551
f 528 551 552
f 559 579 580
f 559 580 581
f 559 581 582
f 559 582 583
f 559 583 578
f 560 578 577
f 561 577 584
f 561 584 563
f 588 591 613
f 588 613 614
f 588 614 615
f 588 615 616
f 588 616 589
f 590 597 617
f 590 617 591
f 591 617 613
f 583 607 608
f 583 608 609
f 583 609 610
f 583 610 601
f 584 601 585
f 585 611 586
f 585 601 612
f 585 612 611
f 543 546 565
f 543 565 544
f 544 565 566
f 546 567 565
f 547 568 548
f 548 568 549
f 549 569 551
f 549 551 550
f 575 600 576
f 576 600 579
f 577 578 601
f 577 601 584
f 578 583 601
f 579 600 599
f 579 599 602
f 579 602 603
f 606 631 632
f 606 632 607
f 607 632 633
f 607 633 634
f 607 634 608
f 608 634 635
f 613 636 614
f 613 617 637
f 602 627 628
f 602 628 603
f 603 628 629
f 603 629 604
f 604 629 630
f 604 630 631
f 604 631 605
f 605 631 606
f 563 584 585
f 563 585 564
f 564 585 586
f 565 567 587
f 565 587 588
f 565 588 566
f 566 588 589
f 567 572 590
f 592 618 593
f 593 618 619
f 594 619 620
f 594 620 621
f 594 621 622
f 594 622 595
f 595 622 596
f 596 623 617
f 628 651 652
f 628 652 629
f 629 652 630
f 630 633 632
f 630 632 631
f 630 652 633
f 633 652 653
f 633 653 654
f 625 646 647
f 625 647 626
f 626 647 627
f 627 647 648
f 627 648 649
f 627 649 628
f 628 649 650
f 628 650 651
f 579 603 580
f 580 604 605
f 580 605 581
f 580 603 604
f 581 605 582
f 582 605 606
f 582 606 583
f 583 606 607
f 613 637 636
f 617 623 638
f 617 638 637
f 618 639 619
f 619 639 620
f 620 640 641
f 620 641 642
f 620 642 643
f 644 671 645
f 645 671 672
f 645 672 673
f 645 673 661
f 646 674 675
f 646 675 647
f 647 675 648
f 648 675 676
f 642 666 643
f 642 665 667
f 642 667 668
f 642 668 669
f 642 669 666
f 643 666 644
f 644 666 670
f 644 670 671
f 596 617 597
f 596 622 624
f 596 624 623
f 598 625 626
f 598 626 599
f 599 626 602
f 601 610 612
f 602 626 627
f 633 654 634
f 634 655 635
f 634 654 655
f 636 637 656
f 637 657 656
f 637 638 658
f 637 658 664
f 637 664 659
f 669 690 691
f 669 691 692
f 669 692 688
f 670 693 671
f 670 689 693
f 671 693 685
f 671 685 672
f 672 685 673
f 663 673 685
f 663 685 686
f 663 686 687
f 663 687 664
f 666 669 688
f 666 688 689
f 666 689 670
f 668 690 669
f 620 643 621
f 620 639 640
f 621 643 622
f 622 643 644
f 622 644 624
f 623 624 638
f 624 644 645
f 624 645 638
f 689 714 693
f 702 722 723
f 726 734 727
f 686 706 707
f 727 736 728
f 727 734 733
f 727 733 736
f 729 735 730
f 732 737 733
f 733 737 738
f 733 738 736
f 718 732 733
f 718 733 734
f 718 734 719
f 719 734 720
f 720 734 731
f 724 730 725
f 725 730 735
f 726 731 734
f 712 723 722
f 712 722 713
f 713 722 721
f 713 721 720
f 713 720 731
f 713 731 714
f 714 731 726
f 717 732 718
f 686 707 687
f 687 707 708
f 688 692 709
f 688 709 710
f 688 710 711
f 652 681 653
f 653 682 683
f 653 683 654
f 653 681 684
f 653 684 682
f 661 673 663
f 661 663 662
f 688 711 712
f 688 712 689
f 691 710 692
f 692 710 709
f 693 714 706
f 696 715 716
f 696 716 717
f 706 726 707
f 698 718 719

