v -0.0312122097219754 -0.0139576364297118 -0.0201049970328064
v -0.0276925722646308 -0.0215935473892179 -0.0184184145954411
v -0.0325358901175148 -0.0190931484074149 -0.00873402003098445
v -0.0298261978333641 -0.0251877764189481 -0.00217319329353804
v -0.0368874575299388 -0.0126103474921319 -0.000270177844881481
v -0.0327314733010091 -0.0221179134733321 0.00185110350432338
v -0.0315052254077406 -0.00883572015102563 -0.0235554761230512
v -0.0314667381388665 -0.00285509336987616 -0.0261422618880447
v -0.0344434902189814 -0.00394103776786481 -0.0190950111674972
v -0.0358480775103398 -0.0108418281512548 -0.00872843218912633
v -0.0285397521237774 -0.000276842086285589 -0.0309508441023427
v -0.032157717838019 0.00529049396889891 -0.0245034767204411
v -0.0362312576795001 0.00258179155438198 -0.0146091493387353
v -0.0374497633886918 -0.00356452860122275 -0.00825031345475002
v -0.0395146978011134 -6.71432871604018e-05 0.00368575588661146
v -0.0389290534610332 0.00267244233979741 -0.00231495424229022
v -0.0219122641250894 -0.0278223148158903 -0.0186592098238938
v -0.0153629017750259 -0.0314642739923157 -0.0202512116941307
v -0.0152481738242107 -0.0276427354885307 -0.0273250109944514
v -0.0157802377538632 -0.0341919572796976 -0.0120730195426928
v -0.0210515146954215 -0.0321202937427057 -0.00748093342300482
v -0.0255960490315231 -0.0293932259460709 -0.00309100161274234
v -0.022310016907915 -0.0327536839672367 0.00192003903053717
v -0.0169750413769638 -0.0356841607819871 0.000429850442866808
v -0.00880199146544713 -0.0326288576424654 -0.0237964776152548
v -0.00643260343680407 -0.0288317044186304 -0.030509880425051
v -0.0097187612091727 -0.0354991991091271 -0.0160062499389539
v -0.000739031935732423 -0.0322885684990579 -0.0267832262915295
v -0.000906820399906749 -0.0354390647550091 -0.0203892408110278
v 0.000381399613526345 -0.0377164189125663 -0.0135487713573688
v -0.0083097349111077 -0.0375647415598354 -0.00907282201760751
v -0.00857889716099242 -0.0385217407955045 0.000801975478731176
v 0.00495520521090886 -0.0382578193738545 -0.00946027857003551
v -0.000212052401317497 -0.0389935260765942 -0.00600540009802342
v 0.000931420919919888 -0.0396113357144694 0.00201929703029952
v -0.0245186326728151 -0.0129089176856036 -0.0324483771022446
v -0.0203891496628701 -0.0201375752034276 -0.0316073906613323
v -0.0267039841798069 -0.0181520145790737 -0.0254712112474191
v -0.0212993416000781 -0.0239956540854935 -0.02618648620171
v -0.0145740589118056 -0.0203837953698625 -0.0347409199694197
v -0.0187477783801837 -0.014677237973777 -0.0359773175676555
v -0.0142327117186043 -0.0119299900291806 -0.0370260324994068
v -0.0277520472447472 -0.0119303724650153 -0.0290604787950186
v -0.0243341810640624 -0.0057792600797773 -0.0345582440926006
v -0.0207190350164219 -0.00872355994800372 -0.0362962538896641
v -0.0152161788294232 -0.00725316954126659 -0.0369059783687623
v -0.0122357900233594 -0.00922874900262248 -0.0367501943862827
v -0.0174766333337276 -0.00111641381809436 -0.0364963964498013
v -0.0119610435219719 -0.000930357948578403 -0.0365014103311191
v -0.0102914998998946 -0.0254355379978044 -0.0326014422431418
v -0.00448050376793718 -0.0199043680107842 -0.036819008297072
v 2.17127590491639e-05 -0.0208501405143535 -0.0371714400204565
v -0.00715046661863832 -0.0118162656994339 -0.0365398640913693
v -0.00179989865010688 -0.0250145874634051 -0.03492681402756
v 0.00368138690561848 -0.0294756218365764 -0.0310012898265644
v -0.00242984316568087 -0.0137833047789436 -0.0368032417821754
v 0.00262857916296011 -0.0152013922898282 -0.0377504727621627
v -0.00568664319607673 -0.0068451481761625 -0.0346200154195764
v -0.00888802361973587 -0.00342940664437441 -0.0354087616490166
v -0.00645869399806809 -0.00144043769317075 -0.0330232227049745
v -0.00151163940185839 -0.0074926135129712 -0.0339339404639475
v -0.00479363208987871 -0.00475195319173417 -0.0331097766481617
v -0.00159600021274041 -0.0047346726853702 -0.0312268054461267
v -0.00258024869346429 -0.000691100134158351 -0.0310166591020184
v 0.00309800959700432 -0.00376713539253132 -0.0320356310507292
v -0.00121000009781767 0.00290654119954935 -0.0299060943542191
v -0.0267679649519159 -0.026293316327636 -0.0104509544354272
v -0.027073486503325 -0.0293447421245107 0.0052238582007107
v 0.0027650983773198 0.00213800540332989 -0.0301704998442517
v -0.0329020909993964 -0.0218885597075011 0.00995395623515671
v -0.0285141006082732 -0.0279071047202217 0.0141287659229541
v -0.0319832432845115 -0.0223915189410024 0.0185715407360766
v -0.0355904810327292 -0.0171950533081847 0.00572099812388749
v -0.0356276045367387 -0.0162192951544874 0.0157279313124086
v -0.0337735918502003 -0.0181157507452164 0.0208894968563975
v -0.0357551992387907 -0.0114201061370748 0.0224740507013275
v -0.0288279658003339 -0.0225660121694167 0.026342275754353
v -0.0319418518182337 -0.0162268787928931 0.0270008642251398
v -0.0301285675000059 -0.0132202689322808 0.0307906123338719
v -0.0380319525505484 -0.0091828715493087 0.00544347428337871
v -0.037366357420945 -0.011354746144613 0.0139258641979365
v -0.0377861465146292 -0.00579716292770038 0.0195822291759095
v -0.0388588581556972 -0.00372508703956631 0.0132272147937261
v -0.0397717670072047 0.00359077025718917 0.0125505242373528
v -0.0382508263905002 -0.00148778346918094 0.0203108132199734
v -0.0387945204168729 0.00388257433639061 0.0192837165101342
v -0.0370251824045811 -0.00171650244223429 0.0239205527853518
v -0.0358029963675058 -0.00681841257225679 0.0250758960533799
v -0.0343187677557282 -0.00365818736740881 0.0284248616028604
v -0.0312814389310407 -0.00493603633982653 0.0312067572893708
v -0.0370036272078478 0.0029781318855821 0.0243988376032857
v -0.0329934058949559 0.0061696057191807 0.0295309929914541
v -0.0318237133612831 0.00460367286810004 0.0306495585686113
v -0.0294627279557496 -0.00881766079537039 0.0317043298058287
v -0.0285137865287169 -0.00291210964900476 0.0330540823969648
v -0.0217101164993052 -0.0329984984046083 0.0132774518166876
v -0.0255984809638282 -0.029414107096105 0.0187008251876086
v -0.0158296418871693 -0.0362211979579616 0.00884016662023512
v -0.0140258242146272 -0.0359731446553971 0.0161095485812672
v -0.0203767224734764 -0.0320250968941338 0.0214613467875289
v -0.0132985049729253 -0.033212387266559 0.0257264283548393
v -0.0191790398016329 -0.0298928963895989 0.0273109251186927
v -0.0100119621483286 -0.0378805339811245 0.00959041702396568
v -0.005064945169307 -0.0388156947846529 0.00816777914380856
v -0.0039879658488281 -0.0378062501527861 0.0170398900426008
v 0.00218043274871435 -0.038777701574238 0.0140330838230136
v -0.00749648255891666 -0.0366288730304827 0.0200574956744504
v -0.0092662379318057 -0.0319673716205793 0.0292216774491154
v -0.0158733652338381 -0.0275918919257737 0.0318677481739474
v -0.00299515425077779 -0.0353173327280243 0.025128833636592
v -0.00227532646587186 -0.0369919663102545 0.0206115514680423
v -0.00130659616442951 -0.0313829455184245 0.0308893013145444
v 0.00481957524724605 -0.0357984412545084 0.0238973802435669
v 0.00457034247170279 -0.0331066273958509 0.0285240834254064
v -0.00934744284261674 -0.0280998295084486 0.0325529023701865
v -0.0062874155896091 -0.029235819298541 0.03223269614304
v 0.0024879373793526 -0.0280879379531247 0.0335033498411418
v -0.0267363013452285 -0.0267536214196966 0.0238833770203715
v -0.0242171003906407 -0.0252588973512042 0.0292258593370446
v -0.0281083174002037 -0.0188532264895794 0.0300383460648819
v -0.00780023563984521 -0.00183601149792221 0.0297109762085872
v -0.00562160436922083 -0.0047710033376137 0.0304811239424455
v -0.00238078541830946 -0.00638299030411064 0.0297887155812545
v -0.0211018369754264 -0.0220890152353457 0.0328258000476724
v -0.0238549193293603 -0.0188588641409891 0.0328935753283742
v -0.0267558576432984 -0.0146741029003006 0.0324541243851052
v -0.0220843041789281 -0.0145067637431796 0.0342513624888236
v -0.0203291101670706 -0.0176792675587566 0.0343795353682021
v -0.0180780072867436 -0.024128345468907 0.0330299257282062
v -0.0178971336498704 -0.0209947444093215 0.0340895992103364
v -0.0156527535965429 -0.024668229675049 0.0332469157230095
v -0.0114828500064943 -0.0247001827454074 0.0340806226370315
v -0.0141730214828121 -0.0223727460297389 0.0345197396054749
v -0.0166482218329543 -0.011524622147717 0.0341811866900121
v -0.0147806898754014 -0.017649045045224 0.0346744086117153
v -0.0259168869392865 -0.011088441651516 0.0336047322931209
v -0.0266479688191729 -0.00510283990574154 0.033585128795544
v -0.0227207225683686 -0.0102393863420229 0.0342349578113024
v -0.0221997966382647 -0.00391796410147328 0.0329885789366244
v -0.0202599506796402 -0.00696616815494228 0.0334030477162673
v -0.0273120754661985 0.00414181424461237 0.0327301433078679
v -0.0195702812059691 -0.00161767517897075 0.0339175969387286
v -0.0241886448168951 0.00340864192301613 0.033728162424991
v -0.019036924717615 0.00483193329869628 0.0341251484710508
v -0.0179051914227969 -0.00834346488304952 0.0337730698178529
v -0.0147895350782008 -0.00768997565401929 0.0342066341677051
v -0.0127593768412542 -0.0132698747709466 0.0342879111721868
v -0.0136884249850929 -0.0101776192833545 0.034176323097824
v -0.0161511390979061 -0.00184378702475364 0.0330670852992573
v -0.0113895434826228 -0.0043866194506875 0.0323567930709293
v -0.0134856982577468 0.00264554809790739 0.0332723094261586
v -0.00785671745143607 -0.0252740780932968 0.0341651156678024
v -0.00241377909034468 -0.0239161390123735 0.0349993127418602
v -0.0113479722372758 -0.0188123978722495 0.0347126625744534
v -0.00861884445731838 -0.0188738298893752 0.0344458417517674
v -0.0107337442823127 -0.0145948126978946 0.0344013961683771
v -0.00638834900362646 -0.0178754874692396 0.034743514125051
v -0.00833154555678204 -0.0135225988322021 0.033376787484793
v -0.00281801935245177 -0.0270167504115803 0.033728272543696
v 0.00359412595516961 -0.0233661670278548 0.0355792384380709
v -0.000992501740964609 -0.0184517583844144 0.0350013590312697
v -0.00512690044040601 -0.0148364170720708 0.0337760812968999
v -3.72946606517072e-05 -0.0135809431539518 0.0339423582080691
v -0.0101641937077356 -0.0109092492446639 0.0338770640468322
v -0.0104610530040332 -0.00713501666052933 0.0330372401703088
v -0.0102729782064842 -0.0086367883890589 0.0326988675618055
v -0.00872873126322056 -0.00847407653545855 0.0326680916372534
v -0.00656390589655811 -0.0103016831269022 0.0321517760218965
v -0.00580950355466243 -0.00743063150898522 0.0310040938316011
v -0.0134220898913314 -0.00292523173929431 0.0324972172994737
v -0.0108831756818113 0.000502135105023196 0.0318471395046772
v -0.0082424394829888 -0.00554578437910415 0.0307608995546836
v -0.00785930721543542 0.00181818770688139 0.0309933393940479
v -0.00197636617248459 -0.0105603383247859 0.0322221028947018
v -0.0026461651613392 -0.00844950424831961 0.0314024739330062
v 0.000943217082702494 -0.0108941007652922 0.0323277794429003
v 0.00207049082401459 -0.00808632001688539 0.031387481984571
v 0.000891433348764924 -0.00631721577193353 0.0302132383577007
v -0.00252892228283916 -0.0030938166933204 0.0317258231510888
v -0.00489391578883056 -8.38710165666969e-05 0.0311995610710089
v 0.00160571366078566 -0.00271810426456989 0.0308961373820006
v -0.00165392000038989 7.4632319329998e-05 0.0319095374567699
v -0.0350535414595621 0.0109795569721356 -0.0149355703824225
v -0.0286726103010442 0.0113496317294084 -0.0276551095570596
v -0.0305790830773218 0.0160148830091409 -0.0213628136252337
v -0.034853953835574 0.0158174695879399 -0.0106295501192384
v -0.0315911790424723 0.0196513486318394 -0.0152751883020157
v -0.0374158478697211 0.00664990781492603 -0.00924127810526443
v -0.0396089147764395 0.00805070609891234 0.00513238463702892
v -0.0381300205145839 0.0117302864954891 -0.0021235179970932
v -0.0388560867387008 0.00895328197648476 0.000375442346185917
v -0.0385708030761638 0.0134976025209144 0.00542313583806722
v -0.0365179177149556 0.014397922419298 -0.00629244681331831
v -0.0373558923735578 0.0161359687543865 0.00461923508933951
v -0.0342592727490328 0.0198791844780518 -0.0054011415479267
v -0.0295360854453038 0.0252527817473903 -0.00920660749630553
v -0.0356981722439838 0.0195527148892222 0.00353698089453408
v -0.0320339471321034 0.0250690673461688 0.00377044025556522
v -0.028904323079673 0.0274454509753993 -0.00236475191635355
v -0.0260549515297632 0.00515522373822819 -0.0329801700101162
v -0.0208552477676738 0.00982144105581767 -0.0364546013918194
v -0.0242857002660801 0.0142675674097814 -0.031766842287261
v -0.0146785716123839 0.00678740263522143 -0.0379516891665183
v -0.0187872052725708 0.0172635908381142 -0.0345726948220879
v -0.0145001657462241 0.0142123312251643 -0.037195180335276
v -0.0263991664593941 0.019689050919024 -0.0254107224303577
v -0.0210359618359479 0.0215006619281728 -0.030223891256453
v -0.015638817521878 0.0233070762812519 -0.031813611704862
v -0.0120005154417302 0.0207790982442401 -0.0349832836592237
v -0.0111635365609741 0.00462188178061174 -0.0372442964696508
v -0.00791893470740651 0.00365963378634776 -0.0352187638808859
v -0.00839998701681388 0.012632962528985 -0.0373468965396542
v -0.00879242448057685 0.0179977407040857 -0.0366651528981521
v -0.000885005476152653 0.00952098393443213 -0.0359315776457832
v -0.000597569328804518 0.0136890617104324 -0.0370450126002503
v -0.00665859694368853 0.022752763776802 -0.0346297706468368
v -0.0130931084235785 0.0278614360374148 -0.0278494868669619
v -0.00660845880488928 0.0285208755452115 -0.0283642347615557
v 0.00443871718645894 0.0187065368600204 -0.036520531090804
v 0.00532766740899007 0.0158335196130638 -0.0374422812251041
v 0.00266026712307466 0.0220107371432829 -0.0348510295965435
v -0.00345194444007835 0.0283079712826959 -0.0289081111240455
v 0.00170674183720004 0.0254773223531702 -0.0327041483743574
v -0.0234385962591562 0.0234577098293238 -0.0256016911419548
v -0.0271259208001253 0.0240860857456009 -0.0181721121496041
v -0.0238769634783048 0.0273116213204669 -0.0183159945738196
v -0.0192508646777048 0.0278380123832642 -0.0241798723391564
v -0.021529066112989 0.0299935884325976 -0.0150246731083563
v -0.0171285149421561 0.0294108615272648 -0.0217745528415692
v -0.0150361874369227 0.0298886521731998 -0.0237210941317668
v -0.0185386726701347 0.0310495554952054 -0.0171838793115825
v -0.0176956134965686 0.0301808620523718 -0.0201425464054706
v -0.0260825874942626 0.0284661039145727 -0.0077623652283734
v -0.0269074607591704 0.0284361080043504 -0.0055000957047539
v -0.0221304286642167 0.0306053725763823 -0.0107549382503152
v -0.0232757241142146 0.030219585574987 -0.00793049557169162
v -0.0244304759740413 0.0299950732035296 -0.00531369551991288
v -0.0267903597002639 0.0286027591284264 -0.00213832078380956
v -0.023770193433435 0.0308514600133954 -0.00201658175169767
v -0.0247238973281688 0.0309363237928717 0.00145032527963496
v -0.00821826890957028 0.0311484714903815 -0.0247100132928436
v -0.0117232386357097 0.0306886708265462 -0.0233708297511872
v -0.00537425449557821 0.0306739510142154 -0.0252406977355433
v 0.000618726696928862 0.0306077834977798 -0.0261942292824047
v -0.0192122177343706 0.0316200211854215 -0.0138517283257001
v -0.0169202514922184 0.0318525004166862 -0.0172145495780851
v -0.0145341382994457 0.0313518319517739 -0.021065101012134
v -0.0131168177759857 0.0324881165034458 -0.0189911222995643
v -0.0150949521742931 0.0340114155436831 -0.0124705428903611
v -0.0144959778057741 0.0334377991185236 -0.016050237658453
v -0.0220294312463941 0.0317478407634095 -0.00402288998176764
v -0.0216664812288847 0.0327558820450407 0.000437662716844034
v -0.0203474678943367 0.0318857828790173 -0.0111813093490311
v -0.0159155167503955 0.0342478582826436 -0.00947807459474914
v -0.0202642306692795 0.0327793713867476 -0.00594964598446859
v -0.0181967027162464 0.0336861678709761 -0.00617144860624035
v -0.0158949872781065 0.0345780594484678 -0.0072969870893128
v -0.0158115337909848 0.0354049768201182 0.00153347243395759
v -0.0165958583936061 0.0348556726885124 -0.00301118816757287
v -0.0135040133674665 0.0356224804942154 -0.00543550940696744
v -0.013425490311765 0.0363144386880277 -0.000518763338538675
v -0.0104626726328251 0.0327191836511673 -0.0200755516440486
v -0.0096357233685152 0.0319225089765401 -0.0224587228936772
v -0.0103144189325664 0.0340729315120872 -0.0176883349774354
v -0.0113966716473326 0.0350560616879847 -0.0133429834862011
v -0.00679536194135491 0.0346308277667013 -0.0180504355664123
v -0.00879268388197464 0.0352324132328882 -0.0151231358370433
v -0.00292578199905963 0.0336111179171808 -0.0210972089647694
v -0.00409776754362323 0.036043137150907 -0.0151657401309071
v 0.00531308773846906 0.0351644953005782 -0.0175250916805526
v 0.000508249601023303 0.0350171962787004 -0.0182229620402174
v 0.00268928412326364 0.036936453110054 -0.0131781937232733
v -0.0116840983733911 0.0358202820229168 -0.00872872969277252
v -0.00827859424781993 0.0362654682224131 -0.0119818212411745
v -0.00919635472482334 0.0366024302134183 -0.00892568142141861
v -0.0104947624035443 0.0369713496820066 -0.00506363598417128
v -0.00638092096037526 0.0373417779815308 -0.00784787264289069
v -0.00983698413295344 0.0376423080081026 -0.000636317585348462
v -0.0113685426873565 0.0368159176839327 0.000487417222689301
v -0.00569645622559212 0.0381989976731932 -0.00425042044826482
v -0.00474750879626686 0.036664000805408 -0.0120810883734813
v -0.00296670017748525 0.0380250090497719 -0.00896939566373295
v 0.00171070291245483 0.038690263531608 -0.00493134676534396
v -0.0044684834229237 0.0387831615119469 0.000695154013245061
v -0.00272398871460942 0.0387892147161817 -0.00160897650818481
v -0.000486653750196499 0.0389332775451075 -0.00295088013340072
v -0.0389626297663962 0.00565892594388878 0.00911047293891212
v -0.0380120220733751 0.0130601328841287 0.0163826473342763
v -0.0366935283897309 0.00891387666668213 0.0238116787773275
v -0.0355495043039099 0.00498828315467947 0.0263063107097575
v -0.0348960762695838 0.0104559532732134 0.0261838095547801
v -0.0346008822803256 0.0182090959784429 0.0203038114637924
v -0.0341912320020076 0.015392238462749 0.0237388691689557
v -0.0321068152185103 0.0106804427523513 0.0290398679503974
v -0.0324301333508879 0.0134243925148 0.0276908308593676
v -0.0337807855320897 0.0147527070113588 0.0255180137808649
v -0.0319597362773881 0.0154176635747617 0.0271115549643125
v -0.0296061605600889 0.00984245769780904 0.0314821355086754
v -0.0304164532129139 0.012201322006253 0.0304825925684262
v -0.0305151525636393 0.0138158289495596 0.0294520330887204
v -0.0359054201088904 0.0188634327684475 0.0114493992668646
v -0.0341730513042121 0.0214746497205439 0.0106131509563122
v -0.0312663018743141 0.0244784621334751 0.0157119805341601
v -0.0301190735151942 0.0263362393118027 0.0126368548088832
v -0.028416021251825 0.0270298249228715 0.0146528458217943
v -0.0343074158622892 0.0196223704323185 0.0184328311268793
v -0.0328521871406114 0.0180931680933487 0.0230829411870611
v -0.033275861112104 0.0193548165514868 0.0202804786968325
v -0.0324191692028737 0.0217856723893615 0.0193467404854267
v -0.0314273878544531 0.0231566592876099 0.0174022305762183
v -0.0314438877542747 0.0210499483071766 0.0218959336286297
v -0.0305951091318428 0.0230891571899098 0.0199201559644829
v -0.0322430123156714 0.0178495194981113 0.0246804098437426
v -0.0307849683975714 0.0178497877911944 0.0268648494016963
v -0.0288366349848961 0.0160335471611634 0.0298528308337138
v -0.0308388635201765 0.0205166355222022 0.023880174082196
v -0.0289155055678006 0.0221980399661841 0.0244779207870017
v -0.0280941508770612 0.0260681857875877 0.0188231706482016
v -0.0286714685366963 0.0257716466891789 0.0169424294063738
v -0.0289153467868294 0.0241837790766573 0.0213920506664321
v -0.0289773207896882 0.00609932225401031 0.0326129648511954
v -0.0267074769725505 0.0294577618711948 0.00920125464223034
v -0.026165932411015 0.0292868981081683 0.0138266865682679
v -0.0247372915527617 0.0291011791550816 0.0174157894843075
v -0.0264306053044974 0.0216617354577526 0.028299835551966
v -0.0256148614262138 0.0182128697874284 0.0311045096772547
v -0.0267270765097339 0.0233783277320716 0.0253710299352849
v -0.0252424929055723 0.0205434683015126 0.0299233213865125
v -0.0233514381806079 0.0235222509773618 0.0283830538072081
v -0.0265309923155747 0.026102620526203 0.0217210438225865
v -0.0250090722500725 0.0260157171884202 0.0242116628197929
v -0.025284955129915 0.0279699922641171 0.019565640938175
v -0.0223042534720375 0.0307630228414263 0.0175610176195765
v -0.0236347853733679 0.0275067935601402 0.0222800576897455
v -0.021714905437728 0.0294460634906844 0.0215724316358555
v -0.020842875671533 0.0307470902534701 0.0193769587880558
v -0.0245678287722297 0.0244172539212658 0.0265780623046822
v -0.0226797721870991 0.0265270277747895 0.0259549778876648
v -0.0211107147232788 0.0252677330120177 0.0290899632921067
v -0.0193558078973939 0.0244278072645898 0.0304231033069223
v -0.020524157208784 0.0272300951600477 0.0268143319716635
v -0.0172494174067716 0.0266238366109728 0.0299468621617043
v -0.0174318208984339 0.0298461825466551 0.0258170894263139
v -0.0174078220441739 0.0314498555862571 0.0227473024191387
v -0.0148238664186005 0.0286334055877265 0.0294054644597881
v -0.0145637340301447 0.0306826917113456 0.0268706164743286
v -0.00166176877326205 0.00296837328445281 0.0303571132057118
v -0.0145109598620691 0.0261382053179291 0.031724316750933
v -0.00724726004755094 0.0299390434195795 0.0305243046971189
v -0.0255880347761014 0.00777562726032422 0.0336601294053487
v -0.0220790666692708 0.00546855753373742 0.0329215437698475
v -0.0207282063747948 0.00890480473970956 0.0338260928157756
v -0.0261993102750522 0.0104667693563937 0.0329874978957985
v -0.024625551066034 0.0146575944992456 0.032951229613494
v -0.0191476950681412 0.0124307904115029 0.0339287921921286
v -0.0166662384278318 0.00443761855497665 0.0341484359928404
v -0.0189048930992506 0.00812316748825023 0.033371961203168
v -0.0139814342670279 0.00633423250999223 0.0339969566887332
v -0.0165531008663836 0.0110966646775505 0.0345792521809212
v -0.0172765704048037 0.0160634982543235 0.0342157897990439
v -0.0216733641168273 0.0164339929055707 0.033196459041604
v -0.0142067661937987 0.0155695688691381 0.0344696805988522
v -0.0223236507820281 0.0203422003192014 0.0316236522776013
v -0.0161847030554693 0.0225773149599527 0.0329569046368803
v -0.0140151495913683 0.0207531081074373 0.0340558656626248
v -0.010518758360059 0.00562665452801053 0.0330922990796184
v -0.00920950391487683 0.0104605714473644 0.0341195593902955
v -0.00758053447069301 0.0035515673398136 0.0311899853987903
v -0.00765930149084846 0.00547978619746328 0.0320007613219234
v -0.00670958226274122 0.00837132724034612 0.0320127334408994
v -0.0071422830834014 0.0199735393848723 0.0352077957651907
v -0.00625816654425414 0.0174580029275935 0.0349877935944881
v -0.00600116268682975 0.0105631509491301 0.0336121710395809
v -0.00255387265624151 0.00541068978005191 0.0315501031406104
v -0.00171204326966831 0.00874232720703036 0.0334680103464964
v 0.000788606101077866 0.00233925711653243 0.0305981371948166
v -7.66732850450286e-05 0.00738693221871495 0.0330872479182499
v -0.00283312060314098 0.0103942768559449 0.0338168726297399
v -0.00350491682030771 0.0135545578079086 0.0347573316025299
v -8.94257538269494e-05 0.0116592918203238 0.0345971206982297
v 0.00161273443388812 0.0147773680194758 0.0358422438965151
v -0.0116169880215585 0.0233205826670987 0.0337946341551744
v -0.00726289967440438 0.0234151699421064 0.0343914446816002
v -0.00928457933907839 0.0264696190523714 0.032745088890153
v -0.00111016154145094 0.0195313406286705 0.0358450472803337
v -0.00222348772854316 0.0243942621400607 0.0348806771995795
v 0.0037380973741128 0.0198776242986064 0.0360112798863065
v 0.0016278682161262 0.0234631378642469 0.0352002027102279
v -0.00398712773550428 0.0287517680437263 0.0320877221357969
v 0.00119238634633896 0.0277795450060035 0.0330062779928668
v 0.000989545194982226 0.0299697364090354 0.0309491663855551
v -0.0204193223319501 0.0332808981577216 0.00634434707452129
v -0.0222309896636017 0.0322665844278071 0.00927670003150372
v -0.0214959266738246 0.0321359680638987 0.0135321785806083
v -0.022637715857623 0.0307776834348083 0.0150380376394222
v -0.0169225287251204 0.0351457928620986 0.00636672422665566
v -0.0149577929390984 0.0359363869953196 0.00447755090521781
v -0.0152323106060908 0.0353448625574688 0.0100749599573735
v -0.0167426930799023 0.034987962433882 0.0116935468599741
v -0.0119350562708753 0.0361162791681238 0.0160182223404113
v -0.0141001007255162 0.0350187640348578 0.0173149571108409
v -0.0170882705929702 0.0335339536374959 0.0176464527762215
v -0.0145302191114856 0.0339000648111701 0.0198935811294444
v -0.0131462609030197 0.0331855214845849 0.023206735849886
v -0.00843520608115941 0.0382576384338618 0.00502608255700662
v -0.0086582502016487 0.0379440459746337 0.00896948647409856
v -0.0108629618525281 0.0368918877689909 0.0129903486015183
v -0.00746338280140352 0.0370732542745712 0.016266299233026
v -0.00566463256284573 0.037373267867616 0.014011766065348
v -0.00461393566455681 0.0387037651783178 0.00624884315435088
v -0.00264997747527498 0.0387141177807314 0.0107676275815724
v -0.00123168231649919 0.0392874023901498 0.00463693710831828
v 0.00265654037408351 0.0385620223795143 0.00645615958962712
v -0.000867568768768368 0.0378251013317405 0.0168571300392097
v 0.00275990773705721 0.0392375182648618 0.00988585655071092
v 0.00283200871577141 0.038210890121825 0.0151766413748323
v 0.00216243448717232 0.0380644816761607 0.0123874868665074
v -0.0119260125452654 0.0344405100985167 0.0208564195811712
v -0.00545335477367234 0.0362297507581273 0.0203994429360038
v -0.00943654931666424 0.0328549878200792 0.0262758915907058
v -0.00539334988784046 0.0345886985262361 0.0244154515272036
v -0.00740921025621485 0.0324719227476446 0.0273496849860402
v -0.00448561315479894 0.0368091209383166 0.0181325201641246
v -0.000754622906243035 0.0349719959116181 0.0248359661412801
v 0.00232444560192274 0.0358524849672363 0.0224593574757153
v -0.00422821752750403 0.0332600850033853 0.0270994610994457
v 0.00269308250522762 0.0312210758253559 0.0303000927968085
v 0.00339733147352182 0.033315309952595 0.0267882226864335
v 0.0059040601210496 -0.0330763942487748 -0.0248818062970928
v 0.0108663471398253 -0.0309133357182829 -0.0270882901320224
v 0.00714188519665465 -0.0355096485904731 -0.0186271154675968
v 0.0143235733291517 -0.0330624239582709 -0.0196645245277587
v 0.0187639775015177 -0.0298539270589543 -0.0220903722009753
v 0.0129162422028475 -0.0359370848026518 -0.0109744538120227
v 0.0181260803155192 -0.0341223265300538 -0.00899487597040571
v 0.00625386212478729 -0.0385552299718867 -0.00516968834967624
v 0.0125003773924927 -0.0375078195018787 -0.0016578719581205
v 0.00900800896536558 -0.0384991910186078 -0.000885176155238948
v 0.0171916427087069 -0.035389407656985 -0.0028354170220759
v 0.0211007550306691 -0.0315624777342187 -0.0132950525560438
v 0.0232534757420454 -0.0319551306240445 -0.00400995062787524
v 0.0227727607655075 -0.0320619859081975 0.00211135771799537
v 0.0273276730894765 -0.0290480374428529 -0.00194857013410599
v 0.00713634187450614 -0.0260482702280163 -0.0340196718992949
v 0.00708443921449219 -0.0207249874922541 -0.0374042243842625
v 0.00855394346456925 -0.0174028176439082 -0.0376897196165578
v 0.00806350172884863 -0.0130109414775618 -0.0371812833848251
v 0.0143613002112518 -0.0113765372403571 -0.0369237560266967
v 0.0131784610977683 -0.0273094807751251 -0.0309325360713655
v 0.012861521373013 -0.023139495085855 -0.0349316369817527
v 0.0199248009790647 -0.0267206432291485 -0.026847120412218
v 0.0168325771903394 -0.0168188123366613 -0.0367146848602662
v 0.0155978814289345 -0.0055811591493247 -0.0379786213687668
v 0.0160027504422847 -0.0128499913238877 -0.0377272650188193
v 0.00475456510764741 -0.0110201558560309 -0.037421807018424
v 0.012888183784557 -0.00067373537184612 -0.0370129836805915
v 0.00391161574312507 -0.000468791569851676 -0.0306111481899038
v 0.0168967397179217 -0.00529931793247459 -0.0376325582915213
v 0.00927355866424673 -0.000631618632906228 -0.035253557194751
v 0.0174955664476202 -0.00156091436301192 -0.0374759085248306
v 0.0207609178036878 -0.0222328454393219 -0.0313159794815838
v 0.0205035290209288 -0.0171250523896278 -0.0347617501154549
v 0.0255615601866357 -0.0173467915559284 -0.0306055695296372
v 0.0219202184626011 -0.00490737527864037 -0.0370657181277878
v 0.0223045663177558 -0.00912880535188793 -0.0365143868708492
v 0.0190384403076662 0.00644808772207806 -0.0368415771770856
v 0.0260165834981865 -0.0105524103704828 -0.0336082556409507
v 0.0294787780507355 -0.00342060930708535 -0.0317386148318828
v 0.0298790348099051 -0.0137345607073162 -0.0273134103094658
v 0.030159227218125 -0.00788334996667306 -0.0292424978622954
v 0.0263597600274554 -0.00259893247946552 -0.0347252169906868
v 0.0277490148761463 0.00211829412531309 -0.0321430005695722
v 0.0290921125375648 0.00338052742530309 -0.0314185107373043
v 0.0303967688338394 0.00141654083748471 -0.0299670629500072
v 0.023822168125565 -0.0274505858362626 -0.0200782720091852
v 0.0278372408458047 -0.0205906142897614 -0.0247161984282784
v 0.027798301418708 -0.024832005164685 -0.0177982690327725
v 0.0265338269692886 -0.0279483040889585 -0.0118606547333595
v 0.0317780727677822 -0.0189011394297004 -0.0181898317652663
v 0.0318241654977254 -0.0210647287711212 -0.0138290448220675
v 0.0318273446154087 -0.0121193394685416 -0.0248780272629589
v 0.0308608102969633 -0.0238376625737727 -0.00957767736030979
v 0.0321404047188193 -0.0225993416873176 -0.00576716837789384
v 0.0304271005151212 -0.0254424956064218 -0.00350143071545159
v 0.031050125144845 -0.0249801556392171 0.00218718792455822
v 0.03136033071469 -0.00867811562827238 -0.0272414982671206
v 0.0331349187792482 -0.0131175030392702 -0.0213119284135689
v 0.0328925354157307 -0.0180321290711634 -0.0164067464003095
v 0.0332245511921915 -0.0185626749254894 -0.0132589251554987
v 0.0336608288466029 -0.0150066592274802 -0.0182190699092019
v 0.0342419099803003 -0.0151417178096327 -0.0148195396472155
v 0.0345249337069936 -0.0169041160573279 -0.0125440240763939
v 0.033188093784559 -0.0207511534523044 -0.00879992529136522
v 0.0314832654211172 -0.024123546348588 -0.00113857206220454
v 0.0337511777996777 -0.0214839881821129 0.00201787687278335
v 0.032833486293716 -0.0199005081833197 -0.0118855088573352
v 0.0353058013070362 -0.0169620362453048 -0.00710012779005074
v 0.0366055593107752 -0.0126400647688761 -0.0111968578870919
v 0.0367060757892189 -0.0140776993998136 -0.00712031983289345
v 0.0346733077544269 -0.0194393529196976 -0.00298625449784591
v 0.0349447984200784 -0.0198277684641237 0.000878982417976938
v 0.0364808725678858 -0.0168430831495582 -0.00106970754491251
v 0.0364269726252031 -0.0160568258304335 -0.00259269517243152
v 0.0376780486939685 -0.0126740791103766 -0.00455199548773218
v 0.0315470298103815 -0.010566849359385 -0.0258019560103424
v 0.034468665844431 -0.00852935978246933 -0.0212061422051748
v 0.0338834376780881 -0.006832982621085 -0.0232321213556018
v 0.034989845645126 -0.0105061037630213 -0.018077834232868
v 0.0354092991631896 -0.0119840977876325 -0.0158715753689742
v 0.0360586752826862 -0.00574556018659977 -0.0180752985374358
v 0.0365812711981477 -0.00869412597243001 -0.0147846009047333
v 0.0367690268134264 -0.00527649201007445 -0.0148154672198605
v 0.0333557461455415 -0.00424159013510829 -0.0247836868656727
v 0.0325720791989164 9.94861540961622e-05 -0.026789600106223
v 0.0319549780067051 0.00457992753821052 -0.0269298556198498
v 0.0345376299260944 -0.00110868589028307 -0.0231895224847585
v 0.0348433341961788 0.00169377881537353 -0.0217357353039964
v 0.0359411357236728 0.00128524833324041 -0.0193125408949892
v 0.0364930593674716 -0.00186436850283489 -0.0178976151477902
v 0.0381426284064502 -0.00313295540368132 -0.0119934772990626
v 0.0366070845698292 0.00441910732344986 -0.016578011884977
v 0.0361617519393696 -0.011582503361141 -0.0132350884977747
v 0.0378781937514717 -0.00914518120478048 -0.00924399438665391
v 0.0388106033025815 -0.010262536984614 -0.00078804576116745
v 0.0376965541962977 -0.0135073566409172 0.00203300018604312
v 0.0382904528120545 -0.00557661259771872 -0.00961447908889675
v 0.0374031860196846 0.00428429642031924 -0.0133306914104632
v 0.0388651178023022 -0.00809131077761048 -0.00397597553948621
v 0.0394763294248608 -0.00645503036749215 -0.00100700404738396
v 0.0390645569765828 -0.0041524899634553 -0.00579325457134366
v 0.0382191669238665 0.00170000371326551 -0.00943492281681499
v 0.0396440421837768 0.00152396277844496 -0.000328769308578024
v 0.0385538793012907 0.000952761210298649 0.00655001183611495
v 0.0387228189894658 0.00349201995238965 -0.00621907561993065
v 0.0387643063229762 0.00160042713594274 0.00284081732807506
v 0.00665057120002198 -0.0389206302474673 0.00632237352938603
v 0.00959940075698756 -0.0374541458892896 0.0139578094332444
v 0.013020697824949 -0.0372012760979566 0.00607682308051827
v 0.0172435542280589 -0.034910875995338 0.0116800365880334
v 0.00947169244907242 -0.0360430979669376 0.0207679039561013
v 0.00548788693570837 -0.0301034697830751 0.031951547561401
v 0.0115386042515703 -0.030669688397022 0.0299916995484257
v 0.00827902329010542 -0.0298578910371773 0.0312759251717207
v 0.0165755523227053 -0.0339348740743521 0.0189051688080957
v 0.0148410133991742 -0.0319065449018845 0.0264293120391007
v 0.0156559054986764 -0.0297212862041775 0.0288683530387023
v 0.0210224647769974 -0.033119665908419 0.00521746131226816
v 0.0225171587356502 -0.0320181865911976 0.00952852640844171
v 0.0239538902929052 -0.0300213286854757 0.0156283778997628
v 0.0273878100529645 -0.0281944188182433 0.0111460399290523
v 0.0220944994019014 -0.0294507959723332 0.0226914650695784
v 0.0191636816528771 -0.0305314568792057 0.0243506059941611
v 0.0229313143375165 -0.0291578964416467 0.0203929657775623
v 0.0182155961694762 -0.0296943684633944 0.0262079805755255
v 0.0244594629575084 -0.0286315820324091 0.0189109684696595
v 0.0293804729732254 -0.0267266012453101 0.00757021721184258
v 0.027424186814915 -0.0268120373159219 0.0166425444462074
v 0.0309677202614819 -0.0243636847046477 0.0104156270125522
v 0.0286525526093054 -0.0260612302710002 0.0134257674509846
v 0.0297328551917528 -0.0245655989746386 0.0156246113635449
v 0.0310260650244724 -0.0239102395388913 0.0130970982691617
v 0.0191351160616089 -0.0269278771172145 0.0297745266217873
v 0.0219758210770873 -0.0279492630371661 0.0256970109029893
v 0.0220534306570721 -0.0263410078682162 0.0280589034376602
v 0.0240568359940885 -0.0250031027997513 0.0277089943011093
v 0.0215824523220434 -0.0248302005050219 0.0300001593667435
v 0.0249091562421893 -0.0272473142021596 0.0227442891767143
v 0.0273136287256994 -0.0253746977720187 0.0195995060675952
v 0.0282731556451969 -0.0241080681248068 0.0214973933311674
v 0.0284112697878811 -0.0230065727390501 0.0237426213458705
v 0.0301168984264992 -0.0220532763111108 0.0206990204059656
v 0.0318760409625968 -0.0196003427880479 0.0203171577031351
v 0.025195445815705 -0.0231227415663084 0.0278009454979182
v 0.0244733517053921 -0.0226532775061868 0.0300709198489275
v 0.0275627685356892 -0.020900518710232 0.0280351333403975
v 0.0305788163381429 -0.0195080661616583 0.0245011460957055
v 0.0250001247523933 -0.0204779107316475 0.0309313359559082
v 0.0273407414742408 -0.0187382989114752 0.0301174814740412
v 0.0305320188040872 -0.0175149852271575 0.0262355731740297
v 0.0287445420119925 -0.0156044546059632 0.0303754943943904
v 0.0314218740521468 -0.0147853459686929 0.0277828585176755
v 0.0061501886542461 -0.0258523594661272 0.0347178988091593
v 0.00676363590299102 -0.0174892221634839 0.0359867975366499
v 0.00339143661934588 -0.0135621264801976 0.0344938448234641
v 0.00732600512674649 -0.0199632019376841 0.0359796135763488
v 0.00682869476474862 -0.0114172358802599 0.0356704987316073
v 0.0098290357632396 -0.0115458493384462 0.0366274541385635
v 0.00947079534915593 -0.0254106737808308 0.0343140617607521
v 0.012609809797797 -0.0255519833558165 0.0340473417254073
v 0.0112476622423278 -0.0226798527430337 0.0358533529888585
v 0.0153652342300678 -0.02571326806478 0.0330947017759862
v 0.0153406720714273 -0.0278863336597003 0.0309006140729738
v 0.0171775058593887 -0.0209624689624783 0.0353604984092949
v 0.014258979281313 -0.0168804082416425 0.0368522860388149
v 0.0100833432838257 -0.0149951971286579 0.0357237446248224
v 0.015842093581512 -0.0198955256683188 0.0355223004055798
v 0.0136248820674369 -0.01215677891691 0.036704004735935
v 0.0178727142820411 -0.0128174752573842 0.0368052728867316
v 0.00458354106982245 -0.00769248707970958 0.0332509737823428
v 0.00900034088472104 -0.00289014872542634 0.0347644982709346
v 0.00352308058973656 -0.00264404590297272 0.030676883050816
v 0.00495092852129958 -0.004750756930703 0.0328494680113346
v 0.00313739121140481 0.000801280441867946 0.031406161601468
v 0.00624180174384827 -0.00203677407828917 0.0322983296057216
v 0.0120456200844844 -0.010271683227472 0.0359245293528014
v 0.0118226279514693 -0.00400680780567136 0.0365778506061563
v 0.013641519132874 -0.00642461291817223 0.0371636558713125
v 0.00946549236852171 0.000126152916977353 0.0347886802562079
v 0.0135014410758081 0.00106947723371112 0.0364838561949736
v 0.0178630806761605 -0.0258030544302804 0.0316495100778605
v 0.0200440391539237 -0.0246112594216458 0.0316184433979671
v 0.0177797024515261 -0.0238127455282417 0.0334488852045741
v 0.019617683634918 -0.0225465853082139 0.0333986971676378
v 0.0227064022124411 -0.0223511523915158 0.0312474179779115
v 0.0194230901566258 -0.0172550279715119 0.0358054749277366
v 0.0224288622914484 -0.0135321636024504 0.0362368390620884
v 0.022968177745534 -0.0199252937906055 0.0327329252394823
v 0.0216381855697991 -0.0189204388208396 0.0343283218859021
v 0.0237933495285022 -0.0162962936081997 0.0343907018569089
v 0.0271389098734206 -0.0157781211148706 0.0321998401953999
v 0.0256625235399738 -0.0134459500842081 0.0344093560115352
v 0.0275612869273015 -0.0131524499846227 0.0330204966317648
v 0.0295936810825103 -0.0137031682430835 0.0309787935441035
v 0.0196000167762781 -0.00697348379033022 0.0374921243394383
v 0.0220173198863628 -0.00913010284016078 0.0368097186857968
v 0.0180806631957283 -0.00491160393768933 0.0372638119152286
v 0.0189153143282781 -0.000942822894348688 0.0378960918482772
v 0.0145693596930818 0.00226523838328922 0.0373809194464189
v 0.0241087203687566 -0.00475901719002365 0.0368100744651662
v 0.0199832499856415 0.00382575746790679 0.0378112173905576
v 0.023092180159346 6.42364184189337e-05 0.0374617533065483
v 0.0258292072445253 -0.0107051112513468 0.0351212625728718
v 0.0259183248636323 -0.00755266297628445 0.0358512959645278
v 0.0284480362853887 -0.00939893300726512 0.0336621628017619
v 0.0314505086997657 -0.00912363745841114 0.0307753959861365
v 0.0308490956023927 -0.00654024977321433 0.032243490919863
v 0.0271355246740017 -0.00314588742361033 0.0355149615085035
v 0.0269318415291615 0.00366088853402391 0.0354332780719355
v 0.031353674113211 -0.00247363118851953 0.0324649527170107
v 0.0285819052433116 -0.0042739495999423 0.0343035269116936
v 0.0316897121771164 -0.0240781458086363 0.00630502269061803
v 0.0336135479335053 -0.0212874418112704 0.00434009042104199
v 0.03327466872565 -0.0212417211799579 0.0100128357256647
v 0.0314579374207647 -0.0221113307534133 0.0161408140337397
v 0.0353220121420571 -0.0185270443907217 0.00761029781914717
v 0.036999586610959 -0.0154599647382502 0.00477251404110665
v 0.0369996021511444 -0.0150549965728134 0.00850367780623928
v 0.0354209256027413 -0.0176460002000683 0.0119380737848036
v 0.0339293729246508 -0.0192337473912207 0.0145317854481116
v 0.0376962833604205 -0.0121158360723243 0.0125009347920857
v 0.0355023098621798 -0.0155361772005205 0.0166617441299519
v 0.0333288792514149 -0.0179400599918573 0.0197888735019965
v 0.0344810344068365 -0.0161156362695896 0.0184360417688143
v 0.0341200991050146 -0.0145847914044242 0.0221307566497569
v 0.0329312881195586 -0.0164926332557491 0.022989512552528
v 0.0333322787037417 -0.0130493678755043 0.0252175560798593
v 0.0382712884407308 -0.0108933401196012 0.00687690192105097
v 0.0378010852399041 -0.0122631683554129 0.0091738141460474
v 0.0368160726793746 -0.0110263940959495 0.0178097660085217
v 0.0380990122860491 -0.00700081663593749 0.0168791974826044
v 0.0388313233976464 -0.0104261637496429 0.00281507750977754
v 0.0396366134438325 -0.00559332257992676 0.0059549119082891
v 0.0389037376906327 -0.00840429405813181 0.0100616499283713
v 0.039127919185846 -0.00422414740996685 0.00953607232359124
v 0.0395672585981213 0.000377468325145211 0.00950637940448647
v 0.0391435497571291 0.00333559860131728 0.00561746217412318
v 0.038904127860963 -0.00375696232493825 0.0142321011479573
v 0.0384530399193829 0.0043378721275177 0.0143642330056633
v 0.0385969747836397 7.86443021802384e-05 0.0168438679976641
v 0.0356711032205761 -0.0132543039641694 0.0182480730213252
v 0.036029093575985 -0.0101852508359084 0.0209847532392185
v 0.035314103316505 -0.0121168662686245 0.0219035450757117
v 0.0347334876958349 -0.00853749891995464 0.0260705016053754
v 0.0370090568610554 -0.00854267453089504 0.0196288168725741
v 0.0364704701464397 -0.00722312550464643 0.0228398965779626
v 0.0341019251869157 -0.0106076020115861 0.0260415708505274
v 0.031251718778561 -0.0124145237969059 0.0294328593451894
v 0.0328857347357078 -0.00718573745071811 0.0296414313413578
v 0.0347248369429472 -0.00520331205665633 0.0273248450452215
v 0.0369719867186049 -0.00412346471580533 0.0218422035459628
v 0.0376441788293551 0.00339398789880552 0.0193907619429133
v 0.0365277971437451 0.000153175945028644 0.0239561071263967
v 0.0341839789080219 0.00514958214581742 0.027741120861194
v 0.00385830076243787 0.00820862419375723 -0.0354011757757505
v 0.00523468043084124 0.0120604762781287 -0.0373937560271661
v 0.00939376946344228 0.0163987027979886 -0.0371564143686344
v 0.0156590931993962 0.0193944587768527 -0.0349359198493209
v 0.00942080154810586 0.024655281106704 -0.032918341181847
v 0.0126127962800941 0.0217511111980666 -0.0345545118082546
v 0.00577058211854009 0.0270551144772291 -0.0306055201413703
v 0.009284201885606 0.0269869399555512 -0.0295865654155605
v 0.0154245352337749 0.0223595017889655 -0.0325704043574379
v 0.0154155113578037 0.0244636067189176 -0.0309595185048066
v 0.0150397176110638 0.0254746948136209 -0.0293256489066606
v 0.0135424173038438 0.0271389868015501 -0.028210296240184
v 0.0243568991393185 0.00669906080039034 -0.0350905214056084
v 0.0193041108409637 0.0137839970701802 -0.0352615378622144
v 0.0235555707909784 0.0127670216051874 -0.0331826736418578
v 0.0221124087962886 0.015296201820234 -0.0326127258389055
v 0.0265905140846843 0.00326440789217358 -0.0337665170055094
v 0.025171397965422 0.00907024686120966 -0.0335892074596676
v 0.0280204783615632 0.00688600438275516 -0.0311719591341375
v 0.0298369030185148 0.00559801994741663 -0.029134831517919
v 0.0250908487266431 0.0115524149426238 -0.0324672694950021
v 0.0271563615307345 0.00961714490902335 -0.031538564245109
v 0.0269548824298906 0.0119605842280572 -0.029835668152571
v 0.0254043680464456 0.0139484040704894 -0.0308376155600772
v 0.0277584548574006 0.0143995244392288 -0.0284813538825694
v 0.0249871559021837 0.0162668532634677 -0.0298011795733572
v 0.0290192146900079 0.0116712104542767 -0.0281941910470936
v 0.0179171324044454 0.0193986315113834 -0.0331762996452448
v 0.0204000035871696 0.0167237464465222 -0.0330103213086349
v 0.0184452443779373 0.0219547951442274 -0.0311741713130664
v 0.0204855549390362 0.0193765001835169 -0.0312987903677809
v 0.0229501937375579 0.0171984089289246 -0.0310175494285777
v 0.0219132197066086 0.0188232944013132 -0.0300934134479589
v 0.0190677825836494 0.0243583823226533 -0.0282822529361833
v 0.0211119979732824 0.0237739405709501 -0.0274524288894614
v 0.0249509111843672 0.0187503547601681 -0.0282549177215803
v 0.00680512428403179 0.0294758264987671 -0.0272120271396824
v 0.00596242178397333 0.0315352196033075 -0.0242454432150703
v 0.0120448514688951 0.0289358041315605 -0.0266505170676533
v 0.0120246622323822 0.0307090952921475 -0.0237008122770564
v 0.0153100467755445 0.029183487500076 -0.0242364586352924
v 0.0305940225035492 0.00774290804199566 -0.0276378445340121
v 0.0308614335043072 0.0106364070879266 -0.0264536025241865
v 0.0309024655157779 0.0132809472496608 -0.0246956777830061
v 0.0299206977145467 0.0154057759991366 -0.0250076704890097
v 0.0235069028619847 0.0209799722305392 -0.0281324703773018
v 0.0179173851262589 0.0258243890189599 -0.0273900409736457
v 0.019573490416749 0.02713467296734 -0.0240604319521335
v 0.0189635201719443 0.0291257537973453 -0.0214660537506765
v 0.0230680670219262 0.0236994442758927 -0.0255302086690193
v 0.0241196145751454 0.0251007504439132 -0.0225820077135568
v 0.0219738303066618 0.0261243331214673 -0.0225299667773513
v 0.0234013037329938 0.0268261089934146 -0.020235532304804
v 0.0175737526900399 0.0308903832589268 -0.0196703467252096
v 0.0204465259708598 0.0302259349543359 -0.0175793642915766
v 0.0238010541294867 0.0274341039847061 -0.0179279787642662
v 0.0228872000972927 0.0295937310429569 -0.0150186975826884
v 0.0260204247232741 0.0201195031625032 -0.0255887835294785
v 0.024472532992574 0.0228153015393566 -0.0241079098287954
v 0.0269019530909046 0.0216402299677458 -0.0223730075606786
v 0.0279264868344759 0.0168087880417092 -0.0262704156013107
v 0.0279594165901402 0.0195138492486731 -0.0242681810113935
v 0.0302265886528756 0.0179661707921031 -0.0215392452553933
v 0.0292104902383204 0.0206471834432862 -0.020512816439781
v 0.0270400392902043 0.0234803831901609 -0.0198961185415782
v 0.0296189775684766 0.0221717114433111 -0.0179134071254987
v 0.0276629230774642 0.0239040963382099 -0.0177026726356772
v 0.030661207039551 0.021639420712243 -0.0148463313075708
v 0.0249438493536393 0.0249177572820997 -0.0209869532476761
v 0.025800421360313 0.0260465861577769 -0.0177591551643619
v 0.024851256412984 0.0276276753648542 -0.016135290603627
v 0.0250895868487028 0.0285500028704673 -0.0128973436044426
v 0.0276438295179184 0.0249455067600654 -0.0155202980697755
v 0.0284439339522984 0.0253301195793711 -0.0132909628595544
v 0.0266815723058666 0.0283990389761879 -0.0102207647350345
v 0.0239730990962364 0.0308506632433647 -0.0089493750340966
v 0.0268642183985604 0.0290585154188899 -0.00519813605264918
v 0.0307755575972429 0.0229972654661551 -0.012073585737778
v 0.0287682576064 0.0260304713180399 -0.0104572657658289
v 0.0306547692182315 0.0240941434086225 -0.00890170532196422
v 0.0300601135171029 0.0260667583468505 -0.00539105941697909
v 0.027644363856027 0.027498288052998 -0.0064327155742817
v 0.0237483390984518 0.0320525616431974 -0.00345347732812892
v 0.0292697172552127 0.0276300345557567 0.000813285676657095
v 0.0275924936632736 0.0293249248353759 0.00169799267855248
v 0.00975341071998866 0.0309988600709746 -0.0230543881959374
v 0.00747138092256006 0.0324046253535266 -0.0214686493279038
v 0.00657852038126 0.0335314234625005 -0.0195083714951262
v 0.0101942155733187 0.0342471828377366 -0.0176114662090438
v 0.0081727334022674 0.0356689323815737 -0.0140673175845646
v 0.0101628879115409 0.034713741666015 -0.015475227598844
v 0.0109906106665704 0.0325232005813142 -0.0209097197753693
v 0.0140573215141586 0.0312012738369019 -0.0212023762344914
v 0.0151991330329599 0.0322111625457614 -0.0190509926669611
v 0.0151467424183602 0.0331317375880711 -0.0163387351075121
v 0.0172544857745947 0.0335674005586489 -0.0126991667206366
v 0.00495177238850752 0.0380085776127195 -0.00850126677285906
v 0.00623060114162061 0.0366420088758276 -0.0127095423926056
v 0.00992470083546909 0.0374174253787055 -0.00816551633022494
v 0.00990216484996415 0.0365978148888181 -0.00962335971108193
v 0.00899011750006683 0.037509781705981 -0.00612363215744916
v 0.00573858693302204 0.0387799673422235 -0.003445823563753
v 0.00758034991347609 0.0389930446483309 0.00138296443898139
v 0.00964878828869801 0.0386654830110893 0.000237352086760567
v 0.0145437584551558 0.0351506906791756 -0.0114693318178621
v 0.0129931530000991 0.0361269953498255 -0.00935175650661887
v 0.017974788400405 0.0340433930411719 -0.0104573835106924
v 0.0168441833814405 0.0350675438928166 -0.00811228181318119
v 0.0144128960222717 0.0363806455342732 -0.00566382045971434
v 0.0112067759695868 0.0379520631684228 -0.00259338033925602
v 0.0163063675757058 0.0359985148099393 -0.00335798807484219
v 0.014109803710944 0.0375007860158288 0.0041229225365358
v 0.0172353712714738 0.0361064991477517 0.000266877348634523
v 0.0194897185236283 0.0324203626944798 -0.0136012285076618
v 0.0226854066671166 0.0311631871474761 -0.0112059879332938
v 0.0230043843743169 0.0320511603599332 -0.00662957304531844
v 0.0183851412358688 0.0348251076485462 -0.00506784130306943
v 0.023132645702998 0.032622004731696 0.00427898111238773
v 0.0333896973849264 0.00948146013367918 -0.0231345254605308
v 0.0339660557049223 0.00338241671629144 -0.0236308963852094
v 0.0341016267763522 0.00730460935133008 -0.0219329692849346
v 0.0352338840594546 0.00688710158748301 -0.0194914945885404
v 0.0364690466135693 0.00688660544375586 -0.0132111695300343
v 0.0355774266341349 0.0058459080228444 -0.0173242025478989
v 0.0359042199592955 0.0100383082607991 -0.0144273261948588
v 0.032360160383139 0.0108619635044173 -0.0240158533894139
v 0.0329081689325575 0.0115963567646918 -0.0214946697486937
v 0.0309351888667843 0.0156761819382743 -0.0219438337889235
v 0.0341130454727437 0.0105946306908391 -0.0198290362431464
v 0.0316161429003932 0.0187662398027173 -0.0177762088717256
v 0.0331615244007856 0.0147549346892846 -0.0183809813169646
v 0.0336780733092571 0.0168204417687543 -0.0152255941999882
v 0.0352917170418407 0.0116618270841866 -0.0157276501953693
v 0.0358681177372671 0.0131911053256513 -0.0116479031371639
v 0.034695343421837 0.0157095035165865 -0.0131279250353694
v 0.0377597917751089 0.00403947731076298 -0.0108249003418224
v 0.0378294061024504 0.00945432203029473 -0.00695723259521472
v 0.0368727886782267 0.0114180983620324 -0.00973824765283707
v 0.0347102418737721 0.0158669695071282 -0.010533519800461
v 0.0358245740789173 0.0148111575198879 -0.00916000784244339
v 0.03631118718295 0.0150480625428092 -0.00594969215476118
v 0.0375477695385076 0.0112941598522256 -0.00259421085792459
v 0.0370799179898592 0.0139893786288202 -0.00276495022857408
v 0.0384792274685157 0.0108259636017788 -7.18529673803259e-05
v 0.0361569030053564 0.016555759938314 -0.00167343020905683
v 0.0369435489132235 0.0154529107634474 0.00130303574550777
v 0.0386784234243883 0.00598094294802154 -0.00359323613563657
v 0.0388648593023418 0.0085552748383208 0.00216753342111736
v 0.0339059234222544 0.0195548902542082 -0.00897181409134618
v 0.0326901772255313 0.020559053705611 -0.0104406257540989
v 0.0347421506925851 0.0185472930803545 -0.00710235539535056
v 0.0319530802822869 0.023359285216445 -0.00620564587700038
v 0.0329354880650726 0.0222298417169594 -0.00422012827839235
v 0.0345890282438846 0.019771962029752 -0.00385289253843968
v 0.0343546857563637 0.0197629517823097 -0.00167678513810062
v 0.0328056576031291 0.0232398925013822 0.00189734515961146
v 0.0343306735835943 0.0203348345010927 0.00150216539749651
v 0.0312254576357826 0.0241359895653193 -0.00344455403748515
v 0.013165624341534 0.031204874180685 0.0277229695518875
v 0.0142166504092937 0.029601780154539 0.0289177149118168
v 0.0124243866438283 0.0287470946640578 0.0300363633328641
v 0.0162391647671988 0.0273557631147075 0.0305926387309857
v 0.0276595871664268 0.0293259923527378 0.00496414313511336
v 0.0254074936515916 0.030673152089949 0.00902719272601056
v 0.0290176492169072 0.0278453160459334 0.00879022639409291
v 0.0245635795115973 0.0307969848790283 0.0153424922310501
v 0.029144339893371 0.0273042401627828 0.013383446845914
v 0.0296542965060248 0.0257127912151042 0.0166889501723475
v 0.0285961859578996 0.0265829783412629 0.0151054559215855
v 0.0249241884210939 0.0306558776694526 0.0122913511249712
v 0.0307539100975614 0.0255988354473517 0.0107456239561761
v 0.0187270660234014 0.0285198654956014 0.0280534296867214
v 0.0173972440882852 0.0294818263167265 0.0266755610897942
v 0.0191862029160532 0.0257129504171999 0.030429324063187
v 0.0212675655069523 0.0249592987325551 0.0301003050442174
v 0.0232390715540924 0.024961384352119 0.0280007528010271
v 0.0216712239889297 0.0268190664818979 0.0276283140150123
v 0.0186390996256729 0.0302624873770168 0.0249890457996383
v 0.0211032956021994 0.0305349722516538 0.022844279409087
v 0.0223530596162451 0.0278646914472008 0.0257975740552486
v 0.0201362449594665 0.0272737135024211 0.0271992477293212
v 0.0242349734999854 0.0259950141910631 0.0259889271032352
v 0.0256378015826648 0.0221422887676004 0.0292632948562401
v 0.026584723570878 0.0222934943620458 0.0274503626819084
v 0.0313656503019429 0.0136839201811333 0.0283309547368348
v 0.0289462496676095 0.0158403390085589 0.0298995951276341
v 0.0310105813406831 0.0172620899903888 0.0268195939532178
v 0.0266646105179895 0.0182586495727505 0.0312417936984989
v 0.0292691489966629 0.0207000899110764 0.0263168947839851
v 0.0290982540125016 0.0221331263541345 0.0242671568135946
v 0.0274904109414805 0.022201534447252 0.0259230046393359
v 0.0262727879970566 0.0288040710341875 0.0177512005780325
v 0.0237862711692344 0.0301813817803612 0.0194423415577768
v 0.0235074832792917 0.0294220263847044 0.0213876339302165
v 0.0259712740982722 0.0263293819952143 0.0238193829164018
v 0.0259936035651115 0.0282921639329813 0.020098706290935
v 0.0289216424304173 0.0254424842146993 0.0190816717177342
v 0.0301305176925526 0.0235388134460886 0.0194871775463924
v 0.028594847558122 0.0243461345508289 0.0227705589438162
v 0.0276168215891998 0.0263394341141784 0.0205191594218464
v 0.0308893399532076 0.0218280784265904 0.0217317288329324
v 0.0266352144869817 0.0245235882663158 0.0253069990597979
v 0.0229960823081978 0.0233042915823682 0.0302672494916139
v 0.0255734414569921 0.0237869970200072 0.0276886546127829
v 0.00257144242011016 0.00561069425551311 0.0328065120513319
v 0.00661645364319574 0.00386340167762786 0.0343395347885205
v 0.00554036864867331 0.00618497110142499 0.0346542161623185
v 0.00634034240268114 0.00858771693649719 0.035669127481862
v 0.00829049761555077 0.00527692564048575 0.0354020956592997
v 0.00310766381100783 0.00939274824190996 0.0344054521171892
v 0.00483512090155215 0.0116640868199091 0.0355968930619302
v 0.00861291463750507 0.0101794616076722 0.0367585668736801
v 0.00644477632071047 0.0136254575104823 0.0364637431231191
v 0.00894162785729168 0.0021702931929029 0.0349700815567521
v 0.0107665930036375 0.00373003924801704 0.0365511262643814
v 0.0102576486879796 0.00776888373933567 0.036593244985865
v 0.012791875408354 0.00694665400241344 0.0369686958939397
v 0.0101080000615353 0.0132760324183052 0.0363233670632327
v 0.0106945257408621 0.0163051565563122 0.0369968192561802
v 0.0122334988365895 0.0124059586937036 0.0372372253636772
v 0.0147505597340548 0.00981861960617053 0.0375546613928311
v 0.0181245802210244 0.0120544429701489 0.0372455364193048
v 0.0159581711820143 0.0165141298889172 0.0368070183389952
v 0.00925063570883637 0.018985498060181 0.0364159623207706
v 0.00825972526005621 0.0227028677825017 0.0354739528857952
v 0.00739739846086079 0.0265183442927375 0.0336810203370115
v 0.00949238873003745 0.0290542681797152 0.03132107225776
v 0.0132242677784068 0.0196047247585611 0.036179162176
v 0.0129048319714417 0.0228347288071306 0.0347662045407979
v 0.0114521432624278 0.0278234393083676 0.0321848309189522
v 0.0130041403055989 0.0251434046896952 0.0333740666084364
v 0.00995936877815028 0.0311627186942923 0.0286146676219168
v 0.013307778964417 0.0268471431435449 0.0317308440735347
v 0.0220758116758159 0.00668162331448363 0.0374807596778018
v 0.0237149722102516 0.00971370728934293 0.0359157803931415
v 0.0186924478778344 0.0145769022684051 0.036513319789735
v 0.0210947454020685 0.0123092299078946 0.0363737870669766
v 0.0238539029252136 0.0125904212974889 0.0351241752075586
v 0.0222040304443146 0.0157944728096385 0.0348944815401476
v 0.0263880604285357 0.0073894405173465 0.0351827829494953
v 0.0301549302982982 0.00627371619029598 0.0324571672046722
v 0.027010686611026 0.00905941935484224 0.0343863447238523
v 0.0296640361553161 0.00741719723652463 0.0317538356473802
v 0.0255022434939569 0.0143417034692067 0.033381512864871
v 0.028391609400828 0.0120721757900401 0.0325208138832723
v 0.0299042900135047 0.00999904314048331 0.0316573618915446
v 0.0275167572724376 0.0150298084840467 0.0318757379936389
v 0.0308991902652333 0.012018488459696 0.0299628941559927
v 0.0178091282987826 0.0196378151633459 0.0351636176430343
v 0.018412910225905 0.0215065136869494 0.033670600347889
v 0.0222022124038952 0.0201303550067206 0.0331628790163271
v 0.0240929844075167 0.0180925581376399 0.0332658751562062
v 0.0183357802171395 0.0241580043815323 0.032252521433296
v 0.00425804126295312 0.0394067420600826 0.00376855551523916
v 0.00904115290164339 0.0389113122340221 0.004633521627284
v 0.00632765579994152 0.0386971523261984 0.0103018354874727
v 0.0092727551936522 0.0383216806905855 0.00854337685003215
v 0.00783681380478146 0.0383954672854555 0.0121173563398929
v 0.010520721650338 0.037535687755476 0.0141038608517855
v 0.0170655436989846 0.0360211776115318 0.00925889268842845
v 0.0153772036766674 0.0364948827298516 0.0123211950814445
v 0.012287166717127 0.0372719306218146 0.010798376108441
v 0.0137876035848886 0.036074585971085 0.0162533075682676
v 0.00613141495050179 0.0371667454177668 0.0185659104054408
v 0.0102307088551176 0.0365433856851383 0.0176779358053569
v 0.00673869000624168 0.035579467568412 0.0222200994428441
v 0.00584387606043639 0.0337847605584934 0.0256061069818873
v 0.00929297427964498 0.0339841769499588 0.023939122481232
v 0.00841084848253276 0.032991697739689 0.0265950706404287
v 0.00746709430223526 0.0307127502712853 0.0295602705268317
v 0.0108378994926929 0.0351617098699271 0.0210551390268232
v 0.012570748858193 0.0354978712711126 0.0190482068755413
v 0.0160272348936511 0.0354891763809137 0.0144978414627418
v 0.0143155789724108 0.0340088315705034 0.0210407322374504
v 0.0126390087890123 0.0332917904110347 0.0246550028596027
v 0.0161452067724852 0.0335413828284711 0.0205743552701548
v 0.0156885972739919 0.0326663987395301 0.0238666376810845
v 0.0137878429278526 0.0317109561130713 0.0256333579349527
v 0.0198390593412856 0.0348054527552836 0.00498551119049152
v 0.0223823087047687 0.0331997039014149 0.00753778742089043
v 0.0189904950316736 0.034763956511783 0.012552078491577
v 0.0180227235078264 0.0344695690606035 0.016764816940942
v 0.0218281315731768 0.0329765036271665 0.0133922192998728
v 0.0210749091517853 0.0326590634180171 0.0171596099996796
v 0.0174632529188913 0.0334550797936378 0.0192368733477534
v 0.0189343366759269 0.0308093196144219 0.0234988206589215
v 0.0230610469526507 0.0308125913503243 0.017888374601457
v 0.037455112032873 0.0130938669527029 0.00740686074991179
v 0.037402257927318 0.0117959271761128 0.00909727638273355
v 0.0362990746216809 0.0164943666020538 0.00896145148709139
v 0.0370638729349473 0.0110710943350698 0.015577955107414
v 0.0367431760027481 0.0142266563533225 0.011343881618465
v 0.0383773303959779 0.00905864794254079 0.00961727876349314
v 0.0362016073368016 0.0147192782710149 0.01487163967679
v 0.0393269145483297 0.00520758909368182 0.00593384000308109
v 0.0382101386564524 0.00677201348644554 0.00918675455680498
v 0.0390040530295678 0.00478177790570077 0.0114086745987285
v 0.036347077270717 0.00514633163012114 0.022993988061504
v 0.0361338057196244 0.0103711555965866 0.0204451523530982
v 0.0371822381922149 0.0093091280394977 0.0175950550220769
v 0.0360468090344703 0.00753966251170744 0.0220093295546773
v 0.0317475290118463 0.00639526018755052 0.0301922249499942
v 0.0334924018064602 0.00941220868868952 0.0270156392506898
v 0.03416652264208 0.0104154182813168 0.024905075001238
v 0.0362650250387649 0.0126072520373761 0.0182392103208723
v 0.0341170942425155 0.0169230540646109 0.0199614744459785
v 0.0341357637376555 0.0141823825139946 0.0235154858103942
v 0.0326873350019887 0.0170760564080354 0.0235151065897045
v 0.0343475732287915 0.0208166131996895 0.00597384883387277
v 0.03265338413049 0.0224731933702541 0.00910102385066519
v 0.0356369818493041 0.0182921976331886 0.00327258521232982
v 0.0350465434034911 0.0185208150600877 0.00835104298517534
v 0.0334907780512157 0.0212871901444064 0.0118954991953092
v 0.0341258129690887 0.0187676606406869 0.0147467058714987
v 0.0330013475741446 0.0215022960487362 0.0146001837385412
v 0.0309937728040806 0.0230605612652704 0.0163306928215028
v 0.034876224161252 0.0176546563288593 0.0156872102906895
v 0.0322652941707276 0.0206752940108154 0.0199251463757221
v 0.0309758469812655 0.0192206195913279 0.0243176765091177
f 2 3 1
f 3 6 5
f 3 4 6
f 1 9 7
f 1 10 9
f 8 7 9
f 9 14 13
f 14 5 15
f 14 15 16
f 1 3 10
f 10 3 5
f 9 10 14
f 10 5 14
f 20 17 18
f 21 23 22
f 21 17 20
f 21 20 24
f 21 24 23
f 18 19 25
f 27 18 25
f 27 20 18
f 25 26 28
f 25 29 27
f 29 25 28
f 29 30 27
f 27 31 20
f 24 20 31
f 24 31 32
f 31 30 34
f 31 34 32
f 32 34 35
f 27 30 31
f 40 37 41
f 37 36 41
f 43 44 36
f 44 45 36
f 43 11 44
f 41 36 45
f 41 45 42
f 45 46 42
f 45 48 46
f 42 46 47
f 45 44 48
f 37 40 50
f 37 50 19
f 40 41 51
f 41 42 51
f 40 51 52
f 51 42 53
f 54 26 50
f 40 54 50
f 54 40 52
f 26 55 28
f 54 55 26
f 51 53 56
f 52 51 57
f 47 46 53
f 47 53 42
f 53 59 58
f 46 49 53
f 46 48 49
f 59 60 58
f 53 49 59
f 49 60 59
f 53 58 56
f 56 58 61
f 62 63 58
f 58 60 62
f 62 60 64
f 61 58 63
f 61 63 65
f 62 64 63
f 63 64 66
f 2 38 39
f 2 39 17
f 17 67 2
f 38 37 39
f 38 43 36
f 36 37 38
f 2 1 38
f 19 17 39
f 37 19 39
f 18 17 19
f 67 3 2
f 67 21 22
f 4 67 22
f 67 4 3
f 17 21 67
f 43 38 1
f 7 43 1
f 8 43 7
f 8 11 43
f 25 19 26
f 19 50 26
f 63 66 69
f 4 68 6
f 6 68 71
f 6 71 70
f 70 71 72
f 6 73 5
f 6 70 73
f 74 70 72
f 73 70 74
f 74 75 76
f 72 75 74
f 72 77 75
f 77 78 75
f 5 80 15
f 80 83 15
f 80 81 83
f 81 82 83
f 15 83 84
f 5 73 80
f 73 81 80
f 73 74 81
f 83 82 85
f 83 85 86
f 82 87 85
f 74 76 81
f 81 76 82
f 76 88 82
f 75 78 76
f 76 78 88
f 78 79 88
f 88 79 89
f 79 90 89
f 82 88 87
f 88 89 87
f 85 87 91
f 89 93 92
f 89 90 93
f 79 94 90
f 90 94 95
f 68 23 96
f 71 68 96
f 96 97 71
f 23 24 96
f 98 96 24
f 96 98 99
f 97 96 100
f 96 99 100
f 100 99 101
f 100 101 102
f 32 104 103
f 32 103 98
f 24 32 98
f 103 99 98
f 32 35 104
f 104 105 103
f 35 106 104
f 104 106 105
f 99 107 101
f 99 105 107
f 99 103 105
f 101 108 109
f 107 110 101
f 101 110 108
f 105 111 107
f 107 111 110
f 108 110 112
f 110 114 112
f 115 108 116
f 108 112 116
f 116 112 117
f 68 4 22
f 22 23 68
f 71 97 118
f 71 118 72
f 97 100 118
f 118 77 72
f 119 77 118
f 118 102 119
f 77 120 78
f 77 119 120
f 118 100 102
f 102 101 109
f 78 126 79
f 78 120 126
f 120 125 126
f 119 125 120
f 119 124 125
f 125 127 126
f 125 128 127
f 102 109 119
f 109 129 119
f 119 129 124
f 124 129 130
f 109 132 131
f 109 131 129
f 129 131 130
f 125 124 128
f 130 128 124
f 130 135 128
f 130 131 133
f 130 133 135
f 128 135 134
f 126 136 79
f 79 137 94
f 79 136 137
f 126 127 138
f 126 138 136
f 136 139 137
f 138 139 136
f 138 140 139
f 94 137 95
f 137 143 95
f 137 142 143
f 137 139 142
f 143 142 144
f 128 134 127
f 127 145 138
f 127 134 145
f 140 138 145
f 140 145 146
f 134 135 147
f 134 147 148
f 134 146 145
f 134 148 146
f 139 140 142
f 140 146 149
f 140 149 142
f 146 150 149
f 109 115 132
f 131 132 133
f 108 115 109
f 115 152 132
f 132 153 133
f 133 154 135
f 133 155 154
f 135 156 147
f 154 156 135
f 133 157 155
f 133 153 157
f 154 155 156
f 155 158 156
f 115 159 152
f 116 159 115
f 152 159 153
f 152 153 132
f 116 117 159
f 159 160 153
f 157 153 161
f 158 157 162
f 155 157 158
f 157 161 163
f 157 163 162
f 147 164 148
f 148 165 146
f 146 165 150
f 148 166 165
f 148 164 166
f 158 162 164
f 167 162 168
f 164 162 167
f 156 158 147
f 147 158 164
f 166 167 165
f 164 167 166
f 169 167 168
f 150 170 149
f 149 170 151
f 171 151 170
f 150 171 170
f 165 167 172
f 150 165 172
f 167 122 172
f 167 169 122
f 150 172 121
f 122 121 172
f 150 121 171
f 171 121 173
f 162 174 168
f 175 168 174
f 168 175 169
f 175 123 169
f 174 162 176
f 162 163 176
f 174 177 175
f 174 176 177
f 175 177 178
f 122 169 123
f 122 179 180
f 122 180 121
f 122 123 179
f 175 178 123
f 179 123 181
f 179 182 180
f 179 181 182
f 8 12 11
f 8 9 12
f 9 13 12
f 12 13 183
f 12 185 184
f 12 183 185
f 185 183 187
f 14 16 188
f 188 16 190
f 16 189 191
f 16 191 190
f 190 191 192
f 13 14 188
f 13 188 183
f 183 188 193
f 183 193 186
f 188 190 193
f 193 190 194
f 193 195 186
f 183 186 187
f 186 195 187
f 187 195 196
f 193 194 197
f 193 197 195
f 195 197 198
f 195 199 196
f 195 198 199
f 44 200 201
f 11 200 44
f 200 184 202
f 201 200 202
f 44 203 48
f 44 201 203
f 48 203 49
f 202 204 201
f 203 201 205
f 201 204 205
f 202 206 207
f 202 207 204
f 204 207 208
f 204 209 205
f 204 208 209
f 49 203 210
f 49 211 60
f 49 210 211
f 203 212 210
f 203 205 212
f 210 212 211
f 205 213 212
f 60 211 66
f 60 66 64
f 211 214 66
f 211 212 214
f 214 212 215
f 205 209 213
f 213 209 216
f 208 217 216
f 208 216 209
f 217 218 216
f 212 219 215
f 212 213 219
f 215 219 220
f 213 216 219
f 219 216 221
f 216 218 222
f 216 223 221
f 216 222 223
f 11 12 200
f 200 12 184
f 202 184 206
f 184 185 206
f 207 206 224
f 185 187 206
f 206 225 224
f 187 225 206
f 224 226 227
f 225 226 224
f 207 224 227
f 207 227 208
f 227 217 208
f 227 230 217
f 227 229 230
f 226 231 227
f 227 231 232
f 226 228 231
f 227 232 229
f 187 196 225
f 225 196 226
f 196 233 226
f 196 234 233
f 226 233 235
f 226 235 228
f 233 236 235
f 233 237 236
f 196 199 234
f 199 238 234
f 233 234 237
f 234 239 237
f 234 238 239
f 238 240 239
f 217 230 241
f 230 242 241
f 217 241 243
f 218 217 243
f 218 243 222
f 228 245 231
f 232 246 247
f 229 232 247
f 229 247 230
f 247 246 248
f 232 231 246
f 246 231 249
f 246 250 248
f 246 249 250
f 236 237 251
f 237 239 251
f 251 239 252
f 228 253 245
f 228 235 253
f 245 253 254
f 235 255 253
f 235 236 255
f 253 255 256
f 245 249 231
f 249 245 254
f 254 256 257
f 253 256 254
f 236 251 255
f 251 252 255
f 257 256 259
f 257 259 261
f 256 255 259
f 255 258 259
f 259 258 261
f 230 247 242
f 242 263 241
f 242 262 263
f 247 262 242
f 247 248 262
f 248 250 264
f 264 250 265
f 248 264 262
f 262 266 263
f 262 264 266
f 264 265 267
f 264 267 266
f 263 266 241
f 241 266 268
f 222 243 244
f 243 268 244
f 241 268 243
f 267 269 266
f 266 269 268
f 268 271 270
f 268 269 271
f 269 272 271
f 250 249 265
f 249 273 265
f 249 254 273
f 254 257 260
f 254 260 273
f 265 274 267
f 274 265 275
f 265 273 275
f 275 277 274
f 273 260 276
f 260 278 276
f 257 278 260
f 257 261 278
f 278 261 279
f 273 276 275
f 275 276 277
f 277 276 280
f 276 278 280
f 267 274 281
f 267 281 269
f 274 277 281
f 277 282 281
f 269 281 272
f 281 282 272
f 277 280 282
f 280 278 284
f 280 284 285
f 282 280 286
f 282 286 283
f 280 285 286
f 16 15 189
f 15 287 189
f 15 84 287
f 83 86 84
f 287 84 189
f 191 189 192
f 190 192 194
f 189 84 288
f 189 288 192
f 85 91 86
f 91 289 86
f 84 86 288
f 87 290 91
f 87 89 290
f 89 92 290
f 91 290 289
f 290 291 289
f 291 290 92
f 86 289 288
f 292 289 293
f 288 289 292
f 289 291 296
f 289 296 293
f 296 295 297
f 291 295 296
f 291 92 294
f 92 298 294
f 291 294 295
f 295 294 299
f 295 299 300
f 194 192 301
f 194 301 197
f 192 288 301
f 301 302 197
f 301 303 302
f 197 302 198
f 302 304 198
f 302 303 304
f 303 305 304
f 288 306 301
f 288 292 306
f 292 293 307
f 301 306 303
f 306 292 308
f 306 309 303
f 309 310 303
f 306 308 309
f 308 292 307
f 308 311 309
f 308 307 311
f 309 311 312
f 307 293 313
f 293 296 313
f 313 296 314
f 296 297 314
f 295 315 297
f 295 300 315
f 313 316 307
f 311 307 316
f 313 314 316
f 316 317 311
f 310 309 318
f 310 319 303
f 310 318 319
f 309 312 318
f 90 95 93
f 95 321 93
f 92 93 298
f 93 321 298
f 294 298 299
f 198 322 199
f 238 199 240
f 199 322 240
f 198 323 322
f 304 323 198
f 304 305 323
f 305 324 323
f 314 297 325
f 297 315 325
f 315 326 325
f 317 316 325
f 325 327 317
f 314 325 316
f 325 326 328
f 325 328 329
f 303 319 305
f 312 320 318
f 318 320 330
f 320 331 330
f 319 318 305
f 305 318 332
f 305 332 324
f 318 330 332
f 323 324 333
f 332 330 334
f 324 332 335
f 333 324 336
f 324 335 336
f 334 335 332
f 312 311 320
f 317 320 311
f 317 327 320
f 320 327 331
f 327 325 337
f 331 327 337
f 337 338 331
f 337 325 329
f 339 329 340
f 328 340 329
f 337 329 338
f 330 331 334
f 334 331 338
f 338 339 341
f 338 329 339
f 339 340 342
f 334 338 341
f 335 334 343
f 334 341 343
f 341 339 342
f 341 342 345
f 341 345 343
f 343 345 346
f 95 141 321
f 141 95 350
f 141 350 321
f 95 143 350
f 143 144 351
f 350 143 352
f 143 351 352
f 321 353 298
f 298 353 354
f 321 350 353
f 300 299 315
f 299 298 354
f 299 354 326
f 352 355 350
f 353 350 354
f 144 142 356
f 351 144 357
f 351 357 352
f 142 149 151
f 142 151 356
f 356 151 358
f 356 358 144
f 352 357 359
f 352 359 355
f 350 360 354
f 354 360 361
f 350 355 360
f 357 144 359
f 144 358 359
f 359 362 355
f 315 299 326
f 354 363 326
f 326 363 328
f 363 340 328
f 354 361 363
f 361 364 363
f 360 365 361
f 360 355 362
f 360 362 365
f 361 365 364
f 363 364 340
f 364 342 340
f 364 348 342
f 342 348 345
f 151 171 366
f 358 151 367
f 151 366 367
f 171 368 366
f 171 173 368
f 369 366 368
f 366 370 367
f 366 369 370
f 358 367 359
f 359 371 362
f 359 372 371
f 359 367 372
f 121 180 173
f 180 347 173
f 368 374 369
f 368 173 374
f 369 375 370
f 369 374 375
f 173 347 374
f 180 182 347
f 347 182 376
f 374 347 377
f 374 377 375
f 370 373 367
f 375 378 370
f 370 378 373
f 367 373 379
f 367 379 372
f 373 378 379
f 378 375 380
f 379 378 381
f 378 380 381
f 362 371 365
f 365 383 382
f 365 371 383
f 365 348 364
f 365 382 348
f 382 384 348
f 345 348 349
f 348 384 349
f 382 383 384
f 372 386 371
f 379 381 385
f 379 385 372
f 385 381 387
f 372 385 386
f 385 388 386
f 385 387 388
f 383 386 384
f 371 386 383
f 349 384 389
f 386 389 384
f 386 388 390
f 389 390 391
f 386 390 389
f 239 240 252
f 240 393 252
f 252 393 392
f 240 322 393
f 322 323 394
f 322 394 393
f 323 395 394
f 252 396 255
f 255 396 258
f 396 252 392
f 258 396 397
f 392 398 396
f 392 393 399
f 393 394 399
f 392 399 398
f 399 401 400
f 399 400 398
f 323 333 395
f 395 333 394
f 394 333 402
f 394 402 399
f 333 336 344
f 336 335 344
f 333 344 402
f 402 344 403
f 403 344 404
f 399 402 401
f 402 403 401
f 335 343 344
f 344 343 346
f 258 397 261
f 279 261 405
f 397 405 261
f 397 406 405
f 397 396 406
f 278 279 405
f 396 398 407
f 396 407 406
f 398 400 407
f 407 409 406
f 407 408 409
f 278 410 284
f 278 405 410
f 405 411 410
f 285 284 412
f 284 410 412
f 405 406 411
f 406 409 411
f 409 414 411
f 410 411 412
f 411 415 412
f 411 417 415
f 416 417 411
f 411 414 416
f 403 404 418
f 403 418 401
f 401 418 400
f 407 400 408
f 408 400 419
f 418 420 400
f 400 420 419
f 419 420 421
f 404 344 346
f 404 346 420
f 346 345 420
f 418 404 420
f 420 422 421
f 345 349 420
f 349 422 420
f 408 419 423
f 408 423 409
f 409 423 414
f 423 419 414
f 419 425 414
f 419 424 425
f 421 422 426
f 349 426 422
f 426 349 427
f 421 426 424
f 424 426 427
f 419 421 424
f 389 427 349
f 389 391 427
f 28 429 29
f 28 55 429
f 55 430 429
f 29 429 431
f 29 431 30
f 30 431 33
f 430 432 429
f 430 433 432
f 429 432 431
f 431 432 434
f 30 33 34
f 33 436 34
f 34 436 438
f 34 438 35
f 33 437 436
f 436 437 438
f 33 431 434
f 33 434 437
f 437 434 439
f 432 433 440
f 432 435 434
f 434 435 439
f 432 440 435
f 440 441 435
f 435 441 439
f 439 441 442
f 54 444 55
f 52 445 54
f 54 445 444
f 445 52 446
f 57 447 52
f 52 447 446
f 51 56 57
f 447 448 446
f 444 449 55
f 445 450 444
f 449 444 450
f 448 447 453
f 445 446 448
f 445 452 450
f 445 454 452
f 445 448 454
f 56 61 455
f 56 455 57
f 61 65 455
f 447 57 455
f 447 455 453
f 63 69 65
f 69 457 65
f 448 453 458
f 448 458 454
f 455 65 459
f 455 459 456
f 65 457 459
f 455 456 453
f 456 460 453
f 449 461 451
f 449 450 461
f 450 452 462
f 450 462 461
f 461 462 463
f 458 464 454
f 454 465 452
f 452 465 462
f 454 464 465
f 453 460 458
f 458 460 464
f 460 466 464
f 465 467 462
f 462 467 463
f 463 467 469
f 467 468 470
f 469 467 470
f 465 464 471
f 465 471 467
f 467 471 468
f 471 473 468
f 471 472 473
f 473 474 468
f 55 449 430
f 449 451 430
f 430 451 433
f 433 451 475
f 433 475 440
f 461 476 451
f 475 451 476
f 475 478 440
f 475 477 478
f 475 476 477
f 463 476 461
f 463 469 476
f 476 469 481
f 441 440 478
f 478 477 482
f 441 478 443
f 478 482 443
f 482 484 443
f 484 485 443
f 482 483 484
f 470 486 469
f 476 481 487
f 477 476 479
f 477 479 480
f 479 488 480
f 476 487 479
f 479 487 490
f 479 490 488
f 488 491 492
f 488 490 491
f 477 480 482
f 482 480 493
f 482 493 483
f 484 494 485
f 483 494 484
f 483 495 494
f 480 496 493
f 480 488 489
f 480 489 496
f 489 488 492
f 496 497 493
f 489 492 496
f 491 498 492
f 496 492 497
f 492 499 497
f 492 498 499
f 483 493 500
f 483 501 495
f 483 500 501
f 497 503 500
f 493 497 500
f 497 504 503
f 497 499 504
f 500 503 502
f 469 486 505
f 469 505 481
f 481 506 487
f 506 481 507
f 505 507 481
f 486 507 505
f 487 508 490
f 490 509 491
f 490 508 509
f 487 506 508
f 506 510 508
f 508 511 509
f 508 510 511
f 470 513 486
f 470 468 513
f 486 513 507
f 468 514 513
f 468 474 514
f 474 515 514
f 513 514 516
f 507 513 518
f 513 516 518
f 506 507 510
f 507 519 510
f 510 512 511
f 507 518 519
f 512 510 520
f 510 519 520
f 519 518 521
f 491 522 498
f 491 509 522
f 499 498 504
f 498 523 504
f 509 511 522
f 522 520 523
f 511 520 522
f 498 522 523
f 504 524 503
f 502 503 525
f 503 524 525
f 511 512 520
f 520 526 523
f 519 527 520
f 523 526 528
f 504 523 524
f 523 528 524
f 528 529 524
f 520 527 531
f 526 530 528
f 528 530 529
f 529 532 533
f 526 520 530
f 520 534 530
f 530 532 529
f 532 535 533
f 35 438 536
f 35 536 106
f 106 536 537
f 438 538 536
f 438 437 538
f 536 538 537
f 538 539 537
f 105 106 111
f 111 106 113
f 106 537 540
f 106 540 113
f 111 113 110
f 110 113 114
f 114 113 542
f 537 544 540
f 537 539 544
f 544 545 540
f 113 540 545
f 114 542 543
f 113 545 542
f 545 546 542
f 439 442 437
f 437 442 538
f 538 442 547
f 547 539 538
f 547 442 548
f 547 548 539
f 548 549 539
f 441 443 442
f 442 550 548
f 539 549 544
f 544 549 551
f 544 551 552
f 549 553 551
f 544 552 545
f 545 552 554
f 545 554 546
f 114 541 112
f 112 541 117
f 114 543 541
f 443 485 556
f 443 556 550
f 442 443 550
f 548 550 549
f 550 557 549
f 550 559 557
f 559 560 557
f 550 561 559
f 556 558 561
f 556 561 550
f 559 561 560
f 554 562 546
f 554 552 563
f 552 551 563
f 554 563 562
f 563 564 562
f 563 565 564
f 562 564 566
f 549 557 555
f 549 555 553
f 553 555 567
f 551 553 567
f 555 568 567
f 557 568 555
f 567 569 570
f 567 568 569
f 557 560 571
f 568 557 571
f 560 572 571
f 568 571 569
f 551 567 563
f 563 567 565
f 567 570 565
f 565 570 573
f 564 565 566
f 570 575 573
f 565 573 574
f 570 576 575
f 573 577 574
f 570 569 576
f 573 575 577
f 575 578 577
f 576 579 575
f 575 580 578
f 579 581 575
f 575 581 580
f 117 160 159
f 117 582 160
f 117 541 582
f 541 543 582
f 153 583 161
f 153 160 583
f 161 584 163
f 161 583 584
f 160 585 583
f 584 583 586
f 583 587 586
f 582 589 588
f 543 589 582
f 542 589 543
f 582 590 160
f 588 589 590
f 588 590 582
f 542 546 592
f 542 591 589
f 542 592 591
f 589 593 590
f 160 590 585
f 585 590 594
f 583 585 595
f 583 595 587
f 590 593 596
f 585 594 595
f 595 594 597
f 597 594 598
f 163 584 599
f 176 599 177
f 163 599 176
f 584 586 599
f 599 586 600
f 123 178 601
f 123 601 181
f 601 178 602
f 177 602 178
f 181 603 182
f 181 601 603
f 177 599 602
f 602 604 601
f 601 604 603
f 602 600 604
f 587 595 605
f 586 606 600
f 586 587 607
f 595 597 605
f 587 605 607
f 605 597 607
f 599 600 602
f 586 607 606
f 600 608 604
f 600 606 608
f 608 606 609
f 546 562 592
f 592 610 591
f 592 562 610
f 562 611 610
f 610 612 591
f 589 591 593
f 591 612 593
f 610 611 612
f 611 613 612
f 562 566 611
f 611 614 613
f 566 614 611
f 596 615 590
f 612 613 593
f 596 593 615
f 590 615 594
f 594 615 616
f 594 616 598
f 613 617 618
f 613 614 617
f 613 618 593
f 593 618 615
f 618 619 615
f 615 619 616
f 565 574 566
f 566 574 614
f 614 574 577
f 577 617 614
f 617 577 619
f 618 617 619
f 578 620 577
f 577 620 619
f 619 620 621
f 620 578 580
f 597 598 624
f 597 624 607
f 598 625 624
f 616 625 598
f 607 626 627
f 607 624 626
f 606 607 628
f 606 628 609
f 607 627 628
f 626 624 627
f 625 629 624
f 627 624 631
f 627 630 628
f 627 631 630
f 619 621 616
f 616 621 632
f 625 616 633
f 632 633 616
f 633 629 625
f 621 620 622
f 620 623 622
f 620 580 623
f 581 623 580
f 622 623 634
f 621 622 632
f 632 622 634
f 634 623 635
f 633 634 636
f 632 634 633
f 637 629 633
f 624 629 631
f 629 637 631
f 631 637 638
f 639 640 636
f 633 640 637
f 636 640 633
f 639 637 640
f 485 494 641
f 494 495 642
f 494 642 641
f 485 641 556
f 556 641 558
f 641 643 558
f 643 561 558
f 561 644 560
f 642 645 641
f 642 495 645
f 495 501 646
f 495 646 645
f 500 502 501
f 502 646 501
f 646 647 645
f 641 648 643
f 641 645 648
f 643 649 561
f 643 648 649
f 645 647 648
f 647 650 648
f 649 648 651
f 561 649 644
f 649 653 652
f 644 649 652
f 644 652 572
f 560 644 572
f 572 576 571
f 572 652 655
f 652 654 655
f 649 651 653
f 652 653 654
f 569 571 576
f 576 655 579
f 655 581 579
f 572 655 576
f 655 656 581
f 502 525 646
f 646 657 647
f 647 657 658
f 647 658 650
f 648 650 651
f 524 661 525
f 525 657 646
f 525 661 657
f 524 662 661
f 657 661 663
f 661 662 663
f 657 663 658
f 658 663 650
f 650 663 660
f 524 529 662
f 529 533 662
f 662 665 664
f 535 666 533
f 662 533 665
f 662 667 663
f 662 664 667
f 663 667 660
f 664 665 667
f 665 668 667
f 651 650 659
f 651 659 671
f 651 671 670
f 651 672 653
f 651 670 672
f 653 672 654
f 670 671 672
f 672 671 673
f 650 660 674
f 650 674 659
f 659 674 671
f 671 674 675
f 655 654 656
f 581 677 623
f 656 676 581
f 677 581 676
f 677 676 635
f 676 678 635
f 676 673 678
f 654 676 656
f 654 672 676
f 672 673 676
f 671 675 673
f 673 675 679
f 660 680 674
f 675 674 680
f 660 681 680
f 682 680 681
f 673 679 678
f 680 682 675
f 675 682 679
f 679 682 683
f 667 669 660
f 681 660 669
f 677 635 623
f 634 635 636
f 678 636 635
f 678 639 636
f 678 679 639
f 69 66 684
f 457 69 684
f 457 684 459
f 214 684 66
f 685 684 214
f 214 215 685
f 685 215 220
f 684 456 459
f 684 685 456
f 456 685 460
f 685 220 686
f 685 686 460
f 460 686 466
f 686 687 466
f 220 219 686
f 221 689 219
f 221 688 689
f 221 223 688
f 686 219 689
f 686 689 687
f 223 690 691
f 223 691 688
f 689 688 693
f 688 695 694
f 688 691 695
f 693 688 694
f 689 693 692
f 464 466 696
f 466 687 697
f 466 697 696
f 697 698 696
f 697 699 698
f 471 696 700
f 464 696 471
f 701 702 696
f 471 700 472
f 700 473 472
f 700 696 702
f 700 702 473
f 473 702 703
f 696 698 704
f 696 704 701
f 701 705 702
f 705 704 706
f 701 704 705
f 698 699 707
f 704 698 707
f 704 707 706
f 707 709 708
f 705 710 702
f 707 708 706
f 697 687 712
f 687 711 712
f 687 689 692
f 711 687 713
f 687 692 713
f 697 712 699
f 712 711 714
f 712 715 699
f 712 716 715
f 712 714 716
f 711 713 714
f 714 713 718
f 693 713 692
f 713 693 717
f 715 709 699
f 709 715 719
f 699 709 707
f 222 244 223
f 223 720 690
f 223 244 720
f 244 721 720
f 690 720 691
f 691 720 722
f 720 723 722
f 691 722 695
f 722 723 724
f 702 725 703
f 702 710 725
f 725 710 726
f 705 706 710
f 726 710 727
f 706 708 710
f 708 728 710
f 710 728 727
f 716 714 729
f 714 718 729
f 695 730 694
f 717 693 730
f 693 694 730
f 695 724 730
f 695 722 724
f 730 724 731
f 724 732 731
f 718 713 717
f 717 730 718
f 730 733 718
f 729 718 733
f 733 730 731
f 733 731 734
f 731 735 734
f 731 736 735
f 723 737 724
f 724 737 732
f 737 738 732
f 731 732 736
f 732 739 736
f 732 738 739
f 709 719 741
f 716 729 719
f 715 716 719
f 729 733 741
f 729 741 719
f 733 742 741
f 741 742 743
f 709 744 708
f 709 741 744
f 744 741 745
f 708 744 728
f 744 745 728
f 728 745 747
f 728 747 746
f 745 741 743
f 745 743 747
f 746 747 749
f 748 747 743
f 747 750 749
f 748 750 747
f 733 734 742
f 734 743 742
f 734 736 752
f 743 752 748
f 743 734 752
f 752 736 753
f 752 753 748
f 734 735 736
f 738 754 739
f 738 740 754
f 753 736 739
f 739 754 753
f 753 750 748
f 753 754 750
f 754 756 750
f 749 750 756
f 740 755 754
f 755 759 758
f 754 757 756
f 751 749 761
f 749 757 761
f 749 756 757
f 761 757 762
f 761 762 763
f 763 762 758
f 755 757 754
f 755 758 757
f 762 757 758
f 760 765 758
f 765 764 758
f 764 765 760
f 760 766 768
f 767 760 768
f 760 767 764
f 244 268 721
f 268 270 721
f 720 721 769
f 271 272 270
f 270 771 721
f 721 771 770
f 771 270 772
f 270 773 774
f 720 769 723
f 769 776 723
f 769 775 776
f 721 770 769
f 770 771 772
f 769 770 775
f 770 772 775
f 772 270 774
f 775 777 776
f 775 778 777
f 775 772 778
f 772 779 778
f 772 774 779
f 272 282 780
f 270 272 781
f 272 782 781
f 270 781 773
f 781 782 783
f 272 780 782
f 282 283 780
f 780 283 785
f 780 785 787
f 283 286 785
f 286 786 785
f 785 786 787
f 774 773 788
f 773 789 788
f 781 789 773
f 781 783 789
f 780 784 782
f 789 783 782
f 774 788 779
f 779 788 790
f 788 789 791
f 789 782 792
f 784 792 782
f 784 793 792
f 792 793 794
f 793 795 794
f 795 796 794
f 780 793 784
f 780 787 793
f 776 737 723
f 776 777 737
f 777 778 797
f 737 777 738
f 777 797 738
f 778 779 797
f 788 791 790
f 789 792 791
f 779 790 797
f 738 797 798
f 738 798 740
f 797 759 798
f 799 790 791
f 790 759 797
f 790 799 759
f 791 792 800
f 792 794 800
f 800 794 796
f 800 766 799
f 800 796 766
f 766 796 801
f 799 791 800
f 798 755 740
f 798 759 755
f 759 799 758
f 758 799 760
f 799 766 760
f 474 473 515
f 516 514 517
f 514 803 517
f 514 515 803
f 515 802 803
f 473 703 515
f 703 725 515
f 803 802 804
f 516 517 518
f 803 805 517
f 517 805 518
f 519 521 527
f 521 806 527
f 518 805 807
f 803 804 805
f 518 807 521
f 807 808 521
f 725 726 809
f 515 809 802
f 725 809 515
f 726 727 809
f 727 728 811
f 802 809 810
f 804 802 812
f 802 810 812
f 809 727 813
f 810 814 812
f 810 809 814
f 804 812 805
f 805 808 807
f 812 816 805
f 805 816 808
f 812 815 816
f 812 814 815
f 816 815 818
f 521 808 806
f 808 821 806
f 806 821 527
f 808 817 821
f 527 821 820
f 816 817 808
f 816 818 817
f 817 822 823
f 817 823 821
f 823 824 821
f 821 826 820
f 824 826 821
f 820 826 825
f 825 826 827
f 826 829 827
f 828 829 826
f 527 819 531
f 531 819 534
f 819 820 534
f 527 820 819
f 520 531 534
f 530 534 532
f 534 820 827
f 534 827 830
f 534 830 532
f 532 830 831
f 820 825 827
f 830 827 831
f 728 746 811
f 727 811 813
f 811 746 813
f 809 813 814
f 814 813 815
f 746 749 813
f 813 751 815
f 813 749 751
f 818 833 832
f 818 815 833
f 815 751 833
f 761 833 751
f 817 818 822
f 818 832 822
f 823 834 824
f 822 832 834
f 822 834 823
f 832 835 836
f 832 836 834
f 836 837 834
f 837 836 838
f 838 836 840
f 839 840 836
f 834 837 824
f 824 837 828
f 828 837 838
f 826 824 828
f 828 838 840
f 833 761 832
f 763 832 761
f 832 763 835
f 758 835 763
f 758 764 835
f 835 841 836
f 835 764 841
f 841 764 839
f 764 767 839
f 836 841 839
f 842 844 843
f 768 846 767
f 801 847 846
f 839 767 848
f 767 846 848
f 850 852 851
f 847 848 846
f 848 847 850
f 850 847 853
f 854 848 850
f 853 849 850
f 843 845 855
f 855 856 843
f 857 855 845
f 858 859 860
f 863 862 861
f 864 863 861
f 857 864 855
f 858 864 857
f 856 855 864
f 864 861 856
f 860 863 864
f 860 865 863
f 860 864 858
f 869 870 871
f 874 872 873
f 872 874 867
f 872 866 871
f 867 866 872
f 872 871 870
f 850 849 875
f 877 878 879
f 877 879 876
f 876 879 875
f 882 884 881
f 881 880 882
f 882 880 883
f 875 851 852
f 851 875 883
f 875 879 883
f 852 850 875
f 883 880 851
f 883 879 878
f 878 865 885
f 886 866 859
f 859 858 886
f 866 887 859
f 866 867 887
f 865 859 887
f 887 885 865
f 862 863 877
f 863 878 877
f 865 878 863
f 860 859 865
f 873 885 874
f 873 882 885
f 882 878 885
f 883 878 882
f 884 882 873
f 887 867 874
f 874 885 887
f 182 603 376
f 347 376 888
f 347 888 377
f 603 604 608
f 603 608 889
f 376 603 888
f 603 889 888
f 888 889 890
f 890 889 892
f 890 892 891
f 377 888 893
f 375 893 380
f 375 377 893
f 893 894 380
f 380 894 381
f 888 890 893
f 890 891 893
f 893 891 894
f 891 895 896
f 894 896 381
f 894 891 896
f 608 897 889
f 889 897 892
f 608 898 897
f 897 898 892
f 892 898 899
f 898 900 899
f 608 628 898
f 608 609 628
f 898 628 900
f 892 899 891
f 891 899 895
f 901 895 903
f 895 902 896
f 895 901 902
f 900 904 899
f 899 903 895
f 899 904 903
f 904 905 903
f 901 903 902
f 903 906 902
f 903 905 906
f 896 907 381
f 381 907 387
f 387 908 388
f 387 907 908
f 390 388 909
f 390 427 391
f 909 427 390
f 388 908 909
f 427 909 910
f 896 902 907
f 902 911 907
f 907 911 912
f 907 912 908
f 902 906 911
f 908 913 909
f 908 914 913
f 912 914 908
f 909 913 910
f 915 910 844
f 913 844 910
f 914 845 916
f 916 913 914
f 916 844 913
f 916 843 844
f 916 845 843
f 628 904 900
f 628 630 904
f 904 630 917
f 630 631 917
f 904 917 905
f 905 919 906
f 917 920 905
f 920 917 918
f 905 920 919
f 919 920 922
f 921 922 920
f 631 638 917
f 917 923 918
f 917 638 923
f 639 638 637
f 639 924 638
f 926 925 924
f 638 924 923
f 923 924 925
f 923 925 918
f 925 921 918
f 920 918 921
f 921 927 922
f 926 929 925
f 929 928 925
f 930 921 928
f 930 927 921
f 931 928 929
f 931 930 928
f 868 869 930
f 921 925 928
f 922 932 906
f 911 906 932
f 922 906 919
f 934 932 922
f 935 934 922
f 933 934 936
f 886 936 934
f 933 932 934
f 912 932 936
f 914 912 936
f 914 936 845
f 936 932 933
f 936 857 845
f 911 932 912
f 936 858 857
f 936 886 858
f 927 871 935
f 922 927 935
f 934 866 886
f 934 935 866
f 866 935 871
f 930 869 871
f 927 930 871
f 285 937 286
f 285 412 937
f 937 412 413
f 286 937 786
f 786 937 938
f 937 939 938
f 938 939 940
f 412 415 413
f 417 416 941
f 939 415 941
f 417 941 415
f 413 939 937
f 413 415 939
f 941 416 942
f 793 787 795
f 943 795 944
f 940 945 795
f 795 945 944
f 944 945 942
f 946 944 942
f 787 786 938
f 938 795 787
f 940 795 938
f 940 939 941
f 940 941 945
f 941 942 945
f 416 414 947
f 414 425 947
f 947 425 949
f 424 427 428
f 425 424 949
f 428 949 424
f 949 428 950
f 428 427 952
f 427 953 952
f 428 952 950
f 952 953 915
f 950 952 951
f 416 947 942
f 942 947 948
f 948 947 949
f 948 949 954
f 951 954 949
f 954 955 948
f 948 946 942
f 948 955 946
f 954 958 957
f 954 951 958
f 955 954 957
f 946 955 957
f 952 958 951
f 952 961 958
f 952 915 842
f 949 950 951
f 957 958 960
f 958 961 960
f 844 842 915
f 842 961 952
f 796 795 962
f 962 795 943
f 962 963 801
f 801 796 962
f 943 944 964
f 956 944 946
f 944 956 964
f 964 956 965
f 963 964 966
f 964 965 966
f 966 965 967
f 963 962 964
f 943 964 962
f 768 801 846
f 768 766 801
f 963 847 801
f 847 963 853
f 963 966 853
f 966 849 853
f 957 960 959
f 969 968 959
f 956 946 965
f 957 965 946
f 957 968 965
f 957 959 968
f 965 968 967
f 876 967 862
f 968 862 967
f 862 968 969
f 876 862 877
f 970 967 876
f 960 856 861
f 960 961 856
f 960 861 969
f 959 960 969
f 856 961 842
f 843 856 842
f 861 862 969
f 966 967 849
f 967 970 849
f 875 970 876
f 875 849 970
f 910 953 427
f 910 915 953
f 976 975 974
f 972 971 975
f 977 974 975
f 535 532 666
f 532 978 666
f 666 978 533
f 532 831 978
f 978 976 979
f 978 831 976
f 665 980 668
f 533 978 665
f 665 978 980
f 667 668 669
f 978 979 980
f 979 976 980
f 980 974 668
f 976 974 980
f 831 827 976
f 827 971 976
f 976 971 972
f 972 975 976
f 682 681 981
f 668 982 681
f 681 984 981
f 681 982 984
f 985 683 986
f 682 981 683
f 683 981 987
f 974 988 983
f 983 988 982
f 974 977 988
f 977 989 988
f 988 990 982
f 985 986 931
f 986 868 931
f 868 987 990
f 986 987 868
f 868 990 870
f 987 984 990
f 987 981 984
f 987 986 683
f 982 990 984
f 669 668 681
f 983 982 668
f 668 974 983
f 840 839 992
f 828 994 829
f 827 829 971
f 971 829 973
f 829 994 995
f 829 995 973
f 828 840 994
f 840 992 994
f 994 992 995
f 992 993 995
f 995 993 996
f 997 996 998
f 973 1000 975
f 971 973 975
f 977 975 1000
f 995 996 973
f 973 996 1000
f 1000 996 997
f 839 848 854
f 839 854 992
f 993 854 996
f 992 854 993
f 996 854 998
f 998 850 999
f 850 998 854
f 850 851 999
f 989 1001 991
f 997 998 1000
f 989 1000 1001
f 998 1001 1000
f 999 1001 998
f 881 884 1001
f 1001 1002 991
f 1000 989 977
f 988 989 990
f 991 990 989
f 1002 870 991
f 870 990 991
f 868 870 869
f 1002 1001 872
f 872 870 1002
f 872 884 873
f 872 1001 884
f 880 881 999
f 880 999 851
f 881 1001 999
f 679 683 639
f 639 683 924
f 924 985 926
f 683 985 924
f 926 985 929
f 985 931 929
f 868 930 931
